<svg xmlns="http://www.w3.org/2000/svg" width="1232.13" height="241.02" viewBox="0 0 1232.13 241.02"><defs><style>.cls-1{fill:#edebeb;}.cls-2{fill:#5c5e63;}.cls-3{fill:#5fcd30;}</style></defs><title>banner-porcentaje-desaparicion-negocios1</title><g id="Capa_2" data-name="Capa 2"><g id="Capa_1-2" data-name="Capa 1"><path class="cls-1" d="M222,56.91a2.84,2.84,0,0,0-3.15,2.67h6.27A2.93,2.93,0,0,0,222,56.91Z"/><path class="cls-1" d="M744,202.55a2.84,2.84,0,0,0-3.15,2.67h6.27A2.93,2.93,0,0,0,744,202.55Z"/><path class="cls-1" d="M776.94,121.22c-5.78,0-9,3.41-9.28,7.86h18.47C785.37,124,781.87,121.22,776.94,121.22Z"/><path class="cls-1" d="M682.81,121.22c-5.78,0-9,3.41-9.28,7.86H692C691.24,124,687.74,121.22,682.81,121.22Z"/><path class="cls-1" d="M825.43,203.7a3.71,3.71,0,0,0-3.83,3.86,3.85,3.85,0,1,0,7.69,0A3.68,3.68,0,0,0,825.43,203.7Z"/><path class="cls-1" d="M159,56.91a2.84,2.84,0,0,0-3.15,2.67h6.27A2.93,2.93,0,0,0,159,56.91Z"/><path class="cls-1" d="M367.37,50.84a2.81,2.81,0,0,0,2.89-2.92,2.88,2.88,0,0,0-2.89-3,2.92,2.92,0,0,0-3,3A2.81,2.81,0,0,0,367.37,50.84Z"/><path class="cls-1" d="M582.43,124.63a11.13,11.13,0,0,0-11.37,11.46c0,6.63,4.55,11.37,11.37,11.37a10.93,10.93,0,0,0,11.27-11.37A11.11,11.11,0,0,0,582.43,124.63Z"/><path class="cls-1" d="M524.47,124.63A10.92,10.92,0,0,0,513.2,136a11.32,11.32,0,1,0,22.63,0C535.83,129.37,531.29,124.63,524.47,124.63Z"/><path class="cls-1" d="M462.54,124.63a11.13,11.13,0,0,0-11.37,11.46c0,6.63,4.55,11.37,11.37,11.37a10.93,10.93,0,0,0,11.27-11.37A11.11,11.11,0,0,0,462.54,124.63Z"/><path class="cls-1" d="M380.27,62.75a2.92,2.92,0,0,0,3,3,2.89,2.89,0,0,0,2.89-3,2.93,2.93,0,1,0-5.85,0Z"/><path class="cls-1" d="M366.32,121.22c-5.78,0-9,3.41-9.28,7.86h18.47C374.75,124,371.25,121.22,366.32,121.22Z"/><path class="cls-1" d="M308.37,124.63A11.13,11.13,0,0,0,297,136.09c0,6.63,4.55,11.37,11.37,11.37a10.93,10.93,0,0,0,11.27-11.37A11.11,11.11,0,0,0,308.37,124.63Z"/><path class="cls-1" d="M693.61,203.7a3.78,3.78,0,0,0-3.86,3.9,3.84,3.84,0,1,0,7.68,0A3.77,3.77,0,0,0,693.61,203.7Z"/><path class="cls-1" d="M639.35,203.7a3.78,3.78,0,0,0-3.86,3.9,3.84,3.84,0,1,0,7.68,0A3.77,3.77,0,0,0,639.35,203.7Z"/><path class="cls-1" d="M246.92,56.91a2.84,2.84,0,0,0-3.15,2.67H250A2.93,2.93,0,0,0,246.92,56.91Z"/><path class="cls-1" d="M535.87,50.84a2.81,2.81,0,0,0,2.89-2.92,2.88,2.88,0,0,0-2.89-3,2.92,2.92,0,0,0-3,3A2.81,2.81,0,0,0,535.87,50.84Z"/><path class="cls-1" d="M579.29,60.75a3.71,3.71,0,0,0,3.83-3.86,3.85,3.85,0,1,0-7.69,0A3.69,3.69,0,0,0,579.29,60.75Z"/><path class="cls-1" d="M632.58,60.75a3.71,3.71,0,0,0,3.83-3.86,3.85,3.85,0,1,0-7.69,0A3.68,3.68,0,0,0,632.58,60.75Z"/><path class="cls-1" d="M929.9,203.7a3.78,3.78,0,0,0-3.86,3.9,3.84,3.84,0,1,0,7.68,0A3.77,3.77,0,0,0,929.9,203.7Z"/><path class="cls-1" d="M692.64,51.84a2.85,2.85,0,0,0-3.16,2.67h6.28A2.93,2.93,0,0,0,692.64,51.84Z"/><path class="cls-1" d="M599,51.84a2.85,2.85,0,0,0-3.16,2.67h6.28A2.93,2.93,0,0,0,599,51.84Z"/><path class="cls-1" d="M970.94,203.7a3.78,3.78,0,0,0-3.86,3.9,3.84,3.84,0,1,0,7.68,0A3.77,3.77,0,0,0,970.94,203.7Z"/><path class="cls-1" d="M773.44,60.75a3.71,3.71,0,0,0,3.83-3.86,3.85,3.85,0,1,0-7.69,0A3.69,3.69,0,0,0,773.44,60.75Z"/><path class="cls-1" d="M1011,203.7a3.78,3.78,0,0,0-3.86,3.9,3.84,3.84,0,1,0,7.68,0A3.77,3.77,0,0,0,1011,203.7Z"/><path class="cls-1" d="M711.1,60.75a3.71,3.71,0,0,0,3.83-3.86,3.85,3.85,0,1,0-7.69,0A3.69,3.69,0,0,0,711.1,60.75Z"/><path class="cls-1" d="M0,0V241H1232.13V0ZM988.21,190.52a11.91,11.91,0,0,1,3.34.86A6.71,6.71,0,0,0,994,192c1,0,1.45-1.48,1.45-1.48h3.25s-.84,5.53-4.38,5.53a11.8,11.8,0,0,1-3.34-.87,6.8,6.8,0,0,0-2.45-.61c-1,0-1.45,1.48-1.45,1.48h-3.25S984.67,190.52,988.21,190.52ZM791.56,48.14a12.58,12.58,0,0,1,5.53,1.29l-1.86,3.73a9.36,9.36,0,0,0-3.67-1c-1.26,0-1.77.22-1.77,1s1.16,1.12,2.57,1.57c2.19.68,5,1.9,5,5.28,0,4.86-4.44,5.63-7.82,5.63a9.87,9.87,0,0,1-6.37-2.22l2.32-3.89s2.25,1.9,4.08,1.9c.81,0,1.77-.1,1.77-1.19s-1.8-1.29-3.66-2.26c-1.68-.87-3.35-2-3.35-4.5C784.35,50.07,787.21,48.14,791.56,48.14Zm-18.09,0c5.47,0,9.85,3.6,9.85,8.75s-4.15,8.72-9.85,8.72c-6,0-9.94-3.63-9.94-8.72S767.91,48.14,773.47,48.14Zm-13.93-9.72a3.38,3.38,0,1,1-3.38,3.38A3.38,3.38,0,0,1,759.54,38.42Zm2.77,10.2V65.13h-5.7V48.62Zm-30.8-.48c5.11,0,9.27,3.14,9.79,7.75a9.21,9.21,0,0,1,9.07-7.75,9.06,9.06,0,0,1,5.53,1.54L754,53.58a5,5,0,0,0-2.76-.78,4.08,4.08,0,0,0,0,8.15,5,5,0,0,0,2.76-.78l1.93,4a9.3,9.3,0,0,1-5.53,1.48,9.18,9.18,0,0,1-9.07-7.69c-.52,4.54-4.48,7.69-9.79,7.69-6,0-9.94-3.63-9.94-8.72S726,48.14,731.51,48.14Zm-39,0c4.68,0,8.31,2.56,8.8,7.58a8.18,8.18,0,0,1,8.13-7.58,7.59,7.59,0,0,1,5.31,2h.09V48.62h5.7v17c0,5.54-4.09,8.4-9.72,8.4-3.44,0-7.4-.77-9.14-4.8l4.67-2.28A5,5,0,0,0,710.78,69a3.8,3.8,0,0,0,4-3.86V63.94c-1.22,1.35-3.15,1.67-5.4,1.67-4.57,0-7.84-3.48-8.18-8h-11.9a3.38,3.38,0,0,0,3.57,3.42,4.55,4.55,0,0,0,4-1.84L701,61.3c-1.87,3.12-4.9,4.31-8.57,4.31a8.74,8.74,0,1,1,0-17.47Zm-27.54.48h5.7v1.74h.06a6.83,6.83,0,0,1,4.73-2.22c3,0,7.24,1.51,7.24,6.11V65.13H677V55.8a3.06,3.06,0,0,0-3-3.22,3.51,3.51,0,0,0-3.38,3.22v9.33h-5.7Zm-14.23-.48a12.58,12.58,0,0,1,5.53,1.29l-1.86,3.73a9.36,9.36,0,0,0-3.67-1c-1.26,0-1.77.22-1.77,1s1.16,1.12,2.57,1.57c2.19.68,5,1.9,5,5.28,0,4.86-4.44,5.63-7.82,5.63a9.87,9.87,0,0,1-6.37-2.22l2.32-3.89s2.25,1.9,4.08,1.9c.81,0,1.77-.1,1.77-1.19s-1.8-1.29-3.66-2.26c-1.68-.87-3.35-2-3.35-4.5C643.49,50.07,646.35,48.14,650.7,48.14Zm-18.09,0c5.47,0,9.85,3.6,9.85,8.75s-4.15,8.72-9.85,8.72c-6,0-9.94-3.63-9.94-8.72S627.05,48.14,632.61,48.14Zm-33.78,0c5,0,8.84,3,8.84,8.75a6.27,6.27,0,0,1,0,.77h-12a3.37,3.37,0,0,0,3.57,3.42,4.55,4.55,0,0,0,4-1.84l4.11,2.06c-1.86,3.12-4.89,4.31-8.55,4.31a8.74,8.74,0,1,1,0-17.47Zm-21.24,0A7.49,7.49,0,0,1,583,50.2V37.45h5.7V65.13h-5.63V63.26H583a7.27,7.27,0,0,1-5.4,2.35c-4.83,0-8.21-3.89-8.21-8.72S572.76,48.14,577.59,48.14ZM558.83,62.75c0,3.73-3.12,6.33-7,6.33s-7.17-2.6-7.17-6.33,2.83-6.34,7.17-6.34C555.91,56.41,558.83,59.08,558.83,62.75Zm-5.37-20.69L538,68.6h-3.79l15.44-26.54Zm-17.53-.48c3.93,0,7.05,2.61,7.05,6.34s-2.93,6.33-7.05,6.33c-4.34,0-7.17-2.67-7.17-6.33S531.88,41.58,535.93,41.58Zm-33.8-26c11.09,0,21,8.9,21,26.81,0,19.17-9.89,26.75-21,26.75s-21.05-7.58-21.05-26.75C481.08,24.48,491,15.58,502.13,15.58Zm-41.77,0c11.58,0,20.6,7.65,20.6,17.54,0,9.09-2.75,13.28-8.14,20.61L460.67,68.2H446.14l15.22-17.73a7.94,7.94,0,0,1-3.7.76c-7.08,0-16.47-6.08-16.47-18.11C441.19,20.91,451,15.58,460.36,15.58ZM412,53.77l4.6,8.46,3.92-8.46h6.56l-13,24.86h-6.56l5.69-10.93-7.81-13.93Zm-21.66,9c0,3.73-3.12,6.33-7,6.33s-7.17-2.6-7.17-6.33,2.83-6.34,7.17-6.34C387.41,56.41,390.33,59.08,390.33,62.75ZM385,42.06,369.52,68.6h-3.79l15.44-26.54Zm-17.53-.48c3.93,0,7.05,2.61,7.05,6.34s-2.93,6.33-7.05,6.33c-4.34,0-7.17-2.67-7.17-6.33S363.38,41.58,367.43,41.58ZM283.56,26.86V16.52h39.65V20L295.9,68.2H282L305.8,26.86ZM167.67,62.73h-12a3.37,3.37,0,0,0,3.57,3.41,4.53,4.53,0,0,0,4-1.84l4.12,2.06c-1.87,3.12-4.89,4.31-8.56,4.31a8.74,8.74,0,1,1,0-17.46c5,0,8.85,3,8.85,8.75A4.84,4.84,0,0,1,167.67,62.73Zm18.82,7.46H180.8V60.86a3,3,0,0,0-3-3.21,3.51,3.51,0,0,0-3.38,3.21v9.33h-5.69V53.69h5.69v1.74h.07a6.79,6.79,0,0,1,4.73-2.22c3,0,7.23,1.51,7.23,6.11Zm8.52.48c-4.53,0-5.62-3.37-5.62-6.3V58H187V53.69h2.39V47.55h5.69v6.14h3.47V58h-3.47v5.24c0,1.55.38,2.29,1.29,2.29a2.69,2.69,0,0,0,1.41-.52l1.42,4.6A9.47,9.47,0,0,1,195,70.67Zm13.58-12.51a3.43,3.43,0,0,0-3.38,3.35v8.68h-5.69V53.69h5.69v2.38h.07a6.46,6.46,0,0,1,5.05-2.86,6.83,6.83,0,0,1,3.6,1l-2.38,4.82A4.8,4.8,0,0,0,208.59,58.16Zm22,4.57h-12a3.37,3.37,0,0,0,3.57,3.41,4.53,4.53,0,0,0,4-1.84l4.12,2.06c-1.87,3.12-4.89,4.31-8.56,4.31a8.74,8.74,0,1,1,0-17.46c5,0,8.85,3,8.85,8.75A4.84,4.84,0,0,1,230.61,62.73Zm25,0h-12a3.37,3.37,0,0,0,3.57,3.41,4.53,4.53,0,0,0,4-1.84l4.12,2.06c-1.87,3.12-4.89,4.31-8.56,4.31a8.74,8.74,0,1,1,0-17.46c5,0,8.85,3,8.85,8.75A4.84,4.84,0,0,1,255.57,62.73Zm6.79,7.46h-5.69V42.53h5.69ZM336,160.34H319.45v-5.49h-.19a21.54,21.54,0,0,1-15.91,6.91c-14.21,0-24.15-11.46-24.15-25.67s9.94-25.76,24.15-25.76c6.53,0,11.93,2.18,15.91,6.06V78.89H336ZM319.64,57.93,329,53.42c.94,3.19,3.7,5.89,9.08,5.89a7.21,7.21,0,0,0,7.39-7.52c0-6.83-6.7-9.08-13.4-9.08a22.18,22.18,0,0,0-8.83,1.62l4.32-27.81H353.9V26.86H337.61l-1.12,7.2c.44,0,.94-.06,1.44-.06,9.77.06,19.29,3.82,19.29,18.17,0,9.89-8.08,17-19.17,17S321.58,63.19,319.64,57.93Zm46.21,103.83c-14.68,0-26.71-11.55-26.71-25.67s12-25.76,26.71-25.76,26,8.72,26,25.76a18.49,18.49,0,0,1-.09,2.28H356.57c0,7.48,6.25,10,10.51,10,5.4,0,7.76-1,11.84-5.4L391,149.07C385.55,158.26,376.64,161.76,365.85,161.76Zm44.41,0a29.08,29.08,0,0,1-18.75-6.53l6.82-11.46s6.63,5.58,12,5.58c2.36,0,5.2-.28,5.2-3.5,0-3.51-5.3-3.79-10.79-6.63-4.93-2.56-9.85-6-9.85-13.26,0-9.95,8.43-15.63,21.21-15.63a37.06,37.06,0,0,1,16.29,3.79l-5.49,11s-5.68-3-10.8-3c-3.69,0-5.21.66-5.21,2.93,0,2.56,3.41,3.32,7.58,4.64,6.44,2,14.78,5.59,14.78,15.54C433.28,159.49,420.21,161.76,410.26,161.76Zm79.94-1.42H473.62v-5.49h-.19a21.54,21.54,0,0,1-15.91,6.91c-14.21,0-24.15-11.46-24.15-25.67s9.94-25.76,24.15-25.76c6.53,0,11.93,2.18,15.91,6.06v-4.64H490.2Zm119.89,0H593.51v-5.49h-.19a21.54,21.54,0,0,1-15.91,6.91c-13.1,0-22.57-9.75-24-22.4-1.43,12.62-10.88,22.4-24,22.4-6.54,0-11.94-2.18-15.91-6.06V185H496.81V111.75h16.58v5.5h.19a21.51,21.51,0,0,1,15.91-6.92c13.1,0,22.57,9.75,24,22.41,1.44-12.63,10.89-22.41,24-22.41,6.53,0,11.93,2.18,15.91,6.06v-4.64h16.77Zm5.82-122.89h5.7V65.13h-5.7Zm.79,74.3h16.77v7h.19s5.3-8.43,14.87-8.43a20.09,20.09,0,0,1,10.6,3l-7,14.21a14.18,14.18,0,0,0-8.72-2.65c-8.71,0-9.94,8.62-9.94,9.85v25.57H616.7Zm32,104.08h-5.63V214h-.06a7.31,7.31,0,0,1-5.41,2.35c-4.82,0-8.2-3.89-8.2-8.71s3.38-8.75,8.2-8.75a7.51,7.51,0,0,1,5.41,2.06V188.17h5.69Zm19.81-7.27c0,5.53-2.76,7.75-8.94,7.75s-8.94-2.22-8.94-7.75v-9.23h5.69v7.85c0,3.25.87,4.5,3.25,4.5s3.25-1.25,3.25-4.5v-7.85h5.69Zm11-4.76a3.43,3.43,0,0,0-3.38,3.35v8.68h-5.69v-16.5h5.69v2.38h.07a6.46,6.46,0,0,1,5-2.86,6.83,6.83,0,0,1,3.6,1l-2.38,4.82A4.8,4.8,0,0,0,679.55,203.8Zm23.45,12h-5.63V214h-.06a7.31,7.31,0,0,1-5.41,2.35c-4.82,0-8.2-3.89-8.2-8.71s3.38-8.75,8.2-8.75a7.51,7.51,0,0,1,5.41,2.06v-1.58H703Zm-20.66-54.07c-14.68,0-26.71-11.55-26.71-25.67s12-25.76,26.71-25.76c13.81,0,24.56,7.62,25.9,22.54,1.79-12.73,13.66-22.54,26.66-22.54,10.79,0,16.29,4.55,16.29,4.55l-5.69,11.46a14.77,14.77,0,0,0-8.14-2.27,12,12,0,0,0,0,24,14.72,14.72,0,0,0,8.14-2.28l5.69,11.65s-5.5,4.36-16.29,4.36c-13.3,0-25.56-10.22-26.79-23.39H673.06c0,7.48,6.25,10,10.51,10,5.4,0,7.76-1,11.84-5.4l12.12,6.06C702,158.26,693.13,161.76,682.34,161.76ZM723,215.83h-5.69V206.5a3,3,0,0,0-3-3.21,3.51,3.51,0,0,0-3.38,3.21v9.33h-5.69v-16.5h5.69v1.74H711a6.79,6.79,0,0,1,4.73-2.22c3,0,7.23,1.51,7.23,6.11Zm8.53.48c-4.53,0-5.62-3.37-5.62-6.3v-6.34h-2.39v-4.34h2.39v-6.14h5.69v6.14H735v4.34h-3.47v5.24c0,1.55.38,2.29,1.28,2.29a2.7,2.7,0,0,0,1.42-.52l1.42,4.6A9.47,9.47,0,0,1,731.49,216.31Zm21.19-7.94h-12a3.37,3.37,0,0,0,3.57,3.41,4.53,4.53,0,0,0,4-1.84l4.12,2.06c-1.87,3.12-4.89,4.31-8.56,4.31a8.74,8.74,0,1,1,0-17.46c5,0,8.85,3,8.85,8.75A4.84,4.84,0,0,1,752.68,208.37Zm-2.92-72.28c0-14.2,12-25.76,26.71-25.76s26,8.72,26,25.76a18.49,18.49,0,0,1-.09,2.28H767.19c0,7.48,6.25,10,10.51,10,5.4,0,7.76-1,11.84-5.4l12.12,6.06c-5.49,9.19-14.4,12.69-25.19,12.69C761.79,161.76,749.76,150.21,749.76,136.09Zm16.37,80.22a9.87,9.87,0,0,1-6.37-2.22l2.32-3.89s2.25,1.9,4.08,1.9c.8,0,1.77-.1,1.77-1.19s-1.8-1.29-3.67-2.25c-1.67-.87-3.34-2-3.34-4.51,0-3.37,2.86-5.3,7.2-5.3a12.67,12.67,0,0,1,5.54,1.28l-1.87,3.73a9.29,9.29,0,0,0-3.67-1c-1.25,0-1.77.23-1.77,1s1.16,1.13,2.58,1.58c2.18.67,5,1.9,5,5.27C774,215.54,769.51,216.31,766.13,216.31Zm26.59-7.75c0,5.53-2.76,7.75-8.94,7.75s-8.94-2.22-8.94-7.75v-9.23h5.69v7.85c0,3.25.87,4.5,3.25,4.5s3.25-1.25,3.25-4.5v-7.85h5.69Zm7.11,7.75a9.87,9.87,0,0,1-6.37-2.22l2.32-3.89s2.25,1.9,4.08,1.9c.81,0,1.77-.1,1.77-1.19s-1.8-1.29-3.67-2.25c-1.67-.87-3.34-2-3.34-4.51,0-3.37,2.86-5.3,7.2-5.3a12.67,12.67,0,0,1,5.54,1.28l-1.87,3.73a9.29,9.29,0,0,0-3.67-1c-1.25,0-1.77.23-1.77,1s1.16,1.13,2.58,1.58c2.18.67,5,1.9,5,5.27C807.64,215.54,803.21,216.31,799.83,216.31Zm27.31,0a7.51,7.51,0,0,1-5.41-2.06v9.94H816V199.33h5.63v1.86h.06a7.34,7.34,0,0,1,5.41-2.34c4.82,0,8.2,3.89,8.2,8.71S832,216.31,827.14,216.31Zm29.36-.48h-5.69v-16l-2.38,4.82a4.8,4.8,0,0,0-3-.9,3.43,3.43,0,0,0-3.38,3.35v8.68H836.4v-16.5h5.69v2.38h.07a6.46,6.46,0,0,1,5.05-2.86,6.83,6.83,0,0,1,3.6,1v-.55h5.69Zm-2.76-19.94a3.38,3.38,0,1,1,3.37-3.38A3.38,3.38,0,0,1,853.74,195.89Zm4.08-35.55H841.05V132.87c0-4.83-3.31-9.47-8.71-9.47-5,0-9.94,4.64-9.94,9.47v27.47H805.63V111.75H822.4v5.12h.19c3.78-3.79,8.62-6.54,13.92-6.54,8.9,0,21.31,4.45,21.31,18Zm29.23,55.49h-5.69V206.5a2.78,2.78,0,0,0-2.89-3.09,2.53,2.53,0,0,0-2.64,2.58v9.84h-5.69V206.5a2.79,2.79,0,0,0-2.9-3.09,2.56,2.56,0,0,0-2.64,2.77v9.65h-5.69v-16.5h5.69v1.74h.07a6.79,6.79,0,0,1,4.73-2.22,6.21,6.21,0,0,1,5.75,3c1.74-2.09,3.67-3,5.47-3,3,0,6.43,1.51,6.43,6.11Zm18.63-7.46h-12a3.37,3.37,0,0,0,3.57,3.41,4.53,4.53,0,0,0,4-1.84l4.12,2.06c-1.87,3.12-4.89,4.31-8.56,4.31a8.74,8.74,0,1,1,0-17.46c5,0,8.85,3,8.85,8.75A4.84,4.84,0,0,1,905.68,208.37Zm10.16-4.57a3.43,3.43,0,0,0-3.38,3.35v8.68h-5.69v-16.5h5.69v2.38h.07a6.46,6.46,0,0,1,5.05-2.86,6.83,6.83,0,0,1,3.6,1l-2.38,4.82A4.8,4.8,0,0,0,915.84,203.8Zm14.09,12.51c-5.95,0-9.94-3.63-9.94-8.71s4.37-8.75,9.94-8.75,9.84,3.6,9.84,8.75S935.62,216.31,929.93,216.31Zm16.08,0a9.87,9.87,0,0,1-6.37-2.22L942,210.2s2.25,1.9,4.08,1.9c.8,0,1.77-.1,1.77-1.19s-1.8-1.29-3.67-2.25c-1.67-.87-3.34-2-3.34-4.51,0-3.37,2.86-5.3,7.2-5.3a12.67,12.67,0,0,1,5.54,1.28l-1.87,3.73a9.29,9.29,0,0,0-3.67-1c-1.25,0-1.77.23-1.77,1s1.16,1.13,2.58,1.58c2.18.67,5,1.9,5,5.27C953.83,215.54,949.39,216.31,946,216.31Zm34.32-.48H974.7V214h-.06a7.31,7.31,0,0,1-5.41,2.35c-4.82,0-8.2-3.89-8.2-8.71s3.38-8.75,8.2-8.75a7.51,7.51,0,0,1,5.41,2.06v-1.58h5.69Zm20,0h-5.69V206.5a3,3,0,0,0-3-3.21,3.51,3.51,0,0,0-3.38,3.21v9.33h-5.69v-16.5h5.69v1.74h.07a6.79,6.79,0,0,1,4.73-2.22c3,0,7.23,1.51,7.23,6.11Zm10.68.48c-6,0-9.94-3.63-9.94-8.71s4.37-8.75,9.94-8.75,9.84,3.6,9.84,8.75S1016.67,216.31,1011,216.31Zm16.08,0a9.87,9.87,0,0,1-6.37-2.22l2.32-3.89s2.25,1.9,4.08,1.9c.8,0,1.77-.1,1.77-1.19s-1.8-1.29-3.67-2.25c-1.67-.87-3.34-2-3.34-4.51,0-3.37,2.86-5.3,7.2-5.3a12.6,12.6,0,0,1,5.53,1.28l-1.86,3.73a9.29,9.29,0,0,0-3.67-1c-1.25,0-1.77.23-1.77,1s1.16,1.13,2.58,1.58c2.18.67,5,1.9,5,5.27C1034.88,215.54,1030.44,216.31,1027.06,216.31Z"/><path class="cls-1" d="M731.48,60.75a3.71,3.71,0,0,0,3.83-3.86,3.85,3.85,0,1,0-7.69,0A3.69,3.69,0,0,0,731.48,60.75Z"/><path class="cls-1" d="M502.13,58.8c5.64,0,9.08-5.26,9.08-16.41,0-10.46-3.44-16.47-9.08-16.47S493,32,493,42.39C493,53.54,496.43,58.8,502.13,58.8Z"/><path class="cls-1" d="M460.92,41.14a7.8,7.8,0,0,0,7.83-8,7.57,7.57,0,0,0-7.83-7.83,7.68,7.68,0,0,0-8,7.83A7.83,7.83,0,0,0,460.92,41.14Z"/><path class="cls-1" d="M897,202.55a2.84,2.84,0,0,0-3.15,2.67h6.27A2.93,2.93,0,0,0,897,202.55Z"/><path class="cls-1" d="M548.77,62.75a2.92,2.92,0,0,0,3,3,2.89,2.89,0,0,0,2.89-3,2.93,2.93,0,1,0-5.85,0Z"/><path class="cls-2" d="M158.86,53.21a8.74,8.74,0,1,0,0,17.46c3.67,0,6.69-1.19,8.56-4.31L163.3,64.3a4.53,4.53,0,0,1-4,1.84,3.37,3.37,0,0,1-3.57-3.41h12a4.84,4.84,0,0,0,0-.77C167.71,56.17,163.88,53.21,158.86,53.21Zm-3,6.37A2.84,2.84,0,0,1,159,56.91a2.93,2.93,0,0,1,3.12,2.67Z"/><path class="cls-2" d="M179.26,53.21a6.79,6.79,0,0,0-4.73,2.22h-.07V53.69h-5.69v16.5h5.69V60.86a3.51,3.51,0,0,1,3.38-3.21,3,3,0,0,1,3,3.21v9.33h5.69V59.32C186.49,54.72,182.28,53.21,179.26,53.21Z"/><path class="cls-2" d="M196.37,65.56c-.91,0-1.29-.74-1.29-2.29V58h3.47V53.69h-3.47V47.55h-5.69v6.14H187V58h2.39v6.34c0,2.93,1.09,6.3,5.62,6.3a9.47,9.47,0,0,0,4.19-1L197.78,65A2.69,2.69,0,0,1,196.37,65.56Z"/><path class="cls-2" d="M210.33,53.21a6.46,6.46,0,0,0-5.05,2.86h-.07V53.69h-5.69v16.5h5.69V61.51a3.43,3.43,0,0,1,3.38-3.35,4.8,4.8,0,0,1,3,.9l2.38-4.82A6.83,6.83,0,0,0,210.33,53.21Z"/><path class="cls-2" d="M221.8,53.21a8.74,8.74,0,1,0,0,17.46c3.67,0,6.69-1.19,8.56-4.31l-4.12-2.06a4.53,4.53,0,0,1-4,1.84,3.37,3.37,0,0,1-3.57-3.41h12a4.84,4.84,0,0,0,0-.77C230.65,56.17,226.82,53.21,221.8,53.21Zm-3,6.37A2.84,2.84,0,0,1,222,56.91a2.93,2.93,0,0,1,3.12,2.67Z"/><path class="cls-2" d="M246.76,53.21a8.74,8.74,0,1,0,0,17.46c3.67,0,6.69-1.19,8.56-4.31L251.2,64.3a4.53,4.53,0,0,1-4,1.84,3.37,3.37,0,0,1-3.57-3.41h12a4.84,4.84,0,0,0,0-.77C255.61,56.17,251.78,53.21,246.76,53.21Zm-3,6.37a2.84,2.84,0,0,1,3.15-2.67A2.93,2.93,0,0,1,250,59.58Z"/><rect class="cls-2" x="256.67" y="42.53" width="5.69" height="27.66"/><polygon class="cls-2" points="295.9 68.2 323.21 19.97 323.21 16.52 283.56 16.52 283.56 26.86 305.8 26.86 282 68.2 295.9 68.2"/><path class="cls-2" d="M357.22,52.17c0-14.35-9.52-18.11-19.29-18.17-.5,0-1,.06-1.44.06l1.12-7.2H353.9V16.52H327.53l-4.32,27.81A22.18,22.18,0,0,1,332,42.71c6.7,0,13.4,2.25,13.4,9.08a7.21,7.21,0,0,1-7.39,7.52c-5.38,0-8.14-2.7-9.08-5.89l-9.33,4.51c1.94,5.26,7.39,11.21,18.41,11.21S357.22,62.06,357.22,52.17Z"/><path class="cls-2" d="M457.66,51.23a7.94,7.94,0,0,0,3.7-.76L446.14,68.2h14.53l12.15-14.47C478.21,46.4,481,42.21,481,33.12c0-9.89-9-17.54-20.6-17.54-9.34,0-19.17,5.33-19.17,17.54C441.19,45.15,450.58,51.23,457.66,51.23Zm3.26-25.94a7.57,7.57,0,0,1,7.83,7.83,7.9,7.9,0,1,1-15.79,0A7.68,7.68,0,0,1,460.92,25.29Z"/><path class="cls-2" d="M502.13,69.14c11.09,0,21-7.58,21-26.75,0-17.91-9.89-26.81-21-26.81s-21.05,8.9-21.05,26.81C481.08,61.56,491,69.14,502.13,69.14Zm0-43.22c5.64,0,9.08,6,9.08,16.47,0,11.15-3.44,16.41-9.08,16.41S493,53.54,493,42.39C493,32,496.43,25.92,502.13,25.92Z"/><path class="cls-3" d="M319.26,116.39c-4-3.88-9.38-6.06-15.91-6.06-14.21,0-24.15,11.56-24.15,25.76s9.94,25.67,24.15,25.67a21.54,21.54,0,0,0,15.91-6.91h.19v5.49H336V78.89H319.26Zm-10.89,31.07c-6.82,0-11.37-4.74-11.37-11.37a11.32,11.32,0,1,1,22.64,0A10.93,10.93,0,0,1,308.37,147.46Z"/><path class="cls-3" d="M367.08,148.41c-4.26,0-10.51-2.56-10.51-10H391.8a18.49,18.49,0,0,0,.09-2.28c0-17-11.27-25.76-26-25.76s-26.71,11.56-26.71,25.76,12,25.67,26.71,25.67c10.79,0,19.7-3.5,25.19-12.69L378.92,143C374.84,147.36,372.48,148.41,367.08,148.41Zm-.76-27.19c4.93,0,8.43,2.75,9.19,7.86H357C357.32,124.63,360.54,121.22,366.32,121.22Z"/><path class="cls-3" d="M418.5,129.65c-4.17-1.32-7.58-2.08-7.58-4.64,0-2.27,1.52-2.93,5.21-2.93,5.12,0,10.8,3,10.8,3l5.49-11a37.06,37.06,0,0,0-16.29-3.79c-12.78,0-21.21,5.68-21.21,15.63,0,7.29,4.92,10.7,9.85,13.26,5.49,2.84,10.79,3.12,10.79,6.63,0,3.22-2.84,3.5-5.2,3.5-5.4,0-12-5.58-12-5.58l-6.82,11.46a29.08,29.08,0,0,0,18.75,6.53c9.95,0,23-2.27,23-16.57C433.28,135.24,424.94,131.64,418.5,129.65Z"/><path class="cls-3" d="M473.43,116.39c-4-3.88-9.38-6.06-15.91-6.06-14.21,0-24.15,11.56-24.15,25.76s9.94,25.67,24.15,25.67a21.54,21.54,0,0,0,15.91-6.91h.19v5.49H490.2V111.75H473.43Zm-10.89,31.07c-6.82,0-11.37-4.74-11.37-11.37a11.32,11.32,0,1,1,22.64,0A10.93,10.93,0,0,1,462.54,147.46Z"/><path class="cls-3" d="M553.45,132.74c-1.39-12.66-10.86-22.41-24-22.41a21.51,21.51,0,0,0-15.91,6.92h-.19v-5.5H496.81V185h16.77V155.7c4,3.88,9.37,6.06,15.91,6.06,13.07,0,22.52-9.78,24-22.4a31.93,31.93,0,0,1-.18-3.27A30.91,30.91,0,0,1,553.45,132.74Zm-29,14.72A11.11,11.11,0,0,1,513.2,136a10.92,10.92,0,0,1,11.27-11.37c6.82,0,11.36,4.74,11.36,11.37A11.13,11.13,0,0,1,524.47,147.46Z"/><path class="cls-3" d="M593.32,116.39c-4-3.88-9.38-6.06-15.91-6.06-13.07,0-22.52,9.78-24,22.41a29,29,0,0,1,.19,3.26,28.6,28.6,0,0,1-.2,3.36c1.4,12.65,10.87,22.4,24,22.4a21.54,21.54,0,0,0,15.91-6.91h.19v5.49h16.58V111.75H593.32Zm-10.89,31.07c-6.82,0-11.37-4.74-11.37-11.37a11.32,11.32,0,1,1,22.64,0A10.93,10.93,0,0,1,582.43,147.46Z"/><path class="cls-3" d="M553.45,132.74a30.91,30.91,0,0,0-.19,3.35,31.93,31.93,0,0,0,.18,3.27,28.6,28.6,0,0,0,.2-3.36A29,29,0,0,0,553.45,132.74Z"/><path class="cls-3" d="M633.47,134.77c0-1.23,1.23-9.85,9.94-9.85a14.18,14.18,0,0,1,8.72,2.65l7-14.21a20.09,20.09,0,0,0-10.6-3c-9.57,0-14.87,8.43-14.87,8.43h-.19v-7H616.7v48.59h16.77Z"/><path class="cls-3" d="M695.41,143c-4.08,4.35-6.44,5.4-11.84,5.4-4.26,0-10.51-2.56-10.51-10h35.05c-.07-.72-.11-1.45-.11-2.18a24.25,24.25,0,0,1,.24-3.32c-1.34-14.92-12.09-22.54-25.9-22.54-14.68,0-26.71,11.56-26.71,25.76s12,25.67,26.71,25.67c10.79,0,19.7-3.5,25.19-12.69Zm-12.6-21.79c4.93,0,8.43,2.75,9.19,7.86H673.53C673.81,124.63,677,121.22,682.81,121.22Z"/><path class="cls-3" d="M708.29,138.37h-.18c1.23,13.17,13.49,23.39,26.79,23.39,10.79,0,16.29-4.36,16.29-4.36l-5.69-11.65a14.72,14.72,0,0,1-8.14,2.28,12,12,0,0,1,0-24,14.77,14.77,0,0,1,8.14,2.27l5.69-11.46s-5.5-4.55-16.29-4.55c-13,0-24.87,9.81-26.66,22.54.09,1,.14,2.11.14,3.22A18.49,18.49,0,0,1,708.29,138.37Z"/><path class="cls-3" d="M708.11,138.37h.18a18.49,18.49,0,0,0,.09-2.28c0-1.11,0-2.18-.14-3.22a24.25,24.25,0,0,0-.24,3.32C708,136.92,708,137.65,708.11,138.37Z"/><path class="cls-3" d="M801.66,149.07,789.54,143c-4.08,4.35-6.44,5.4-11.84,5.4-4.26,0-10.51-2.56-10.51-10h35.23a18.49,18.49,0,0,0,.09-2.28c0-17-11.27-25.76-26-25.76s-26.71,11.56-26.71,25.76,12,25.67,26.71,25.67C787.26,161.76,796.17,158.26,801.66,149.07Zm-24.72-27.85c4.93,0,8.43,2.75,9.19,7.86H767.66C767.94,124.63,771.16,121.22,776.94,121.22Z"/><path class="cls-3" d="M836.51,110.33c-5.3,0-10.14,2.75-13.92,6.54h-.19v-5.12H805.63v48.59H822.4V132.87c0-4.83,4.92-9.47,9.94-9.47,5.4,0,8.71,4.64,8.71,9.47v27.47h16.77v-32C857.82,114.78,845.41,110.33,836.51,110.33Z"/><path class="cls-2" d="M643.05,200.91a7.51,7.51,0,0,0-5.41-2.06c-4.82,0-8.2,3.92-8.2,8.75s3.38,8.71,8.2,8.71a7.31,7.31,0,0,0,5.41-2.35h.06v1.87h5.63V188.17h-5.69Zm-3.7,10.55a3.68,3.68,0,0,1-3.86-3.86,3.84,3.84,0,1,1,7.68,0A3.7,3.7,0,0,1,639.35,211.46Z"/><path class="cls-2" d="M662.86,207.18c0,3.25-.87,4.5-3.25,4.5s-3.25-1.25-3.25-4.5v-7.85h-5.69v9.23c0,5.53,2.76,7.75,8.94,7.75s8.94-2.22,8.94-7.75v-9.23h-5.69Z"/><path class="cls-2" d="M681.29,198.85a6.46,6.46,0,0,0-5,2.86h-.07v-2.38h-5.69v16.5h5.69v-8.68a3.43,3.43,0,0,1,3.38-3.35,4.8,4.8,0,0,1,3,.9l2.38-4.82A6.83,6.83,0,0,0,681.29,198.85Z"/><path class="cls-2" d="M697.31,200.91a7.51,7.51,0,0,0-5.41-2.06c-4.82,0-8.2,3.92-8.2,8.75s3.38,8.71,8.2,8.71a7.31,7.31,0,0,0,5.41-2.35h.06v1.87H703v-16.5h-5.69Zm-3.7,10.55a3.68,3.68,0,0,1-3.86-3.86,3.84,3.84,0,1,1,7.68,0A3.7,3.7,0,0,1,693.61,211.46Z"/><path class="cls-2" d="M715.73,198.85a6.79,6.79,0,0,0-4.73,2.22h-.07v-1.74h-5.69v16.5h5.69V206.5a3.51,3.51,0,0,1,3.38-3.21,3,3,0,0,1,3,3.21v9.33H723V205C723,200.36,718.75,198.85,715.73,198.85Z"/><path class="cls-2" d="M732.84,211.2c-.9,0-1.28-.74-1.28-2.29v-5.24H735v-4.34h-3.47v-6.14h-5.69v6.14h-2.39v4.34h2.39V210c0,2.93,1.09,6.3,5.62,6.3a9.47,9.47,0,0,0,4.19-1l-1.42-4.6A2.7,2.7,0,0,1,732.84,211.2Z"/><path class="cls-2" d="M743.87,198.85a8.74,8.74,0,1,0,0,17.46c3.67,0,6.69-1.19,8.56-4.31l-4.12-2.06a4.53,4.53,0,0,1-4,1.84,3.37,3.37,0,0,1-3.57-3.41h12a4.84,4.84,0,0,0,0-.77C752.72,201.81,748.89,198.85,743.87,198.85Zm-3,6.37a2.84,2.84,0,0,1,3.15-2.67,2.93,2.93,0,0,1,3.12,2.67Z"/><path class="cls-2" d="M768.93,205.41c-1.42-.45-2.58-.71-2.58-1.58s.52-1,1.77-1a9.29,9.29,0,0,1,3.67,1l1.87-3.73a12.67,12.67,0,0,0-5.54-1.28c-4.34,0-7.2,1.93-7.2,5.3,0,2.48,1.67,3.64,3.34,4.51,1.87,1,3.67,1.06,3.67,2.25s-1,1.19-1.77,1.19c-1.83,0-4.08-1.9-4.08-1.9l-2.32,3.89a9.87,9.87,0,0,0,6.37,2.22c3.38,0,7.82-.77,7.82-5.63C774,207.31,771.11,206.08,768.93,205.41Z"/><path class="cls-2" d="M787,207.18c0,3.25-.87,4.5-3.25,4.5s-3.25-1.25-3.25-4.5v-7.85h-5.69v9.23c0,5.53,2.76,7.75,8.94,7.75s8.94-2.22,8.94-7.75v-9.23H787Z"/><path class="cls-2" d="M802.63,205.41c-1.42-.45-2.58-.71-2.58-1.58s.52-1,1.77-1a9.29,9.29,0,0,1,3.67,1l1.87-3.73a12.67,12.67,0,0,0-5.54-1.28c-4.34,0-7.2,1.93-7.2,5.3,0,2.48,1.67,3.64,3.34,4.51,1.87,1,3.67,1.06,3.67,2.25s-1,1.19-1.77,1.19c-1.83,0-4.08-1.9-4.08-1.9l-2.32,3.89a9.87,9.87,0,0,0,6.37,2.22c3.38,0,7.81-.77,7.81-5.63C807.64,207.31,804.81,206.08,802.63,205.41Z"/><path class="cls-2" d="M827.14,198.85a7.34,7.34,0,0,0-5.41,2.34h-.06v-1.86H816v24.86h5.69v-9.94a7.51,7.51,0,0,0,5.41,2.06c4.82,0,8.2-3.92,8.2-8.75S832,198.85,827.14,198.85Zm-1.71,12.61a3.78,3.78,0,0,1-3.83-3.9,3.85,3.85,0,1,1,7.69,0A3.78,3.78,0,0,1,825.43,211.46Z"/><path class="cls-2" d="M842.16,201.71h-.07v-2.38H836.4v16.5h5.69v-8.68a3.43,3.43,0,0,1,3.38-3.35,4.8,4.8,0,0,1,3,.9l2.38-4.82a6.83,6.83,0,0,0-3.6-1A6.46,6.46,0,0,0,842.16,201.71Z"/><polygon class="cls-2" points="850.81 199.88 850.81 215.83 856.5 215.83 856.5 199.33 850.81 199.33 850.81 199.88"/><path class="cls-2" d="M853.74,189.13a3.38,3.38,0,1,0,3.37,3.38A3.38,3.38,0,0,0,853.74,189.13Z"/><path class="cls-2" d="M880.62,198.85c-1.8,0-3.73.93-5.47,3a6.21,6.21,0,0,0-5.75-3,6.79,6.79,0,0,0-4.73,2.22h-.07v-1.74h-5.69v16.5h5.69v-9.65a2.56,2.56,0,0,1,2.64-2.77,2.79,2.79,0,0,1,2.9,3.09v9.33h5.69V206a2.53,2.53,0,0,1,2.64-2.58,2.78,2.78,0,0,1,2.89,3.09v9.33h5.69V205C887.05,200.36,883.64,198.85,880.62,198.85Z"/><path class="cls-2" d="M896.87,198.85a8.74,8.74,0,1,0,0,17.46c3.67,0,6.69-1.19,8.56-4.31l-4.12-2.06a4.53,4.53,0,0,1-4,1.84,3.37,3.37,0,0,1-3.57-3.41h12a4.84,4.84,0,0,0,0-.77C905.72,201.81,901.89,198.85,896.87,198.85Zm-3,6.37a2.84,2.84,0,0,1,3.15-2.67,2.93,2.93,0,0,1,3.12,2.67Z"/><path class="cls-2" d="M917.58,198.85a6.46,6.46,0,0,0-5.05,2.86h-.07v-2.38h-5.69v16.5h5.69v-8.68a3.43,3.43,0,0,1,3.38-3.35,4.8,4.8,0,0,1,3,.9l2.38-4.82A6.83,6.83,0,0,0,917.58,198.85Z"/><path class="cls-2" d="M929.93,198.85c-5.57,0-9.94,3.6-9.94,8.75s4,8.71,9.94,8.71c5.69,0,9.84-3.63,9.84-8.71S935.4,198.85,929.93,198.85Zm0,12.61A3.68,3.68,0,0,1,926,207.6a3.84,3.84,0,1,1,7.68,0A3.7,3.7,0,0,1,929.9,211.46Z"/><path class="cls-2" d="M948.81,205.41c-1.42-.45-2.58-.71-2.58-1.58s.52-1,1.77-1a9.29,9.29,0,0,1,3.67,1l1.87-3.73a12.67,12.67,0,0,0-5.54-1.28c-4.34,0-7.2,1.93-7.2,5.3,0,2.48,1.67,3.64,3.34,4.51,1.87,1,3.67,1.06,3.67,2.25s-1,1.19-1.77,1.19c-1.83,0-4.08-1.9-4.08-1.9l-2.32,3.89a9.87,9.87,0,0,0,6.37,2.22c3.38,0,7.82-.77,7.82-5.63C953.83,207.31,951,206.08,948.81,205.41Z"/><path class="cls-2" d="M974.64,200.91a7.51,7.51,0,0,0-5.41-2.06c-4.82,0-8.2,3.92-8.2,8.75s3.38,8.71,8.2,8.71a7.31,7.31,0,0,0,5.41-2.35h.06v1.87h5.63v-16.5h-5.69Zm-3.7,10.55a3.68,3.68,0,0,1-3.86-3.86,3.84,3.84,0,1,1,7.68,0A3.7,3.7,0,0,1,970.94,211.46Z"/><path class="cls-2" d="M988.53,194.57a6.8,6.8,0,0,1,2.45.61,11.8,11.8,0,0,0,3.34.87c3.54,0,4.38-5.53,4.38-5.53h-3.25S995,192,994,192a6.71,6.71,0,0,1-2.45-.62,11.91,11.91,0,0,0-3.34-.86c-3.54,0-4.38,5.53-4.38,5.53h3.25S987.5,194.57,988.53,194.57Z"/><path class="cls-2" d="M993.07,198.85a6.79,6.79,0,0,0-4.73,2.22h-.07v-1.74h-5.69v16.5h5.69V206.5a3.51,3.51,0,0,1,3.38-3.21,3,3,0,0,1,3,3.21v9.33h5.69V205C1000.3,200.36,996.09,198.85,993.07,198.85Z"/><path class="cls-2" d="M1011,198.85c-5.57,0-9.94,3.6-9.94,8.75s4,8.71,9.94,8.71c5.69,0,9.84-3.63,9.84-8.71S1016.45,198.85,1011,198.85Zm0,12.61a3.68,3.68,0,0,1-3.86-3.86,3.84,3.84,0,1,1,7.68,0A3.7,3.7,0,0,1,1011,211.46Z"/><path class="cls-2" d="M1029.86,205.41c-1.42-.45-2.58-.71-2.58-1.58s.52-1,1.77-1a9.29,9.29,0,0,1,3.67,1l1.86-3.73a12.6,12.6,0,0,0-5.53-1.28c-4.34,0-7.2,1.93-7.2,5.3,0,2.48,1.67,3.64,3.34,4.51,1.87,1,3.67,1.06,3.67,2.25s-1,1.19-1.77,1.19c-1.83,0-4.08-1.9-4.08-1.9l-2.32,3.89a9.87,9.87,0,0,0,6.37,2.22c3.38,0,7.82-.77,7.82-5.63C1034.88,207.31,1032,206.08,1029.86,205.41Z"/><path class="cls-2" d="M577.59,65.61a7.27,7.27,0,0,0,5.4-2.35h.07v1.87h5.63V37.45H583V50.2a7.49,7.49,0,0,0-5.4-2.06c-4.83,0-8.21,3.92-8.21,8.75S572.76,65.61,577.59,65.61ZM579.29,53a3.77,3.77,0,0,1,3.83,3.89,3.85,3.85,0,1,1-7.69,0A3.78,3.78,0,0,1,579.29,53Z"/><path class="cls-2" d="M598.83,65.61c3.66,0,6.69-1.19,8.55-4.31l-4.11-2.06a4.55,4.55,0,0,1-4,1.84,3.37,3.37,0,0,1-3.57-3.42h12a6.27,6.27,0,0,0,0-.77c0-5.79-3.82-8.75-8.84-8.75a8.74,8.74,0,1,0,0,17.47ZM599,51.84a2.93,2.93,0,0,1,3.12,2.67h-6.28A2.85,2.85,0,0,1,599,51.84Z"/><rect class="cls-2" x="615.91" y="37.45" width="5.7" height="27.68"/><path class="cls-2" d="M632.61,65.61c5.7,0,9.85-3.63,9.85-8.72s-4.38-8.75-9.85-8.75-9.94,3.6-9.94,8.75S626.66,65.61,632.61,65.61Zm0-12.61a3.77,3.77,0,0,1,3.83,3.89,3.85,3.85,0,1,1-7.69,0A3.78,3.78,0,0,1,632.58,53Z"/><path class="cls-2" d="M646.84,58c1.86,1,3.66,1.07,3.66,2.26s-1,1.19-1.77,1.19c-1.83,0-4.08-1.9-4.08-1.9l-2.32,3.89a9.87,9.87,0,0,0,6.37,2.22c3.38,0,7.82-.77,7.82-5.63,0-3.38-2.83-4.6-5-5.28-1.41-.45-2.57-.7-2.57-1.57s.51-1,1.77-1a9.36,9.36,0,0,1,3.67,1l1.86-3.73a12.58,12.58,0,0,0-5.53-1.29c-4.35,0-7.21,1.93-7.21,5.31C643.49,55.93,645.16,57.08,646.84,58Z"/><path class="cls-2" d="M670.63,55.8A3.51,3.51,0,0,1,674,52.58a3.06,3.06,0,0,1,3,3.22v9.33h5.69V54.25c0-4.6-4.21-6.11-7.24-6.11a6.83,6.83,0,0,0-4.73,2.22h-.06V48.62h-5.7V65.13h5.7Z"/><path class="cls-2" d="M692.47,65.61c3.67,0,6.7-1.19,8.57-4.31l-4.12-2.06a4.55,4.55,0,0,1-4,1.84,3.38,3.38,0,0,1-3.57-3.42h11.9c0-.25,0-.51,0-.77a9.08,9.08,0,0,1,.08-1.17c-.49-5-4.12-7.58-8.8-7.58a8.74,8.74,0,1,0,0,17.47Zm.17-13.77a2.93,2.93,0,0,1,3.12,2.67h-6.28A2.85,2.85,0,0,1,692.64,51.84Z"/><path class="cls-2" d="M701.29,57.66h-.07c.34,4.47,3.61,8,8.18,8,2.25,0,4.18-.32,5.4-1.67v1.22a3.8,3.8,0,0,1-4,3.86,5,5,0,0,1-4.47-2.12l-4.67,2.28c1.74,4,5.7,4.8,9.14,4.8,5.63,0,9.72-2.86,9.72-8.4v-17h-5.7V50.1h-.09a7.59,7.59,0,0,0-5.31-2,8.18,8.18,0,0,0-8.13,7.58c0,.38.06.77.06,1.17A4.72,4.72,0,0,1,701.29,57.66ZM711.1,53a3.77,3.77,0,0,1,3.83,3.89,3.85,3.85,0,1,1-7.69,0A3.78,3.78,0,0,1,711.1,53Z"/><path class="cls-2" d="M701.22,57.66h.07a4.72,4.72,0,0,0,0-.77c0-.4,0-.79-.06-1.17a9.08,9.08,0,0,0-.08,1.17C701.19,57.15,701.2,57.41,701.22,57.66Z"/><path class="cls-2" d="M731.51,65.61c5.31,0,9.27-3.15,9.79-7.69a8.26,8.26,0,0,1-.07-1,8.76,8.76,0,0,1,.07-1c-.52-4.61-4.68-7.75-9.79-7.75-5.56,0-9.94,3.6-9.94,8.75S725.56,65.61,731.51,65.61Zm0-12.61a3.77,3.77,0,0,1,3.83,3.89,3.85,3.85,0,1,1-7.69,0A3.78,3.78,0,0,1,731.48,53Z"/><path class="cls-2" d="M741.3,57.92a9.18,9.18,0,0,0,9.07,7.69,9.3,9.3,0,0,0,5.53-1.48l-1.93-4a5,5,0,0,1-2.76.78,4.08,4.08,0,0,1,0-8.15,5,5,0,0,1,2.76.78l1.93-3.9a9.06,9.06,0,0,0-5.53-1.54,9.21,9.21,0,0,0-9.07,7.75,8.26,8.26,0,0,1,.06,1A8.77,8.77,0,0,1,741.3,57.92Z"/><path class="cls-2" d="M741.3,57.92a8.77,8.77,0,0,0,.06-1,8.26,8.26,0,0,0-.06-1,8.76,8.76,0,0,0-.07,1A8.26,8.26,0,0,0,741.3,57.92Z"/><rect class="cls-2" x="756.61" y="48.62" width="5.7" height="16.51"/><circle class="cls-2" cx="759.54" cy="41.8" r="3.38"/><path class="cls-2" d="M773.47,65.61c5.7,0,9.85-3.63,9.85-8.72s-4.38-8.75-9.85-8.75-9.94,3.6-9.94,8.75S767.52,65.61,773.47,65.61Zm0-12.61a3.77,3.77,0,0,1,3.83,3.89,3.85,3.85,0,1,1-7.69,0A3.78,3.78,0,0,1,773.44,53Z"/><path class="cls-2" d="M787.7,58c1.86,1,3.66,1.07,3.66,2.26s-1,1.19-1.77,1.19c-1.83,0-4.08-1.9-4.08-1.9l-2.32,3.89a9.87,9.87,0,0,0,6.37,2.22c3.38,0,7.82-.77,7.82-5.63,0-3.38-2.83-4.6-5-5.28-1.41-.45-2.57-.7-2.57-1.57s.51-1,1.77-1a9.36,9.36,0,0,1,3.67,1l1.86-3.73a12.58,12.58,0,0,0-5.53-1.29c-4.35,0-7.21,1.93-7.21,5.31C784.35,55.93,786,57.08,787.7,58Z"/><polygon class="cls-2" points="369.52 68.6 384.96 42.06 381.17 42.06 365.73 68.6 369.52 68.6"/><path class="cls-2" d="M376.12,62.75c0,3.73,3.12,6.33,7.17,6.33s7-2.6,7-6.33-2.92-6.34-7-6.34C379,56.41,376.12,59.08,376.12,62.75Zm10,0a2.89,2.89,0,0,1-2.89,3,2.92,2.92,0,0,1-3-3,2.93,2.93,0,1,1,5.85,0Z"/><path class="cls-2" d="M367.43,54.25c4.12,0,7.05-2.67,7.05-6.33s-3.12-6.34-7.05-6.34-7.17,2.61-7.17,6.34S363.09,54.25,367.43,54.25Zm-.06-9.32a2.88,2.88,0,0,1,2.89,3,2.93,2.93,0,0,1-5.85,0A2.92,2.92,0,0,1,367.37,44.93Z"/><path class="cls-2" d="M535.93,54.25c4.12,0,7.05-2.67,7.05-6.33s-3.12-6.34-7.05-6.34-7.17,2.61-7.17,6.34S531.59,54.25,535.93,54.25Zm-.06-9.32a2.88,2.88,0,0,1,2.89,3,2.93,2.93,0,0,1-5.85,0A2.92,2.92,0,0,1,535.87,44.93Z"/><path class="cls-2" d="M544.62,62.75c0,3.73,3.12,6.33,7.17,6.33s7-2.6,7-6.33-2.92-6.34-7-6.34C547.45,56.41,544.62,59.08,544.62,62.75Zm10,0a2.89,2.89,0,0,1-2.89,3,2.92,2.92,0,0,1-3-3,2.93,2.93,0,1,1,5.85,0Z"/><polygon class="cls-2" points="538.02 68.6 553.46 42.06 549.67 42.06 534.23 68.6 538.02 68.6"/><polygon class="cls-2" points="407.55 78.63 414.11 78.63 427.07 53.77 420.51 53.77 416.59 62.23 411.99 53.77 405.43 53.77 413.24 67.7 407.55 78.63"/></g></g></svg>