<svg xmlns="http://www.w3.org/2000/svg" width="1513.98" height="393.51" viewBox="0 0 1513.98 393.51"><defs><style>.cls-1{fill:#edebeb;}.cls-2{fill:#737373;}.cls-3{fill:#5fcd30;}</style></defs><title>banner-porque-findoo-encontramos-clientes-que-buscabas</title><g id="Capa_2" data-name="Capa 2"><g id="Capa_1-2" data-name="Capa 1"><path class="cls-1" d="M157.8,53.55a3,3,0,0,0-3.26,2.7H161A3,3,0,0,0,157.8,53.55Z"/><path class="cls-1" d="M94,61.82c2.64,0,3.36-2,3.36-3.79S96.6,54.28,94,54.28s-3.39,2-3.39,3.75S91.34,61.82,94,61.82Z"/><path class="cls-1" d="M181.56,53.55a3,3,0,0,0-3.25,2.7h6.48A3,3,0,0,0,181.56,53.55Z"/><path class="cls-1" d="M172.81,222.83c6.69,0,11.53-4.85,11.53-11.63a11.58,11.58,0,1,0-23.15,0C161.19,218,165.84,222.83,172.81,222.83Z"/><path class="cls-1" d="M76.33,61.62A3.46,3.46,0,1,0,72.87,58,3.55,3.55,0,0,0,76.33,61.62Z"/><path class="cls-1" d="M66,290.31c-7,0-11.62,4.85-11.62,11.63a11.58,11.58,0,1,0,23.15,0C77.49,295.16,72.65,290.31,66,290.31Z"/><path class="cls-1" d="M66,199.48A11.38,11.38,0,0,0,54.34,211.2C54.34,218,59,222.83,66,222.83c6.69,0,11.53-4.85,11.53-11.63A11.37,11.37,0,0,0,66,199.48Z"/><path class="cls-1" d="M63.93,105.17c-5.91,0-9.2,3.48-9.49,8H73.32C72.55,108,69,105.17,63.93,105.17Z"/><path class="cls-1" d="M285.48,51.62c0-4.69-3.19-8.34-8-8.34h-1.87V60h1.87C282.2,60,285.48,56.31,285.48,51.62Z"/><path class="cls-1" d="M416.62,132c6.69,0,11.53-4.85,11.53-11.63a11.58,11.58,0,1,0-23.15,0C405,127.15,409.65,132,416.62,132Z"/><path class="cls-1" d="M385.43,196c-5.91,0-9.2,3.48-9.49,8h18.88C394.05,198.8,390.46,196,385.43,196Z"/><path class="cls-1" d="M568.51,132c6.69,0,11.53-4.85,11.53-11.63a11.58,11.58,0,1,0-23.15,0C556.89,127.15,561.54,132,568.51,132Z"/><path class="cls-1" d="M531.61,196c-5.91,0-9.2,3.48-9.49,8H541C540.23,198.8,536.64,196,531.61,196Z"/><path class="cls-1" d="M184,286.83c-5.91,0-9.2,3.48-9.49,8h18.88C192.57,289.63,189,286.83,184,286.83Z"/><path class="cls-1" d="M337.38,60.2a8.3,8.3,0,0,0,8-8.58,5.61,5.61,0,0,0,0-.58,8.3,8.3,0,0,0-16.59.58,5.61,5.61,0,0,0,0,.58A8.29,8.29,0,0,0,337.38,60.2Z"/><path class="cls-1" d="M209.82,120.37c0,6.78,4.65,11.63,11.62,11.63,6.69,0,11.53-4.85,11.53-11.63a11.58,11.58,0,1,0-23.15,0Z"/><path class="cls-1" d="M307.51,60.2a8.3,8.3,0,0,0,8-8.58,5.61,5.61,0,0,0,0-.58,8.3,8.3,0,0,0-16.59.58,5.61,5.61,0,0,0,0,.58A8.29,8.29,0,0,0,307.51,60.2Z"/><path class="cls-1" d="M122.38,61.3A3.47,3.47,0,0,0,126,58a3.55,3.55,0,0,0-3.46-3.62,3.46,3.46,0,0,0-.16,6.92Z"/><path class="cls-1" d="M448.49,290.31A11.38,11.38,0,0,0,436.87,302c0,6.78,4.65,11.63,11.62,11.63,6.69,0,11.53-4.85,11.53-11.63A11.37,11.37,0,0,0,448.49,290.31Z"/><path class="cls-1" d="M0,0V393.51H1514V0ZM623.05,94a38,38,0,0,1,16.66,3.87l-5.62,11.24s-5.81-3.1-11-3.1c-3.78,0-5.32.68-5.32,3,0,2.62,3.48,3.39,7.74,4.75,6.59,2,15.11,5.71,15.11,15.88,0,14.63-13.36,17-23.53,17a29.75,29.75,0,0,1-19.18-6.68l7-11.72s6.78,5.71,12.3,5.71c2.43,0,5.33-.29,5.33-3.58,0-3.58-5.42-3.87-11-6.78-5-2.62-10.08-6.1-10.08-13.56C601.35,99.84,610,94,623.05,94ZM532.38,223.79c5.52,0,8-1.06,12.11-5.52l12.4,6.2c-5.62,9.4-14.72,13-25.77,13-15,0-27.31-11.81-27.31-26.25s12.3-26.34,27.31-26.34,26.64,8.91,26.64,26.34a17.4,17.4,0,0,1-.1,2.33h-36C521.63,221.18,528,223.79,532.38,223.79Zm32-4.74s6.78,5.71,12.3,5.71c2.43,0,5.33-.29,5.33-3.58,0-3.58-5.42-3.87-11-6.78-5-2.62-10.08-6.1-10.08-13.56,0-10.17,8.63-16,21.7-16a38,38,0,0,1,16.66,3.87L593.6,200s-5.81-3.1-11-3.1c-3.78,0-5.33.68-5.33,3,0,2.62,3.49,3.39,7.75,4.75,6.59,2,15.11,5.71,15.11,15.88,0,14.63-13.36,16.95-23.53,16.95a29.75,29.75,0,0,1-19.18-6.68Zm4.26-125c16.47,0,29.64,10.85,29.64,26.34,0,15.31-12.5,26.25-29.64,26.25-17.92,0-29.93-10.94-29.93-26.25C538.68,104.88,551.85,94,568.61,94ZM451.69,95.48h17.15v5.23H469c3.87-3.88,8.81-6.68,14.24-6.68,6.59,0,13.85,2.42,17.34,9.1,5.23-6.3,11-9.1,16.46-9.1,9.11,0,19.38,4.55,19.38,18.4v32.74H519.3V117.08c0-4.94-2.61-9.3-8.72-9.3-5.42,0-7.75,4-7.94,7.75v29.64H485.5V117.08c0-4.94-2.62-9.3-8.72-9.3-5.72,0-7.94,4.36-7.94,8.33v29.06H451.69Zm16.46,107.78V236H451V207.91c0-4.94-3.39-9.69-8.91-9.69-5.14,0-10.17,4.75-10.17,9.69V236H414.78V186.31h17.15v5.23h.19c3.88-3.87,8.82-6.68,14.24-6.68C455.46,184.86,468.15,189.41,468.15,203.26ZM411.49,94c6.68,0,12.2,2.22,16.27,6.2V95.48h17.15v49.69H428v-5.62h-.19a22,22,0,0,1-16.27,7.07c-14.53,0-24.7-11.72-24.7-26.25S397,94,411.49,94ZM386.2,223.79c5.52,0,7.95-1.06,12.11-5.52l12.4,6.2c-5.62,9.4-14.72,13-25.77,13-15,0-27.31-11.81-27.31-26.25s12.3-26.34,27.31-26.34,26.64,8.91,26.64,26.34a17.4,17.4,0,0,1-.1,2.33h-36C375.45,221.18,381.84,223.79,386.2,223.79ZM364.32,102.65S369.74,94,379.53,94a20.6,20.6,0,0,1,10.85,3.1l-7.17,14.53a14.46,14.46,0,0,0-8.91-2.72c-8.91,0-10.17,8.82-10.17,10.08v26.15H347V95.48h17.15v7.17ZM345.62,176a10.18,10.18,0,1,1,10.17-10.18A10.17,10.17,0,0,1,345.62,176ZM354,186.31V236H336.8V186.31Zm-37.48-58.67V108.56H309.3V95.48h7.17V77h17.14v18.5h10.46v13.08H333.61v15.78c0,4.65,1.16,6.88,3.88,6.88a8.13,8.13,0,0,0,4.26-1.55L346,143.52a28.36,28.36,0,0,1-12.59,3.1C319.76,146.62,316.47,136.45,316.47,127.64ZM330,152.7V236H312.88V152.7Zm-33.42,70.71a15.11,15.11,0,0,0,8.33-2.33L310.75,233s-5.62,4.45-16.66,4.45c-14.34,0-27.51-11.62-27.51-26.15s13.07-26.44,27.51-26.44c11,0,16.66,4.65,16.66,4.65l-5.81,11.72a15.11,15.11,0,0,0-8.33-2.33,12.26,12.26,0,0,0,0,24.51Zm-24.9-122.7C275.58,96.83,280.52,94,286,94c9.1,0,21.79,4.55,21.79,18.4v32.74H290.6V117.08c0-4.94-3.39-9.69-8.91-9.69-5.14,0-10.17,4.75-10.17,9.69v28.09H254.37V95.48h17.15v5.23Zm65-63.23a14.53,14.53,0,0,1,14.91,14.14,14.53,14.53,0,0,1-29.05,0A14.52,14.52,0,0,1,336.71,37.48Zm-44,14.14a12.85,12.85,0,0,1,0-1.52,14.52,14.52,0,1,1,29,1.52,12.85,12.85,0,0,1,0,1.52,14.52,14.52,0,0,1-29-1.52Zm-23.27-14.1h8.86a13.81,13.81,0,0,1,13.52,14.1v.54a13.78,13.78,0,0,1-14,13.57h-8.38Zm-25.06,0h6.22l9.71,17.59V37.52h6.23V65.73h-6.23l-9.71-17.59V65.73h-6.22Zm6.77,82.85c0,15.31-12.5,26.25-29.64,26.25-17.92,0-29.93-10.94-29.93-26.25,0-15.49,13.17-26.34,29.93-26.34C238,94,251.18,104.88,251.18,120.37Zm-121.67,24.8V117.08c0-4.94-3.39-9.69-8.91-9.69-5.14,0-10.17,4.75-10.17,9.69v28.09H93.28V95.48h17.15v5.23h.19c3.88-3.88,8.82-6.68,14.24-6.68,9.1,0,21.79,4.55,21.79,18.4v32.74Zm10.27,7.53V236H122.63V152.7Zm33.13,32.16c16.47,0,29.64,10.85,29.64,26.34,0,15.31-12.5,26.25-29.64,26.25C155,237.45,143,226.51,143,211.2,143,195.71,156.15,184.86,172.91,184.86ZM235.29,37.52h6.22V65.73h-6.22Zm-18.84,0H232.8v5.64H222.67v5.6h9.71V54.4h-9.71V65.73h-6.22ZM191,50.72h5V52.5a5.6,5.6,0,0,1,4.39-2.12c3.89,0,5.47,2.67,5.47,6.62l0,8.24H201V57c0-1.71-.65-2.63-2.2-2.63S196,56,196,58v7.24h-5Zm-9.53-.33c4.41,0,8.06,2.64,8.06,7.28,0,.33,0,.62,0,.92H178.28a3.31,3.31,0,0,0,3.13,3.46,2.64,2.64,0,0,0,2.86-2.21h5c-.86,3.82-4,5.73-7.8,5.73-5,0-8.46-3-8.46-7.57S176.59,50.39,181.47,50.39Zm-23.77,0c4.41,0,8.06,2.64,8.06,7.28a7,7,0,0,0,0,.92H154.51a3.31,3.31,0,0,0,3.13,3.46,2.63,2.63,0,0,0,2.86-2.21h5c-.8,3.82-3.95,5.73-7.8,5.73-5,0-8.46-3-8.46-7.57S152.83,50.39,157.7,50.39ZM176.4,94c11,0,16.66,4.65,16.66,4.65l-5.81,11.72a15.11,15.11,0,0,0-8.33-2.33,12.26,12.26,0,0,0,0,24.51,15.11,15.11,0,0,0,8.33-2.33l5.81,11.92s-5.62,4.45-16.66,4.45c-14.34,0-27.51-11.62-27.51-26.15S162,94,176.4,94ZM132.91,50.72h4.94V59c0,1.64.67,2.64,2.21,2.64s2.76-1.68,2.76-3.62V50.72h4.94V65.26h-4.94V63.48a5.58,5.58,0,0,1-4.44,2.11c-3.89,0-5.47-2.67-5.47-6.59ZM121,50.39a6.16,6.16,0,0,1,5,2.11V50.72h4.94V73.5H126v-10c-1,1.48-3.16,2.07-5,2.07a7.6,7.6,0,0,1,0-15.18Zm-17.23.33h4.93V52.5a4.61,4.61,0,0,1,3.82-2.11,3.8,3.8,0,0,1,1.48.33V55.2h-.06a2.52,2.52,0,0,0-2-.82A3.59,3.59,0,0,0,108.7,58v7.24h-4.93ZM94,50.43c4.51,0,8.27,2.93,8.27,7.57S98.64,65.54,94,65.54s-8.29-3-8.29-7.54S89.46,50.43,94,50.43Zm-26.07.29h4.94v1.75a6.07,6.07,0,0,1,5-2.11,7.6,7.6,0,0,1,0,15.18c-1.91,0-4-.59-5-2.07v10H67.93Zm-14.42,12a2.88,2.88,0,0,1,2.9-2.86h0a2.9,2.9,0,1,1-2.91,2.89Zm-7.57,0a2.88,2.88,0,0,1,2.9-2.86h0a2.9,2.9,0,1,1-2.91,2.89Zm-7.57,0a2.87,2.87,0,0,1,2.9-2.84h0a2.9,2.9,0,1,1-2.91,2.89ZM63.44,94c15.11,0,26.64,8.91,26.64,26.34a17.4,17.4,0,0,1-.1,2.33H54C54,130.35,60.34,133,64.7,133c5.52,0,8-1.06,12.11-5.52l12.4,6.2c-5.62,9.4-14.72,13-25.77,13-15,0-27.31-11.81-27.31-26.25S48.43,94,63.44,94ZM94.25,352H77.1V322.08c-4.07,4-9.59,6.2-16.27,6.2-14.53,0-24.7-11.81-24.7-26.34s10.17-26.25,24.7-26.25a22,22,0,0,1,16.27,7.07h.19v-5.62h17Zm0-116h-17v-5.62H77.1a22,22,0,0,1-16.27,7.07c-14.53,0-24.7-11.72-24.7-26.25s10.17-26.34,24.7-26.34c6.68,0,12.2,2.22,16.27,6.2v-4.75H94.25Zm59.67,68.94c0,16.66-8.33,23.34-26.93,23.34s-26.93-6.68-26.93-23.34v-27.8h17.15v23.63c0,9.79,2.61,13.56,9.78,13.56s9.78-3.77,9.78-13.56V277.14h17.15Zm56.08-.58H174c0,7.65,6.39,10.27,10.75,10.27,5.52,0,7.95-1.07,12.11-5.53l12.4,6.2c-5.62,9.4-14.72,13-25.77,13-15,0-27.31-11.81-27.31-26.25s12.3-26.34,27.31-26.34S210.1,284.6,210.1,302A17.4,17.4,0,0,1,210,304.36Zm-7.84-73.59,7-11.72s6.78,5.71,12.3,5.71c2.43,0,5.33-.29,5.33-3.58,0-3.58-5.42-3.87-11-6.78-5-2.62-10.07-6.1-10.07-13.56,0-10.17,8.62-16,21.69-16A38,38,0,0,1,244,188.73L238.38,200s-5.81-3.1-11-3.1c-3.78,0-5.32.68-5.32,3,0,2.62,3.48,3.39,7.74,4.75,6.59,2,15.11,5.71,15.11,15.88,0,14.63-13.36,16.95-23.53,16.95A29.75,29.75,0,0,1,202.16,230.77Zm52.6,97.51c-13.66,0-16.95-10.17-16.95-19V290.22h-7.17V277.14h7.17v-18.5H255v18.5h10.46v13.08H255V306c0,4.65,1.16,6.88,3.88,6.88a8.13,8.13,0,0,0,4.26-1.55l4.26,13.85A28.36,28.36,0,0,1,254.76,328.28Zm68.1-1.45h-17v-5.62h-.19a22,22,0,0,1-16.27,7.07c-14.53,0-24.7-11.72-24.7-26.25s10.17-26.34,24.7-26.34c6.68,0,12.2,2.22,16.27,6.2v-4.75h17.15Zm60.15,0H365.87V298.74c0-4.94-3.39-9.69-8.91-9.69-5.14,0-10.17,4.75-10.17,9.69v28.09H329.64V277.14h17.15v5.23H347c3.87-3.87,8.81-6.68,14.24-6.68,9.1,0,21.79,4.55,21.79,18.4Zm25.67,1.45c-13.66,0-16.95-10.17-16.95-19V290.22h-7.17V277.14h7.17v-18.5h17.14v18.5h10.46v13.08H408.87V306c0,4.65,1.17,6.88,3.88,6.88a8.13,8.13,0,0,0,4.26-1.55l4.26,13.85A28.36,28.36,0,0,1,408.68,328.28Zm39.91,0c-17.92,0-29.93-10.94-29.93-26.25,0-15.49,13.17-26.34,29.93-26.34,16.47,0,29.64,10.85,29.64,26.34C478.23,317.34,465.73,328.28,448.59,328.28Zm28.29-109.81V199.39h-7.17V186.31h7.17v-18.5H494v18.5h10.46v13.08H494v15.78c0,4.65,1.17,6.88,3.88,6.88a8.09,8.09,0,0,0,4.26-1.55l4.26,13.85a28.36,28.36,0,0,1-12.59,3.1C480.17,237.45,476.88,227.28,476.88,218.47Zm59.57,109.81a22,22,0,0,1-16.27-7.07H520v5.62H503v-83.3h17.15v38.36c4.07-4,9.59-6.2,16.27-6.2,14.53,0,24.7,11.81,24.7,26.34S551,328.28,536.45,328.28Zm80.79-23.34c0,16.66-8.33,23.34-26.93,23.34s-26.93-6.68-26.93-23.34v-27.8h17.15v23.63c0,9.79,2.61,13.56,9.78,13.56s9.78-3.77,9.78-13.56V277.14h17.15Zm21.41,23.34a29.75,29.75,0,0,1-19.18-6.68l7-11.72s6.78,5.71,12.3,5.71c2.43,0,5.33-.29,5.33-3.58,0-3.58-5.42-3.87-11-6.78-5-2.62-10.07-6.1-10.07-13.56,0-10.17,8.62-16,21.69-16a38,38,0,0,1,16.66,3.87l-5.62,11.24s-5.81-3.1-11-3.1c-3.77,0-5.32.68-5.32,3,0,2.62,3.48,3.39,7.74,4.75,6.59,2,15.11,5.71,15.11,15.88C662.18,326,648.82,328.28,638.65,328.28Zm51.14,0c-14.34,0-27.51-11.62-27.51-26.15s13.07-26.44,27.51-26.44c11,0,16.66,4.65,16.66,4.65l-5.81,11.72a15.11,15.11,0,0,0-8.33-2.33,12.26,12.26,0,0,0,0,24.51,15.11,15.11,0,0,0,8.33-2.33l5.81,11.92S700.83,328.28,689.79,328.28Zm73.33-1.45h-17v-5.62H746a22,22,0,0,1-16.27,7.07c-14.53,0-24.7-11.72-24.7-26.25s10.17-26.34,24.7-26.34c6.68,0,12.2,2.22,16.27,6.2v-4.75h17.15Zm122.63,0h-17v-5.62h-.19a22,22,0,0,1-16.27,7.07c-13.38,0-23.06-9.94-24.51-22.85-1.45,12.91-11.12,22.85-24.5,22.85a22,22,0,0,1-16.27-7.07h-.2v5.62h-17v-83.3h17.15v38.36c4.07-4,9.59-6.2,16.27-6.2,13.38,0,23,10,24.5,22.95,1.45-12.93,11.13-22.95,24.51-22.95,6.68,0,12.2,2.22,16.27,6.2v-4.75h17.15Zm22.38,1.45A29.75,29.75,0,0,1,889,321.6l7-11.72s6.78,5.71,12.3,5.71c2.43,0,5.33-.29,5.33-3.58,0-3.58-5.42-3.87-11-6.78-5-2.62-10.08-6.1-10.08-13.56,0-10.17,8.63-16,21.7-16a38,38,0,0,1,16.66,3.87l-5.62,11.24s-5.81-3.1-11-3.1c-3.78,0-5.33.68-5.33,3,0,2.62,3.49,3.39,7.75,4.75,6.59,2,15.11,5.71,15.11,15.88C931.66,326,918.3,328.28,908.13,328.28Z"/><path class="cls-1" d="M857.46,290.31A11.38,11.38,0,0,0,845.84,302c0,6.78,4.65,11.63,11.62,11.63,6.69,0,11.53-4.85,11.53-11.63A11.37,11.37,0,0,0,857.46,290.31Z"/><path class="cls-1" d="M798.19,290.31A11.36,11.36,0,0,0,786.66,302c0,6.78,4.84,11.63,11.53,11.63,7,0,11.62-4.85,11.62-11.63A11.38,11.38,0,0,0,798.19,290.31Z"/><path class="cls-1" d="M734.83,290.31A11.38,11.38,0,0,0,723.21,302c0,6.78,4.65,11.63,11.62,11.63,6.69,0,11.53-4.85,11.53-11.63A11.37,11.37,0,0,0,734.83,290.31Z"/><path class="cls-1" d="M531.32,290.31A11.36,11.36,0,0,0,519.79,302c0,6.78,4.84,11.63,11.53,11.63,7,0,11.62-4.85,11.62-11.63A11.38,11.38,0,0,0,531.32,290.31Z"/><path class="cls-1" d="M294.57,290.31A11.38,11.38,0,0,0,283,302c0,6.78,4.65,11.63,11.62,11.63A11.18,11.18,0,0,0,306.1,302,11.37,11.37,0,0,0,294.57,290.31Z"/><path class="cls-2" d="M41.26,65.61a2.9,2.9,0,0,0,0-5.8h0a2.87,2.87,0,0,0-2.9,2.84v.05A2.9,2.9,0,0,0,41.26,65.61Z"/><path class="cls-2" d="M48.83,65.61a2.9,2.9,0,0,0,0-5.8h0a2.88,2.88,0,0,0-2.9,2.86v0A2.9,2.9,0,0,0,48.83,65.61Z"/><path class="cls-2" d="M56.4,65.61a2.9,2.9,0,0,0,0-5.8h0a2.88,2.88,0,0,0-2.9,2.86v0A2.9,2.9,0,0,0,56.4,65.61Z"/><path class="cls-2" d="M72.87,63.47c1,1.48,3.09,2.07,5,2.07a7.6,7.6,0,0,0,0-15.18,6.07,6.07,0,0,0-5,2.11V50.72H67.93V73.47h4.94Zm3.62-8.77a3.46,3.46,0,0,1-.16,6.92A3.55,3.55,0,0,1,72.87,58,3.47,3.47,0,0,1,76.49,54.7Z"/><path class="cls-2" d="M94,65.54c4.64,0,8.27-2.9,8.27-7.54S98.51,50.43,94,50.43s-8.29,3-8.29,7.57S89.36,65.54,94,65.54Zm0-11.26c2.6,0,3.36,1.94,3.36,3.75s-.72,3.79-3.36,3.79-3.39-2-3.39-3.79S91.4,54.28,94,54.28Z"/><path class="cls-2" d="M108.7,58a3.59,3.59,0,0,1,3.24-3.62,2.52,2.52,0,0,1,2,.82H114V50.72a3.8,3.8,0,0,0-1.48-.33,4.61,4.61,0,0,0-3.82,2.11V50.72h-4.93V65.24h4.93Z"/><path class="cls-2" d="M113.8,58.37a7.6,7.6,0,0,0,7.2,7.2c1.84,0,4-.59,5-2.07v10h4.94V50.72H126V52.5a6.16,6.16,0,0,0-5-2.11A7.6,7.6,0,0,0,113.8,58.37Zm8.74-4A3.55,3.55,0,0,1,126,58a3.46,3.46,0,1,1-3.46-3.62Z"/><path class="cls-2" d="M138.38,65.59a5.58,5.58,0,0,0,4.44-2.11v1.78h4.94V50.72h-4.94V58c0,1.94-1.22,3.62-2.76,3.62s-2.21-1-2.21-2.64V50.72h-4.94V59C132.91,62.92,134.49,65.59,138.38,65.59Z"/><path class="cls-2" d="M157.7,65.57c3.85,0,7-1.91,7.8-5.73h-5a2.63,2.63,0,0,1-2.86,2.21,3.31,3.31,0,0,1-3.13-3.46h11.26a7,7,0,0,1,0-.92c0-4.64-3.65-7.28-8.06-7.28-4.87,0-8.46,3.06-8.46,7.61S152.7,65.57,157.7,65.57Zm.1-12a3,3,0,0,1,3.22,2.7h-6.48A3,3,0,0,1,157.8,53.55Z"/><path class="cls-2" d="M181.47,65.57c3.85,0,6.94-1.91,7.8-5.73h-5a2.64,2.64,0,0,1-2.86,2.21,3.31,3.31,0,0,1-3.13-3.46H189.5c0-.3,0-.59,0-.92,0-4.64-3.65-7.28-8.06-7.28-4.88,0-8.46,3.06-8.46,7.61S176.46,65.57,181.47,65.57Zm.09-12a3,3,0,0,1,3.23,2.7h-6.48A3,3,0,0,1,181.56,53.55Z"/><path class="cls-2" d="M196,58c0-2,1.22-3.62,2.77-3.62S201,55.3,201,57v8.23h4.94l0-8.24c0-4-1.58-6.62-5.47-6.62A5.6,5.6,0,0,0,196,52.5V50.72h-5V65.24h5Z"/><path class="cls-3" d="M63.44,146.62c11,0,20.15-3.58,25.77-13l-12.4-6.2C72.65,131.9,70.22,133,64.7,133,60.34,133,54,130.35,54,122.7H90a17.4,17.4,0,0,0,.1-2.33C90.08,102.94,78.55,94,63.44,94s-27.31,11.81-27.31,26.34S48.43,146.62,63.44,146.62Zm.49-41.45c5,0,8.62,2.8,9.39,8H54.44C54.73,108.65,58,105.17,63.93,105.17Z"/><path class="cls-3" d="M146.65,112.43C146.65,98.58,134,94,124.86,94c-5.42,0-10.36,2.8-14.24,6.68h-.19V95.48H93.28v49.69h17.15V117.08c0-4.94,5-9.69,10.17-9.69,5.52,0,8.91,4.75,8.91,9.69v28.09h17.14Z"/><path class="cls-3" d="M176.4,146.62c11,0,16.66-4.45,16.66-4.45l-5.81-11.92a15.11,15.11,0,0,1-8.33,2.33,12.26,12.26,0,0,1,0-24.51,15.11,15.11,0,0,1,8.33,2.33l5.81-11.72S187.44,94,176.4,94c-14.44,0-27.51,11.81-27.51,26.44S162.06,146.62,176.4,146.62Z"/><path class="cls-3" d="M191.61,120.37c0,15.31,12,26.25,29.93,26.25,17.14,0,29.64-10.94,29.64-26.25C251.18,104.88,238,94,221.54,94,204.78,94,191.61,104.88,191.61,120.37Zm41.36,0c0,6.78-4.84,11.63-11.53,11.63-7,0-11.62-4.85-11.62-11.63a11.58,11.58,0,1,1,23.15,0Z"/><path class="cls-3" d="M254.37,95.48v49.69h17.15V117.08c0-4.94,5-9.69,10.17-9.69,5.52,0,8.91,4.75,8.91,9.69v28.09h17.14V112.43C307.74,98.58,295.05,94,286,94c-5.43,0-10.37,2.8-14.24,6.68h-.19V95.48Z"/><path class="cls-3" d="M346,143.52l-4.26-13.85a8.13,8.13,0,0,1-4.26,1.55c-2.72,0-3.88-2.23-3.88-6.88V108.56h10.46V95.48H333.61V77H316.47v18.5H309.3v13.08h7.17v19.08c0,8.81,3.29,19,16.95,19A28.36,28.36,0,0,0,346,143.52Z"/><path class="cls-3" d="M347,95.48v49.69h17.15V119c0-1.26,1.26-10.08,10.17-10.08a14.46,14.46,0,0,1,8.91,2.72l7.17-14.53A20.6,20.6,0,0,0,379.53,94c-9.79,0-15.21,8.62-15.21,8.62h-.19V95.48Z"/><path class="cls-3" d="M411.49,146.62a22,22,0,0,0,16.27-7.07H428v5.62h17V95.48H427.76v4.75c-4.07-4-9.59-6.2-16.27-6.2-14.53,0-24.7,11.81-24.7,26.34S397,146.62,411.49,146.62Zm5.13-38a11.37,11.37,0,0,1,11.53,11.72c0,6.78-4.84,11.63-11.53,11.63-7,0-11.62-4.85-11.62-11.63A11.38,11.38,0,0,1,416.62,108.65Z"/><path class="cls-3" d="M468.84,116.11c0-4,2.22-8.33,7.94-8.33,6.1,0,8.72,4.36,8.72,9.3v28.09h17.14V115.53c.19-3.78,2.52-7.75,7.94-7.75,6.11,0,8.72,4.36,8.72,9.3v28.09h17.15V112.43c0-13.85-10.27-18.4-19.38-18.4-5.42,0-11.23,2.8-16.46,9.1-3.49-6.68-10.75-9.1-17.34-9.1-5.43,0-10.37,2.8-14.24,6.68h-.19V95.48H451.69v49.69h17.15Z"/><path class="cls-3" d="M568.61,146.62c17.14,0,29.64-10.94,29.64-26.25,0-15.49-13.17-26.34-29.64-26.34-16.76,0-29.93,10.85-29.93,26.34C538.68,135.68,550.69,146.62,568.61,146.62Zm-.1-38A11.37,11.37,0,0,1,580,120.37c0,6.78-4.84,11.63-11.53,11.63-7,0-11.62-4.85-11.62-11.63A11.38,11.38,0,0,1,568.51,108.65Z"/><path class="cls-3" d="M611.43,123.57c5.62,2.91,11,3.2,11,6.78,0,3.29-2.9,3.58-5.33,3.58-5.52,0-12.3-5.71-12.3-5.71l-7,11.72a29.75,29.75,0,0,0,19.18,6.68c10.17,0,23.53-2.32,23.53-17,0-10.17-8.52-13.85-15.11-15.88-4.26-1.36-7.74-2.13-7.74-4.75,0-2.32,1.54-3,5.32-3,5.23,0,11,3.1,11,3.1l5.62-11.24A38,38,0,0,0,623.05,94c-13.07,0-21.7,5.81-21.7,16C601.35,117.47,606.39,121,611.43,123.57Z"/><path class="cls-3" d="M77.1,191.06c-4.07-4-9.59-6.2-16.27-6.2-14.53,0-24.7,11.81-24.7,26.34s10.17,26.25,24.7,26.25a22,22,0,0,0,16.27-7.07h.19V236h17V186.31H77.1ZM66,222.83c-7,0-11.62-4.85-11.62-11.63a11.58,11.58,0,1,1,23.15,0C77.49,218,72.65,222.83,66,222.83Z"/><rect class="cls-3" x="122.63" y="152.7" width="17.15" height="83.3"/><path class="cls-3" d="M172.91,237.45c17.14,0,29.64-10.94,29.64-26.25,0-15.49-13.17-26.34-29.64-26.34-16.76,0-29.93,10.85-29.93,26.34C143,226.51,155,237.45,172.91,237.45Zm-.1-38a11.37,11.37,0,0,1,11.53,11.72c0,6.78-4.84,11.63-11.53,11.63-7,0-11.62-4.85-11.62-11.63A11.38,11.38,0,0,1,172.81,199.48Z"/><path class="cls-3" d="M244.87,220.5c0-10.17-8.52-13.85-15.11-15.88-4.26-1.36-7.74-2.13-7.74-4.75,0-2.32,1.54-3,5.32-3,5.23,0,11,3.1,11,3.1L244,188.73a38,38,0,0,0-16.66-3.87c-13.07,0-21.69,5.81-21.69,16,0,7.46,5,10.94,10.07,13.56,5.62,2.91,11,3.2,11,6.78,0,3.29-2.9,3.58-5.33,3.58-5.52,0-12.3-5.71-12.3-5.71l-7,11.72a29.75,29.75,0,0,0,19.18,6.68C231.51,237.45,244.87,235.13,244.87,220.5Z"/><path class="cls-3" d="M296.61,198.9a15.11,15.11,0,0,1,8.33,2.33l5.81-11.72s-5.62-4.65-16.66-4.65c-14.44,0-27.51,11.81-27.51,26.44s13.17,26.15,27.51,26.15c11,0,16.66-4.45,16.66-4.45l-5.81-11.92a15.11,15.11,0,0,1-8.33,2.33,12.26,12.26,0,0,1,0-24.51Z"/><rect class="cls-3" x="312.88" y="152.7" width="17.15" height="83.3"/><circle class="cls-3" cx="345.62" cy="165.77" r="10.17"/><rect class="cls-3" x="336.8" y="186.31" width="17.14" height="49.69"/><path class="cls-3" d="M411.58,211.2c0-17.43-11.53-26.34-26.64-26.34s-27.31,11.81-27.31,26.34,12.3,26.25,27.31,26.25c11.05,0,20.15-3.58,25.77-13l-12.4-6.2c-4.16,4.46-6.59,5.52-12.11,5.52-4.36,0-10.75-2.61-10.75-10.26h36A17.4,17.4,0,0,0,411.58,211.2ZM375.94,204c.29-4.56,3.58-8,9.49-8,5,0,8.62,2.8,9.39,8Z"/><path class="cls-3" d="M431.93,191.54v-5.23H414.78V236h17.15V207.91c0-4.94,5-9.69,10.17-9.69,5.52,0,8.91,4.75,8.91,9.69V236h17.14V203.26c0-13.85-12.69-18.4-21.79-18.4-5.42,0-10.36,2.81-14.24,6.68Z"/><path class="cls-3" d="M502.16,220.5a8.09,8.09,0,0,1-4.26,1.55c-2.71,0-3.88-2.23-3.88-6.88V199.39h10.46V186.31H494v-18.5H476.88v18.5h-7.17v13.08h7.17v19.08c0,8.81,3.29,19,16.95,19a28.36,28.36,0,0,0,12.59-3.1Z"/><path class="cls-3" d="M557.76,211.2c0-17.43-11.53-26.34-26.64-26.34s-27.31,11.81-27.31,26.34,12.3,26.25,27.31,26.25c11,0,20.15-3.58,25.77-13l-12.4-6.2c-4.16,4.46-6.59,5.52-12.11,5.52-4.36,0-10.75-2.61-10.75-10.26h36A17.4,17.4,0,0,0,557.76,211.2ZM522.12,204c.29-4.56,3.58-8,9.49-8,5,0,8.62,2.8,9.39,8Z"/><path class="cls-3" d="M600.09,220.5c0-10.17-8.52-13.85-15.11-15.88-4.26-1.36-7.75-2.13-7.75-4.75,0-2.32,1.55-3,5.33-3,5.23,0,11,3.1,11,3.1l5.62-11.24a38,38,0,0,0-16.66-3.87c-13.07,0-21.7,5.81-21.7,16,0,7.46,5,10.94,10.08,13.56,5.62,2.91,11,3.2,11,6.78,0,3.29-2.9,3.58-5.33,3.58-5.52,0-12.3-5.71-12.3-5.71l-7,11.72a29.75,29.75,0,0,0,19.18,6.68C586.73,237.45,600.09,235.13,600.09,220.5Z"/><path class="cls-3" d="M77.29,282.76H77.1a22,22,0,0,0-16.27-7.07c-14.53,0-24.7,11.72-24.7,26.25s10.17,26.34,24.7,26.34c6.68,0,12.2-2.23,16.27-6.2V352H94.25V277.14h-17ZM66,313.66a11.38,11.38,0,0,1-11.62-11.72c0-6.78,4.65-11.63,11.62-11.63,6.69,0,11.53,4.85,11.53,11.63A11.37,11.37,0,0,1,66,313.66Z"/><path class="cls-3" d="M136.77,300.77c0,9.79-2.61,13.56-9.78,13.56s-9.78-3.77-9.78-13.56V277.14H100.06v27.8c0,16.66,8.33,23.34,26.93,23.34s26.93-6.68,26.93-23.34v-27.8H136.77Z"/><path class="cls-3" d="M183.46,275.69c-15,0-27.31,11.81-27.31,26.34s12.3,26.25,27.31,26.25c11,0,20.15-3.58,25.77-13l-12.4-6.2c-4.16,4.46-6.59,5.53-12.11,5.53-4.36,0-10.75-2.62-10.75-10.27h36a17.4,17.4,0,0,0,.1-2.33C210.1,284.6,198.57,275.69,183.46,275.69Zm-9,19.18c.29-4.56,3.58-8,9.49-8,5,0,8.62,2.8,9.39,8Z"/><path class="cls-3" d="M258.83,312.88c-2.72,0-3.88-2.23-3.88-6.88V290.22h10.46V277.14H255v-18.5H237.81v18.5h-7.17v13.08h7.17V309.3c0,8.81,3.29,19,16.95,19a28.36,28.36,0,0,0,12.59-3.1l-4.26-13.85A8.13,8.13,0,0,1,258.83,312.88Z"/><path class="cls-3" d="M305.71,281.89c-4.07-4-9.59-6.2-16.27-6.2-14.53,0-24.7,11.81-24.7,26.34s10.17,26.25,24.7,26.25a22,22,0,0,0,16.27-7.07h.19v5.62h17V277.14H305.71Zm-11.14,31.77c-7,0-11.62-4.85-11.62-11.63a11.58,11.58,0,1,1,23.15,0A11.18,11.18,0,0,1,294.57,313.66Z"/><path class="cls-3" d="M361.22,275.69c-5.43,0-10.37,2.81-14.24,6.68h-.19v-5.23H329.64v49.69h17.15V298.74c0-4.94,5-9.69,10.17-9.69,5.52,0,8.91,4.75,8.91,9.69v28.09H383V294.09C383,280.24,370.32,275.69,361.22,275.69Z"/><path class="cls-3" d="M412.75,312.88c-2.71,0-3.88-2.23-3.88-6.88V290.22h10.46V277.14H408.87v-18.5H391.73v18.5h-7.17v13.08h7.17V309.3c0,8.81,3.29,19,16.95,19a28.36,28.36,0,0,0,12.59-3.1L417,311.33A8.13,8.13,0,0,1,412.75,312.88Z"/><path class="cls-3" d="M448.59,275.69c-16.76,0-29.93,10.85-29.93,26.34,0,15.31,12,26.25,29.93,26.25,17.14,0,29.64-10.94,29.64-26.25C478.23,286.54,465.06,275.69,448.59,275.69Zm-.1,38c-7,0-11.62-4.85-11.62-11.63A11.58,11.58,0,1,1,460,302C460,308.81,455.18,313.66,448.49,313.66Z"/><path class="cls-3" d="M536.45,275.69c-6.68,0-12.2,2.22-16.27,6.2V243.53H503v83.3h17v-5.62h.2a22,22,0,0,0,16.27,7.07c14.53,0,24.7-11.72,24.7-26.25S551,275.69,536.45,275.69Zm-5.13,38c-6.69,0-11.53-4.85-11.53-11.63a11.58,11.58,0,1,1,23.15,0C542.94,308.81,538.29,313.66,531.32,313.66Z"/><path class="cls-3" d="M600.09,300.77c0,9.79-2.61,13.56-9.78,13.56s-9.78-3.77-9.78-13.56V277.14H563.38v27.8c0,16.66,8.33,23.34,26.93,23.34s26.93-6.68,26.93-23.34v-27.8H600.09Z"/><path class="cls-3" d="M647.07,295.45c-4.26-1.36-7.74-2.13-7.74-4.75,0-2.32,1.55-3,5.32-3,5.23,0,11,3.1,11,3.1l5.62-11.24a38,38,0,0,0-16.66-3.87c-13.07,0-21.69,5.81-21.69,16,0,7.46,5,10.94,10.07,13.56,5.62,2.91,11,3.2,11,6.78,0,3.29-2.9,3.58-5.33,3.58-5.52,0-12.3-5.71-12.3-5.71l-7,11.72a29.75,29.75,0,0,0,19.18,6.68c10.17,0,23.53-2.32,23.53-16.95C662.18,301.16,653.66,297.48,647.07,295.45Z"/><path class="cls-3" d="M692.31,314.24a12.26,12.26,0,0,1,0-24.51,15.11,15.11,0,0,1,8.33,2.33l5.81-11.72s-5.62-4.65-16.66-4.65c-14.44,0-27.51,11.81-27.51,26.44s13.17,26.15,27.51,26.15c11,0,16.66-4.45,16.66-4.45l-5.81-11.92A15.11,15.11,0,0,1,692.31,314.24Z"/><path class="cls-3" d="M746,281.89c-4.07-4-9.59-6.2-16.27-6.2-14.53,0-24.7,11.81-24.7,26.34s10.17,26.25,24.7,26.25A22,22,0,0,0,746,321.21h.19v5.62h17V277.14H746Zm-11.14,31.77c-7,0-11.62-4.85-11.62-11.63a11.58,11.58,0,1,1,23.15,0C746.36,308.81,741.52,313.66,734.83,313.66Z"/><path class="cls-3" d="M868.6,281.89c-4.07-4-9.59-6.2-16.27-6.2-13.38,0-23.06,10-24.51,22.95-1.45-12.93-11.12-22.95-24.5-22.95-6.68,0-12.2,2.22-16.27,6.2V243.53H769.9v83.3h17v-5.62h.2a22,22,0,0,0,16.27,7.07c13.38,0,23-9.94,24.5-22.85,1.45,12.91,11.13,22.85,24.51,22.85a22,22,0,0,0,16.27-7.07h.19v5.62h17V277.14H868.6Zm-70.41,31.77c-6.69,0-11.53-4.85-11.53-11.63a11.58,11.58,0,1,1,23.15,0C809.81,308.81,805.16,313.66,798.19,313.66Zm59.27,0c-7,0-11.62-4.85-11.62-11.63A11.58,11.58,0,1,1,869,302C869,308.81,864.15,313.66,857.46,313.66Z"/><path class="cls-3" d="M916.55,295.45c-4.26-1.36-7.75-2.13-7.75-4.75,0-2.32,1.55-3,5.33-3,5.23,0,11,3.1,11,3.1l5.62-11.24a38,38,0,0,0-16.66-3.87c-13.07,0-21.7,5.81-21.7,16,0,7.46,5,10.94,10.08,13.56,5.62,2.91,11,3.2,11,6.78,0,3.29-2.9,3.58-5.33,3.58-5.52,0-12.3-5.71-12.3-5.71l-7,11.72a29.75,29.75,0,0,0,19.18,6.68c10.17,0,23.53-2.32,23.53-16.95C931.66,301.16,923.14,297.48,916.55,295.45Z"/><polygon class="cls-2" points="222.67 54.4 232.38 54.4 232.38 48.76 222.67 48.76 222.67 43.16 232.8 43.16 232.8 37.52 216.45 37.52 216.45 65.73 222.67 65.73 222.67 54.4"/><rect class="cls-2" x="235.29" y="37.52" width="6.22" height="28.21"/><polygon class="cls-2" points="250.63 48.14 260.34 65.73 266.57 65.73 266.57 37.52 260.34 37.52 260.34 55.11 250.63 37.52 244.41 37.52 244.41 65.73 250.63 65.73 250.63 48.14"/><path class="cls-2" d="M291.85,52.16v-.54a13.81,13.81,0,0,0-13.52-14.1h-8.86V65.73h8.38A13.78,13.78,0,0,0,291.85,52.16ZM275.61,60V43.28h1.87c4.81,0,8,3.65,8,8.34s-3.28,8.38-8,8.38Z"/><path class="cls-2" d="M306.48,66.88a14.52,14.52,0,0,0,15.26-13.74,12.85,12.85,0,0,0,0-1.52,14.52,14.52,0,1,0-29-1.52,12.85,12.85,0,0,0,0,1.52A14.52,14.52,0,0,0,306.48,66.88Zm-7.55-15.26A8.3,8.3,0,0,1,315.52,51a5.61,5.61,0,0,1,0,.58,8.3,8.3,0,0,1-16.59.58A5.61,5.61,0,0,1,298.93,51.62Z"/><path class="cls-2" d="M337.48,65.76a14.52,14.52,0,0,0,14.14-14.14,14.53,14.53,0,0,0-29.05,0A14.53,14.53,0,0,0,337.48,65.76ZM328.8,51.62A8.3,8.3,0,0,1,345.39,51a5.61,5.61,0,0,1,0,.58,8.3,8.3,0,0,1-16.59.58A5.61,5.61,0,0,1,328.8,51.62Z"/></g></g></svg>