<svg xmlns="http://www.w3.org/2000/svg" width="1676.73" height="334.49" viewBox="0 0 1676.73 334.49"><defs><style>.cls-1{fill:#edebeb;}.cls-2{fill:#5c5e63;}.cls-3{fill:#5fcd30;}</style></defs><title>banner-gracias-findoo-generas-experiencia2</title><g id="Capa_2" data-name="Capa 2"><g id="Capa_1-2" data-name="Capa 1"><path class="cls-1" d="M1240.18,221.85a12.62,12.62,0,0,0-12.89,13c0,7.52,5.15,12.88,12.89,12.88,7.41,0,12.78-5.36,12.78-12.88A12.6,12.6,0,0,0,1240.18,221.85Z"/><path class="cls-1" d="M486.22,43.47a4.29,4.29,0,0,0-4.38,4.41,4.36,4.36,0,1,0,8.72,0A4.27,4.27,0,0,0,486.22,43.47Z"/><path class="cls-1" d="M698.74,51.13c5.47,0,7.73-4.49,7.73-9s-2.41-9-7.73-9-7.77,4.48-7.77,9S693.12,51.13,698.74,51.13Z"/><path class="cls-1" d="M676.31,42.19c0-5-3.46-8.93-8.57-8.93h-1.06V51.09h1.06C672.81,51.09,676.28,47.23,676.31,42.19Z"/><path class="cls-1" d="M581.92,43.47a4.29,4.29,0,0,0-4.38,4.41,4.36,4.36,0,1,0,8.72,0A4.27,4.27,0,0,0,581.92,43.47Z"/><path class="cls-1" d="M446.8,43.47a4.29,4.29,0,0,0-4.38,4.41,4.36,4.36,0,1,0,8.72,0A4.27,4.27,0,0,0,446.8,43.47Z"/><path class="cls-1" d="M1118.62,221.85a12.62,12.62,0,0,0-12.89,13c0,7.52,5.15,12.88,12.89,12.88,7.41,0,12.78-5.36,12.78-12.88A12.6,12.6,0,0,0,1118.62,221.85Z"/><path class="cls-1" d="M869.07,221.85a12.62,12.62,0,0,0-12.89,13c0,7.52,5.15,12.88,12.89,12.88,7.41,0,12.78-5.36,12.78-12.88A12.6,12.6,0,0,0,869.07,221.85Z"/><path class="cls-1" d="M1036.35,117.3c-6.55,0-10.2,3.86-10.52,8.91h20.94C1045.91,120.41,1041.94,117.3,1036.35,117.3Z"/><path class="cls-1" d="M838.33,121.16c-7.41,0-12.78,5.37-12.78,12.89a12.84,12.84,0,1,0,25.67,0C851.22,126.53,846.06,121.16,838.33,121.16Z"/><path class="cls-1" d="M901.8,117.3c-6.55,0-10.2,3.86-10.52,8.91h20.94C911.36,120.41,907.39,117.3,901.8,117.3Z"/><path class="cls-1" d="M534.58,43.47a4.28,4.28,0,0,0-4.37,4.41,4.36,4.36,0,1,0,8.71,0A4.27,4.27,0,0,0,534.58,43.47Z"/><path class="cls-1" d="M728.9,51.13c5.47,0,7.73-4.49,7.73-9s-2.41-9-7.73-9-7.77,4.48-7.77,9S723.28,51.13,728.9,51.13Z"/><path class="cls-1" d="M917.71,42.16c-2.23,0-3.47,1.31-3.58,3h7.11A3.32,3.32,0,0,0,917.71,42.16Z"/><path class="cls-1" d="M895.39,52.26a4.2,4.2,0,0,0,4.34-4.38,4.36,4.36,0,1,0-8.72,0A4.18,4.18,0,0,0,895.39,52.26Z"/><path class="cls-1" d="M997.43,52.26a4.2,4.2,0,0,0,4.34-4.38,4.36,4.36,0,1,0-8.72,0A4.18,4.18,0,0,0,997.43,52.26Z"/><path class="cls-1" d="M1238,147c7.41,0,12.78-5.36,12.78-12.88a12.84,12.84,0,1,0-25.67,0C1225.14,141.68,1230.29,147,1238,147Z"/><path class="cls-1" d="M960.17,42.16c-2.23,0-3.47,1.31-3.58,3h7.11A3.32,3.32,0,0,0,960.17,42.16Z"/><path class="cls-1" d="M764,52.26a4.28,4.28,0,0,0,4.37-4.41,4.36,4.36,0,1,0-8.71,0A4.27,4.27,0,0,0,764,52.26Z"/><path class="cls-1" d="M709.57,117.3c-6.55,0-10.2,3.86-10.52,8.91H720C719.13,120.41,715.16,117.3,709.57,117.3Z"/><path class="cls-1" d="M808.62,52.26A4.2,4.2,0,0,0,813,47.88a4.36,4.36,0,1,0-8.72,0A4.18,4.18,0,0,0,808.62,52.26Z"/><path class="cls-1" d="M786.34,52.26a4.2,4.2,0,0,0,4.34-4.38,4.36,4.36,0,1,0-8.72,0A4.18,4.18,0,0,0,786.34,52.26Z"/><path class="cls-1" d="M848.05,52.26a4.2,4.2,0,0,0,4.34-4.38,4.36,4.36,0,1,0-8.72,0A4.18,4.18,0,0,0,848.05,52.26Z"/><path class="cls-1" d="M1561.7,290c-2.23,0-3.47,1.31-3.58,3h7.11A3.32,3.32,0,0,0,1561.7,290Z"/><path class="cls-1" d="M1398.6,291.32a4.29,4.29,0,0,0-4.38,4.41,4.36,4.36,0,1,0,8.72,0A4.28,4.28,0,0,0,1398.6,291.32Z"/><path class="cls-1" d="M1353.26,221.85a12.62,12.62,0,0,0-12.89,13c0,7.52,5.15,12.88,12.89,12.88,7.41,0,12.78-5.36,12.78-12.88A12.6,12.6,0,0,0,1353.26,221.85Z"/><path class="cls-1" d="M1438,291.32a4.29,4.29,0,0,0-4.38,4.41,4.36,4.36,0,1,0,8.72,0A4.28,4.28,0,0,0,1438,291.32Z"/><path class="cls-1" d="M1616.73,290c-2.23,0-3.47,1.31-3.58,3h7.11A3.32,3.32,0,0,0,1616.73,290Z"/><path class="cls-1" d="M0,0V334.49H1676.73V0ZM1288,137.7c-5.59-2.9-11.17-6.76-11.17-15,0-11.28,9.55-17.72,24-17.72a42.1,42.1,0,0,1,18.47,4.29l-6.23,12.46s-6.44-3.44-12.24-3.44c-4.19,0-5.9.76-5.9,3.33,0,2.9,3.86,3.76,8.59,5.26,7.3,2.26,16.75,6.34,16.75,17.62,0,16.21-14.82,18.79-26.1,18.79a33,33,0,0,1-21.26-7.41l7.73-13s7.52,6.33,13.64,6.33c2.69,0,5.91-.32,5.91-4C1300.2,141.25,1294.18,140.92,1288,137.7ZM1232.33,105c7.41,0,13.54,2.47,18.05,6.87v-5.26h19v55.09h-18.79v-6.23h-.21a24.43,24.43,0,0,1-18.05,7.84c-16.1,0-27.38-13-27.38-29.1S1216.23,105,1232.33,105Zm-163.45,1.61h19v5.8h.22c4.29-4.3,9.77-7.41,15.78-7.41,10.1,0,24.17,5,24.17,20.4v36.3h-19V130.51c0-5.48-3.76-10.74-9.88-10.74-5.69,0-11.28,5.26-11.28,10.74v31.14h-19Zm-58.24-68.05h6.45v2.7h.08a7.32,7.32,0,0,1,5.72-3.25,7.76,7.76,0,0,1,4.09,1.17l-2.7,5.47a5.48,5.48,0,0,0-3.36-1c-3.35,0-3.83,3.32-3.83,3.79v9.85h-6.45ZM995.5,38a8.53,8.53,0,0,1,6.13,2.34V38.51h6.45V57.22h-6.38V55.1h-.07a8.28,8.28,0,0,1-6.13,2.67c-5.47,0-9.3-4.42-9.3-9.89S990,38,995.5,38Zm8,45.83a11.28,11.28,0,1,1-11.27-11.27A11.27,11.27,0,0,1,1003.49,83.79ZM971.21,38.51h6.45v2.7h.08A7.32,7.32,0,0,1,983.46,38a7.76,7.76,0,0,1,4.09,1.17l-2.7,5.47a5.48,5.48,0,0,0-3.36-1c-3.35,0-3.83,3.32-3.83,3.79v9.85h-6.45ZM960,38c5.69,0,10,3.36,10,9.92a8.24,8.24,0,0,1,0,.88H956.41a3.83,3.83,0,0,0,4.05,3.87c2.08,0,3-.41,4.56-2.08l4.66,2.33c-2.11,3.54-5.54,4.89-9.7,4.89A9.91,9.91,0,1,1,960,38Zm-31.22.55h6.45v2h.08A7.73,7.73,0,0,1,940.65,38c3.43,0,8.2,1.72,8.2,6.93V57.22H942.4V46.64A3.45,3.45,0,0,0,939,43a4,4,0,0,0-3.83,3.64V57.22h-6.45ZM917.52,38c5.69,0,10,3.36,10,9.92a8.24,8.24,0,0,1,0,.88H914a3.83,3.83,0,0,0,4,3.87c2.08,0,3-.41,4.56-2.08l4.66,2.33c-2.11,3.54-5.54,4.89-9.7,4.89a9.91,9.91,0,1,1,0-19.81Zm-24.06,0a8.58,8.58,0,0,1,6,2.23h.1V38.51H906V57.73c0,6.27-4.63,9.52-11,9.52-3.91,0-8.39-.88-10.36-5.44L890,59.23c.69,1.13,2.26,2.4,5.07,2.4a4.3,4.3,0,0,0,4.55-4.37V55.87c-1.38,1.53-3.57,1.9-6.12,1.9-5.47,0-9.3-4.42-9.3-9.89S888,38,893.46,38ZM865,49.09c-1.89-1-3.79-2.3-3.79-5.11,0-3.83,3.25-6,8.17-6a14.26,14.26,0,0,1,6.27,1.46l-2.11,4.23a10.6,10.6,0,0,0-4.16-1.16c-1.42,0-2,.25-2,1.13s1.32,1.27,2.92,1.78c2.48.77,5.69,2.16,5.69,6,0,5.51-5,6.39-8.86,6.39a11.19,11.19,0,0,1-7.22-2.52l2.62-4.41S865.09,53,867.17,53c.91,0,2-.11,2-1.35S867.13,50.18,865,49.09ZM853.7,26.59,857,30.78l-8.68,5-2-2.81ZM846.12,38a8.53,8.53,0,0,1,6.13,2.34V38.51h6.45V57.22h-6.38V55.1h-.07a8.28,8.28,0,0,1-6.13,2.67c-5.47,0-9.3-4.42-9.3-9.89S840.65,38,846.12,38Zm-24.29.55h6.45v2.7h.08A7.32,7.32,0,0,1,834.08,38a7.76,7.76,0,0,1,4.09,1.17l-2.7,5.47a5.48,5.48,0,0,0-3.36-1c-3.35,0-3.83,3.32-3.83,3.79v9.85h-6.45Zm-68.46,0h6.38v2.12h.07A8.28,8.28,0,0,1,766,38c5.08,0,8.74,3.81,9.24,8.73.62-5.19,5.32-8.73,11.19-8.73s10.45,3.54,11.08,8.72c.52-4.9,4.17-8.72,9.23-8.72a8.49,8.49,0,0,1,6.12,2.34V25.86h6.46V57.22h-6.38V55.1h-.08a8.24,8.24,0,0,1-6.12,2.67c-5.06,0-8.71-3.78-9.23-8.68-.61,5.12-5.09,8.68-11.08,8.68-6.28,0-10.63-3.57-11.2-8.71-.52,4.9-4.17,8.71-9.23,8.71a8.49,8.49,0,0,1-6.13-2.34V66.7h-6.45ZM710.43,148.12c6.12,0,8.81-1.18,13.42-6.12l13.75,6.87c-6.23,10.42-16.32,14.39-28.57,14.39-16.64,0-30.28-13.1-30.28-29.1S692.39,105,709,105s29.54,9.88,29.54,29.21a19.25,19.25,0,0,1-.11,2.57h-40C698.51,145.22,705.6,148.12,710.43,148.12Zm48.76-15.25L739,106.56h22.23l9.56,12.78,9.55-12.78h22.23l-20.18,26.31,23.51,28.78h-23l-12.13-15.57-12.14,15.57h-23ZM659.83,27.13h8.71a14.9,14.9,0,0,1,15.1,13.54,15.12,15.12,0,0,1,30.16,0A15.14,15.14,0,0,1,744,42.16c0,8.79-6.49,15.61-15.13,15.61-8.35,0-14.39-6-15.1-14a15,15,0,0,1-15.06,14c-8.36,0-14.41-6-15.1-14.05a14.88,14.88,0,0,1-15.1,13.5h-8.71Zm19.27,145,9.77,12.35L663.31,199.3l-6-8.27ZM457.45,57.73c0,6.27-4.63,9.52-11,9.52-3.91,0-8.39-.88-10.36-5.44l5.29-2.58c.69,1.13,2.26,2.4,5.07,2.4A4.31,4.31,0,0,0,451,57.26V55.87c-1.39,1.53-3.58,1.9-6.13,1.9-5.47,0-9.3-4.42-9.3-9.89S439.4,38,444.87,38a8.58,8.58,0,0,1,6,2.23H451V38.51h6.45Zm12.83-14.15c-3.35,0-3.83,3.32-3.83,3.79v9.85H460V38.51h6.45v2.7h.08A7.32,7.32,0,0,1,472.25,38a7.76,7.76,0,0,1,4.09,1.17l-2.7,5.47A5.48,5.48,0,0,0,470.28,43.58Zm26.59,13.64h-6.38V55.1h-.07a8.28,8.28,0,0,1-6.13,2.67c-5.47,0-9.3-4.42-9.3-9.89s3.83-9.92,9.3-9.92a8.53,8.53,0,0,1,6.13,2.34V38.51h6.45Zm12.51-4.74a5.66,5.66,0,0,0,3.14-.88l2.19,4.49a10.58,10.58,0,0,1-6.27,1.68c-5.4,0-10.36-4.38-10.36-9.85S503,38,508.44,38a10.29,10.29,0,0,1,6.27,1.75l-2.19,4.42a5.66,5.66,0,0,0-3.14-.88,4.62,4.62,0,0,0,0,9.23ZM522,57.22h-6.45V38.51H522Zm-3.13-22.61a3.83,3.83,0,1,1,3.83-3.83A3.82,3.82,0,0,1,518.83,34.61Zm26.4,22.61h-6.38V55.1h-.07a8.28,8.28,0,0,1-6.13,2.67c-5.47,0-9.3-4.42-9.3-9.89s3.83-9.92,9.3-9.92a8.51,8.51,0,0,1,6.13,2.34V38.51h6.45Zm8.43.55a11.19,11.19,0,0,1-7.22-2.52l2.62-4.41S551.62,53,553.7,53c.91,0,2-.11,2-1.35s-2-1.46-4.16-2.55c-1.89-1-3.79-2.3-3.79-5.11,0-3.83,3.25-6,8.17-6a14.26,14.26,0,0,1,6.27,1.46l-2.11,4.23a10.6,10.6,0,0,0-4.16-1.16c-1.42,0-2,.25-2,1.13s1.31,1.27,2.91,1.78c2.48.77,5.69,2.16,5.69,6C562.52,56.89,557.49,57.77,553.66,57.77Zm38.91-.55h-6.38V55.1h-.07A8.28,8.28,0,0,1,580,57.77c-5.47,0-9.3-4.42-9.3-9.89S574.52,38,580,38a8.53,8.53,0,0,1,6.13,2.34V38.51h6.45Zm28.08-24.07H610.11v6h9.74v6h-9.74V57.22h-6.85V27.13h17.39ZM629,57.22h-6.85V27.13H629Zm2.56-30.09h6.85l12,18.67h.07V27.13h6.85V57.22h-6.85l-12-18.67h-.08V57.22h-6.85Zm62,210.94c0,18.47-9.24,25.88-29.86,25.88s-29.85-7.41-29.85-25.88V207.25h19v26.2c0,10.85,2.9,15,10.84,15s10.85-4.19,10.85-15v-26.2h19Zm65.62,24.27h-19V231.2c0-5.48-3.76-10.74-9.88-10.74-5.69,0-11.28,5.26-11.28,10.74v31.14h-19V207.25h19v5.8h.22c4.29-4.3,9.77-7.41,15.78-7.41,10.1,0,24.17,5,24.17,20.4Zm25.44,0h-19V207.25h19Zm-9.23-66.58a11.28,11.28,0,1,1,11.27-11.28A11.28,11.28,0,0,1,775.32,195.76ZM819.13,264c-15.89,0-30.5-12.89-30.5-29s14.5-29.32,30.5-29.32c12.24,0,18.47,5.15,18.47,5.15l-6.44,13a16.78,16.78,0,0,0-9.24-2.58,13.59,13.59,0,0,0,0,27.17,16.78,16.78,0,0,0,9.24-2.58L837.6,259S831.37,264,819.13,264Zm81.29-1.61H881.63v-6.23h-.21a24.41,24.41,0,0,1-18,7.84c-16.11,0-27.39-13-27.39-29.1s11.28-29.21,27.39-29.21c7.41,0,13.53,2.47,18,6.87v-5.26h19ZM871.21,137.66c-1.55,14.41-12.3,25.6-27.19,25.6-7.41,0-13.53-2.47-18-6.87v33.18H807v-83h18.8v6.23H826A24.41,24.41,0,0,1,844,105c14.93,0,25.7,11.15,27.2,25.6,1.86-14.41,14.66-25.6,30-25.6,16.76,0,29.54,9.88,29.54,29.21a19.25,19.25,0,0,1-.11,2.57h-40c0,8.49,7.09,11.39,11.92,11.39,6.12,0,8.81-1.18,13.42-6.12l13.75,6.87c-6.23,10.42-16.32,14.39-28.57,14.39C885.85,163.26,873,152,871.21,137.66Zm54,126.29A33,33,0,0,1,904,256.54l7.73-13s7.52,6.33,13.64,6.33c2.69,0,5.91-.32,5.91-4,0-4-6-4.3-12.24-7.52-5.59-2.9-11.17-6.76-11.17-15,0-11.28,9.55-17.72,24-17.72a42.1,42.1,0,0,1,18.47,4.29l-6.23,12.46S937.68,219,931.88,219c-4.19,0-5.9.76-5.9,3.33,0,2.9,3.86,3.76,8.59,5.26,7.3,2.26,16.75,6.34,16.75,17.62C951.32,261.37,936.5,264,925.22,264Zm39.4-142.46c-9.88,0-11.28,9.77-11.28,11.16v29h-19V106.56h19v8h.22s6-9.56,16.86-9.56a22.88,22.88,0,0,1,12,3.43v-1.82h19v55.09h-19V108.39l-7.94,16.1A16.09,16.09,0,0,0,964.62,121.49Zm25.81,151.78H983l6.45-12.4-8.86-15.79H988l5.22,9.59,4.44-9.59h7.44Zm15.1-139.11c0-16.11,13.64-29.21,30.28-29.21s29.54,9.88,29.54,29.21a19.25,19.25,0,0,1-.11,2.57h-40c0,8.49,7.09,11.39,11.92,11.39,6.12,0,8.81-1.18,13.42-6.12l13.75,6.87c-6.23,10.42-16.32,14.39-28.57,14.39C1019.17,163.26,1005.53,150.16,1005.53,134.16Zm42.64,128.18-29.53-55.09h22.55l13.43,30,13.42-30h22.55l-29.53,55.09Zm101.8,0h-18.79v-6.23H1131a24.42,24.42,0,0,1-18,7.84c-16.1,0-27.38-13-27.38-29.1s11.28-29.21,27.38-29.21c7.41,0,13.54,2.47,18,6.87v-5.26h19Zm26.53,0h-19V170h19Zm-12.68-114.65a16.78,16.78,0,0,0,9.24-2.58l6.44,13.21s-6.23,4.94-18.47,4.94c-15.9,0-30.5-12.89-30.5-29S1145,105,1161,105c12.24,0,18.47,5.15,18.47,5.15l-6.44,13a16.78,16.78,0,0,0-9.24-2.58,13.59,13.59,0,0,0,0,27.17Zm27.82-75.17a11.28,11.28,0,1,1-11.28,11.27A11.26,11.26,0,0,1,1191.64,72.52Zm-9.78,34h19v55.09h-19ZM1203,262.34h-19V207.25h19Zm-9.23-66.58a11.28,11.28,0,1,1,11.27-11.28A11.28,11.28,0,0,1,1193.79,195.76ZM1240.28,264c-19.86,0-33.18-12.13-33.18-29.1,0-17.18,14.61-29.21,33.18-29.21,18.26,0,32.87,12,32.87,29.21C1273.15,251.82,1259.29,264,1240.28,264Zm53.7,0a33,33,0,0,1-21.26-7.41l7.73-13s7.52,6.33,13.64,6.33c2.69,0,5.91-.32,5.91-4,0-4-6-4.3-12.25-7.52-5.58-2.9-11.16-6.76-11.16-15,0-11.28,9.55-17.72,24.05-17.72a42.1,42.1,0,0,1,18.47,4.29l-6.23,12.46s-6.44-3.44-12.24-3.44c-4.19,0-5.9.76-5.9,3.33,0,2.9,3.86,3.76,8.59,5.26,7.3,2.26,16.75,6.34,16.75,17.62C1320.08,261.37,1305.26,264,1294,264Zm53.58,0c-16.1,0-27.38-13-27.38-29.1s11.28-29.21,27.38-29.21c7.41,0,13.54,2.47,18,6.87v-5.26h19v55.09h-18.8v-6.23h-.21A24.42,24.42,0,0,1,1347.56,264Zm61.69,41.12h-6.38V303h-.08a8.27,8.27,0,0,1-6.12,2.66c-5.07,0-8.72-3.79-9.23-8.7-.53,4.9-4.18,8.7-9.23,8.7a8.51,8.51,0,0,1-6.13-2.34v11.27h-6.45V286.36H1372v2.12h.07a8.32,8.32,0,0,1,6.13-2.67c5.07,0,8.72,3.79,9.23,8.7.53-4.89,4.17-8.7,9.23-8.7a8.49,8.49,0,0,1,6.12,2.34v-1.79h6.46Zm-21.09-48.53,7.73-13s7.52,6.33,13.64,6.33c2.69,0,5.91-.32,5.91-4,0-4-6-4.3-12.24-7.52-5.59-2.9-11.17-6.76-11.17-15,0-11.28,9.55-17.72,24-17.72a42.1,42.1,0,0,1,18.47,4.29l-6.23,12.46s-6.44-3.44-12.24-3.44c-4.19,0-5.9.76-5.9,3.33,0,2.9,3.86,3.76,8.59,5.26,7.3,2.26,16.75,6.34,16.75,17.62,0,16.21-14.82,18.79-26.1,18.79A33,33,0,0,1,1388.16,256.54Zm33.92,34.89c-3.35,0-3.83,3.32-3.83,3.79v9.85h-6.45V286.36h6.45v2.7h.08a7.32,7.32,0,0,1,5.72-3.25,7.76,7.76,0,0,1,4.09,1.17l-2.7,5.47A5.48,5.48,0,0,0,1422.08,291.43Zm26.59,13.64h-6.38V303h-.08a8.27,8.27,0,0,1-6.12,2.66c-5.47,0-9.3-4.41-9.3-9.89s3.83-9.92,9.3-9.92a8.49,8.49,0,0,1,6.12,2.34v-1.79h6.46Zm18.16.55c-5.14,0-6.38-3.83-6.38-7.15v-7.18h-2.7v-4.93h2.7v-7h6.46v7h3.94v4.93h-3.94v5.94c0,1.75.43,2.59,1.46,2.59a3,3,0,0,0,1.6-.58l1.61,5.21A10.68,10.68,0,0,1,1466.83,305.62Zm25-8.79c0,6.27-3.14,8.79-10.14,8.79s-10.14-2.52-10.14-8.79V286.36H1478v8.9c0,3.68,1,5.11,3.68,5.11s3.68-1.43,3.68-5.11v-8.9h6.46Zm8.06,8.79a11.19,11.19,0,0,1-7.22-2.52l2.62-4.41s2.56,2.15,4.64,2.15c.91,0,2-.11,2-1.35s-2-1.46-4.16-2.55c-1.89-1-3.79-2.3-3.79-5.11,0-3.83,3.25-6,8.17-6a14.26,14.26,0,0,1,6.27,1.46l-2.11,4.23a10.6,10.6,0,0,0-4.16-1.16c-1.42,0-2,.25-2,1.13s1.31,1.27,2.91,1.78c2.48.77,5.69,2.16,5.69,6C1508.77,304.74,1503.74,305.62,1499.91,305.62Zm28.34-5.29a5.66,5.66,0,0,0,3.14-.88l2.19,4.49a10.58,10.58,0,0,1-6.27,1.68c-5.4,0-10.36-4.38-10.36-9.85s4.92-10,10.36-10a10.26,10.26,0,0,1,6.27,1.76l-2.19,4.41a5.66,5.66,0,0,0-3.14-.88,4.62,4.62,0,0,0,0,9.23Zm12.58,4.74h-6.45V273.71h6.45Zm9,0h-6.45V286.36h6.45Zm-3.13-22.61a3.83,3.83,0,1,1,3.83-3.83A3.82,3.82,0,0,1,1546.71,282.46Zm24.79,14.15h-13.56a3.83,3.83,0,0,0,4,3.87c2.08,0,3-.41,4.56-2.08l4.66,2.33c-2.11,3.54-5.54,4.89-9.7,4.89a9.91,9.91,0,1,1,0-19.81c5.69,0,10,3.36,10,9.92A6.19,6.19,0,0,1,1571.5,296.61Zm21.34,8.46h-6.45V294.49a3.45,3.45,0,0,0-3.36-3.64,4,4,0,0,0-3.83,3.64v10.58h-6.45V286.36h6.45v2h.08a7.71,7.71,0,0,1,5.36-2.52c3.42,0,8.2,1.72,8.2,6.93Zm9.66.55c-5.14,0-6.38-3.83-6.38-7.15v-7.18h-2.7v-4.93h2.7v-7h6.46v7h3.94v4.93h-3.94v5.94c0,1.75.43,2.59,1.46,2.59a3,3,0,0,0,1.6-.58l1.61,5.21A10.68,10.68,0,0,1,1602.5,305.62Zm14,0a9.91,9.91,0,1,1,0-19.81c5.69,0,10,3.36,10,9.92a8.24,8.24,0,0,1,0,.88H1613a3.83,3.83,0,0,0,4,3.87c2.08,0,3-.41,4.56-2.08l4.66,2.33C1624.13,304.27,1620.7,305.62,1616.54,305.62Zm17.11,0a11.19,11.19,0,0,1-7.22-2.52l2.62-4.41s2.56,2.15,4.64,2.15c.91,0,2-.11,2-1.35s-2-1.46-4.16-2.55c-1.89-1-3.79-2.3-3.79-5.11,0-3.83,3.25-6,8.17-6a14.26,14.26,0,0,1,6.27,1.46l-2.11,4.23a10.6,10.6,0,0,0-4.16-1.16c-1.42,0-2,.25-2,1.13s1.31,1.27,2.91,1.78c2.48.77,5.69,2.16,5.69,6C1642.51,304.74,1637.48,305.62,1633.65,305.62Z"/><path class="cls-1" d="M1376.28,291.32a4.21,4.21,0,0,0-4.34,4.38,4.36,4.36,0,1,0,8.71,0A4.18,4.18,0,0,0,1376.28,291.32Z"/><path class="cls-2" d="M451,40.19h-.11a8.58,8.58,0,0,0-6-2.23c-5.47,0-9.3,4.45-9.3,9.92s3.83,9.89,9.3,9.89c2.55,0,4.74-.37,6.13-1.9v1.39a4.31,4.31,0,0,1-4.56,4.37c-2.81,0-4.38-1.27-5.07-2.4l-5.29,2.58c2,4.56,6.45,5.44,10.36,5.44,6.38,0,11-3.25,11-9.52V38.51H451Zm-4.2,12.07a4.18,4.18,0,0,1-4.38-4.38,4.36,4.36,0,1,1,8.72,0A4.2,4.2,0,0,1,446.8,52.26Z"/><path class="cls-2" d="M472.25,38a7.32,7.32,0,0,0-5.72,3.25h-.08v-2.7H460V57.22h6.45V47.37c0-.47.48-3.79,3.83-3.79a5.48,5.48,0,0,1,3.36,1l2.7-5.47A7.76,7.76,0,0,0,472.25,38Z"/><path class="cls-2" d="M490.42,40.3A8.53,8.53,0,0,0,484.29,38c-5.47,0-9.3,4.45-9.3,9.92s3.83,9.89,9.3,9.89a8.28,8.28,0,0,0,6.13-2.67h.07v2.12h6.38V38.51h-6.45Zm-4.2,12a4.18,4.18,0,0,1-4.38-4.38,4.36,4.36,0,1,1,8.72,0A4.2,4.2,0,0,1,486.22,52.26Z"/><path class="cls-2" d="M509.38,43.25a5.66,5.66,0,0,1,3.14.88l2.19-4.42A10.29,10.29,0,0,0,508.44,38c-5.44,0-10.36,4.45-10.36,10s5,9.85,10.36,9.85a10.58,10.58,0,0,0,6.27-1.68l-2.19-4.49a5.66,5.66,0,0,1-3.14.88,4.62,4.62,0,0,1,0-9.23Z"/><circle class="cls-2" cx="518.83" cy="30.78" r="3.83"/><rect class="cls-2" x="515.51" y="38.51" width="6.46" height="18.71"/><path class="cls-2" d="M538.78,40.3A8.51,8.51,0,0,0,532.65,38c-5.47,0-9.3,4.45-9.3,9.92s3.83,9.89,9.3,9.89a8.28,8.28,0,0,0,6.13-2.67h.07v2.12h6.38V38.51h-6.45Zm-4.2,12a4.17,4.17,0,0,1-4.37-4.38,4.36,4.36,0,1,1,8.71,0A4.2,4.2,0,0,1,534.58,52.26Z"/><path class="cls-2" d="M556.83,45.4c-1.6-.51-2.91-.8-2.91-1.78s.58-1.13,2-1.13a10.6,10.6,0,0,1,4.16,1.16l2.11-4.23A14.26,14.26,0,0,0,555.92,38c-4.92,0-8.17,2.19-8.17,6,0,2.81,1.9,4.12,3.79,5.11,2.12,1.09,4.16,1.2,4.16,2.55s-1.09,1.35-2,1.35c-2.08,0-4.64-2.15-4.64-2.15l-2.62,4.41a11.19,11.19,0,0,0,7.22,2.52c3.83,0,8.86-.88,8.86-6.39C562.52,47.56,559.31,46.17,556.83,45.4Z"/><path class="cls-2" d="M586.12,40.3A8.53,8.53,0,0,0,580,38c-5.47,0-9.3,4.45-9.3,9.92s3.83,9.89,9.3,9.89a8.28,8.28,0,0,0,6.13-2.67h.07v2.12h6.38V38.51h-6.45Zm-4.2,12a4.18,4.18,0,0,1-4.38-4.38,4.36,4.36,0,1,1,8.72,0A4.2,4.2,0,0,1,581.92,52.26Z"/><polygon class="cls-2" points="603.26 57.22 610.11 57.22 610.11 45.15 619.85 45.15 619.85 39.13 610.11 39.13 610.11 33.15 620.65 33.15 620.65 27.13 603.26 27.13 603.26 57.22"/><rect class="cls-2" x="622.12" y="27.13" width="6.86" height="30.09"/><polygon class="cls-2" points="638.38 38.55 638.46 38.55 650.42 57.22 657.27 57.22 657.27 27.13 650.42 27.13 650.42 45.8 650.35 45.8 638.38 27.13 631.53 27.13 631.53 57.22 638.38 57.22 638.38 38.55"/><path class="cls-2" d="M683.64,43.72c.69,8,6.74,14.05,15.1,14.05a15,15,0,0,0,15.06-14c.71,8,6.75,14,15.1,14C737.54,57.77,744,51,744,42.16a15.14,15.14,0,0,0-30.23-1.5,15.12,15.12,0,0,0-30.16,0,14.9,14.9,0,0,0-15.1-13.54h-8.71V57.22h8.71A14.88,14.88,0,0,0,683.64,43.72ZM728.9,33.19c5.32,0,7.73,4.48,7.73,9s-2.26,9-7.73,9-7.77-4.49-7.77-9S723.61,33.19,728.9,33.19Zm-30.16,0c5.32,0,7.73,4.48,7.73,9s-2.26,9-7.73,9-7.77-4.49-7.77-9S693.45,33.19,698.74,33.19Zm-32.06,17.9V33.26h1.06c5.11,0,8.57,3.9,8.57,8.93s-3.5,8.9-8.57,8.9Z"/><path class="cls-2" d="M759.82,55.43A8.49,8.49,0,0,0,766,57.77c5.06,0,8.71-3.81,9.23-8.71.57,5.14,4.92,8.71,11.2,8.71,6,0,10.47-3.56,11.08-8.68.52,4.9,4.17,8.68,9.23,8.68a8.24,8.24,0,0,0,6.12-2.67h.08v2.12h6.38V25.86h-6.46V40.3A8.49,8.49,0,0,0,806.69,38c-5.06,0-8.71,3.82-9.23,8.72-.63-5.18-5.32-8.72-11.08-8.72s-10.57,3.54-11.19,8.73C774.69,41.77,771,38,766,38a8.28,8.28,0,0,0-6.13,2.67h-.07V38.51h-6.38V66.7h6.45Zm48.8-12A4.27,4.27,0,0,1,813,47.88a4.36,4.36,0,1,1-8.72,0A4.29,4.29,0,0,1,808.62,43.47Zm-22.28,0a4.27,4.27,0,0,1,4.34,4.41,4.36,4.36,0,1,1-8.72,0A4.29,4.29,0,0,1,786.34,43.47Zm-22.32,0a4.17,4.17,0,0,1,4.37,4.38,4.36,4.36,0,1,1-8.71,0A4.2,4.2,0,0,1,764,43.47Z"/><path class="cls-2" d="M828.28,47.37c0-.47.48-3.79,3.83-3.79a5.48,5.48,0,0,1,3.36,1l2.7-5.47A7.76,7.76,0,0,0,834.08,38a7.32,7.32,0,0,0-5.72,3.25h-.08v-2.7h-6.45V57.22h6.45Z"/><path class="cls-2" d="M846.12,57.77a8.28,8.28,0,0,0,6.13-2.67h.07v2.12h6.38V38.51h-6.45V40.3A8.53,8.53,0,0,0,846.12,38c-5.47,0-9.3,4.45-9.3,9.92S840.65,57.77,846.12,57.77Zm1.93-14.3a4.27,4.27,0,0,1,4.34,4.41,4.36,4.36,0,1,1-8.72,0A4.29,4.29,0,0,1,848.05,43.47Z"/><polygon class="cls-2" points="857.02 30.78 853.7 26.59 846.3 33.01 848.34 35.81 857.02 30.78"/><path class="cls-2" d="M867.17,53c-2.08,0-4.64-2.15-4.64-2.15l-2.62,4.41a11.19,11.19,0,0,0,7.22,2.52c3.83,0,8.86-.88,8.86-6.39,0-3.82-3.21-5.21-5.69-6-1.6-.51-2.92-.8-2.92-1.78s.59-1.13,2-1.13a10.6,10.6,0,0,1,4.16,1.16l2.11-4.23A14.26,14.26,0,0,0,869.39,38c-4.92,0-8.17,2.19-8.17,6,0,2.81,1.9,4.12,3.79,5.11,2.12,1.09,4.16,1.2,4.16,2.55S868.08,53,867.17,53Z"/><path class="cls-2" d="M893.46,57.77c2.55,0,4.74-.37,6.12-1.9v1.39A4.3,4.3,0,0,1,895,61.63c-2.81,0-4.38-1.27-5.07-2.4l-5.29,2.58c2,4.56,6.45,5.44,10.36,5.44,6.38,0,11-3.25,11-9.52V38.51h-6.46v1.68h-.1a8.58,8.58,0,0,0-6-2.23c-5.47,0-9.3,4.45-9.3,9.92S888,57.77,893.46,57.77Zm1.93-14.3a4.27,4.27,0,0,1,4.34,4.41,4.36,4.36,0,1,1-8.72,0A4.29,4.29,0,0,1,895.39,43.47Z"/><path class="cls-2" d="M917.52,57.77c4.16,0,7.59-1.35,9.7-4.89l-4.66-2.33c-1.57,1.67-2.48,2.08-4.56,2.08a3.83,3.83,0,0,1-4-3.87h13.57a8.24,8.24,0,0,0,0-.88c0-6.56-4.34-9.92-10-9.92a9.91,9.91,0,1,0,0,19.81Zm.19-15.61a3.32,3.32,0,0,1,3.53,3h-7.11C914.24,43.47,915.48,42.16,917.71,42.16Z"/><path class="cls-2" d="M935.21,46.64A4,4,0,0,1,939,43a3.45,3.45,0,0,1,3.36,3.64V57.22h6.45V44.89c0-5.21-4.77-6.93-8.2-6.93a7.73,7.73,0,0,0-5.36,2.52h-.08v-2h-6.45V57.22h6.45Z"/><path class="cls-2" d="M960,57.77c4.16,0,7.59-1.35,9.7-4.89L965,50.55c-1.57,1.67-2.48,2.08-4.56,2.08a3.83,3.83,0,0,1-4.05-3.87H970a8.24,8.24,0,0,0,0-.88c0-6.56-4.34-9.92-10-9.92a9.91,9.91,0,1,0,0,19.81Zm.19-15.61a3.32,3.32,0,0,1,3.53,3h-7.11C956.7,43.47,957.94,42.16,960.17,42.16Z"/><path class="cls-2" d="M977.66,47.37c0-.47.48-3.79,3.83-3.79a5.48,5.48,0,0,1,3.36,1l2.7-5.47A7.76,7.76,0,0,0,983.46,38a7.32,7.32,0,0,0-5.72,3.25h-.08v-2.7h-6.45V57.22h6.45Z"/><path class="cls-2" d="M995.5,57.77a8.28,8.28,0,0,0,6.13-2.67h.07v2.12h6.38V38.51h-6.45V40.3A8.53,8.53,0,0,0,995.5,38c-5.47,0-9.3,4.45-9.3,9.92S990,57.77,995.5,57.77Zm1.93-14.3a4.27,4.27,0,0,1,4.34,4.41,4.36,4.36,0,1,1-8.72,0A4.29,4.29,0,0,1,997.43,43.47Z"/><path class="cls-2" d="M1017.09,47.37c0-.47.48-3.79,3.83-3.79a5.48,5.48,0,0,1,3.36,1l2.7-5.47a7.76,7.76,0,0,0-4.09-1.17,7.32,7.32,0,0,0-5.72,3.25h-.08v-2.7h-6.45V57.22h6.45Z"/><path class="cls-2" d="M1402.79,288.15a8.49,8.49,0,0,0-6.12-2.34c-5.06,0-8.7,3.81-9.23,8.7-.51-4.91-4.16-8.7-9.23-8.7a8.32,8.32,0,0,0-6.13,2.67H1372v-2.12h-6.38v28.19h6.45V303.28a8.51,8.51,0,0,0,6.13,2.34c5,0,8.7-3.8,9.23-8.7.51,4.91,4.16,8.7,9.23,8.7a8.27,8.27,0,0,0,6.12-2.66h.08v2.11h6.38V286.36h-6.46Zm-26.51,12a4.27,4.27,0,0,1-4.34-4.41,4.36,4.36,0,1,1,8.71,0A4.28,4.28,0,0,1,1376.28,300.11Zm22.32,0a4.18,4.18,0,0,1-4.38-4.38,4.36,4.36,0,1,1,8.72,0A4.2,4.2,0,0,1,1398.6,300.11Z"/><path class="cls-2" d="M1424.05,285.81a7.32,7.32,0,0,0-5.72,3.25h-.08v-2.7h-6.45v18.71h6.45v-9.85c0-.47.48-3.79,3.83-3.79a5.48,5.48,0,0,1,3.36,1l2.7-5.47A7.76,7.76,0,0,0,1424.05,285.81Z"/><path class="cls-2" d="M1442.21,288.15a8.49,8.49,0,0,0-6.12-2.34c-5.47,0-9.3,4.45-9.3,9.92s3.83,9.89,9.3,9.89a8.27,8.27,0,0,0,6.12-2.66h.08v2.11h6.38V286.36h-6.46Zm-4.19,12a4.18,4.18,0,0,1-4.38-4.38,4.36,4.36,0,1,1,8.72,0A4.2,4.2,0,0,1,1438,300.11Z"/><path class="cls-2" d="M1468.37,299.82c-1,0-1.46-.84-1.46-2.59v-5.94h3.94v-4.93h-3.94v-7h-6.46v7h-2.7v4.93h2.7v7.18c0,3.32,1.24,7.15,6.38,7.15a10.68,10.68,0,0,0,4.75-1.17l-1.61-5.21A3,3,0,0,1,1468.37,299.82Z"/><path class="cls-2" d="M1485.39,295.26c0,3.68-1,5.11-3.68,5.11s-3.68-1.43-3.68-5.11v-8.9h-6.46v10.47c0,6.27,3.14,8.79,10.14,8.79s10.14-2.52,10.14-8.79V286.36h-6.46Z"/><path class="cls-2" d="M1503.08,293.25c-1.6-.51-2.91-.8-2.91-1.78s.58-1.13,2-1.13a10.6,10.6,0,0,1,4.16,1.16l2.11-4.23a14.26,14.26,0,0,0-6.27-1.46c-4.92,0-8.17,2.19-8.17,6,0,2.81,1.9,4.12,3.79,5.11,2.12,1.09,4.16,1.2,4.16,2.55s-1.09,1.35-2,1.35c-2.08,0-4.64-2.15-4.64-2.15l-2.62,4.41a11.19,11.19,0,0,0,7.22,2.52c3.83,0,8.86-.88,8.86-6.38C1508.77,295.41,1505.56,294,1503.08,293.25Z"/><path class="cls-2" d="M1528.25,291.1a5.66,5.66,0,0,1,3.14.88l2.19-4.41a10.26,10.26,0,0,0-6.27-1.76c-5.44,0-10.36,4.45-10.36,10s5,9.85,10.36,9.85a10.58,10.58,0,0,0,6.27-1.68l-2.19-4.49a5.66,5.66,0,0,1-3.14.88,4.62,4.62,0,0,1,0-9.23Z"/><rect class="cls-2" x="1534.38" y="273.71" width="6.46" height="31.36"/><circle class="cls-2" cx="1546.71" cy="278.63" r="3.83"/><rect class="cls-2" x="1543.39" y="286.36" width="6.46" height="18.71"/><path class="cls-2" d="M1561.51,285.81a9.91,9.91,0,1,0,0,19.81c4.16,0,7.59-1.35,9.7-4.89l-4.66-2.33c-1.57,1.67-2.48,2.08-4.56,2.08a3.83,3.83,0,0,1-4-3.87h13.56a6.19,6.19,0,0,0,0-.88C1571.54,289.17,1567.2,285.81,1561.51,285.81Zm-3.39,7.23c.11-1.72,1.35-3,3.58-3a3.32,3.32,0,0,1,3.53,3Z"/><path class="cls-2" d="M1584.64,285.81a7.71,7.71,0,0,0-5.36,2.52h-.08v-2h-6.45v18.71h6.45V294.49a4,4,0,0,1,3.83-3.64,3.45,3.45,0,0,1,3.36,3.64v10.58h6.45V292.74C1592.84,287.53,1588.06,285.81,1584.64,285.81Z"/><path class="cls-2" d="M1604,299.82c-1,0-1.46-.84-1.46-2.59v-5.94h3.94v-4.93h-3.94v-7h-6.46v7h-2.7v4.93h2.7v7.18c0,3.32,1.24,7.15,6.38,7.15a10.68,10.68,0,0,0,4.75-1.17l-1.61-5.21A3,3,0,0,1,1604,299.82Z"/><path class="cls-2" d="M1617,300.48a3.83,3.83,0,0,1-4-3.87h13.57a8.24,8.24,0,0,0,0-.88c0-6.56-4.34-9.92-10-9.92a9.91,9.91,0,1,0,0,19.81c4.16,0,7.59-1.35,9.7-4.89l-4.66-2.33C1620,300.07,1619.1,300.48,1617,300.48Zm-.29-10.47a3.32,3.32,0,0,1,3.53,3h-7.11C1613.26,291.32,1614.5,290,1616.73,290Z"/><path class="cls-2" d="M1636.82,293.25c-1.6-.51-2.91-.8-2.91-1.78s.58-1.13,2-1.13a10.6,10.6,0,0,1,4.16,1.16l2.11-4.23a14.26,14.26,0,0,0-6.27-1.46c-4.92,0-8.17,2.19-8.17,6,0,2.81,1.9,4.12,3.79,5.11,2.12,1.09,4.16,1.2,4.16,2.55s-1.09,1.35-2,1.35c-2.08,0-4.64-2.15-4.64-2.15l-2.62,4.41a11.19,11.19,0,0,0,7.22,2.52c3.83,0,8.86-.88,8.86-6.38C1642.51,295.41,1639.3,294,1636.82,293.25Z"/><path class="cls-3" d="M738.57,134.16c0-19.33-12.78-29.21-29.54-29.21s-30.28,13.1-30.28,29.21,13.64,29.1,30.28,29.1c12.25,0,22.34-4,28.57-14.39L723.85,142c-4.61,4.94-7.3,6.12-13.42,6.12-4.83,0-11.92-2.9-11.92-11.39h40A19.25,19.25,0,0,0,738.57,134.16Zm-39.52-8c.32-5,4-8.91,10.52-8.91,5.59,0,9.56,3.11,10.42,8.91Z"/><polygon class="cls-3" points="770.79 146.08 782.92 161.65 805.9 161.65 782.38 132.87 802.58 106.56 780.35 106.56 770.79 119.34 761.23 106.56 739 106.56 759.19 132.87 735.67 161.65 758.65 161.65 770.79 146.08"/><path class="cls-3" d="M929.83,148.87,916.08,142c-4.61,4.94-7.3,6.12-13.42,6.12-4.83,0-11.92-2.9-11.92-11.39h40a19.25,19.25,0,0,0,.11-2.57C930.8,114.83,918,105,901.26,105c-15.38,0-28.18,11.19-30,25.6C869.72,116.1,859,105,844,105a24.41,24.41,0,0,0-18,7.84h-.21v-6.23H807v83h19V156.39c4.51,4.4,10.63,6.87,18,6.87,14.89,0,25.64-11.19,27.19-25.6,1.81,14.36,14.64,25.6,30,25.6C913.51,163.26,923.6,159.29,929.83,148.87Zm-28-31.57c5.59,0,9.56,3.11,10.42,8.91H891.28C891.6,121.16,895.25,117.3,901.8,117.3ZM838.33,147a12.59,12.59,0,0,1-12.78-13c0-7.52,5.37-12.89,12.78-12.89,7.73,0,12.89,5.37,12.89,12.89A12.61,12.61,0,0,1,838.33,147Z"/><path class="cls-3" d="M982.44,161.65h19V106.56h-19v1.82a22.88,22.88,0,0,0-12-3.43c-10.85,0-16.86,9.56-16.86,9.56h-.22v-8h-19v55.09h19v-29c0-1.39,1.4-11.16,11.28-11.16a16.09,16.09,0,0,1,9.88,3l7.94-16.1Z"/><path class="cls-3" d="M992.22,72.52a11.28,11.28,0,1,0,11.27,11.27A11.27,11.27,0,0,0,992.22,72.52Z"/><path class="cls-3" d="M1064.38,148.87,1050.63,142c-4.61,4.94-7.3,6.12-13.42,6.12-4.83,0-11.92-2.9-11.92-11.39h40a19.25,19.25,0,0,0,.11-2.57c0-19.33-12.78-29.21-29.54-29.21s-30.28,13.1-30.28,29.21,13.64,29.1,30.28,29.1C1048.06,163.26,1058.15,159.29,1064.38,148.87Zm-28-31.57c5.59,0,9.56,3.11,10.42,8.91h-20.94C1026.15,121.16,1029.8,117.3,1036.35,117.3Z"/><path class="cls-3" d="M1087.89,130.51c0-5.48,5.59-10.74,11.28-10.74,6.12,0,9.88,5.26,9.88,10.74v31.14h19v-36.3c0-15.36-14.07-20.4-24.17-20.4-6,0-11.49,3.11-15.78,7.41h-.22v-5.8h-19v55.09h19Z"/><path class="cls-3" d="M1163.82,120.52a16.78,16.78,0,0,1,9.24,2.58l6.44-13S1173.27,105,1161,105c-16,0-30.5,13.1-30.5,29.32s14.6,29,30.5,29c12.24,0,18.47-4.94,18.47-4.94l-6.44-13.21a16.78,16.78,0,0,1-9.24,2.58,13.59,13.59,0,0,1,0-27.17Z"/><rect class="cls-3" x="1181.86" y="106.56" width="19.01" height="55.09"/><path class="cls-3" d="M1191.64,95.07a11.28,11.28,0,1,0-11.28-11.28A11.27,11.27,0,0,0,1191.64,95.07Z"/><path class="cls-3" d="M1232.33,163.26a24.43,24.43,0,0,0,18.05-7.84h.21v6.23h18.79V106.56h-19v5.26c-4.51-4.4-10.64-6.87-18.05-6.87-16.1,0-27.38,13.1-27.38,29.21S1216.23,163.26,1232.33,163.26Zm5.7-42.1a12.6,12.6,0,0,1,12.78,13c0,7.52-5.37,12.88-12.78,12.88-7.74,0-12.89-5.36-12.89-12.88A12.62,12.62,0,0,1,1238,121.16Z"/><path class="cls-3" d="M1294.29,149.19c-6.12,0-13.64-6.33-13.64-6.33l-7.73,13a33,33,0,0,0,21.26,7.41c11.28,0,26.1-2.58,26.1-18.79,0-11.28-9.45-15.36-16.75-17.62-4.73-1.5-8.59-2.36-8.59-5.26,0-2.57,1.71-3.33,5.9-3.33,5.8,0,12.24,3.44,12.24,3.44l6.23-12.46a42.1,42.1,0,0,0-18.47-4.29c-14.5,0-24,6.44-24,17.72,0,8.27,5.58,12.13,11.17,15,6.22,3.22,12.24,3.55,12.24,7.52C1300.2,148.87,1297,149.19,1294.29,149.19Z"/><polygon class="cls-3" points="688.87 184.48 679.1 172.13 657.3 191.03 663.31 199.3 688.87 184.48"/><path class="cls-3" d="M674.48,233.45c0,10.85-2.9,15-10.85,15s-10.84-4.19-10.84-15v-26.2h-19v30.82c0,18.47,9.24,25.88,29.85,25.88s29.86-7.41,29.86-25.88V207.25h-19Z"/><path class="cls-3" d="M734.94,205.64c-6,0-11.49,3.11-15.78,7.41h-.22v-5.8h-19v55.09h19V231.2c0-5.48,5.59-10.74,11.28-10.74,6.12,0,9.88,5.26,9.88,10.74v31.14h19V226C759.11,210.68,745,205.64,734.94,205.64Z"/><path class="cls-3" d="M775.32,173.21a11.28,11.28,0,1,0,11.27,11.27A11.27,11.27,0,0,0,775.32,173.21Z"/><rect class="cls-3" x="765.54" y="207.25" width="19.01" height="55.09"/><path class="cls-3" d="M821.92,248.38a13.59,13.59,0,0,1,0-27.17,16.78,16.78,0,0,1,9.24,2.58l6.44-13s-6.23-5.15-18.47-5.15c-16,0-30.5,13.1-30.5,29.32s14.61,29,30.5,29c12.24,0,18.47-4.94,18.47-4.94l-6.44-13.21A16.78,16.78,0,0,1,821.92,248.38Z"/><path class="cls-3" d="M881.42,212.51c-4.51-4.4-10.63-6.87-18-6.87-16.11,0-27.39,13.1-27.39,29.21S847.27,264,863.38,264a24.41,24.41,0,0,0,18-7.84h.21v6.23h18.79V207.25h-19Zm-12.35,35.22c-7.74,0-12.89-5.36-12.89-12.88a12.84,12.84,0,1,1,25.67,0C881.85,242.37,876.48,247.73,869.07,247.73Z"/><path class="cls-3" d="M934.57,227.54c-4.73-1.5-8.59-2.36-8.59-5.26,0-2.57,1.71-3.33,5.9-3.33,5.8,0,12.24,3.44,12.24,3.44l6.23-12.46a42.1,42.1,0,0,0-18.47-4.29c-14.5,0-24,6.44-24,17.72,0,8.27,5.58,12.13,11.17,15,6.22,3.22,12.24,3.55,12.24,7.52,0,3.65-3.22,4-5.91,4-6.12,0-13.64-6.33-13.64-6.33l-7.73,13A33,33,0,0,0,925.22,264c11.28,0,26.1-2.58,26.1-18.79C951.32,233.88,941.87,229.8,934.57,227.54Z"/><polygon class="cls-3" points="1068.04 207.25 1054.62 237.21 1041.19 207.25 1018.64 207.25 1048.17 262.34 1061.06 262.34 1090.59 207.25 1068.04 207.25"/><path class="cls-3" d="M1131,212.51c-4.51-4.4-10.64-6.87-18-6.87-16.1,0-27.38,13.1-27.38,29.21s11.28,29.1,27.38,29.1a24.42,24.42,0,0,0,18-7.84h.21v6.23H1150V207.25h-19Zm-12.35,35.22c-7.74,0-12.89-5.36-12.89-12.88a12.84,12.84,0,1,1,25.67,0C1131.4,242.37,1126,247.73,1118.62,247.73Z"/><rect class="cls-3" x="1157.49" y="169.98" width="19.01" height="92.36"/><rect class="cls-3" x="1184.01" y="207.25" width="19.01" height="55.09"/><path class="cls-3" d="M1193.79,173.21a11.28,11.28,0,1,0,11.27,11.27A11.27,11.27,0,0,0,1193.79,173.21Z"/><path class="cls-3" d="M1240.28,205.64c-18.57,0-33.18,12-33.18,29.21,0,17,13.32,29.1,33.18,29.1,19,0,32.87-12.13,32.87-29.1C1273.15,217.67,1258.54,205.64,1240.28,205.64Zm-.1,42.09c-7.74,0-12.89-5.36-12.89-12.88a12.84,12.84,0,1,1,25.67,0C1253,242.37,1247.59,247.73,1240.18,247.73Z"/><path class="cls-3" d="M1303.33,227.54c-4.73-1.5-8.59-2.36-8.59-5.26,0-2.57,1.71-3.33,5.9-3.33,5.8,0,12.24,3.44,12.24,3.44l6.23-12.46a42.1,42.1,0,0,0-18.47-4.29c-14.5,0-24.05,6.44-24.05,17.72,0,8.27,5.58,12.13,11.16,15,6.23,3.22,12.25,3.55,12.25,7.52,0,3.65-3.22,4-5.91,4-6.12,0-13.64-6.33-13.64-6.33l-7.73,13A33,33,0,0,0,1294,264c11.28,0,26.1-2.58,26.1-18.79C1320.08,233.88,1310.63,229.8,1303.33,227.54Z"/><path class="cls-3" d="M1365.82,262.34h18.8V207.25h-19v5.26c-4.51-4.4-10.64-6.87-18-6.87-16.1,0-27.38,13.1-27.38,29.21s11.28,29.1,27.38,29.1a24.42,24.42,0,0,0,18-7.84h.21Zm-12.56-14.61c-7.74,0-12.89-5.36-12.89-12.88a12.84,12.84,0,1,1,25.67,0C1366,242.37,1360.67,247.73,1353.26,247.73Z"/><path class="cls-3" d="M1435.52,245.16c0-11.28-9.45-15.36-16.75-17.62-4.73-1.5-8.59-2.36-8.59-5.26,0-2.57,1.71-3.33,5.9-3.33,5.8,0,12.24,3.44,12.24,3.44l6.23-12.46a42.1,42.1,0,0,0-18.47-4.29c-14.5,0-24,6.44-24,17.72,0,8.27,5.58,12.13,11.17,15,6.22,3.22,12.24,3.55,12.24,7.52,0,3.65-3.22,4-5.91,4-6.12,0-13.64-6.33-13.64-6.33l-7.73,13a33,33,0,0,0,21.26,7.41C1420.7,264,1435.52,261.37,1435.52,245.16Z"/><polygon class="cls-2" points="993.24 254.67 988.02 245.08 980.58 245.08 989.44 260.87 982.99 273.27 990.43 273.27 1005.12 245.08 997.68 245.08 993.24 254.67"/></g></g></svg>