<svg xmlns="http://www.w3.org/2000/svg" width="810" height="186.88" viewBox="0 0 810 186.88"><defs><style>.cls-1{font-size:22.4px;}.cls-1,.cls-2,.cls-3,.cls-5{fill:#5c5e63;}.cls-1,.cls-2,.cls-3{font-family:LeagueSpartan-Bold, League Spartan;font-weight:700;}.cls-2{font-size:48.56px;}.cls-3{font-size:24.93px;}.cls-4{fill:#edebeb;}.cls-6{fill:#5fcd30;}</style></defs><title>banner-mobile-porcentaje-desaparicion-negocios</title><g id="Capa_2" data-name="Capa 2"><g id="Capa_1-2" data-name="Capa 1"><text class="cls-1" transform="translate(94 53.24)"> </text><text class="cls-1" transform="translate(116.91 53.24)"> </text><text class="cls-2" transform="translate(183.47 53.35)"> </text><text class="cls-2" transform="translate(194.3 53.35)"> </text><text class="cls-2" transform="translate(205.13 53.35)"> </text><text class="cls-2" transform="translate(215.96 53.35)"> </text><text class="cls-2" transform="translate(226.79 53.35)"> </text><text class="cls-2" transform="translate(301.51 53.35)"> </text><text class="cls-1" transform="translate(360.34 53.24)"> </text><text class="cls-1" transform="translate(394.45 53.24)"> </text><text class="cls-1" transform="translate(123.54 167.56)"> </text><text class="cls-1" transform="translate(161.9 167.56)"> </text><text class="cls-1" transform="translate(263.68 167.56)"> </text><text class="cls-3" transform="translate(208.35 53.19)"> </text><text class="cls-3" transform="translate(326.25 53.19)"> </text><path class="cls-4" d="M105.94,44a2,2,0,0,0-2.2,1.86h4.37A2,2,0,0,0,105.94,44Z"/><path class="cls-4" d="M44.74,44a2,2,0,0,0-2.2,1.86h4.37A2,2,0,0,0,44.74,44Z"/><path class="cls-4" d="M88.56,44a2,2,0,0,0-2.2,1.86h4.37A2,2,0,0,0,88.56,44Z"/><path class="cls-4" d="M254.37,32.37a6,6,0,0,0,6.07-6.22,5.87,5.87,0,0,0-6.07-6.07,6,6,0,0,0-6.17,6.07A6.07,6.07,0,0,0,254.37,32.37Z"/><path class="cls-4" d="M191.23,39.43a2.18,2.18,0,0,0,2.24-2.27,2.24,2.24,0,0,0-2.24-2.32,2.27,2.27,0,0,0-2.3,2.32A2.18,2.18,0,0,0,191.23,39.43Z"/><path class="cls-4" d="M201.23,48.65A2.26,2.26,0,0,0,203.52,51a2.23,2.23,0,0,0,2.24-2.32,2.27,2.27,0,1,0-4.53,0Z"/><path class="cls-4" d="M105.66,95.5c-4.48,0-7,2.64-7.19,6.09h14.31C112.2,97.63,109.48,95.5,105.66,95.5Z"/><path class="cls-4" d="M118.1,158.31a2,2,0,0,0-2.2,1.86h4.37A2,2,0,0,0,118.1,158.31Z"/><path class="cls-4" d="M45.21,159.11a2.63,2.63,0,0,0-2.69,2.71,2.68,2.68,0,1,0,5.35,0A2.63,2.63,0,0,0,45.21,159.11Z"/><path class="cls-4" d="M60.72,115.84A8.46,8.46,0,0,0,69.46,107a8.78,8.78,0,1,0-17.55,0A8.4,8.4,0,0,0,60.72,115.84Z"/><path class="cls-4" d="M83,159.11a2.63,2.63,0,0,0-2.69,2.71,2.68,2.68,0,1,0,5.35,0A2.63,2.63,0,0,0,83,159.11Z"/><path class="cls-4" d="M378.28,50.19A2.58,2.58,0,0,0,381,47.5a2.68,2.68,0,1,0-5.36,0A2.57,2.57,0,0,0,378.28,50.19Z"/><path class="cls-4" d="M420.07,44a2,2,0,0,0-2.2,1.86h4.37A2,2,0,0,0,420.07,44Z"/><path class="cls-4" d="M189,107a8.78,8.78,0,1,0-17.55,0A8.78,8.78,0,1,0,189,107Z"/><path class="cls-4" d="M432.92,50.19a2.58,2.58,0,0,0,2.67-2.69,2.68,2.68,0,1,0-5.36,0A2.57,2.57,0,0,0,432.92,50.19Z"/><path class="cls-4" d="M476.3,50.19A2.58,2.58,0,0,0,479,47.5a2.68,2.68,0,1,0-5.35,0A2.57,2.57,0,0,0,476.3,50.19Z"/><path class="cls-4" d="M447.1,50.19a2.58,2.58,0,0,0,2.66-2.69,2.68,2.68,0,1,0-5.35,0A2.57,2.57,0,0,0,447.1,50.19Z"/><path class="cls-4" d="M273.22,98.14a8.63,8.63,0,0,0-8.81,8.89A8.78,8.78,0,1,0,282,107,8.61,8.61,0,0,0,273.22,98.14Z"/><path class="cls-4" d="M286.32,46.07c4.37,0,7-4.08,7-12.73,0-8.11-2.67-12.77-7-12.77s-7.09,4.71-7.09,12.77C279.23,42,281.9,46.07,286.32,46.07Z"/><path class="cls-4" d="M228.28,98.14a8.46,8.46,0,0,0-8.73,8.81,8.78,8.78,0,1,0,17.55,0A8.41,8.41,0,0,0,228.28,98.14Z"/><path class="cls-4" d="M354.9,44a2,2,0,0,0-2.19,1.86h4.36A2,2,0,0,0,354.9,44Z"/><path class="cls-4" d="M309.13,39.43a2.18,2.18,0,0,0,2.24-2.27,2.24,2.24,0,0,0-2.24-2.32,2.26,2.26,0,0,0-2.3,2.32A2.18,2.18,0,0,0,309.13,39.43Z"/><path class="cls-4" d="M319.12,48.65a2.27,2.27,0,0,0,2.3,2.32,2.24,2.24,0,0,0,2.24-2.32,2.27,2.27,0,1,0-4.54,0Z"/><path class="cls-4" d="M341.2,50.19a2.58,2.58,0,0,0,2.66-2.69,2.68,2.68,0,1,0-5.35,0A2.56,2.56,0,0,0,341.2,50.19Z"/><path class="cls-4" d="M276.09,159.11a2.63,2.63,0,0,0-2.69,2.71,2.68,2.68,0,1,0,5.35,0A2.62,2.62,0,0,0,276.09,159.11Z"/><path class="cls-4" d="M224.63,158.31a2,2,0,0,0-2.2,1.86h4.37A2,2,0,0,0,224.63,158.31Z"/><path class="cls-4" d="M174.78,159.11a2.58,2.58,0,0,0-2.67,2.69,2.68,2.68,0,1,0,5.36,0A2.57,2.57,0,0,0,174.78,159.11Z"/><path class="cls-4" d="M247.51,159.11a2.63,2.63,0,0,0-2.69,2.71,2.68,2.68,0,1,0,5.36,0A2.63,2.63,0,0,0,247.51,159.11Z"/><path class="cls-4" d="M304,159.11a2.63,2.63,0,0,0-2.69,2.71,2.68,2.68,0,1,0,5.35,0A2.63,2.63,0,0,0,304,159.11Z"/><path class="cls-4" d="M351.06,95.5c-4.48,0-7,2.64-7.2,6.09h14.32A6.69,6.69,0,0,0,351.06,95.5Z"/><path class="cls-4" d="M0,0V186.88H810V0ZM476.32,41.41c3.81,0,6.86,2.51,6.86,6.09s-2.89,6.07-6.86,6.07c-4.14,0-6.92-2.53-6.92-6.07S472.45,41.41,476.32,41.41Zm-9.7-6.77A2.36,2.36,0,1,1,464.27,37,2.36,2.36,0,0,1,466.62,34.64Zm1.93,7.1v11.5h-4V41.74Zm-21.43-.33c3.56,0,6.45,2.19,6.81,5.39a6.66,6.66,0,0,1,10.17-4.32l-1.35,2.71a3.52,3.52,0,0,0-1.92-.53,2.83,2.83,0,0,0,0,5.66,3.52,3.52,0,0,0,1.92-.53l1.35,2.75a6.51,6.51,0,0,1-3.86,1,6.39,6.39,0,0,1-6.31-5.35c-.36,3.16-3.12,5.35-6.81,5.35-4.14,0-6.92-2.53-6.92-6.07S443.24,41.41,447.12,41.41Zm-27.16,0c3.25,0,5.78,1.78,6.12,5.28a5.69,5.69,0,0,1,5.66-5.28,5.25,5.25,0,0,1,3.69,1.36h.07v-1h4V53.55c0,3.85-2.84,5.85-6.76,5.85-2.4,0-5.15-.54-6.36-3.34l3.24-1.59A3.48,3.48,0,0,0,432.7,56a2.65,2.65,0,0,0,2.8-2.69v-.85c-.85.94-2.2,1.16-3.76,1.16A5.71,5.71,0,0,1,426.05,48h-8.29a2.35,2.35,0,0,0,2.49,2.37,3.15,3.15,0,0,0,2.8-1.27l2.86,1.43c-1.29,2.17-3.4,3-6,3a6.08,6.08,0,1,1,0-12.16Zm-19.17.33h4V43h.05a4.75,4.75,0,0,1,3.29-1.54c2.1,0,5,1.05,5,4.25v7.58h-4v-6.5a2.12,2.12,0,0,0-2.06-2.24,2.44,2.44,0,0,0-2.35,2.24v6.5h-4Zm-9.9-.33a8.79,8.79,0,0,1,3.85.89l-1.3,2.6a6.49,6.49,0,0,0-2.55-.71c-.87,0-1.23.15-1.23.69s.8.78,1.79,1.1c1.52.47,3.49,1.32,3.49,3.67,0,3.38-3.09,3.92-5.44,3.92A6.86,6.86,0,0,1,385.07,52l1.61-2.71a5.76,5.76,0,0,0,2.84,1.32c.56,0,1.23-.07,1.23-.83s-1.25-.9-2.55-1.57-2.33-1.41-2.33-3.14C385.87,42.75,387.86,41.41,390.89,41.41Zm-12.59,0c3.81,0,6.86,2.51,6.86,6.09s-2.89,6.07-6.86,6.07c-4.14,0-6.92-2.53-6.92-6.07S374.43,41.41,378.3,41.41ZM366.68,34h4V53.24h-4Zm-11.89,7.44c3.49,0,6.16,2.06,6.16,6.09a4.7,4.7,0,0,1,0,.54H352.6a2.34,2.34,0,0,0,2.48,2.37,3.14,3.14,0,0,0,2.8-1.27l2.87,1.43c-1.3,2.17-3.41,3-6,3a6.08,6.08,0,1,1,0-12.16Zm-14.78,0a5.2,5.2,0,0,1,3.76,1.43V34h4V53.24h-3.92v-1.3h-.05A5.08,5.08,0,0,1,340,53.57a5.76,5.76,0,0,1-5.71-6.07A5.78,5.78,0,0,1,340,41.41Zm-13.08,7.24c0,2.9-2.42,4.92-5.46,4.92s-5.56-2-5.56-4.92,2.19-4.91,5.56-4.91C324.66,43.74,326.93,45.81,326.93,48.65Zm-4.17-16-12,20.57h-2.95l12-20.57Zm-13.58-.37c3,0,5.46,2,5.46,4.91s-2.27,4.91-5.46,4.91c-3.37,0-5.57-2.07-5.57-4.91S306,32.25,309.18,32.25Zm-22.86-19.7c8.6,0,16.27,6.9,16.27,20.79,0,14.86-7.67,20.74-16.27,20.74S270,48.2,270,33.34C270,19.45,277.73,12.55,286.32,12.55Zm-4.65,109a16.71,16.71,0,0,1-12.34,5.36c-10.19,0-17.54-7.61-18.58-17.47-1.07,9.83-8.41,17.47-18.57,17.47a17.15,17.15,0,0,1-12.34-4.7v22.68h-13V88.16h12.85v4.26h.15a16.67,16.67,0,0,1,12.34-5.36c10.19,0,17.53,7.61,18.58,17.47,1.07-9.84,8.41-17.47,18.57-17.47a17.15,17.15,0,0,1,12.34,4.69V88.16h13v37.66H281.81v-4.25Zm6.44,28.36a8.22,8.22,0,0,1,2.33.6,4.7,4.7,0,0,0,1.7.43c.72,0,1-1,1-1h2.26s-.58,3.85-3,3.85a8.22,8.22,0,0,1-2.33-.6,4.7,4.7,0,0,0-1.7-.43c-.72,0-1,1-1,1h-2.26S285.65,149.93,288.11,149.93ZM253.93,12.55c9,0,16,5.93,16,13.6,0,7.05-2.14,10.3-6.31,16l-9.43,11.22H242.91l11.8-13.74a6.22,6.22,0,0,1-2.87.58c-5.48,0-12.77-4.71-12.77-14S246.7,12.55,253.93,12.55Zm-31.58,29.6L225.56,48l2.73-5.89h4.57l-9,17.31h-4.57l4-7.61-5.45-9.7ZM209,48.65c0,2.9-2.42,4.92-5.46,4.92s-5.56-2-5.56-4.92,2.19-4.91,5.56-4.91C206.76,43.74,209,45.81,209,48.65Zm-4.17-16-12,20.57H190l12-20.57Zm-13.58-.37c3,0,5.46,2,5.46,4.91s-2.27,4.91-5.46,4.91c-3.37,0-5.56-2.07-5.56-4.91S188.14,32.25,191.28,32.25Zm-9.07-19v8H169.59l-.88,5.58c.34,0,.73-.05,1.12-.05,7.58.05,15,3,15,14.09,0,7.67-6.27,13.16-14.86,13.16s-12.78-4.61-14.28-8.69l7.23-3.5c.73,2.48,2.87,4.57,7.05,4.57a5.59,5.59,0,0,0,5.73-5.83c0-5.3-5.2-7.05-10.4-7.05a16.88,16.88,0,0,0-6.84,1.27l3.35-21.57Zm-54.53,8v-8h30.74V16l-21.18,37.4H126.46l18.46-32ZM112.72,34h4V53.24h-4Zm-6.89,7.44c3.49,0,6.16,2.06,6.16,6.09a3.14,3.14,0,0,1,0,.54h-8.33a2.35,2.35,0,0,0,2.49,2.37,3.16,3.16,0,0,0,2.8-1.27l2.86,1.43c-1.29,2.17-3.4,3-6,3a6.08,6.08,0,1,1,0-12.16Zm-17.38,0c3.49,0,6.16,2.06,6.16,6.09a4.7,4.7,0,0,1,0,.54H86.25a2.35,2.35,0,0,0,2.49,2.37,3.14,3.14,0,0,0,2.8-1.27l2.87,1.43c-1.3,2.17-3.41,3-6,3a6.08,6.08,0,1,1,0-12.16Zm-15.52.33h4V43.4h0a4.49,4.49,0,0,1,3.51-2,4.79,4.79,0,0,1,2.51.71l-1.65,3.37a3.35,3.35,0,0,0-2.07-.63,2.38,2.38,0,0,0-2.35,2.33v6.05h-4Zm-8.71,0h1.65V37.47h4v4.27h2.42v3H69.84v3.65c0,1.07.27,1.59.9,1.59a1.86,1.86,0,0,0,1-.36l1,3.2a6.57,6.57,0,0,1-2.92.72c-3.15,0-3.92-2.35-3.92-4.39V44.77H64.22Zm-12.7,0h4V43h.05a4.79,4.79,0,0,1,3.29-1.54c2.11,0,5,1.05,5,4.25v7.58h-4v-6.5a2.13,2.13,0,0,0-2.06-2.24,2.45,2.45,0,0,0-2.36,2.24v6.5h-4Zm-6.9-.33c3.5,0,6.16,2.06,6.16,6.09a4.7,4.7,0,0,1,0,.54H42.43a2.34,2.34,0,0,0,2.48,2.37,3.17,3.17,0,0,0,2.81-1.27l2.86,1.43c-1.3,2.17-3.4,3-6,3a6.08,6.08,0,1,1,0-12.16ZM56.83,87.06a17.15,17.15,0,0,1,12.34,4.69V62.68h13v63.14H69.32v-4.25h-.15a16.71,16.71,0,0,1-12.34,5.36c-11,0-18.72-8.89-18.72-19.9S45.82,87.06,56.83,87.06Zm-5.08,80.5H47.83v-1.3h0A5.08,5.08,0,0,1,44,167.89a6.09,6.09,0,0,1,0-12.16,5.24,5.24,0,0,1,3.76,1.43v-8.87h4Zm13.79-5.07c0,3.86-1.93,5.4-6.23,5.4s-6.22-1.54-6.22-5.4v-6.42h4v5.46c0,2.26.61,3.14,2.26,3.14s2.27-.88,2.27-3.14v-5.46h4Zm7.66-3.31a2.38,2.38,0,0,0-2.35,2.33v6.05h-4V156.07h4v1.65h0a4.52,4.52,0,0,1,3.52-2,4.75,4.75,0,0,1,2.51.72l-1.66,3.36A3.34,3.34,0,0,0,73.2,159.18Zm16.33,8.38H85.61v-1.3h0a5.08,5.08,0,0,1-3.76,1.63,6.09,6.09,0,0,1,0-12.16,5.26,5.26,0,0,1,3.76,1.43v-1.09h4Zm13.9,0h-4v-6.5a2.13,2.13,0,0,0-2.06-2.24,2.45,2.45,0,0,0-2.36,2.24v6.5h-4V156.07h4v1.21h0a4.76,4.76,0,0,1,3.29-1.55c2.11,0,5,1.05,5,4.26Zm5.93.33c-3.15,0-3.91-2.35-3.91-4.39v-4.41h-1.66v-3h1.66v-4.28h4v4.28h2.42v3h-2.42v3.65c0,1.08.27,1.59.9,1.59a1.86,1.86,0,0,0,1-.36l1,3.21A6.64,6.64,0,0,1,109.36,167.89Zm14.76-5.53h-8.33a2.36,2.36,0,0,0,2.49,2.38,3.17,3.17,0,0,0,2.8-1.28l2.87,1.43c-1.3,2.17-3.41,3-6,3a6.08,6.08,0,1,1,0-12.16c3.49,0,6.16,2.06,6.16,6.09A3.08,3.08,0,0,1,124.12,162.36Zm-18.83-35.43c-11.38,0-20.7-9-20.7-19.9s9.32-20,20.7-20,20.2,6.75,20.2,20a12.46,12.46,0,0,1-.08,1.76H98.1c0,5.8,4.85,7.78,8.15,7.78,4.18,0,6-.81,9.18-4.18l9.4,4.7C120.57,124.21,113.66,126.93,105.29,126.93Zm25.19-14s5.14,4.34,9.33,4.34c1.83,0,4-.22,4-2.72,0-2.72-4.11-2.94-8.37-5.14-3.81-2-7.63-4.63-7.63-10.28,0-7.71,6.53-12.11,16.44-12.11A28.81,28.81,0,0,1,156.91,90l-4.25,8.52s-4.41-2.35-8.38-2.35c-2.86,0-4,.51-4,2.28,0,2,2.64,2.57,5.87,3.59,5,1.55,11.45,4.34,11.45,12,0,11.08-10.13,12.85-17.84,12.85a22.55,22.55,0,0,1-14.54-5.07Zm3,54.92a6.86,6.86,0,0,1-4.43-1.54l1.61-2.71A5.76,5.76,0,0,0,133.5,165c.57,0,1.24-.07,1.24-.83s-1.26-.9-2.56-1.57-2.33-1.41-2.33-3.13c0-2.36,2-3.7,5-3.7a8.71,8.71,0,0,1,3.85.9l-1.3,2.59a6.49,6.49,0,0,0-2.55-.71c-.87,0-1.23.15-1.23.69s.81.79,1.79,1.1c1.52.47,3.5,1.32,3.5,3.67C138.93,167.36,135.83,167.89,133.48,167.89Zm18.52-5.4c0,3.86-1.92,5.4-6.22,5.4s-6.23-1.54-6.23-5.4v-6.42h4v5.46c0,2.26.6,3.14,2.26,3.14s2.26-.88,2.26-3.14v-5.46h4Zm4.95,5.4a6.86,6.86,0,0,1-4.43-1.54l1.61-2.71A5.76,5.76,0,0,0,157,165c.56,0,1.24-.07,1.24-.83s-1.26-.9-2.56-1.57-2.33-1.41-2.33-3.13c0-2.36,2-3.7,5-3.7a8.71,8.71,0,0,1,3.85.9l-1.3,2.59a6.49,6.49,0,0,0-2.55-.71c-.87,0-1.23.15-1.23.69s.8.79,1.79,1.1c1.52.47,3.49,1.32,3.49,3.67C162.39,167.36,159.3,167.89,157,167.89Zm.7-60.86c0-11,7.71-20,18.72-20a17.15,17.15,0,0,1,12.34,4.69V88.16h13v37.66H188.85v-4.25h-.14a16.71,16.71,0,0,1-12.34,5.36C165.36,126.93,157.65,118,157.65,107ZM176,167.89a5.22,5.22,0,0,1-3.76-1.43v6.92h-4V156.07h3.92v1.29h0a5.09,5.09,0,0,1,3.76-1.63,6.09,6.09,0,0,1,0,12.16Zm20.45-.33h-4V156.45l-1.65,3.36a3.34,3.34,0,0,0-2.06-.63,2.38,2.38,0,0,0-2.35,2.33v6.05h-4V156.07h4v1.65h0a4.52,4.52,0,0,1,3.52-2,4.57,4.57,0,0,1,2.5.72v-.38h4Zm-1.93-13.89a2.35,2.35,0,1,1,2.35-2.35A2.35,2.35,0,0,1,194.48,153.67Zm23.21,13.89h-4v-6.5a1.93,1.93,0,0,0-2-2.15,1.76,1.76,0,0,0-1.84,1.79v6.86h-4v-6.5a1.94,1.94,0,0,0-2-2.15,1.78,1.78,0,0,0-1.84,1.93v6.72h-4V156.07h4v1.21h0a4.74,4.74,0,0,1,3.29-1.55,4.34,4.34,0,0,1,4,2.11,5,5,0,0,1,3.81-2.11c2.1,0,4.48,1.05,4.48,4.26Zm13-5.2h-8.33a2.36,2.36,0,0,0,2.49,2.38,3.17,3.17,0,0,0,2.8-1.28l2.86,1.43c-1.3,2.17-3.4,3-6,3a6.08,6.08,0,1,1,0-12.16c3.5,0,6.16,2.06,6.16,6.09A4.61,4.61,0,0,1,230.65,162.36Zm7.08-3.18a2.39,2.39,0,0,0-2.36,2.33v6.05h-4V156.07h4v1.65h0a4.49,4.49,0,0,1,3.52-2,4.79,4.79,0,0,1,2.51.72l-1.66,3.36A3.34,3.34,0,0,0,237.73,159.18Zm9.8,8.71c-4.14,0-6.92-2.53-6.92-6.07s3-6.09,6.92-6.09,6.86,2.51,6.86,6.09S251.5,167.89,247.53,167.89Zm11.2,0a6.86,6.86,0,0,1-4.43-1.54l1.61-2.71a5.76,5.76,0,0,0,2.84,1.32c.56,0,1.24-.07,1.24-.83s-1.26-.9-2.56-1.57-2.33-1.41-2.33-3.13c0-2.36,2-3.7,5-3.7a8.71,8.71,0,0,1,3.85.9l-1.3,2.59a6.49,6.49,0,0,0-2.55-.71c-.87,0-1.23.15-1.23.69s.81.79,1.79,1.1c1.52.47,3.49,1.32,3.49,3.67C264.17,167.36,261.08,167.89,258.73,167.89Zm23.9-.33h-3.92v-1.3h0a5.08,5.08,0,0,1-3.76,1.63,6.09,6.09,0,0,1,0-12.16,5.24,5.24,0,0,1,3.76,1.43v-1.09h4Zm13.9,0h-4v-6.5a2.12,2.12,0,0,0-2.06-2.24,2.44,2.44,0,0,0-2.35,2.24v6.5h-4V156.07h4v1.21h0a4.76,4.76,0,0,1,3.29-1.55c2.11,0,5,1.05,5,4.26Zm7.44.33c-4.15,0-6.92-2.53-6.92-6.07s3-6.09,6.92-6.09,6.85,2.51,6.85,6.09S307.93,167.89,304,167.89Zm11.19,0a6.89,6.89,0,0,1-4.43-1.54l1.61-2.71a5.76,5.76,0,0,0,2.85,1.32c.56,0,1.23-.07,1.23-.83s-1.26-.9-2.56-1.57-2.32-1.41-2.32-3.13c0-2.36,2-3.7,5-3.7a8.78,8.78,0,0,1,3.86.9l-1.3,2.59a6.56,6.56,0,0,0-2.56-.71c-.87,0-1.23.15-1.23.69s.81.79,1.79,1.1c1.53.47,3.5,1.32,3.5,3.67C320.61,167.36,317.52,167.89,315.16,167.89Zm5.35-69.53c-6.76,0-7.71,6.68-7.71,7.64v19.82h-13V88.16h13v5.43H313s4.11-6.53,11.52-6.53a15.67,15.67,0,0,1,8.23,2.34l-5.43,11A11,11,0,0,0,320.51,98.36Zm70.93,28.57c-10.3,0-19.81-7.93-20.77-18.14H343.49c0,5.8,4.85,7.78,8.15,7.78,4.19,0,6-.81,9.18-4.18l9.4,4.7c-4.26,7.12-11.16,9.84-19.53,9.84-11.38,0-20.71-9-20.71-19.9s9.33-20,20.71-20c10.72,0,19.05,5.91,20.08,17.5,1.37-9.88,10.58-17.5,20.67-17.5,8.37,0,12.63,3.52,12.63,3.52l-4.41,8.88a11.45,11.45,0,0,0-6.31-1.76,9.3,9.3,0,0,0,0,18.58,11.45,11.45,0,0,0,6.31-1.76l4.41,9S399.81,126.93,391.44,126.93Zm52.35-18.14H416.48c0,5.8,4.84,7.78,8.15,7.78,4.18,0,6-.81,9.18-4.18l9.4,4.7c-4.26,7.12-11.16,9.84-19.54,9.84-11.38,0-20.7-9-20.7-19.9s9.32-20,20.7-20,20.2,6.75,20.2,20A12.46,12.46,0,0,1,443.79,108.79Zm43,17h-13V104.53c0-3.74-2.57-7.34-6.75-7.34-3.89,0-7.71,3.6-7.71,7.34v21.29h-13V88.16h13v4h.14c2.94-2.94,6.69-5.06,10.8-5.06,6.9,0,16.52,3.45,16.52,14Zm.77-72.25A6.9,6.9,0,0,1,483.08,52l1.62-2.71a5.71,5.71,0,0,0,2.84,1.32c.56,0,1.23-.07,1.23-.83s-1.25-.9-2.55-1.57-2.33-1.41-2.33-3.14c0-2.35,2-3.69,5-3.69a8.84,8.84,0,0,1,3.85.89l-1.3,2.6a6.49,6.49,0,0,0-2.55-.71c-.88,0-1.23.15-1.23.69s.8.78,1.79,1.1c1.52.47,3.49,1.32,3.49,3.67C493,53,489.87,53.57,487.52,53.57Z"/><path class="cls-4" d="M424,95.5c-4.48,0-7,2.64-7.19,6.09h14.31C430.58,97.63,427.86,95.5,424,95.5Z"/><path class="cls-5" d="M44.62,53.57c2.56,0,4.66-.83,6-3l-2.86-1.43a3.17,3.17,0,0,1-2.81,1.27A2.34,2.34,0,0,1,42.43,48h8.33a4.7,4.7,0,0,0,0-.54c0-4-2.66-6.09-6.16-6.09a6.08,6.08,0,1,0,0,12.16ZM44.74,44a2,2,0,0,1,2.17,1.86H42.54A2,2,0,0,1,44.74,44Z"/><path class="cls-5" d="M55.48,46.74a2.45,2.45,0,0,1,2.36-2.24,2.13,2.13,0,0,1,2.06,2.24v6.5h4V45.66c0-3.2-2.93-4.25-5-4.25A4.79,4.79,0,0,0,55.53,43h-.05V41.74h-4v11.5h4Z"/><path class="cls-5" d="M65.87,49.18c0,2,.77,4.39,3.92,4.39a6.57,6.57,0,0,0,2.92-.72l-1-3.2a1.86,1.86,0,0,1-1,.36c-.63,0-.9-.52-.9-1.59V44.77h2.42v-3H69.84V37.47h-4v4.27H64.22v3h1.65Z"/><path class="cls-5" d="M76.89,47.19a2.38,2.38,0,0,1,2.35-2.33,3.35,3.35,0,0,1,2.07.63L83,42.12a4.79,4.79,0,0,0-2.51-.71,4.49,4.49,0,0,0-3.51,2h0V41.74h-4v11.5h4Z"/><path class="cls-5" d="M88.45,53.57c2.55,0,4.66-.83,6-3l-2.87-1.43a3.14,3.14,0,0,1-2.8,1.27A2.35,2.35,0,0,1,86.25,48h8.34a4.7,4.7,0,0,0,0-.54c0-4-2.67-6.09-6.16-6.09a6.08,6.08,0,1,0,0,12.16ZM88.56,44a2,2,0,0,1,2.17,1.86H86.36A2,2,0,0,1,88.56,44Z"/><path class="cls-5" d="M105.83,53.57c2.55,0,4.66-.83,6-3l-2.86-1.43a3.16,3.16,0,0,1-2.8,1.27A2.35,2.35,0,0,1,103.63,48H112a3.14,3.14,0,0,0,0-.54c0-4-2.67-6.09-6.16-6.09a6.08,6.08,0,1,0,0,12.16Zm.11-9.59a2,2,0,0,1,2.17,1.86h-4.37A2,2,0,0,1,105.94,44Z"/><rect class="cls-5" x="112.72" y="33.97" width="3.96" height="19.26"/><polygon class="cls-5" points="137.25 53.35 158.42 15.96 158.42 13.28 127.68 13.28 127.68 21.3 144.92 21.3 126.46 53.35 137.25 53.35"/><path class="cls-5" d="M165.26,33.58c5.2,0,10.4,1.75,10.4,7.05a5.59,5.59,0,0,1-5.73,5.83c-4.18,0-6.32-2.09-7.05-4.57l-7.23,3.5c1.5,4.08,5.73,8.69,14.28,8.69s14.86-5.49,14.86-13.16c0-11.12-7.38-14-15-14.09-.39,0-.78.05-1.12.05l.88-5.58h12.62v-8H161.77l-3.35,21.57A16.88,16.88,0,0,1,165.26,33.58Z"/><path class="cls-5" d="M251.84,40.19a6.22,6.22,0,0,0,2.87-.58l-11.8,13.74h11.26l9.43-11.22c4.17-5.68,6.31-8.93,6.31-16,0-7.67-7-13.6-16-13.6-7.23,0-14.86,4.13-14.86,13.6S246.36,40.19,251.84,40.19Zm2.53-20.11a5.87,5.87,0,0,1,6.07,6.07,6.12,6.12,0,1,1-12.24,0A6,6,0,0,1,254.37,20.08Z"/><path class="cls-5" d="M286.32,54.08c8.6,0,16.27-5.88,16.27-20.74,0-13.89-7.67-20.79-16.27-20.79S270,19.45,270,33.34C270,48.2,277.73,54.08,286.32,54.08Zm0-33.51c4.37,0,7,4.66,7,12.77,0,8.65-2.67,12.73-7,12.73s-7.09-4.08-7.09-12.73C279.23,25.28,281.9,20.57,286.32,20.57Z"/><path class="cls-6" d="M56.83,126.93a16.71,16.71,0,0,0,12.34-5.36h.15v4.25H82.16V62.68h-13V91.75a17.15,17.15,0,0,0-12.34-4.69c-11,0-18.72,9-18.72,20S45.82,126.93,56.83,126.93Zm3.89-28.79A8.61,8.61,0,0,1,69.46,107a8.46,8.46,0,0,1-8.74,8.81A8.4,8.4,0,0,1,51.91,107,8.63,8.63,0,0,1,60.72,98.14Z"/><path class="cls-6" d="M106.25,116.57c-3.3,0-8.15-2-8.15-7.78h27.31a12.46,12.46,0,0,0,.08-1.76c0-13.22-8.74-20-20.2-20s-20.7,9-20.7,20,9.32,19.9,20.7,19.9c8.37,0,15.28-2.72,19.54-9.84l-9.4-4.7C112.27,115.76,110.43,116.57,106.25,116.57Zm-.59-21.07c3.82,0,6.54,2.13,7.12,6.09H98.47C98.69,98.14,101.18,95.5,105.66,95.5Z"/><path class="cls-6" d="M157.57,114.08c0-7.71-6.46-10.5-11.45-12-3.23-1-5.87-1.61-5.87-3.59,0-1.77,1.17-2.28,4-2.28,4,0,8.38,2.35,8.38,2.35L156.91,90a28.81,28.81,0,0,0-12.63-2.93c-9.91,0-16.44,4.4-16.44,12.11,0,5.65,3.82,8.3,7.63,10.28,4.26,2.2,8.37,2.42,8.37,5.14,0,2.5-2.2,2.72-4,2.72-4.19,0-9.33-4.34-9.33-4.34l-5.29,8.89a22.55,22.55,0,0,0,14.54,5.07C147.44,126.93,157.57,125.16,157.57,114.08Z"/><path class="cls-6" d="M188.71,121.57h.14v4.25H201.7V88.16h-13v3.59a17.15,17.15,0,0,0-12.34-4.69c-11,0-18.72,9-18.72,20s7.71,19.9,18.72,19.9A16.71,16.71,0,0,0,188.71,121.57ZM171.45,107A8.78,8.78,0,1,1,189,107a8.78,8.78,0,1,1-17.55,0Z"/><path class="cls-6" d="M294.66,125.82V88.16h-13v3.59a17.15,17.15,0,0,0-12.34-4.69c-10.16,0-17.5,7.63-18.57,17.47-1-9.86-8.39-17.47-18.58-17.47a16.67,16.67,0,0,0-12.34,5.36h-.15V88.16H206.84v56.75h13V122.23a17.15,17.15,0,0,0,12.34,4.7c10.16,0,17.5-7.64,18.57-17.47,1,9.86,8.39,17.47,18.58,17.47a16.71,16.71,0,0,0,12.34-5.36h.14v4.25Zm-66.38-10a8.61,8.61,0,0,1-8.73-8.89,8.78,8.78,0,1,1,17.55,0A8.63,8.63,0,0,1,228.28,115.84Zm44.94,0a8.4,8.4,0,0,1-8.81-8.81A8.78,8.78,0,1,1,282,107,8.46,8.46,0,0,1,273.22,115.84Z"/><path class="cls-6" d="M324.47,87.06c-7.41,0-11.52,6.53-11.52,6.53h-.15V88.16h-13v37.66h13V106c0-1,.95-7.64,7.71-7.64a11,11,0,0,1,6.76,2.06l5.43-11A15.67,15.67,0,0,0,324.47,87.06Z"/><path class="cls-6" d="M393.35,116.28a9.3,9.3,0,0,1,0-18.58,11.45,11.45,0,0,1,6.31,1.76l4.41-8.88s-4.26-3.52-12.63-3.52c-10.09,0-19.3,7.62-20.67,17.5-1-11.59-9.36-17.5-20.08-17.5-11.38,0-20.71,9-20.71,20s9.33,19.9,20.71,19.9c8.37,0,15.27-2.72,19.53-9.84l-9.4-4.7c-3.16,3.37-5,4.18-9.18,4.18-3.3,0-8.15-2-8.15-7.78h27.18c1,10.21,10.47,18.14,20.77,18.14,8.37,0,12.63-3.38,12.63-3.38l-4.41-9A11.45,11.45,0,0,1,393.35,116.28Zm-49.49-14.69c.22-3.45,2.72-6.09,7.2-6.09a6.69,6.69,0,0,1,7.12,6.09Z"/><path class="cls-6" d="M423.67,87.06c-11.38,0-20.7,9-20.7,20s9.32,19.9,20.7,19.9c8.38,0,15.28-2.72,19.54-9.84l-9.4-4.7c-3.16,3.37-5,4.18-9.18,4.18-3.31,0-8.15-2-8.15-7.78h27.31a12.46,12.46,0,0,0,.08-1.76C443.87,93.81,435.13,87.06,423.67,87.06Zm-6.82,14.53c.22-3.45,2.71-6.09,7.19-6.09,3.82,0,6.54,2.13,7.12,6.09Z"/><path class="cls-6" d="M470.23,87.06c-4.11,0-7.86,2.12-10.8,5.06h-.14v-4h-13v37.66h13V104.53c0-3.74,3.82-7.34,7.71-7.34,4.18,0,6.75,3.6,6.75,7.34v21.29h13V101C486.75,90.51,477.13,87.06,470.23,87.06Z"/><path class="cls-5" d="M340,53.57a5.08,5.08,0,0,0,3.76-1.63h.05v1.3h3.92V34h-4v8.87A5.2,5.2,0,0,0,340,41.41a5.78,5.78,0,0,0-5.71,6.09A5.76,5.76,0,0,0,340,53.57Zm1.19-8.78a2.62,2.62,0,0,1,2.66,2.71,2.68,2.68,0,1,1-5.35,0A2.63,2.63,0,0,1,341.2,44.79Z"/><path class="cls-5" d="M354.79,53.57c2.55,0,4.66-.83,6-3l-2.87-1.43a3.14,3.14,0,0,1-2.8,1.27A2.34,2.34,0,0,1,352.6,48h8.33a4.7,4.7,0,0,0,0-.54c0-4-2.67-6.09-6.16-6.09a6.08,6.08,0,1,0,0,12.16ZM354.9,44a2,2,0,0,1,2.17,1.86h-4.36A2,2,0,0,1,354.9,44Z"/><rect class="cls-5" x="366.68" y="33.97" width="3.96" height="19.26"/><path class="cls-5" d="M378.3,53.57c4,0,6.86-2.53,6.86-6.07s-3.05-6.09-6.86-6.09-6.92,2.51-6.92,6.09S374.16,53.57,378.3,53.57Zm0-8.78A2.63,2.63,0,0,1,381,47.5a2.68,2.68,0,1,1-5.36,0A2.63,2.63,0,0,1,378.28,44.79Z"/><path class="cls-5" d="M388.2,48.24c1.3.67,2.55.74,2.55,1.57s-.67.83-1.23.83a5.76,5.76,0,0,1-2.84-1.32L385.07,52a6.86,6.86,0,0,0,4.43,1.54c2.35,0,5.44-.54,5.44-3.92,0-2.35-2-3.2-3.49-3.67-1-.32-1.79-.49-1.79-1.1s.36-.69,1.23-.69a6.49,6.49,0,0,1,2.55.71l1.3-2.6a8.79,8.79,0,0,0-3.85-.89c-3,0-5,1.34-5,3.69C385.87,46.83,387,47.64,388.2,48.24Z"/><path class="cls-5" d="M404.75,46.74a2.44,2.44,0,0,1,2.35-2.24,2.12,2.12,0,0,1,2.06,2.24v6.5h4V45.66c0-3.2-2.94-4.25-5-4.25A4.75,4.75,0,0,0,404.8,43h-.05V41.74h-4v11.5h4Z"/><path class="cls-5" d="M420,53.57c2.55,0,4.66-.83,6-3l-2.86-1.43a3.15,3.15,0,0,1-2.8,1.27A2.35,2.35,0,0,1,417.76,48h8.29a5.71,5.71,0,0,0,5.69,5.53c1.56,0,2.91-.22,3.76-1.16v.85A2.65,2.65,0,0,1,432.7,56a3.48,3.48,0,0,1-3.12-1.48l-3.24,1.59c1.21,2.8,4,3.34,6.36,3.34,3.92,0,6.76-2,6.76-5.85V41.74h-4v1h-.07a5.25,5.25,0,0,0-3.69-1.36,5.69,5.69,0,0,0-5.66,5.28c-.34-3.5-2.87-5.28-6.12-5.28a6.08,6.08,0,1,0,0,12.16Zm13-8.78a2.63,2.63,0,0,1,2.67,2.71,2.68,2.68,0,1,1-5.36,0A2.63,2.63,0,0,1,432.92,44.79ZM420.07,44a2,2,0,0,1,2.17,1.86h-4.37A2,2,0,0,1,420.07,44Z"/><path class="cls-5" d="M447.12,53.57c3.69,0,6.45-2.19,6.81-5.35a6.39,6.39,0,0,0,6.31,5.35,6.51,6.51,0,0,0,3.86-1l-1.35-2.75a3.52,3.52,0,0,1-1.92.53,2.83,2.83,0,0,1,0-5.66,3.52,3.52,0,0,1,1.92.53l1.35-2.71a6.66,6.66,0,0,0-10.17,4.32c-.36-3.2-3.25-5.39-6.81-5.39-3.88,0-6.92,2.51-6.92,6.09S443,53.57,447.12,53.57Zm0-8.78a2.62,2.62,0,0,1,2.66,2.71,2.68,2.68,0,1,1-5.35,0A2.63,2.63,0,0,1,447.1,44.79Z"/><path class="cls-5" d="M466.62,39.35A2.36,2.36,0,1,0,464.27,37,2.36,2.36,0,0,0,466.62,39.35Z"/><rect class="cls-5" x="464.59" y="41.74" width="3.96" height="11.49"/><path class="cls-5" d="M476.32,53.57c4,0,6.86-2.53,6.86-6.07s-3.05-6.09-6.86-6.09-6.92,2.51-6.92,6.09S472.18,53.57,476.32,53.57Zm0-8.78A2.62,2.62,0,0,1,479,47.5a2.68,2.68,0,1,1-5.35,0A2.63,2.63,0,0,1,476.3,44.79Z"/><path class="cls-5" d="M489.47,46c-1-.32-1.79-.49-1.79-1.1s.35-.69,1.23-.69a6.49,6.49,0,0,1,2.55.71l1.3-2.6a8.84,8.84,0,0,0-3.85-.89c-3,0-5,1.34-5,3.69,0,1.73,1.16,2.54,2.33,3.14s2.55.74,2.55,1.57-.67.83-1.23.83a5.71,5.71,0,0,1-2.84-1.32L483.08,52a6.9,6.9,0,0,0,4.44,1.54c2.35,0,5.44-.54,5.44-3.92C493,47.3,491,46.45,489.47,46Z"/><path class="cls-5" d="M47.78,157.16A5.24,5.24,0,0,0,44,155.73a6.09,6.09,0,0,0,0,12.16,5.08,5.08,0,0,0,3.76-1.63h0v1.3h3.92V148.29h-4Zm-2.57,7.35a2.56,2.56,0,0,1-2.69-2.69,2.68,2.68,0,1,1,5.35,0A2.58,2.58,0,0,1,45.21,164.51Z"/><path class="cls-5" d="M61.58,161.53c0,2.26-.61,3.14-2.27,3.14s-2.26-.88-2.26-3.14v-5.46h-4v6.42c0,3.86,1.92,5.4,6.22,5.4s6.23-1.54,6.23-5.4v-6.42h-4Z"/><path class="cls-5" d="M74.41,155.73a4.52,4.52,0,0,0-3.52,2h0v-1.65h-4v11.49h4v-6.05a2.38,2.38,0,0,1,2.35-2.33,3.34,3.34,0,0,1,2.06.63l1.66-3.36A4.75,4.75,0,0,0,74.41,155.73Z"/><path class="cls-5" d="M85.56,157.16a5.26,5.26,0,0,0-3.76-1.43,6.09,6.09,0,0,0,0,12.16,5.08,5.08,0,0,0,3.76-1.63h0v1.3h3.92V156.07h-4ZM83,164.51a2.56,2.56,0,0,1-2.69-2.69,2.68,2.68,0,1,1,5.35,0A2.58,2.58,0,0,1,83,164.51Z"/><path class="cls-5" d="M98.39,155.73a4.76,4.76,0,0,0-3.29,1.55h0v-1.21h-4v11.49h4v-6.5a2.45,2.45,0,0,1,2.36-2.24,2.13,2.13,0,0,1,2.06,2.24v6.5h4V160C103.43,156.78,100.5,155.73,98.39,155.73Z"/><path class="cls-5" d="M110.31,164.33c-.63,0-.9-.51-.9-1.59v-3.65h2.42v-3h-2.42v-4.28h-4v4.28h-1.66v3h1.66v4.41c0,2,.76,4.39,3.91,4.39a6.64,6.64,0,0,0,2.92-.71l-1-3.21A1.86,1.86,0,0,1,110.31,164.33Z"/><path class="cls-5" d="M118,155.73a6.08,6.08,0,1,0,0,12.16c2.55,0,4.66-.83,6-3l-2.87-1.43a3.17,3.17,0,0,1-2.8,1.28,2.36,2.36,0,0,1-2.49-2.38h8.33a3.08,3.08,0,0,0,0-.54C124.15,157.79,121.48,155.73,118,155.73Zm-2.09,4.44a2,2,0,0,1,2.2-1.86,2,2,0,0,1,2.17,1.86Z"/><path class="cls-5" d="M135.43,160.3c-1-.31-1.79-.49-1.79-1.1s.36-.69,1.23-.69a6.49,6.49,0,0,1,2.55.71l1.3-2.59a8.71,8.71,0,0,0-3.85-.9c-3,0-5,1.34-5,3.7,0,1.72,1.17,2.53,2.33,3.13s2.56.74,2.56,1.57-.67.83-1.24.83a5.76,5.76,0,0,1-2.84-1.32l-1.61,2.71a6.86,6.86,0,0,0,4.43,1.54c2.35,0,5.45-.53,5.45-3.92C138.93,161.62,137,160.77,135.43,160.3Z"/><path class="cls-5" d="M148,161.53c0,2.26-.6,3.14-2.26,3.14s-2.26-.88-2.26-3.14v-5.46h-4v6.42c0,3.86,1.93,5.4,6.23,5.4s6.22-1.54,6.22-5.4v-6.42h-4Z"/><path class="cls-5" d="M158.9,160.3c-1-.31-1.79-.49-1.79-1.1s.36-.69,1.23-.69a6.49,6.49,0,0,1,2.55.71l1.3-2.59a8.71,8.71,0,0,0-3.85-.9c-3,0-5,1.34-5,3.7,0,1.72,1.17,2.53,2.33,3.13s2.56.74,2.56,1.57-.68.83-1.24.83a5.76,5.76,0,0,1-2.84-1.32l-1.61,2.71a6.86,6.86,0,0,0,4.43,1.54c2.35,0,5.44-.53,5.44-3.92C162.39,161.62,160.42,160.77,158.9,160.3Z"/><path class="cls-5" d="M176,155.73a5.09,5.09,0,0,0-3.76,1.63h0v-1.29h-3.92v17.31h4v-6.92a5.22,5.22,0,0,0,3.76,1.43,6.09,6.09,0,0,0,0-12.16Zm-1.18,8.78a2.63,2.63,0,0,1-2.67-2.71,2.68,2.68,0,1,1,5.36,0A2.63,2.63,0,0,1,174.78,164.51Z"/><path class="cls-5" d="M192.44,156.45a4.57,4.57,0,0,0-2.5-.72,4.52,4.52,0,0,0-3.52,2h0v-1.65h-4v11.49h4v-6.05a2.38,2.38,0,0,1,2.35-2.33,3.34,3.34,0,0,1,2.06.63l1.65-3.36v11.11h4V156.07h-4Z"/><path class="cls-5" d="M194.48,149a2.35,2.35,0,1,0,2.35,2.35A2.35,2.35,0,0,0,194.48,149Z"/><path class="cls-5" d="M213.21,155.73a5,5,0,0,0-3.81,2.11,4.34,4.34,0,0,0-4-2.11,4.74,4.74,0,0,0-3.29,1.55h0v-1.21h-4v11.49h4v-6.72a1.78,1.78,0,0,1,1.84-1.93,1.94,1.94,0,0,1,2,2.15v6.5h4V160.7a1.76,1.76,0,0,1,1.84-1.79,1.93,1.93,0,0,1,2,2.15v6.5h4V160C217.69,156.78,215.31,155.73,213.21,155.73Z"/><path class="cls-5" d="M224.51,155.73a6.08,6.08,0,1,0,0,12.16c2.56,0,4.66-.83,6-3l-2.86-1.43a3.17,3.17,0,0,1-2.8,1.28,2.36,2.36,0,0,1-2.49-2.38h8.33a4.61,4.61,0,0,0,0-.54C230.67,157.79,228,155.73,224.51,155.73Zm-2.08,4.44a2,2,0,0,1,2.2-1.86,2,2,0,0,1,2.17,1.86Z"/><path class="cls-5" d="M238.94,155.73a4.49,4.49,0,0,0-3.52,2h0v-1.65h-4v11.49h4v-6.05a2.39,2.39,0,0,1,2.36-2.33,3.34,3.34,0,0,1,2.06.63l1.66-3.36A4.79,4.79,0,0,0,238.94,155.73Z"/><path class="cls-5" d="M247.53,155.73c-3.87,0-6.92,2.51-6.92,6.09s2.78,6.07,6.92,6.07c4,0,6.86-2.53,6.86-6.07S251.34,155.73,247.53,155.73Zm0,8.78a2.57,2.57,0,0,1-2.69-2.69,2.68,2.68,0,1,1,5.36,0A2.58,2.58,0,0,1,247.51,164.51Z"/><path class="cls-5" d="M260.68,160.3c-1-.31-1.79-.49-1.79-1.1s.36-.69,1.23-.69a6.49,6.49,0,0,1,2.55.71l1.3-2.59a8.71,8.71,0,0,0-3.85-.9c-3,0-5,1.34-5,3.7,0,1.72,1.17,2.53,2.33,3.13s2.56.74,2.56,1.57-.68.83-1.24.83a5.76,5.76,0,0,1-2.84-1.32l-1.61,2.71a6.86,6.86,0,0,0,4.43,1.54c2.35,0,5.44-.53,5.44-3.92C264.17,161.62,262.2,160.77,260.68,160.3Z"/><path class="cls-5" d="M278.66,157.16a5.24,5.24,0,0,0-3.76-1.43,6.09,6.09,0,0,0,0,12.16,5.08,5.08,0,0,0,3.76-1.63h0v1.3h3.92V156.07h-4Zm-2.57,7.35a2.57,2.57,0,0,1-2.69-2.69,2.68,2.68,0,1,1,5.35,0A2.58,2.58,0,0,1,276.09,164.51Z"/><path class="cls-5" d="M291.49,155.73a4.76,4.76,0,0,0-3.29,1.55h0v-1.21h-4v11.49h4v-6.5a2.44,2.44,0,0,1,2.35-2.24,2.12,2.12,0,0,1,2.06,2.24v6.5h4V160C296.53,156.78,293.6,155.73,291.49,155.73Z"/><path class="cls-5" d="M288.34,152.75a4.7,4.7,0,0,1,1.7.43,8.22,8.22,0,0,0,2.33.6c2.46,0,3-3.85,3-3.85h-2.26s-.29,1-1,1a4.7,4.7,0,0,1-1.7-.43,8.22,8.22,0,0,0-2.33-.6c-2.46,0-3,3.85-3,3.85h2.26S287.62,152.75,288.34,152.75Z"/><path class="cls-5" d="M304,155.73c-3.88,0-6.92,2.51-6.92,6.09s2.77,6.07,6.92,6.07c4,0,6.85-2.53,6.85-6.07S307.78,155.73,304,155.73Zm0,8.78a2.56,2.56,0,0,1-2.69-2.69,2.68,2.68,0,1,1,5.35,0A2.58,2.58,0,0,1,304,164.51Z"/><path class="cls-5" d="M317.11,160.3c-1-.31-1.79-.49-1.79-1.1s.36-.69,1.23-.69a6.56,6.56,0,0,1,2.56.71l1.3-2.59a8.78,8.78,0,0,0-3.86-.9c-3,0-5,1.34-5,3.7,0,1.72,1.16,2.53,2.32,3.13s2.56.74,2.56,1.57-.67.83-1.23.83a5.76,5.76,0,0,1-2.85-1.32l-1.61,2.71a6.89,6.89,0,0,0,4.43,1.54c2.36,0,5.45-.53,5.45-3.92C320.61,161.62,318.64,160.77,317.11,160.3Z"/><path class="cls-5" d="M198,48.65c0,2.9,2.42,4.92,5.56,4.92s5.46-2,5.46-4.92-2.27-4.91-5.46-4.91C200.2,43.74,198,45.81,198,48.65Zm7.75,0A2.23,2.23,0,0,1,203.52,51a2.26,2.26,0,0,1-2.29-2.32,2.27,2.27,0,1,1,4.53,0Z"/><path class="cls-5" d="M191.28,42.07c3.19,0,5.46-2.07,5.46-4.91s-2.42-4.91-5.46-4.91-5.56,2-5.56,4.91S187.91,42.07,191.28,42.07Zm-.05-7.23a2.24,2.24,0,0,1,2.24,2.32,2.27,2.27,0,1,1-4.54,0A2.27,2.27,0,0,1,191.23,34.84Z"/><polygon class="cls-5" points="192.9 53.19 204.87 32.62 201.92 32.62 189.96 53.19 192.9 53.19"/><path class="cls-5" d="M309.18,42.07c3.19,0,5.46-2.07,5.46-4.91s-2.42-4.91-5.46-4.91-5.57,2-5.57,4.91S305.81,42.07,309.18,42.07Zm-.05-7.23a2.24,2.24,0,0,1,2.24,2.32,2.27,2.27,0,1,1-4.54,0A2.26,2.26,0,0,1,309.13,34.84Z"/><polygon class="cls-5" points="310.8 53.19 322.76 32.62 319.82 32.62 307.85 53.19 310.8 53.19"/><path class="cls-5" d="M315.91,48.65c0,2.9,2.42,4.92,5.56,4.92s5.46-2,5.46-4.92-2.27-4.91-5.46-4.91C318.1,43.74,315.91,45.81,315.91,48.65Zm7.75,0A2.24,2.24,0,0,1,321.42,51a2.27,2.27,0,0,1-2.3-2.32,2.27,2.27,0,1,1,4.54,0Z"/><polygon class="cls-5" points="219.26 59.47 223.83 59.47 232.86 42.15 228.29 42.15 225.56 48.04 222.35 42.15 217.78 42.15 223.23 51.85 219.26 59.47"/></g></g></svg>