<svg xmlns="http://www.w3.org/2000/svg" width="1513.98" height="393.51" viewBox="0 0 1513.98 393.51"><defs><style>.cls-1{fill:#edebeb;}.cls-2{fill:#737373;}.cls-3{font-size:96.87px;fill:#5fcd30;font-family:LeagueSpartan-Bold, League Spartan;font-weight:700;}</style></defs><title>banner-porque-findoo-encontramos-clientes</title><g id="Capa_2" data-name="Capa 2"><g id="Capa_1-2" data-name="Capa 1"><rect class="cls-1" width="1513.98" height="393.51"/><path class="cls-2" d="M38.37,62.7a2.9,2.9,0,1,0,2.9-2.89A2.87,2.87,0,0,0,38.37,62.7Z"/><path class="cls-2" d="M45.94,62.7a2.9,2.9,0,1,0,2.9-2.89A2.88,2.88,0,0,0,45.94,62.7Z"/><path class="cls-2" d="M53.51,62.7a2.9,2.9,0,1,0,2.9-2.89A2.88,2.88,0,0,0,53.51,62.7Z"/><path class="cls-2" d="M72.87,73.47v-10c1,1.48,3.09,2.07,5,2.07a7.6,7.6,0,0,0,0-15.18,6.07,6.07,0,0,0-5,2.11V50.72H67.93V73.47Zm0-15.47a3.46,3.46,0,1,1,3.46,3.62A3.55,3.55,0,0,1,72.87,58Z"/><path class="cls-2" d="M94,50.43c-4.54,0-8.29,3-8.29,7.57s3.65,7.54,8.29,7.54,8.27-2.9,8.27-7.54S98.51,50.43,94,50.43Zm0,11.39c-2.66,0-3.39-2-3.39-3.79s.79-3.75,3.39-3.75,3.36,1.94,3.36,3.75S96.64,61.82,94,61.82Z"/><path class="cls-2" d="M111.94,54.38a2.5,2.5,0,0,1,2,.82H114V50.72a3.8,3.8,0,0,0-1.48-.33,4.6,4.6,0,0,0-3.82,2.11V50.72h-4.93V65.24h4.93V58A3.59,3.59,0,0,1,111.94,54.38Z"/><path class="cls-2" d="M130.94,50.72H126V52.5a6.12,6.12,0,0,0-5-2.11,7.6,7.6,0,0,0,0,15.18c1.84,0,4-.59,5-2.07v10h4.94ZM126,58a3.46,3.46,0,1,1-3.46-3.62A3.55,3.55,0,0,1,126,58Z"/><path class="cls-2" d="M132.91,59c0,3.92,1.58,6.59,5.47,6.59a5.56,5.56,0,0,0,4.44-2.11v1.78h4.94V50.72h-4.94V58c0,1.94-1.22,3.62-2.76,3.62s-2.21-1-2.21-2.64V50.72h-4.94Z"/><path class="cls-2" d="M165.76,57.67c0-4.64-3.65-7.28-8.06-7.28-4.87,0-8.46,3.06-8.46,7.61s3.46,7.57,8.46,7.57c3.85,0,7-1.91,7.8-5.73h-5a2.63,2.63,0,0,1-2.86,2.21,3.31,3.31,0,0,1-3.13-3.46h11.26C165.73,58.29,165.76,58,165.76,57.67Zm-11.22-1.42a3,3,0,0,1,3.26-2.7,3,3,0,0,1,3.22,2.7Z"/><path class="cls-2" d="M189.53,57.67c0-4.64-3.65-7.28-8.06-7.28-4.88,0-8.46,3.06-8.46,7.61s3.45,7.57,8.46,7.57c3.85,0,6.94-1.91,7.8-5.73h-5a2.64,2.64,0,0,1-2.86,2.21,3.31,3.31,0,0,1-3.13-3.46H189.5C189.5,58.29,189.53,58,189.53,57.67Zm-11.22-1.42a3,3,0,0,1,3.25-2.7,3,3,0,0,1,3.23,2.7Z"/><path class="cls-2" d="M205.86,57c0-3.95-1.58-6.62-5.47-6.62A5.58,5.58,0,0,0,196,52.5V50.72H191V65.24H196V58c0-2,1.22-3.62,2.77-3.62s2.2.92,2.2,2.63v8.23h4.94Z"/><text class="cls-3" transform="translate(33.9 145.17)">e</text><text class="cls-3" transform="translate(87.47 145.17)">n</text><text class="cls-3" transform="translate(146.66 145.17)">c</text><text class="cls-3" transform="translate(189.38 145.17)">o</text><text class="cls-3" transform="translate(248.56 145.17)">n</text><text class="cls-3" transform="translate(307.75 145.17)">t</text><text class="cls-3" transform="translate(341.17 145.17)">r</text><text class="cls-3" transform="translate(384.56 145.17)">a</text><text class="cls-3" transform="translate(445.88 145.17)">m</text><text class="cls-3" transform="translate(536.45 145.17)">o</text><text class="cls-3" transform="translate(595.64 145.17)">s</text><text class="cls-3" transform="translate(638.45 145.17)"> </text><text class="cls-3" transform="translate(33.9 236)">a</text><text class="cls-3" transform="translate(95.22 236)"> </text><text class="cls-3" transform="translate(116.82 236)">l</text><text class="cls-3" transform="translate(140.75 236)">o</text><text class="cls-3" transform="translate(199.93 236)">s</text><text class="cls-3" transform="translate(242.75 236)"> </text><text class="cls-3" transform="translate(264.35 236)">c</text><text class="cls-3" transform="translate(307.07 236)">l</text><text class="cls-3" transform="translate(330.99 236)">i</text><text class="cls-3" transform="translate(355.4 236)">e</text><text class="cls-3" transform="translate(408.97 236)">n</text><text class="cls-3" transform="translate(468.16 236)">t</text><text class="cls-3" transform="translate(501.58 236)">e</text><text class="cls-3" transform="translate(555.15 236)">s</text><text class="cls-3" transform="translate(597.94 236)"> </text><text class="cls-3" transform="translate(33.9 326.83)">q</text><text class="cls-3" transform="translate(95.22 326.83)">u</text><text class="cls-3" transform="translate(153.92 326.83)">e</text><text class="cls-3" transform="translate(207.49 326.83)"> </text><text class="cls-3" transform="translate(229.09 326.83)">t</text><text class="cls-3" transform="translate(262.51 326.83)">a</text><text class="cls-3" transform="translate(323.83 326.83)">n</text><text class="cls-3" transform="translate(383.01 326.83)">t</text><text class="cls-3" transform="translate(416.43 326.83)">o</text><text class="cls-3" transform="translate(475.62 326.83)"> </text><text class="cls-3" transform="translate(497.22 326.83)">b</text><text class="cls-3" transform="translate(558.54 326.83)">u</text><text class="cls-3" transform="translate(617.24 326.83)">s</text><text class="cls-3" transform="translate(660.05 326.83)">c</text><text class="cls-3" transform="translate(702.77 326.83)">a</text><text class="cls-3" transform="translate(764.09 326.83)">b</text><text class="cls-3" transform="translate(825.4 326.83)">a</text><text class="cls-3" transform="translate(886.72 326.83)">s</text><text class="cls-3" transform="translate(929.52 326.83)"> </text><polygon class="cls-2" points="232.38 54.4 232.38 48.76 222.67 48.76 222.67 43.16 232.8 43.16 232.8 37.52 216.45 37.52 216.45 65.73 222.67 65.73 222.67 54.4 232.38 54.4"/><rect class="cls-2" x="235.29" y="37.52" width="6.22" height="28.21"/><polygon class="cls-2" points="266.57 65.73 266.57 37.52 260.34 37.52 260.34 55.11 250.63 37.52 244.41 37.52 244.41 65.73 250.63 65.73 250.63 48.14 260.34 65.73 266.57 65.73"/><path class="cls-2" d="M269.47,37.52V65.73h8.38a13.79,13.79,0,0,0,14-14.11,13.81,13.81,0,0,0-14-14.1ZM275.61,60V43.28h1.87c4.81,0,8,3.65,8,8.34s-3.28,8.38-8,8.38Z"/><path class="cls-2" d="M321.74,51.62a14.52,14.52,0,1,0-29,0,14.52,14.52,0,1,0,29,0Zm-6.22,0a8.3,8.3,0,1,1-16.59,0,8.3,8.3,0,1,1,16.59,0Z"/><path class="cls-2" d="M351.62,51.62a14.53,14.53,0,0,0-29.05,0,14.53,14.53,0,0,0,29.05,0Zm-6.23,0a8.3,8.3,0,1,1-16.59,0,8.3,8.3,0,1,1,16.59,0Z"/></g></g></svg>