<svg xmlns="http://www.w3.org/2000/svg" width="1232.13" height="241.02" viewBox="0 0 1232.13 241.02"><defs><style>.cls-1{fill:#edebeb;}.cls-2{font-size:32.16px;}.cls-2,.cls-3,.cls-5,.cls-6{fill:#5c5e63;}.cls-2,.cls-3,.cls-4,.cls-5,.cls-6{font-family:LeagueSpartan-Bold, League Spartan;font-weight:700;}.cls-3{font-size:62.63px;}.cls-4{font-size:94.71px;fill:#5fcd30;}.cls-5{font-size:32.18px;}.cls-6{font-size:32.16px;}</style></defs><title>banner-porcentaje-desaparicion-negocios_1</title><g id="Capa_2" data-name="Capa 2"><g id="Capa_1-2" data-name="Capa 1"><rect class="cls-1" width="1232.13" height="241.02"/><text class="cls-2" transform="translate(149.05 70.19)">e</text><text class="cls-2" transform="translate(166.84 70.19)">n</text><text class="cls-2" transform="translate(186.49 70.19)">t</text><text class="cls-2" transform="translate(197.59 70.19)">r</text><text class="cls-2" transform="translate(211.99 70.19)">e</text><text class="cls-2" transform="translate(229.78 70.19)"> </text><text class="cls-2" transform="translate(236.95 70.19)">e</text><text class="cls-2" transform="translate(254.74 70.19)">l</text><text class="cls-2" transform="translate(262.68 70.19)"> </text><text class="cls-3" transform="translate(278.55 68.2)">7</text><text class="cls-3" transform="translate(318.51 68.2)">5</text><text class="cls-3" transform="translate(355.52 68.2)"> </text><text class="cls-3" transform="translate(369.49 68.2)"> </text><text class="cls-3" transform="translate(383.45 68.2)"> </text><text class="cls-3" transform="translate(397.42 68.2)"> </text><text class="cls-3" transform="translate(411.39 68.2)"> </text><text class="cls-3" transform="translate(425.35 68.2)"> </text><text class="cls-3" transform="translate(439.31 68.2)">9</text><text class="cls-3" transform="translate(479.33 68.2)">0</text><text class="cls-3" transform="translate(521.72 68.2)"> </text><text class="cls-4" transform="translate(277.02 160.34)">d</text><text class="cls-4" transform="translate(336.96 160.34)">e</text><text class="cls-4" transform="translate(389.33 160.34)">s</text><text class="cls-4" transform="translate(431.19 160.34)">a</text><text class="cls-4" transform="translate(491.13 160.34)">p</text><text class="cls-4" transform="translate(551.08 160.34)">a</text><text class="cls-4" transform="translate(611.02 160.34)">r</text><text class="cls-4" transform="translate(653.45 160.34)">e</text><text class="cls-4" transform="translate(705.82 160.34)">c</text><text class="cls-4" transform="translate(747.58 160.34)">e</text><text class="cls-4" transform="translate(799.95 160.34)">n</text><text class="cls-2" transform="translate(628.7 215.83)">d</text><text class="cls-2" transform="translate(649.06 215.83)">u</text><text class="cls-2" transform="translate(668.55 215.83)">r</text><text class="cls-2" transform="translate(682.96 215.83)">a</text><text class="cls-2" transform="translate(703.31 215.83)">n</text><text class="cls-2" transform="translate(722.97 215.83)">t</text><text class="cls-2" transform="translate(734.06 215.83)">e</text><text class="cls-2" transform="translate(751.85 215.83)"> </text><text class="cls-2" transform="translate(759.02 215.83)">s</text><text class="cls-2" transform="translate(773.23 215.83)">u</text><text class="cls-2" transform="translate(792.72 215.83)">s</text><text class="cls-2" transform="translate(806.94 215.83)"> </text><text class="cls-2" transform="translate(814.11 215.83)">p</text><text class="cls-2" transform="translate(834.47 215.83)">r</text><text class="cls-2" transform="translate(848.88 215.83)">i</text><text class="cls-2" transform="translate(856.98 215.83)">m</text><text class="cls-2" transform="translate(887.06 215.83)">e</text><text class="cls-2" transform="translate(904.84 215.83)">r</text><text class="cls-2" transform="translate(919.25 215.83)">o</text><text class="cls-2" transform="translate(938.9 215.83)">s</text><text class="cls-2" transform="translate(953.12 215.83)"> </text><text class="cls-2" transform="translate(960.29 215.83)">a</text><text class="cls-2" transform="translate(980.65 215.83)">ñ</text><text class="cls-2" transform="translate(1000.3 215.83)">o</text><text class="cls-2" transform="translate(1019.95 215.83)">s</text><text class="cls-5" transform="translate(568.64 65.13)">d</text><text class="cls-5" transform="translate(589.01 65.13)">e</text><text class="cls-5" transform="translate(606.81 65.13)"> </text><text class="cls-5" transform="translate(613.98 65.13)">l</text><text class="cls-5" transform="translate(621.93 65.13)">o</text><text class="cls-5" transform="translate(641.59 65.13)">s</text><text class="cls-5" transform="translate(655.82 65.13)"> </text><text class="cls-5" transform="translate(663 65.13)">n</text><text class="cls-5" transform="translate(682.66 65.13)">e</text><text class="cls-5" transform="translate(700.45 65.13)">g</text><text class="cls-5" transform="translate(720.83 65.13)">o</text><text class="cls-5" transform="translate(740.49 65.13)">c</text><text class="cls-5" transform="translate(754.68 65.13)">i</text><text class="cls-5" transform="translate(762.79 65.13)">o</text><text class="cls-5" transform="translate(782.45 65.13)">s</text><text class="cls-6" transform="translate(359.52 68.6)">%</text><text class="cls-6" transform="translate(389.45 68.6)"> </text><text class="cls-6" transform="translate(528.02 68.6)">%</text><text class="cls-6" transform="translate(557.95 68.6)"> </text><text class="cls-6" transform="translate(406.07 70.27)">y</text></g></g></svg>