<svg xmlns="http://www.w3.org/2000/svg" width="1440" height="120.88" viewBox="0 0 1440 120.88"><defs><style>.cls-1{fill:#edebeb;}.cls-2{fill:#5fcd30;}</style></defs><title>banner-descargala-ya</title><g id="Capa_2" data-name="Capa 2"><g id="Capa_1-2" data-name="Capa 1"><path class="cls-1" d="M928.06,53.14a8.4,8.4,0,0,0-8.58,8.65,8.55,8.55,0,1,0,17.09,0A8.38,8.38,0,0,0,928.06,53.14Z"/><path class="cls-1" d="M1198.6,53.14a8.4,8.4,0,0,0-8.58,8.65,8.55,8.55,0,1,0,17.09,0A8.38,8.38,0,0,0,1198.6,53.14Z"/><path class="cls-1" d="M971.83,50.56c-4.36,0-6.79,2.58-7,5.94h13.95A6.52,6.52,0,0,0,971.83,50.56Z"/><path class="cls-1" d="M1076,53.14a8.4,8.4,0,0,0-8.58,8.65,8.55,8.55,0,1,0,17.09,0A8.38,8.38,0,0,0,1076,53.14Z"/><path class="cls-1" d="M1153.33,53.14a8.4,8.4,0,0,0-8.58,8.65,8.55,8.55,0,1,0,17.09,0A8.38,8.38,0,0,0,1153.33,53.14Z"/><path class="cls-1" d="M0,0V120.88H1440V0ZM1404.85,18.59l-1.72,42.2h-9.22l-1.72-42.2ZM1087.12,20l6.51,8.23-17,9.87-4-5.51Zm-198,78.67,1.72-42.19h9.22l1.72,42.19Zm6.29-46.2a8.19,8.19,0,1,1,8.23-8.22A8.16,8.16,0,0,1,895.45,52.49ZM949,80.1H936.43V76h-.14a16.24,16.24,0,0,1-12,5.22c-10.73,0-18.23-8.65-18.23-19.38s7.5-19.45,18.23-19.45a16.67,16.67,0,0,1,12,4.58V18.59H949Zm22.52,1.07c-11.08,0-20.17-8.72-20.17-19.38s9.09-19.45,20.17-19.45,19.67,6.58,19.67,19.45a13.57,13.57,0,0,1-.07,1.72H964.46c0,5.65,4.72,7.58,7.94,7.58,4.08,0,5.87-.79,8.94-4.08l9.16,4.58C986.35,78.53,979.63,81.17,971.47,81.17Zm33.55,0a22,22,0,0,1-14.16-4.93L996,67.58s5,4.22,9.09,4.22c1.79,0,3.93-.21,3.93-2.64,0-2.65-4-2.86-8.15-5-3.72-1.93-7.44-4.5-7.44-10,0-7.51,6.36-11.8,16-11.8a28,28,0,0,1,12.3,2.86l-4.15,8.3s-4.29-2.29-8.15-2.29c-2.79,0-3.93.5-3.93,2.21,0,1.93,2.57,2.51,5.72,3.51,4.86,1.5,11.15,4.22,11.15,11.73C1022.39,79.46,1012.53,81.17,1005,81.17Zm37.76,0c-10.59,0-20.32-8.58-20.32-19.31s9.66-19.52,20.32-19.52c8.15,0,12.3,3.43,12.3,3.43l-4.29,8.66a11.15,11.15,0,0,0-6.15-1.72,9.05,9.05,0,0,0,0,18.09,11.19,11.19,0,0,0,6.15-1.71l4.29,8.79S1050.93,81.17,1042.78,81.17Zm54.14-1.07H1084.4V76h-.14a16.24,16.24,0,0,1-12,5.22c-10.73,0-18.24-8.65-18.24-19.38s7.51-19.45,18.24-19.45a16.67,16.67,0,0,1,12,4.58V43.41h12.66Zm25.16-26.75c-6.58,0-7.51,6.51-7.51,7.44V80.1h-12.66V43.41h12.66V48.7h.14s4-6.36,11.23-6.36a15.19,15.19,0,0,1,8,2.29l-5.29,10.72A10.69,10.69,0,0,0,1122.08,53.35Zm52.14,27.75c0,12.3-9.09,18.67-21.6,18.67-7.66,0-16.45-1.72-20.31-10.66L1142.68,84c1.36,2.22,4.43,4.72,9.94,4.72,3.5,0,8.94-2.07,8.94-8.58V77.45c-2.72,3-7,3.72-12,3.72-10.73,0-18.24-8.65-18.24-19.38s7.51-19.45,18.24-19.45a16.73,16.73,0,0,1,11.8,4.36h.22V43.41h12.66Zm45.27-1H1207V76h-.14a16.24,16.24,0,0,1-12,5.22c-10.73,0-18.23-8.65-18.23-19.38s7.5-19.45,18.23-19.45a16.67,16.67,0,0,1,12,4.58V43.41h12.66Zm17.66,0h-12.66V18.59h12.66Zm45.28,0h-12.52V76h-.14a16.24,16.24,0,0,1-12,5.22c-10.73,0-18.24-8.65-18.24-19.38s7.51-19.45,18.24-19.45a16.67,16.67,0,0,1,12,4.58V43.41h12.66Zm19.94,18.59L1315,74.38l-17.38-31h14.59l10.23,18.81,8.72-18.81h14.59L1317,98.69Zm83-18.59h-12.52V76h-.14a16.24,16.24,0,0,1-12,5.22c-10.73,0-18.23-8.65-18.23-19.38s7.5-19.45,18.23-19.45a16.67,16.67,0,0,1,12,4.58V43.41h12.66Zm13.15,1.07a8.19,8.19,0,1,1,8.23-8.15A8.15,8.15,0,0,1,1398.48,81.17Z"/><path class="cls-1" d="M1261.54,53.14a8.4,8.4,0,0,0-8.58,8.65,8.55,8.55,0,1,0,17.09,0A8.38,8.38,0,0,0,1261.54,53.14Z"/><path class="cls-1" d="M1364.44,53.14a8.4,8.4,0,0,0-8.58,8.65,8.55,8.55,0,1,0,17.09,0A8.38,8.38,0,0,0,1364.44,53.14Z"/><path class="cls-2" d="M895.45,36.12a8.19,8.19,0,1,0,8.23,8.15A8.15,8.15,0,0,0,895.45,36.12Z"/><polygon class="cls-2" points="890.88 56.5 889.16 98.69 901.82 98.69 900.1 56.5 890.88 56.5"/><path class="cls-2" d="M936.29,46.92a16.67,16.67,0,0,0-12-4.58c-10.73,0-18.23,8.72-18.23,19.45s7.5,19.38,18.23,19.38a16.24,16.24,0,0,0,12-5.22h.14V80.1H949V18.59H936.29Zm-8.23,23.45a8.18,8.18,0,0,1-8.58-8.58,8.55,8.55,0,1,1,17.09,0A8.24,8.24,0,0,1,928.06,70.37Z"/><path class="cls-2" d="M972.4,71.09c-3.22,0-7.94-1.93-7.94-7.58h26.61a13.57,13.57,0,0,0,.07-1.72c0-12.87-8.51-19.45-19.67-19.45S951.3,51.06,951.3,61.79s9.09,19.38,20.17,19.38c8.16,0,14.88-2.64,19-9.58L981.34,67C978.27,70.3,976.48,71.09,972.4,71.09Zm-.57-20.53a6.52,6.52,0,0,1,6.94,5.94H964.82C965,53.14,967.47,50.56,971.83,50.56Z"/><path class="cls-2" d="M1011.24,56.93c-3.15-1-5.72-1.58-5.72-3.51,0-1.71,1.14-2.21,3.93-2.21,3.86,0,8.15,2.29,8.15,2.29l4.15-8.3a28,28,0,0,0-12.3-2.86c-9.66,0-16,4.29-16,11.8,0,5.51,3.72,8.08,7.44,10,4.15,2.15,8.15,2.36,8.15,5,0,2.43-2.14,2.64-3.93,2.64-4.08,0-9.09-4.22-9.09-4.22l-5.14,8.66A22,22,0,0,0,1005,81.17c7.51,0,17.37-1.71,17.37-12.51C1022.39,61.15,1016.1,58.43,1011.24,56.93Z"/><path class="cls-2" d="M1044.64,70.8a9.05,9.05,0,0,1,0-18.09,11.15,11.15,0,0,1,6.15,1.72l4.29-8.66s-4.15-3.43-12.3-3.43c-10.66,0-20.32,8.72-20.32,19.52s9.73,19.31,20.32,19.31c8.15,0,12.3-3.29,12.3-3.29l-4.29-8.79A11.19,11.19,0,0,1,1044.64,70.8Z"/><polygon class="cls-2" points="1093.63 28.25 1087.12 20.02 1072.6 32.61 1076.6 38.12 1093.63 28.25"/><path class="cls-2" d="M1084.26,46.92a16.67,16.67,0,0,0-12-4.58c-10.73,0-18.24,8.72-18.24,19.45s7.51,19.38,18.24,19.38a16.24,16.24,0,0,0,12-5.22h.14V80.1h12.52V43.41h-12.66ZM1076,70.37a8.18,8.18,0,0,1-8.58-8.58,8.55,8.55,0,1,1,17.09,0A8.24,8.24,0,0,1,1076,70.37Z"/><path class="cls-2" d="M1125.94,42.34c-7.22,0-11.23,6.36-11.23,6.36h-.14V43.41h-12.66V80.1h12.66V60.79c0-.93.93-7.44,7.51-7.44a10.69,10.69,0,0,1,6.58,2L1134,44.63A15.19,15.19,0,0,0,1125.94,42.34Z"/><path class="cls-2" d="M1161.56,46.7h-.22a16.73,16.73,0,0,0-11.8-4.36c-10.73,0-18.24,8.72-18.24,19.45s7.51,19.38,18.24,19.38c5,0,9.3-.71,12-3.72v2.72c0,6.51-5.44,8.58-8.94,8.58-5.51,0-8.58-2.5-9.94-4.72l-10.37,5.08c3.86,8.94,12.65,10.66,20.31,10.66,12.51,0,21.6-6.37,21.6-18.67V43.41h-12.66Zm-8.23,23.67a8.18,8.18,0,0,1-8.58-8.58,8.55,8.55,0,1,1,17.09,0A8.24,8.24,0,0,1,1153.33,70.37Z"/><path class="cls-2" d="M1206.83,46.92a16.67,16.67,0,0,0-12-4.58c-10.73,0-18.23,8.72-18.23,19.45s7.5,19.38,18.23,19.38a16.24,16.24,0,0,0,12-5.22h.14V80.1h12.52V43.41h-12.66Zm-8.23,23.45a8.18,8.18,0,0,1-8.58-8.58,8.55,8.55,0,1,1,17.09,0A8.24,8.24,0,0,1,1198.6,70.37Z"/><rect class="cls-2" x="1224.49" y="18.59" width="12.66" height="61.51"/><path class="cls-2" d="M1269.77,46.92a16.67,16.67,0,0,0-12-4.58c-10.73,0-18.24,8.72-18.24,19.45s7.51,19.38,18.24,19.38a16.24,16.24,0,0,0,12-5.22h.14V80.1h12.52V43.41h-12.66Zm-8.23,23.45a8.18,8.18,0,0,1-8.58-8.58,8.55,8.55,0,1,1,17.09,0A8.24,8.24,0,0,1,1261.54,70.37Z"/><polygon class="cls-2" points="1331.19 43.41 1322.47 62.22 1312.24 43.41 1297.65 43.41 1315.03 74.38 1302.37 98.69 1316.96 98.69 1345.78 43.41 1331.19 43.41"/><path class="cls-2" d="M1372.67,46.92a16.67,16.67,0,0,0-12-4.58c-10.73,0-18.23,8.72-18.23,19.45s7.5,19.38,18.23,19.38a16.24,16.24,0,0,0,12-5.22h.14V80.1h12.52V43.41h-12.66Zm-8.23,23.45a8.18,8.18,0,0,1-8.58-8.58,8.55,8.55,0,1,1,17.09,0A8.24,8.24,0,0,1,1364.44,70.37Z"/><path class="cls-2" d="M1398.48,64.79a8.19,8.19,0,1,0,8.23,8.23A8.17,8.17,0,0,0,1398.48,64.79Z"/><polygon class="cls-2" points="1403.13 60.79 1404.85 18.59 1392.19 18.59 1393.91 60.79 1403.13 60.79"/></g></g></svg>