<svg xmlns="http://www.w3.org/2000/svg" width="1676.73" height="334.49" viewBox="0 0 1676.73 334.49"><defs><style>.cls-1{fill:#edebeb;}.cls-2{font-size:36.47px;fill:#5c5e63;}.cls-2,.cls-3{font-family:LeagueSpartan-Bold, League Spartan;font-weight:700;}.cls-3{font-size:107.39px;fill:#5fcd30;}</style></defs><title>gracias-findoo-generas-experiencia</title><g id="Capa_2" data-name="Capa 2"><g id="Capa_1-2" data-name="Capa 1"><rect class="cls-1" width="1676.73" height="334.49"/><text class="cls-2" transform="translate(434.73 57.22)">g</text><text class="cls-2" transform="translate(457.81 57.22)">r</text><text class="cls-2" transform="translate(474.15 57.22)">a</text><text class="cls-2" transform="translate(497.24 57.22)">c</text><text class="cls-2" transform="translate(513.32 57.22)">i</text><text class="cls-2" transform="translate(522.51 57.22)">a</text><text class="cls-2" transform="translate(545.6 57.22)">s</text><text class="cls-2" transform="translate(561.72 57.22)"> </text><text class="cls-2" transform="translate(569.85 57.22)">a</text><text class="cls-2" transform="translate(592.94 57.22)"> </text><text class="cls-2" transform="translate(601.07 57.22)">F</text><text class="cls-2" transform="translate(619.93 57.22)">I</text><text class="cls-2" transform="translate(629.34 57.22)">N</text><text class="cls-2" transform="translate(657.64 57.22)">D</text><text class="cls-2" transform="translate(682.73 57.22)">O</text><text class="cls-2" transform="translate(712.89 57.22)">O</text><text class="cls-2" transform="translate(743.05 57.22)"> </text><text class="cls-2" transform="translate(751.18 57.22)">p</text><text class="cls-2" transform="translate(774.27 57.22)">o</text><text class="cls-2" transform="translate(796.55 57.22)">d</text><text class="cls-2" transform="translate(819.64 57.22)">r</text><text class="cls-2" transform="translate(835.98 57.22)">á</text><text class="cls-2" transform="translate(859.07 57.22)">s</text><text class="cls-2" transform="translate(875.19 57.22)"> </text><text class="cls-2" transform="translate(883.32 57.22)">g</text><text class="cls-2" transform="translate(906.4 57.22)">e</text><text class="cls-2" transform="translate(926.57 57.22)">n</text><text class="cls-2" transform="translate(948.86 57.22)">e</text><text class="cls-2" transform="translate(969.02 57.22)">r</text><text class="cls-2" transform="translate(985.36 57.22)">a</text><text class="cls-2" transform="translate(1008.45 57.22)">r</text><text class="cls-3" transform="translate(628.41 161.65)"> </text><text class="cls-3" transform="translate(652.36 161.65)"> </text><text class="cls-3" transform="translate(676.28 161.65)">e</text><text class="cls-3" transform="translate(735.67 161.65)">x</text><text class="cls-3" transform="translate(800.53 161.65)">p</text><text class="cls-3" transform="translate(868.51 161.65)">e</text><text class="cls-3" transform="translate(927.89 161.65)">r</text><text class="cls-3" transform="translate(976 161.65)">i</text><text class="cls-3" transform="translate(1003.06 161.65)">e</text><text class="cls-3" transform="translate(1062.44 161.65)">n</text><text class="cls-3" transform="translate(1128.06 161.65)">c</text><text class="cls-3" transform="translate(1175.42 161.65)">i</text><text class="cls-3" transform="translate(1202.48 161.65)">a</text><text class="cls-3" transform="translate(1270.45 161.65)">s</text><text class="cls-3" transform="translate(628.41 262.34)">ú</text><text class="cls-3" transform="translate(693.49 262.34)">n</text><text class="cls-3" transform="translate(759.1 262.34)">i</text><text class="cls-3" transform="translate(786.16 262.34)">c</text><text class="cls-3" transform="translate(833.52 262.34)">a</text><text class="cls-3" transform="translate(901.49 262.34)">s</text><text class="cls-3" transform="translate(948.96 262.34)"> </text><text class="cls-3" transform="translate(972.9 262.34)"> </text><text class="cls-3" transform="translate(996.85 262.34)"> </text><text class="cls-3" transform="translate(1020.79 262.34)">v</text><text class="cls-3" transform="translate(1083.07 262.34)">a</text><text class="cls-3" transform="translate(1151.05 262.34)">l</text><text class="cls-3" transform="translate(1177.57 262.34)">i</text><text class="cls-3" transform="translate(1204.63 262.34)">o</text><text class="cls-3" transform="translate(1270.25 262.34)">s</text><text class="cls-3" transform="translate(1317.71 262.34)">a</text><text class="cls-3" transform="translate(1385.69 262.34)">s</text><text class="cls-2" transform="translate(1363.44 305.07)">p</text><text class="cls-2" transform="translate(1386.53 305.07)">a</text><text class="cls-2" transform="translate(1409.61 305.07)">r</text><text class="cls-2" transform="translate(1425.95 305.07)">a</text><text class="cls-2" transform="translate(1449.04 305.07)"> </text><text class="cls-2" transform="translate(1457.17 305.07)">t</text><text class="cls-2" transform="translate(1469.75 305.07)">u</text><text class="cls-2" transform="translate(1491.85 305.07)">s</text><text class="cls-2" transform="translate(1507.97 305.07)"> </text><text class="cls-2" transform="translate(1516.11 305.07)">c</text><text class="cls-2" transform="translate(1532.19 305.07)">l</text><text class="cls-2" transform="translate(1541.2 305.07)">i</text><text class="cls-2" transform="translate(1550.39 305.07)">e</text><text class="cls-2" transform="translate(1570.56 305.07)">n</text><text class="cls-2" transform="translate(1592.84 305.07)">t</text><text class="cls-2" transform="translate(1605.42 305.07)">e</text><text class="cls-2" transform="translate(1625.59 305.07)">s</text><text class="cls-2" transform="translate(981.31 263.79)">y</text></g></g></svg>