<svg xmlns="http://www.w3.org/2000/svg" width="783.91" height="124.09" viewBox="0 0 783.91 124.09"><defs><style>.cls-1{font-size:73.42px;font-family:LeagueSpartan-Bold, League Spartan;font-weight:700;}.cls-1,.cls-3{fill:#5fcd30;}.cls-2{fill:#edebeb;}</style></defs><title>banner-descargala-ya-mobile</title><g id="Capa_2" data-name="Capa 2"><g id="Capa_1-2" data-name="Capa 1"><text class="cls-1" transform="translate(636.1 82.23)"> </text><path class="cls-2" d="M423.49,54.55a8.63,8.63,0,0,0-8.81,8.88,8.78,8.78,0,1,0,17.55,0A8.61,8.61,0,0,0,423.49,54.55Z"/><path class="cls-2" d="M316.53,51.91c-4.48,0-7,2.64-7.19,6.09h14.31C323.06,54,320.35,51.91,316.53,51.91Z"/><path class="cls-2" d="M502.85,54.55A8.63,8.63,0,0,0,494,63.43a8.78,8.78,0,1,0,17.55,0A8.61,8.61,0,0,0,502.85,54.55Z"/><path class="cls-2" d="M549.33,54.55a8.62,8.62,0,0,0-8.81,8.88,8.77,8.77,0,1,0,17.54,0A8.61,8.61,0,0,0,549.33,54.55Z"/><path class="cls-2" d="M613.93,54.55a8.62,8.62,0,0,0-8.81,8.88,8.77,8.77,0,1,0,17.54,0A8.61,8.61,0,0,0,613.93,54.55Z"/><path class="cls-2" d="M271.6,54.55a8.62,8.62,0,0,0-8.81,8.88,8.78,8.78,0,1,0,17.55,0A8.61,8.61,0,0,0,271.6,54.55Z"/><path class="cls-2" d="M719.57,54.55a8.62,8.62,0,0,0-8.81,8.88,8.78,8.78,0,1,0,17.55,0A8.61,8.61,0,0,0,719.57,54.55Z"/><path class="cls-2" d="M0,0V124.09H783.91V0ZM761.05,19.09,759.29,62.4h-9.47l-1.76-43.31ZM434.87,20.56,441.55,29,424.08,39.13,420,33.48ZM231.66,101.31,233.43,58h9.47l1.76,43.31Zm6.46-47.42a8.41,8.41,0,1,1,8.45-8.44A8.37,8.37,0,0,1,238.12,53.89ZM293,82.23H280.19V78H280a16.68,16.68,0,0,1-12.33,5.36c-11,0-18.72-8.89-18.72-19.9s7.71-20,18.72-20A17.13,17.13,0,0,1,280,48.16V19.09h13Zm23.12,1.1c-11.37,0-20.7-9-20.7-19.9s9.33-20,20.7-20,20.19,6.76,20.19,20a14.14,14.14,0,0,1-.07,1.76H309c0,5.8,4.84,7.79,8.15,7.79,4.18,0,6-.81,9.17-4.19l9.4,4.7C331.43,80.61,324.53,83.33,316.16,83.33Zm34.43,0a22.51,22.51,0,0,1-14.53-5.07l5.29-8.88s5.13,4.33,9.32,4.33c1.83,0,4-.22,4-2.72,0-2.71-4.12-2.93-8.37-5.14-3.82-2-7.64-4.62-7.64-10.27,0-7.71,6.54-12.12,16.45-12.12a28.72,28.72,0,0,1,12.62,2.94l-4.26,8.52s-4.4-2.35-8.36-2.35c-2.87,0-4,.51-4,2.27,0,2,2.64,2.57,5.87,3.6,5,1.54,11.45,4.33,11.45,12C368.43,81.56,358.3,83.33,350.59,83.33Zm38.77,0c-10.87,0-20.85-8.81-20.85-19.82s9.91-20,20.85-20C397.72,43.46,402,47,402,47l-4.4,8.88a11.47,11.47,0,0,0-6.32-1.76,9.29,9.29,0,0,0,0,18.57,11.47,11.47,0,0,0,6.32-1.76l4.4,9S397.72,83.33,389.36,83.33Zm55.57-1.1H432.08V78h-.14a16.71,16.71,0,0,1-12.34,5.36c-11,0-18.72-8.89-18.72-19.9s7.71-20,18.72-20a17.15,17.15,0,0,1,12.34,4.7V44.57h13Zm25.84-27.46c-6.75,0-7.71,6.68-7.71,7.63V82.23h-13V44.57h13V50h.15s4.11-6.54,11.53-6.54A15.61,15.61,0,0,1,483,45.81l-5.43,11A11,11,0,0,0,470.77,54.77Zm53.52,28.48c0,12.63-9.32,19.16-22.17,19.16-7.85,0-16.88-1.76-20.85-10.94l10.65-5.21c1.39,2.28,4.55,4.85,10.2,4.85,3.6,0,9.18-2.13,9.18-8.81V79.51c-2.79,3.08-7.2,3.82-12.34,3.82-11,0-18.72-8.89-18.72-19.9s7.71-20,18.72-20a17.25,17.25,0,0,1,12.12,4.48h.22V44.57h13Zm46.47-1H557.91V78h-.14a16.71,16.71,0,0,1-12.34,5.36c-11,0-18.72-8.89-18.72-19.9s7.71-20,18.72-20a17.15,17.15,0,0,1,12.34,4.7V44.57h13Zm18.14,0h-13V19.09h13Zm46.47,0H622.52V78h-.15A16.68,16.68,0,0,1,610,83.33c-11,0-18.72-8.89-18.72-19.9s7.71-20,18.72-20a17.13,17.13,0,0,1,12.33,4.7V44.57h13Zm20.48,19.08,13-25L651,44.57h15l10.5,19.3,8.95-19.3h15l-29.58,56.74ZM741,82.23H728.16V78H728a16.68,16.68,0,0,1-12.33,5.36c-11,0-18.72-8.89-18.72-19.9s7.71-20,18.72-20A17.11,17.11,0,0,1,728,48.16V44.57h13Zm13.51,1.1A8.41,8.41,0,1,1,763,75,8.37,8.37,0,0,1,754.52,83.33Z"/><polygon class="cls-3" points="233.43 58 231.66 101.31 244.66 101.31 242.9 58 233.43 58"/><path class="cls-3" d="M238.12,37.08a8.41,8.41,0,1,0,8.45,8.37A8.36,8.36,0,0,0,238.12,37.08Z"/><path class="cls-3" d="M280,48.16a17.13,17.13,0,0,0-12.33-4.7c-11,0-18.72,9-18.72,20s7.71,19.9,18.72,19.9A16.68,16.68,0,0,0,280,78h.15v4.26H293V19.09H280ZM271.6,72.24a8.4,8.4,0,0,1-8.81-8.81,8.78,8.78,0,1,1,17.55,0A8.46,8.46,0,0,1,271.6,72.24Z"/><path class="cls-3" d="M317.12,73c-3.31,0-8.15-2-8.15-7.79h27.31a14.14,14.14,0,0,0,.07-1.76c0-13.21-8.73-20-20.19-20s-20.7,9-20.7,20,9.33,19.9,20.7,19.9c8.37,0,15.27-2.72,19.53-9.84l-9.4-4.7C323.14,72.17,321.3,73,317.12,73Zm-.59-21.07c3.82,0,6.53,2.13,7.12,6.09H309.34C309.56,54.55,312.05,51.91,316.53,51.91Z"/><path class="cls-3" d="M357,58.44c-3.23-1-5.87-1.61-5.87-3.6,0-1.76,1.17-2.27,4-2.27,4,0,8.36,2.35,8.36,2.35l4.26-8.52a28.72,28.72,0,0,0-12.62-2.94c-9.91,0-16.45,4.41-16.45,12.12,0,5.65,3.82,8.29,7.64,10.27,4.25,2.21,8.37,2.43,8.37,5.14,0,2.5-2.21,2.72-4,2.72-4.19,0-9.32-4.33-9.32-4.33l-5.29,8.88a22.51,22.51,0,0,0,14.53,5.07c7.71,0,17.84-1.77,17.84-12.85C368.43,62.77,362,60,357,58.44Z"/><path class="cls-3" d="M391.26,72.68a9.29,9.29,0,0,1,0-18.57,11.47,11.47,0,0,1,6.32,1.76L402,47s-4.26-3.53-12.62-3.53c-10.94,0-20.85,9-20.85,20s10,19.82,20.85,19.82C397.72,83.33,402,80,402,80l-4.4-9A11.47,11.47,0,0,1,391.26,72.68Z"/><polygon class="cls-3" points="441.55 29 434.87 20.56 419.97 33.48 424.08 39.13 441.55 29"/><path class="cls-3" d="M431.94,48.16a17.15,17.15,0,0,0-12.34-4.7c-11,0-18.72,9-18.72,20s7.71,19.9,18.72,19.9A16.71,16.71,0,0,0,431.94,78h.14v4.26h12.85V44.57h-13Zm-8.45,24.08a8.4,8.4,0,0,1-8.81-8.81,8.78,8.78,0,1,1,17.55,0A8.46,8.46,0,0,1,423.49,72.24Z"/><path class="cls-3" d="M474.74,43.46c-7.42,0-11.53,6.54-11.53,6.54h-.15V44.57h-13V82.23h13V62.4c0-.95,1-7.63,7.71-7.63a11,11,0,0,1,6.76,2.06l5.43-11A15.61,15.61,0,0,0,474.74,43.46Z"/><path class="cls-3" d="M511.3,47.94h-.22A17.25,17.25,0,0,0,499,43.46c-11,0-18.72,9-18.72,20S488,83.33,499,83.33c5.14,0,9.55-.74,12.34-3.82V82.3c0,6.68-5.58,8.81-9.18,8.81-5.65,0-8.81-2.57-10.2-4.85l-10.65,5.21c4,9.18,13,10.94,20.85,10.94,12.85,0,22.17-6.53,22.17-19.16V44.57h-13Zm-8.45,24.3A8.4,8.4,0,0,1,494,63.43a8.78,8.78,0,1,1,17.55,0A8.46,8.46,0,0,1,502.85,72.24Z"/><path class="cls-3" d="M557.77,48.16a17.15,17.15,0,0,0-12.34-4.7c-11,0-18.72,9-18.72,20s7.71,19.9,18.72,19.9A16.71,16.71,0,0,0,557.77,78h.14v4.26h12.85V44.57h-13Zm-8.44,24.08a8.4,8.4,0,0,1-8.81-8.81,8.77,8.77,0,1,1,17.54,0A8.46,8.46,0,0,1,549.33,72.24Z"/><rect class="cls-3" x="575.9" y="19.09" width="12.99" height="63.13"/><path class="cls-3" d="M622.37,48.16A17.13,17.13,0,0,0,610,43.46c-11,0-18.72,9-18.72,20S599,83.33,610,83.33A16.68,16.68,0,0,0,622.37,78h.15v4.26h12.85V44.57h-13Zm-8.44,24.08a8.4,8.4,0,0,1-8.81-8.81,8.77,8.77,0,1,1,17.54,0A8.46,8.46,0,0,1,613.93,72.24Z"/><polygon class="cls-3" points="685.43 44.57 676.48 63.87 665.98 44.57 651 44.57 668.84 76.35 655.85 101.31 670.83 101.31 700.41 44.57 685.43 44.57"/><path class="cls-3" d="M728,48.16a17.11,17.11,0,0,0-12.33-4.7c-11,0-18.72,9-18.72,20s7.71,19.9,18.72,19.9A16.68,16.68,0,0,0,728,78h.15v4.26H741V44.57H728Zm-8.44,24.08a8.4,8.4,0,0,1-8.81-8.81,8.78,8.78,0,1,1,17.55,0A8.46,8.46,0,0,1,719.57,72.24Z"/><path class="cls-3" d="M754.52,66.52A8.41,8.41,0,1,0,763,75,8.38,8.38,0,0,0,754.52,66.52Z"/><polygon class="cls-3" points="759.29 62.41 761.05 19.09 748.06 19.09 749.82 62.41 759.29 62.41"/><text class="cls-1" transform="translate(763.69 82.23)"> </text></g></g></svg>