<svg xmlns="http://www.w3.org/2000/svg" width="1602.59" height="319.7" viewBox="0 0 1602.59 319.7"><defs><style>.cls-1{fill:#edebeb;}.cls-2{font-size:34.86px;fill:#5c5e63;}.cls-2,.cls-3{font-family:LeagueSpartan-Bold, League Spartan;font-weight:700;}.cls-3{font-size:102.64px;fill:#5fcd30;}</style></defs><title>banner-llegar-a-clientes-valiosos</title><g id="Capa_2" data-name="Capa 2"><g id="Capa_1-2" data-name="Capa 1"><rect class="cls-1" width="1602.59" height="319.7"/><text class="cls-2" transform="translate(29.25 49.29)">l</text><text class="cls-2" transform="translate(37.86 49.29)">a</text><text class="cls-2" transform="translate(59.93 49.29)"> </text><text class="cls-2" transform="translate(67.7 49.29)">s</text><text class="cls-2" transform="translate(83.11 49.29)">o</text><text class="cls-2" transform="translate(104.41 49.29)">l</text><text class="cls-2" transform="translate(113.02 49.29)">u</text><text class="cls-2" transform="translate(134.14 49.29)">c</text><text class="cls-2" transform="translate(149.51 49.29)">i</text><text class="cls-2" transform="translate(158.3 49.29)">รณ</text><text class="cls-2" transform="translate(179.6 49.29)">n</text><text class="cls-2" transform="translate(200.89 49.29)"> </text><text class="cls-2" transform="translate(208.67 49.29)">e</text><text class="cls-2" transform="translate(227.94 49.29)">s</text><text class="cls-2" transform="translate(243.35 49.29)">t</text><text class="cls-2" transform="translate(255.38 49.29)">รก</text><text class="cls-2" transform="translate(277.44 49.29)"> </text><text class="cls-2" transform="translate(285.22 49.29)">e</text><text class="cls-2" transform="translate(304.49 49.29)">n</text><text class="cls-3" transform="translate(97.34 156.42)"> </text><text class="cls-3" transform="translate(120.23 156.42)"> </text><text class="cls-3" transform="translate(143.12 156.42)"> </text><text class="cls-3" transform="translate(166.01 156.42)"> </text><text class="cls-3" transform="translate(188.89 156.42)"> </text><text class="cls-3" transform="translate(211.78 156.42)"> </text><text class="cls-3" transform="translate(234.65 156.42)">l</text><text class="cls-3" transform="translate(260 156.42)">l</text><text class="cls-3" transform="translate(285.36 156.42)">e</text><text class="cls-3" transform="translate(342.11 156.42)">g</text><text class="cls-3" transform="translate(407.08 156.42)">a</text><text class="cls-3" transform="translate(472.05 156.42)">r</text><text class="cls-3" transform="translate(518.04 156.42)"> </text><text class="cls-3" transform="translate(540.92 156.42)">a</text><text class="cls-3" transform="translate(605.89 156.42)"> </text><text class="cls-3" transform="translate(628.78 156.42)">l</text><text class="cls-3" transform="translate(654.13 156.42)">o</text><text class="cls-3" transform="translate(716.85 156.42)">s</text><text class="cls-3" transform="translate(762.21 156.42)"> </text><text class="cls-3" transform="translate(785.1 156.42)">c</text><text class="cls-3" transform="translate(830.36 156.42)">l</text><text class="cls-3" transform="translate(855.71 156.42)">i</text><text class="cls-3" transform="translate(881.58 156.42)">e</text><text class="cls-3" transform="translate(938.34 156.42)">n</text><text class="cls-3" transform="translate(1001.05 156.42)">t</text><text class="cls-3" transform="translate(1036.46 156.42)">e</text><text class="cls-3" transform="translate(1093.22 156.42)">s</text><text class="cls-3" transform="translate(1138.58 156.42)"> </text><text class="cls-3" transform="translate(97.34 252.66)">q</text><text class="cls-3" transform="translate(162.31 252.66)">u</text><text class="cls-3" transform="translate(224.51 252.66)">e</text><text class="cls-3" transform="translate(281.27 252.66)"> </text><text class="cls-3" transform="translate(304.16 252.66)">s</text><text class="cls-3" transform="translate(349.52 252.66)">o</text><text class="cls-3" transform="translate(412.24 252.66)">n</text><text class="cls-3" transform="translate(474.95 252.66)"> </text><text class="cls-3" transform="translate(497.84 252.66)">v</text><text class="cls-3" transform="translate(557.37 252.66)">a</text><text class="cls-3" transform="translate(622.34 252.66)">l</text><text class="cls-3" transform="translate(647.69 252.66)">i</text><text class="cls-3" transform="translate(673.55 252.66)">o</text><text class="cls-3" transform="translate(736.26 252.66)">s</text><text class="cls-3" transform="translate(781.63 252.66)">o</text><text class="cls-3" transform="translate(844.34 252.66)">s</text><text class="cls-3" transform="translate(889.69 252.66)"> </text><text class="cls-2" transform="translate(799.68 298.37)">p</text><text class="cls-2" transform="translate(821.75 298.37)">a</text><text class="cls-2" transform="translate(843.81 298.37)">r</text><text class="cls-2" transform="translate(859.43 298.37)">a</text><text class="cls-2" transform="translate(881.49 298.37)"> </text><text class="cls-2" transform="translate(889.27 298.37)">t</text><text class="cls-2" transform="translate(901.29 298.37)">i</text><text class="cls-2" transform="translate(910.08 298.37)"> </text><text class="cls-2" transform="translate(917.85 298.37)">y</text><text class="cls-2" transform="translate(938.17 298.37)"> </text><text class="cls-2" transform="translate(945.95 298.37)">p</text><text class="cls-2" transform="translate(968.01 298.37)">a</text><text class="cls-2" transform="translate(990.08 298.37)">r</text><text class="cls-2" transform="translate(1005.69 298.37)">a</text><text class="cls-2" transform="translate(1027.76 298.37)"> </text><text class="cls-2" transform="translate(1035.53 298.37)">t</text><text class="cls-2" transform="translate(1047.56 298.37)">u</text><text class="cls-2" transform="translate(1068.68 298.37)"> </text><text class="cls-2" transform="translate(1076.45 298.37)">n</text><text class="cls-2" transform="translate(1097.75 298.37)">e</text><text class="cls-2" transform="translate(1117.03 298.37)">g</text><text class="cls-2" transform="translate(1139.09 298.37)">o</text><text class="cls-2" transform="translate(1160.39 298.37)">c</text><text class="cls-2" transform="translate(1175.77 298.37)">i</text><text class="cls-2" transform="translate(1184.55 298.37)">o</text></g></g></svg>