<svg xmlns="http://www.w3.org/2000/svg" width="1479.8" height="593" viewBox="0 0 1479.8 593"><defs><style>.cls-1{fill:#f1ecec;}.cls-2{isolation:isolate;}.cls-3{fill:#5fcd30;}</style></defs><title>como-generas-experiencias-valiosas-clientes</title><g id="Capa_2" data-name="Capa 2"><g id="Capa_1-2" data-name="Capa 1"><path class="cls-1" d="M33.6,165a55.83,55.83,0,0,1-13.92-1.56,30.87,30.87,0,0,1-9.8-4.2,20.39,20.39,0,0,1-6.11-6.69A28,28,0,0,1,.64,144.1,43.24,43.24,0,0,1,.08,134a90.19,90.19,0,0,1,1.18-11q.9-5.28,2.5-11.72a96.42,96.42,0,0,1,8-21.5,74,74,0,0,1,12.5-17.29,51.51,51.51,0,0,1,17.8-11.82,60.77,60.77,0,0,1,23-4.2l4.15-16.61H99.84L89.71,80.5q-7.63,0-13.53.39a71.64,71.64,0,0,0-10.71,1.47,61.59,61.59,0,0,0-8.28,2.39,22,22,0,0,0-6.32,3.76,34.28,34.28,0,0,0-4.77,4.94A31.63,31.63,0,0,0,42.44,100a81,81,0,0,0-3,8q-1.2,3.91-2.69,9.87-1.84,7.42-1.11,11.68t5.7,4.25a14,14,0,0,0,2.24-.15,7.22,7.22,0,0,0,2.55-1.17A10.62,10.62,0,0,0,49,129.69a27.58,27.58,0,0,0,2.77-5.37,59.56,59.56,0,0,0,2.75-8.65l3.56-14.26H91.76l-6.19,24.82q-4.81,19.33-18.79,29.06T33.6,165ZM110.79,0l-7.26,29.11H70.61L77.86,0Z"/><g class="cls-2"><path d="M117.49,99.11a9.43,9.43,0,0,0,9.25,9.63,11.82,11.82,0,0,0,6.52-1.82l4.55,9.32s-4.4,3.49-13,3.49c-11.22,0-21.53-9.1-21.53-20.47s10.23-20.7,21.53-20.7c8.64,0,13,3.64,13,3.64l-4.55,9.18a11.82,11.82,0,0,0-6.52-1.82A9.4,9.4,0,0,0,117.49,99.11Z"/></g><g class="cls-2"><path d="M136.66,99.18c0-12.13,10.31-20.62,23.42-20.62,12.89,0,23.2,8.49,23.2,20.62,0,12-9.78,20.55-23.2,20.55C146.06,119.73,136.66,111.16,136.66,99.18Zm14.25,0a9.06,9.06,0,1,0,18.12,0,9.06,9.06,0,1,0-18.12,0Zm1.59-30.93,4.25,5.84,18-10.46-6.9-8.72Z"/></g><g class="cls-2"><path d="M185.77,79.7h13.42v4.09h.15c3-3,6.9-5.23,11.15-5.23,5.15,0,10.84,1.9,13.56,7.13,4.1-4.93,8.65-7.13,12.89-7.13,7.13,0,15.16,3.57,15.16,14.41v25.62H238.69v-22c0-3.87-2.05-7.28-6.83-7.28-4.24,0-6.06,3.11-6.21,6.06v23.2H212.23v-22c0-3.87-2-7.28-6.82-7.28-4.48,0-6.22,3.41-6.22,6.52v22.74H185.77Z"/></g><g class="cls-2"><path d="M277.26,78.56c12.89,0,23.2,8.49,23.2,20.62,0,12-9.78,20.55-23.2,20.55-14,0-23.42-8.57-23.42-20.55C253.84,87.05,264.15,78.56,277.26,78.56Zm-.07,29.72a8.74,8.74,0,0,0,9-9.1,9.06,9.06,0,1,0-18.12,0A8.68,8.68,0,0,0,277.19,108.28Z"/></g><g class="cls-2"><path d="M329.1,122.76c1.44,2.35,4.7,5,10.54,5,3.71,0,9.47-2.2,9.47-9.09v-2.88c-2.88,3.18-7.42,3.94-12.73,3.94-11.37,0-19.33-9.18-19.33-20.55s8-20.62,19.33-20.62a17.78,17.78,0,0,1,12.51,4.63h.22V79.7h13.42v40c0,13-9.63,19.79-22.89,19.79-8.11,0-17.44-1.82-21.53-11.3Zm11.3-14.48a8.74,8.74,0,0,0,9-9.1,9.06,9.06,0,1,0-18.12,0A8.68,8.68,0,0,0,340.4,108.28Z"/></g><g class="cls-2"><path d="M379,101c0,6,5,8,8.41,8,4.32,0,6.22-.84,9.48-4.32l9.7,4.85c-4.4,7.35-11.52,10.16-20.16,10.16-11.75,0-21.38-9.25-21.38-20.55s9.63-20.62,21.38-20.62,20.84,7,20.84,20.62a15.14,15.14,0,0,1-.07,1.82Zm15.16-7.43c-.61-4.09-3.41-6.29-7.36-6.29-4.62,0-7.2,2.73-7.42,6.29Z"/></g><g class="cls-2"><path d="M409.75,79.7h13.42v4.09h.15c3-3,6.9-5.23,11.15-5.23,7.12,0,17,3.57,17,14.41v25.62H438.1v-22c0-3.87-2.65-7.58-7-7.58-4,0-8,3.71-8,7.58v22H409.75Z"/></g><g class="cls-2"><path d="M467.21,101c0,6,5,8,8.41,8,4.32,0,6.22-.84,9.48-4.32l9.7,4.85c-4.4,7.35-11.52,10.16-20.16,10.16-11.75,0-21.38-9.25-21.38-20.55s9.63-20.62,21.38-20.62,20.84,7,20.84,20.62a15.14,15.14,0,0,1-.07,1.82Zm15.16-7.43c-.61-4.09-3.41-6.29-7.36-6.29-4.62,0-7.2,2.73-7.42,6.29Z"/></g><g class="cls-2"><path d="M498,79.7h13.42v5.61h.15s4.25-6.75,11.9-6.75A16.06,16.06,0,0,1,531.93,81l-5.61,11.37a11.32,11.32,0,0,0-7-2.12c-7,0-8,6.9-8,7.88v20.47H498Z"/></g><g class="cls-2"><path d="M548.46,78.56a17.67,17.67,0,0,1,12.73,4.86V79.7h13.42v38.89H561.35v-4.4h-.16a17.19,17.19,0,0,1-12.73,5.54c-11.37,0-19.33-9.18-19.33-20.55S537.09,78.56,548.46,78.56Zm4,29.72a8.74,8.74,0,0,0,9-9.1,9.06,9.06,0,1,0-18.12,0A8.68,8.68,0,0,0,552.48,108.28Z"/></g><g class="cls-2"><path d="M609.86,81.6l-4.4,8.79S600.91,88,596.82,88c-3,0-4.17.54-4.17,2.35,0,2,2.73,2.66,6.06,3.72,5.16,1.59,11.83,4.47,11.83,12.43,0,11.45-10.46,13.27-18.42,13.27a23.27,23.27,0,0,1-15-5.23l5.46-9.18s5.3,4.48,9.62,4.48c1.9,0,4.17-.23,4.17-2.81,0-2.8-4.24-3-8.64-5.3-3.94-2-7.88-4.78-7.88-10.62,0-8,6.74-12.51,17-12.51A29.67,29.67,0,0,1,609.86,81.6Z"/></g><path class="cls-1" d="M1205.92,593l17.94-72h81.4l-18,72Zm190.82-407.9q19.56,0,34.39,3.86t24.24,10.39a49.61,49.61,0,0,1,15.09,16.54,67.69,67.69,0,0,1,7.75,20.89,106.28,106.28,0,0,1,1.38,25,221.17,221.17,0,0,1-2.91,27.17q-2.22,13-6.2,29a236.64,236.64,0,0,1-19.84,53.13,182.19,182.19,0,0,1-30.89,42.74,127,127,0,0,1-44,29.22q-25.68,10.4-56.82,10.39l-10.23,41.05H1233L1258,394q18.87,0,33.43-1a174.9,174.9,0,0,0,26.48-3.62,147.76,147.76,0,0,0,20.46-5.92,53.06,53.06,0,0,0,15.62-9.29,80,80,0,0,0,11.79-12.2,76.06,76.06,0,0,0,9.07-16.3,193.32,193.32,0,0,0,7.32-19.8q3-9.66,6.65-24.4,4.59-18.35,2.77-28.85t-14.09-10.51a36.87,36.87,0,0,0-5.55.36,17.77,17.77,0,0,0-6.29,2.9,26.23,26.23,0,0,0-7.09,7,72,72,0,0,0-6.84,13.29,153.89,153.89,0,0,0-6.81,21.37l-8.79,35.26H1253l15.3-61.34q11.91-47.82,46.44-71.85t82-24Z"/><g class="cls-2"><path class="cls-3" d="M303.12,203.55c0,10.54,8.8,14.14,14.8,14.14,7.6,0,10.93-1.47,16.67-7.6l17.07,8.53c-7.74,12.94-20.27,17.87-35.47,17.87-20.67,0-37.61-16.27-37.61-36.14s16.94-36.27,37.61-36.27,36.67,12.27,36.67,36.27a23.43,23.43,0,0,1-.14,3.2Zm26.67-13.06c-1.07-7.2-6-11.07-12.94-11.07-8.13,0-12.67,4.8-13.07,11.07Z"/></g><g class="cls-2"><path class="cls-3" d="M407.93,234.49l-15.07-19.33-15.07,19.33H349.26l29.2-35.74-25.07-32.67H381L392.86,182l11.87-15.87h27.6l-25.07,32.67,29.2,35.74Z"/></g><g class="cls-2"><path class="cls-3" d="M483.79,236.49c-9.2,0-16.8-3.07-22.4-8.53v41.2h-23.6V166.08h23.33v7.74h.27a30.31,30.31,0,0,1,22.4-9.74c20,0,34,16.14,34,36.14S503.79,236.49,483.79,236.49Zm-7.07-52.27c-9.2,0-15.87,6.67-15.87,16s7.07,16.14,15.87,16.14a15.67,15.67,0,0,0,16-16.14C492.72,190.89,486.32,184.22,476.72,184.22Z"/></g><g class="cls-2"><path class="cls-3" d="M541.79,203.55c0,10.54,8.8,14.14,14.8,14.14,7.6,0,10.93-1.47,16.67-7.6l17.07,8.53c-7.74,12.94-20.27,17.87-35.47,17.87-20.67,0-37.61-16.27-37.61-36.14s16.94-36.27,37.61-36.27,36.67,12.27,36.67,36.27a23.43,23.43,0,0,1-.14,3.2Zm26.67-13.06c-1.07-7.2-6-11.07-12.94-11.07-8.13,0-12.67,4.8-13.07,11.07Z"/></g><g class="cls-2"><path class="cls-3" d="M595.92,166.08h23.6V176h.26s7.47-11.87,20.94-11.87a28.3,28.3,0,0,1,14.93,4.27l-9.86,20s-4.4-3.73-12.27-3.73c-12.27,0-14,12.13-14,13.87v36h-23.6Z"/></g><g class="cls-2"><path class="cls-3" d="M681.78,137.81a14,14,0,1,1-14-14A14,14,0,0,1,681.78,137.81Zm-26.13,96.68h23.6V166.08h-23.6Z"/></g><g class="cls-2"><path class="cls-3" d="M708.85,203.55c0,10.54,8.8,14.14,14.8,14.14,7.6,0,10.93-1.47,16.67-7.6l17.07,8.53c-7.74,12.94-20.27,17.87-35.47,17.87-20.67,0-37.61-16.27-37.61-36.14s16.94-36.27,37.61-36.27,36.67,12.27,36.67,36.27a23.43,23.43,0,0,1-.14,3.2Zm26.67-13.06c-1.07-7.2-6-11.07-12.94-11.07-8.13,0-12.67,4.8-13.07,11.07Z"/></g><g class="cls-2"><path class="cls-3" d="M763,166.08h23.6v7.2h.26c5.34-5.33,12.14-9.2,19.61-9.2,12.53,0,30,6.27,30,25.34v45.07h-23.6V195.82c0-6.8-4.67-13.33-12.27-13.33-7.07,0-14,6.53-14,13.33v38.67H763Z"/></g><g class="cls-2"><path class="cls-3" d="M864.58,200.22c0,9.47,7.34,16.94,16.27,16.94a20.82,20.82,0,0,0,11.47-3.2l8,16.4s-7.74,6.13-22.94,6.13c-19.73,0-37.87-16-37.87-36s18-36.41,37.87-36.41c15.2,0,22.94,6.4,22.94,6.4l-8,16.14a20.82,20.82,0,0,0-11.47-3.2A16.54,16.54,0,0,0,864.58,200.22Z"/></g><g class="cls-2"><path class="cls-3" d="M929.38,137.81a14,14,0,1,1-14-14A14,14,0,0,1,929.38,137.81Zm-26.13,96.68h23.6V166.08h-23.6Z"/></g><g class="cls-2"><path class="cls-3" d="M965.92,164.08c9.2,0,16.8,3.07,22.4,8.54v-6.54h23.6v68.41H988.58v-7.73h-.26a30.3,30.3,0,0,1-22.4,9.73c-20,0-34-16.13-34-36.14S945.91,164.08,965.92,164.08ZM973,216.36c9.2,0,15.87-6.67,15.87-16s-7.07-16.13-15.87-16.13a15.67,15.67,0,0,0-16,16.13C957,209.69,963.38,216.36,973,216.36Z"/></g><g class="cls-2"><path class="cls-3" d="M1073.92,169.42l-7.74,15.47s-8-4.27-15.2-4.27c-5.2,0-7.33.93-7.33,4.13,0,3.6,4.8,4.67,10.67,6.54,9.06,2.8,20.8,7.86,20.8,21.86,0,20.14-18.4,23.34-32.41,23.34-16.53,0-26.4-9.2-26.4-9.2l9.6-16.14s9.34,7.87,16.94,7.87c3.33,0,7.33-.4,7.33-4.93,0-4.94-7.47-5.34-15.2-9.34-6.93-3.6-13.87-8.4-13.87-18.67,0-14,11.87-22,29.87-22A52.22,52.22,0,0,1,1073.92,169.42Z"/></g><g class="cls-2"><path class="cls-3" d="M347.25,329.74l16.67-37.21h28l-36.67,68.41h-16l-36.67-68.41h28Z"/></g><g class="cls-2"><path class="cls-3" d="M419.65,290.53c9.2,0,16.8,3.07,22.4,8.54v-6.54h23.6v68.41H442.31v-7.73h-.26a30.3,30.3,0,0,1-22.4,9.73c-20,0-34-16.13-34-36.14S399.64,290.53,419.65,290.53Zm7.06,52.28c9.2,0,15.87-6.67,15.87-16s-7.07-16.13-15.87-16.13a15.67,15.67,0,0,0-16,16.13C410.71,336.14,417.11,342.81,426.71,342.81Z"/></g><g class="cls-2"><path class="cls-3" d="M475,246.26h23.6V360.94H475Z"/></g><g class="cls-2"><path class="cls-3" d="M534.05,264.26a14,14,0,1,1-14-14A14,14,0,0,1,534.05,264.26Zm-26.13,96.68h23.6V292.53h-23.6Z"/></g><g class="cls-2"><path class="cls-3" d="M577.78,290.53c22.66,0,40.8,14.94,40.8,36.27,0,21.07-17.2,36.14-40.8,36.14-24.67,0-41.21-15.07-41.21-36.14C536.57,305.47,554.71,290.53,577.78,290.53Zm-.14,52.28c9.2,0,15.87-6.67,15.87-16s-7.07-16.13-15.87-16.13a15.67,15.67,0,0,0-16,16.13C561.64,336.14,568,342.81,577.64,342.81Z"/></g><g class="cls-2"><path class="cls-3" d="M675.65,295.87l-7.74,15.47s-8-4.27-15.2-4.27c-5.2,0-7.33.93-7.33,4.13,0,3.6,4.8,4.67,10.67,6.54,9.06,2.8,20.8,7.86,20.8,21.86,0,20.14-18.4,23.34-32.41,23.34-16.53,0-26.4-9.2-26.4-9.2l9.6-16.14s9.34,7.87,16.94,7.87c3.33,0,7.33-.4,7.33-4.93,0-4.94-7.47-5.34-15.2-9.34-6.93-3.6-13.87-8.4-13.87-18.66,0-14,11.87-22,29.87-22A52.22,52.22,0,0,1,675.65,295.87Z"/></g><g class="cls-2"><path class="cls-3" d="M711,290.53c9.2,0,16.8,3.07,22.4,8.54v-6.54H757v68.41H733.64v-7.73h-.26a30.3,30.3,0,0,1-22.4,9.73c-20,0-34-16.13-34-36.14S691,290.53,711,290.53ZM718,342.81c9.2,0,15.87-6.67,15.87-16s-7.07-16.13-15.87-16.13a15.67,15.67,0,0,0-16,16.13C702,336.14,708.44,342.81,718,342.81Z"/></g><g class="cls-2"><path class="cls-3" d="M819,295.87l-7.74,15.47s-8-4.27-15.2-4.27c-5.2,0-7.33.93-7.33,4.13,0,3.6,4.8,4.67,10.67,6.54,9.06,2.8,20.8,7.86,20.8,21.86,0,20.14-18.4,23.34-32.41,23.34-16.53,0-26.4-9.2-26.4-9.2L771,337.6s9.34,7.87,16.94,7.87c3.33,0,7.33-.4,7.33-4.93,0-4.94-7.47-5.34-15.2-9.34-6.93-3.6-13.87-8.4-13.87-18.66,0-14,11.87-22,29.87-22A52.22,52.22,0,0,1,819,295.87Z"/></g><g class="cls-2"><path d="M678.77,449.36A17.69,17.69,0,0,1,666,444.5v23.43H652.61v-58.6h13.27v4.4H666a17.21,17.21,0,0,1,12.74-5.54c11.37,0,19.33,9.18,19.33,20.55S690.14,449.36,678.77,449.36Zm-4-29.72a8.74,8.74,0,0,0-9,9.1,9.06,9.06,0,1,0,18.11,0A8.67,8.67,0,0,0,674.75,419.64Z"/></g><g class="cls-2"><path d="M717.12,408.19a17.67,17.67,0,0,1,12.73,4.86v-3.72h13.42v38.89H730v-4.4h-.16a17.19,17.19,0,0,1-12.73,5.54c-11.37,0-19.33-9.18-19.33-20.55S705.75,408.19,717.12,408.19Zm4,29.72a8.74,8.74,0,0,0,9-9.1,9.06,9.06,0,1,0-18.12,0A8.68,8.68,0,0,0,721.14,437.91Z"/></g><g class="cls-2"><path d="M748.57,409.33H762v5.61h.15s4.25-6.75,11.9-6.75a16.06,16.06,0,0,1,8.49,2.43L776.92,422a11.32,11.32,0,0,0-7-2.12c-7,0-8,6.9-8,7.88v20.47H748.57Z"/></g><g class="cls-2"><path d="M799.05,408.19a17.67,17.67,0,0,1,12.73,4.86v-3.72H825.2v38.89H811.94v-4.4h-.16a17.19,17.19,0,0,1-12.73,5.54c-11.37,0-19.33-9.18-19.33-20.55S787.68,408.19,799.05,408.19Zm4,29.72a8.74,8.74,0,0,0,9-9.1,9.06,9.06,0,1,0-18.12,0A8.68,8.68,0,0,0,803.07,437.91Z"/></g><g class="cls-2"><path d="M849.68,394.85h13.41v14.48h8.19v10.24h-8.19v12.35c0,3.64.92,5.38,3,5.38a6.34,6.34,0,0,0,3.33-1.21l3.34,10.84a22.18,22.18,0,0,1-9.86,2.43c-10.68,0-13.26-8-13.26-14.86V419.57h-5.61V409.33h5.61Z"/></g><g class="cls-2"><path d="M886.21,427.83c0,7.65,2,10.61,7.66,10.61s7.66-3,7.66-10.61v-18.5h13.41v21.76c0,13-6.52,18.27-21.07,18.27s-21.07-5.23-21.07-18.27V409.33h13.41Z"/></g><g class="cls-2"><path d="M949.44,411.23,945,420s-4.55-2.43-8.64-2.43c-3,0-4.17.54-4.17,2.35,0,2.05,2.73,2.66,6.06,3.72,5.16,1.59,11.83,4.47,11.83,12.43,0,11.45-10.46,13.27-18.42,13.27a23.27,23.27,0,0,1-15-5.23l5.46-9.18s5.3,4.48,9.62,4.48c1.9,0,4.17-.23,4.17-2.81,0-2.8-4.24-3-8.64-5.3-3.94-2.05-7.88-4.78-7.88-10.62,0-8,6.74-12.51,17-12.51A29.67,29.67,0,0,1,949.44,411.23Z"/></g><g class="cls-2"><path d="M981.34,428.74a9.43,9.43,0,0,0,9.25,9.63,11.82,11.82,0,0,0,6.52-1.82l4.55,9.32s-4.4,3.49-13,3.49c-11.22,0-21.53-9.1-21.53-20.47s10.23-20.7,21.53-20.7c8.64,0,13,3.64,13,3.64L997.11,421a11.82,11.82,0,0,0-6.52-1.82A9.4,9.4,0,0,0,981.34,428.74Z"/></g><g class="cls-2"><path d="M1003.32,383h13.42v65.19h-13.42Z"/></g><g class="cls-2"><path d="M1036.9,393.26a8,8,0,1,1-8-8A8,8,0,0,1,1036.9,393.26Zm-14.86,55h13.42V409.33H1022Z"/></g><g class="cls-2"><path d="M1052.29,430.63c0,6,5,8,8.41,8,4.32,0,6.22-.84,9.48-4.32l9.7,4.85c-4.4,7.35-11.52,10.16-20.16,10.16-11.75,0-21.38-9.25-21.38-20.55s9.63-20.62,21.38-20.62,20.84,7,20.84,20.62a15.14,15.14,0,0,1-.07,1.82Zm15.16-7.43c-.61-4.09-3.41-6.29-7.36-6.29-4.62,0-7.2,2.73-7.42,6.29Z"/></g><g class="cls-2"><path d="M1083.05,409.33h13.42v4.09h.15c3-3,6.9-5.23,11.15-5.23,7.12,0,17,3.57,17,14.41v25.62H1111.4v-22c0-3.87-2.65-7.58-7-7.58-4,0-8,3.71-8,7.58v22h-13.42Z"/></g><g class="cls-2"><path d="M1131.64,394.85h13.41v14.48h8.19v10.24h-8.19v12.35c0,3.64.92,5.38,3,5.38a6.34,6.34,0,0,0,3.33-1.21l3.34,10.84a22.18,22.18,0,0,1-9.86,2.43c-10.68,0-13.26-8-13.26-14.86V419.57H1126V409.33h5.61Z"/></g><g class="cls-2"><path d="M1166.66,430.63c0,6,5,8,8.41,8,4.32,0,6.22-.84,9.48-4.32l9.7,4.85c-4.4,7.35-11.52,10.16-20.16,10.16-11.75,0-21.38-9.25-21.38-20.55s9.63-20.62,21.38-20.62,20.84,7,20.84,20.62a15.14,15.14,0,0,1-.07,1.82Zm15.16-7.43c-.61-4.09-3.41-6.29-7.35-6.29-4.63,0-7.21,2.73-7.43,6.29Z"/></g><g class="cls-2"><path d="M1227.38,411.23,1223,420s-4.55-2.43-8.64-2.43c-3,0-4.17.54-4.17,2.35,0,2.05,2.73,2.66,6.06,3.72,5.16,1.59,11.83,4.47,11.83,12.43,0,11.45-10.46,13.27-18.42,13.27a23.27,23.27,0,0,1-15-5.23l5.46-9.18s5.3,4.48,9.62,4.48c1.9,0,4.17-.23,4.17-2.81,0-2.8-4.24-3-8.64-5.3-3.94-2.05-7.88-4.78-7.88-10.62,0-8,6.74-12.51,17-12.51A29.67,29.67,0,0,1,1227.38,411.23Z"/></g></g></g></svg>