<svg xmlns="http://www.w3.org/2000/svg" width="1479.75" height="592.99" viewBox="0 0 1479.75 592.99"><defs><style>.cls-1{fill:#f1ecec;}.cls-2{font-size:75.8px;}.cls-2,.cls-3{font-family:LeagueSpartan-Bold, League Spartan;font-weight:700;}.cls-3{font-size:133.35px;fill:#5fcd30;}</style></defs><title>como-generas-experiencias-valiosas_1</title><g id="Capa_2" data-name="Capa 2"><g id="Capa_1-2" data-name="Capa 1"><path class="cls-1" d="M33.59,165a55.62,55.62,0,0,1-13.92-1.56,30.6,30.6,0,0,1-9.8-4.2,20.2,20.2,0,0,1-6.11-6.69A27.59,27.59,0,0,1,.63,144.1,42.84,42.84,0,0,1,.07,134a88.88,88.88,0,0,1,1.18-11q.9-5.28,2.5-11.72a96.18,96.18,0,0,1,8-21.5,74,74,0,0,1,12.5-17.29,51.37,51.37,0,0,1,17.8-11.82,60.74,60.74,0,0,1,23-4.2L69.2,39.86H99.83L89.7,80.5q-7.64,0-13.53.39a71.6,71.6,0,0,0-10.71,1.47,61.15,61.15,0,0,0-8.28,2.39,21.74,21.74,0,0,0-6.32,3.76,33.69,33.69,0,0,0-4.77,4.94A31.08,31.08,0,0,0,42.43,100a79.1,79.1,0,0,0-3,8q-1.2,3.92-2.69,9.87-1.85,7.42-1.11,11.68t5.7,4.25a14.72,14.72,0,0,0,2.24-.15,7.32,7.32,0,0,0,2.55-1.17A10.7,10.7,0,0,0,49,129.69a28.15,28.15,0,0,0,2.77-5.37,60.9,60.9,0,0,0,2.75-8.65l3.56-14.26H91.75l-6.19,24.82q-4.82,19.33-18.79,29.06T33.59,165ZM110.78,0l-7.26,29.11H70.6L77.85,0Z"/><text class="cls-2" transform="translate(101.48 118.59)">c</text><text class="cls-2" transform="translate(134.9 118.59)">รณ</text><text class="cls-2" transform="translate(181.21 118.59)">m</text><text class="cls-2" transform="translate(252.08 118.59)">o</text><text class="cls-2" transform="translate(298.39 118.59)"> </text><text class="cls-2" transform="translate(315.29 118.59)">g</text><text class="cls-2" transform="translate(363.27 118.59)">e</text><text class="cls-2" transform="translate(405.19 118.59)">n</text><text class="cls-2" transform="translate(451.5 118.59)">e</text><text class="cls-2" transform="translate(493.41 118.59)">r</text><text class="cls-2" transform="translate(527.37 118.59)">a</text><text class="cls-2" transform="translate(575.35 118.59)">s</text><path class="cls-1" d="M1205.91,593l17.94-72h81.4l-18,72Zm190.82-407.9q19.56,0,34.39,3.86t24.24,10.39a49.75,49.75,0,0,1,15.09,16.54,68,68,0,0,1,7.75,20.89,106.75,106.75,0,0,1,1.38,25,224.22,224.22,0,0,1-2.91,27.17q-2.22,13-6.2,29a237,237,0,0,1-19.84,53.13,182.41,182.41,0,0,1-30.89,42.74,127.07,127.07,0,0,1-44,29.22q-25.68,10.39-56.82,10.39l-10.23,41.05H1233L1258,394q18.87,0,33.43-1a175.06,175.06,0,0,0,26.48-3.62,147.79,147.79,0,0,0,20.46-5.92,53.17,53.17,0,0,0,15.62-9.29,80.56,80.56,0,0,0,11.79-12.2,76.4,76.4,0,0,0,9.07-16.3,197.58,197.58,0,0,0,7.32-19.8q3-9.66,6.65-24.4,4.58-18.35,2.77-28.85t-14.09-10.51a37.24,37.24,0,0,0-5.55.36,17.73,17.73,0,0,0-6.29,2.9,26.13,26.13,0,0,0-7.09,7,71.5,71.5,0,0,0-6.84,13.29,151.91,151.91,0,0,0-6.81,21.37l-8.79,35.26H1253l15.3-61.34q11.91-47.82,46.44-71.85T1396.73,185.09Z"/><text class="cls-3" transform="translate(275.5 234.49)">e</text><text class="cls-3" transform="translate(349.24 234.49)">x</text><text class="cls-3" transform="translate(429.77 234.49)">p</text><text class="cls-3" transform="translate(514.17 234.49)">e</text><text class="cls-3" transform="translate(587.9 234.49)">r</text><text class="cls-3" transform="translate(647.63 234.49)">i</text><text class="cls-3" transform="translate(681.23 234.49)">e</text><text class="cls-3" transform="translate(754.97 234.49)">n</text><text class="cls-3" transform="translate(836.43 234.49)">c</text><text class="cls-3" transform="translate(895.23 234.49)">i</text><text class="cls-3" transform="translate(928.83 234.49)">a</text><text class="cls-3" transform="translate(1013.23 234.49)">s</text><text class="cls-3" transform="translate(275.5 360.94)"> </text><text class="cls-3" transform="translate(305.23 360.94)">v</text><text class="cls-3" transform="translate(382.56 360.94)">a</text><text class="cls-3" transform="translate(466.96 360.94)">l</text><text class="cls-3" transform="translate(499.9 360.94)">i</text><text class="cls-3" transform="translate(533.49 360.94)">o</text><text class="cls-3" transform="translate(614.96 360.94)">s</text><text class="cls-3" transform="translate(673.89 360.94)">a</text><text class="cls-3" transform="translate(758.29 360.94)">s</text><text class="cls-2" transform="translate(648.05 448.22)">p</text><text class="cls-2" transform="translate(696.03 448.22)">a</text><text class="cls-2" transform="translate(744.01 448.22)">r</text><text class="cls-2" transform="translate(777.96 448.22)">a</text><text class="cls-2" transform="translate(825.94 448.22)"> </text><text class="cls-2" transform="translate(842.84 448.22)">t</text><text class="cls-2" transform="translate(868.99 448.22)">u</text><text class="cls-2" transform="translate(914.93 448.22)">s</text><text class="cls-2" transform="translate(948.43 448.22)"> </text><text class="cls-2" transform="translate(965.33 448.22)">c</text><text class="cls-2" transform="translate(998.76 448.22)">l</text><text class="cls-2" transform="translate(1017.48 448.22)">i</text><text class="cls-2" transform="translate(1036.58 448.22)">e</text><text class="cls-2" transform="translate(1078.49 448.22)">n</text><text class="cls-2" transform="translate(1124.8 448.22)">t</text><text class="cls-2" transform="translate(1150.95 448.22)">e</text><text class="cls-2" transform="translate(1192.87 448.22)">s</text><text class="cls-2" transform="translate(1226.36 448.22)"> </text></g></g></svg>