<svg xmlns="http://www.w3.org/2000/svg" width="845.61" height="504.66" viewBox="0 0 845.61 504.66"><defs><style>.cls-1{fill:#5fcd30;}</style></defs><title>disfruta-obtener-clientes-sin-buscarlos_2</title><g id="Capa_2" data-name="Capa 2"><g id="Capa_1-2" data-name="Capa 1"><path d="M17.66,24a16.15,16.15,0,0,1,11.63,4.43V1H41.55V60.59H29.43v-4h-.14a15.75,15.75,0,0,1-11.63,5.05C7.27,61.63,0,53.25,0,42.86S7.27,24,17.66,24Zm3.67,27.14a8,8,0,0,0,8.24-8.31,8.12,8.12,0,0,0-8.24-8.37A8.13,8.13,0,0,0,13,42.86,7.92,7.92,0,0,0,21.33,51.17Z"/><path d="M60,10.39A7.28,7.28,0,1,1,52.7,3.12,7.28,7.28,0,0,1,60,10.39ZM46.39,60.59H58.65V25.07H46.39Z"/><path d="M91.2,26.8l-4,8s-4.16-2.21-7.9-2.21c-2.7,0-3.8.48-3.8,2.14,0,1.87,2.49,2.43,5.54,3.4,4.7,1.45,10.8,4.08,10.8,11.35C91.82,60,82.26,61.63,75,61.63a21.24,21.24,0,0,1-13.71-4.78l5-8.38s4.84,4.09,8.79,4.09c1.73,0,3.81-.21,3.81-2.56,0-2.56-3.88-2.77-7.89-4.85-3.61-1.87-7.21-4.36-7.21-9.7C63.77,28.18,69.94,24,79.28,24A27.16,27.16,0,0,1,91.2,26.8Z"/><path d="M96.53,17.52C96.6,7.13,101.58,0,110.45,0a17,17,0,0,1,10.11,3.19l-4.3,8.65a8.1,8.1,0,0,0-3.67-1c-3.12,0-3.81,2.08-3.81,7v7.2H117v9.35h-8.17V60.59H96.53V34.42H91.4V25.07h5.13Z"/><path d="M117,25.07h12.26v5.12h.14S133.23,24,140.22,24A14.67,14.67,0,0,1,148,26.25l-5.12,10.38a10.32,10.32,0,0,0-6.37-1.94c-6.37,0-7.27,6.3-7.27,7.2v18.7H117Z"/><path d="M159.54,42c0,7,1.87,9.7,7,9.7s7-2.7,7-9.7V25.07h12.25V44.94c0,11.91-5.95,16.69-19.25,16.69s-19.25-4.78-19.25-16.69V25.07h12.26Z"/><path d="M192,11.84h12.26V25.07h7.48v9.35h-7.48V45.7c0,3.33.83,4.92,2.77,4.92a5.82,5.82,0,0,0,3.05-1.11l3,9.9a20.21,20.21,0,0,1-9,2.22c-9.76,0-12.12-7.27-12.12-13.57V34.42h-5.12V25.07H192Z"/><path d="M228.92,24a16.17,16.17,0,0,1,11.64,4.43V25.07h12.25V60.59H240.69v-4h-.13a15.79,15.79,0,0,1-11.64,5.05c-10.39,0-17.66-8.38-17.66-18.77S218.53,24,228.92,24Zm3.67,27.14a8,8,0,0,0,8.24-8.31,8.28,8.28,0,1,0-16.55,0A7.93,7.93,0,0,0,232.59,51.17Z"/><path class="cls-1" d="M57.75,143.83c30.38,0,54.69,20,54.69,48.62,0,28.24-23,48.44-54.69,48.44-33.07,0-55.23-20.2-55.23-48.44C2.52,163.85,26.83,143.83,57.75,143.83Zm-.18,70.07c12.33,0,21.27-8.94,21.27-21.45,0-12.69-9.47-21.63-21.27-21.63-12,0-21.45,8.94-21.45,21.63C36.12,205,44.7,213.9,57.57,213.9Z"/><path class="cls-1" d="M180,240.89a40.61,40.61,0,0,1-30-13h-.36V238.2H118.34V84.49H150v70.78c7.51-7.33,17.7-11.44,30-11.44,26.81,0,45.58,21.81,45.58,48.62S206.82,240.89,180,240.89Zm-9.47-70.07c-11.8,0-21.27,8.94-21.27,21.63,0,12.51,8.93,21.45,21.27,21.45,12.87,0,21.45-8.94,21.45-21.45C192,179.76,182.51,170.82,170.54,170.82Z"/><path class="cls-1" d="M236.85,112.37h31.64v34.14h19.3v24.13h-19.3v29.14c0,8.58,2.15,12.69,7.15,12.69,4.11,0,7.86-2.86,7.86-2.86l7.87,25.56a52.37,52.37,0,0,1-23.24,5.72c-25.2,0-31.28-18.77-31.28-35V170.64H223.63V146.51h13.22Z"/><path class="cls-1" d="M319.43,196.74c0,14.12,11.8,18.94,19.84,18.94,10.19,0,14.66-2,22.34-10.19l22.88,11.44c-10.36,17.34-27.16,24-47.54,24-27.71,0-50.41-21.81-50.41-48.44,0-26.81,22.7-48.62,50.41-48.62,27.88,0,49.15,16.44,49.15,48.62a32.88,32.88,0,0,1-.18,4.29Zm35.75-17.52c-1.43-9.65-8-14.84-17.34-14.84-10.9,0-17,6.44-17.51,14.84Z"/><path class="cls-1" d="M392,146.51h31.64v9.65H424c7.15-7.15,16.26-12.33,26.27-12.33,16.8,0,40.22,8.4,40.22,34V238.2H458.85V186.37c0-9.12-6.25-17.87-16.44-17.87-9.48,0-18.77,8.75-18.77,17.87V238.2H392Z"/><path class="cls-1" d="M527.49,196.74c0,14.12,11.8,18.94,19.84,18.94,10.19,0,14.66-2,22.34-10.19l22.88,11.44c-10.36,17.34-27.16,24-47.54,24-27.71,0-50.41-21.81-50.41-48.44,0-26.81,22.7-48.62,50.41-48.62,27.88,0,49.15,16.44,49.15,48.62a32.88,32.88,0,0,1-.18,4.29Zm35.75-17.52c-1.43-9.65-8-14.84-17.34-14.84-10.9,0-17,6.44-17.51,14.84Z"/><path class="cls-1" d="M600.06,146.51H631.7v13.23h.36s10-15.91,28.06-15.91a38,38,0,0,1,20,5.72l-13.23,26.81s-5.9-5-16.44-5c-16.45,0-18.77,16.26-18.77,18.58V238.2H600.06Z"/><path class="cls-1" d="M36.12,361.42c0,12.69,9.83,22.7,21.81,22.7a27.9,27.9,0,0,0,15.37-4.29l10.72,22S73.66,410,53.28,410c-26.45,0-50.76-21.45-50.76-48.26,0-27,24.13-48.8,50.76-48.8C73.66,313,84,321.56,84,321.56L73.3,343.19a27.9,27.9,0,0,0-15.37-4.29C46,338.9,36.12,348.91,36.12,361.42Z"/><path class="cls-1" d="M88,253.64H119.6V407.36H88Z"/><path class="cls-1" d="M167.14,277.77A18.77,18.77,0,1,1,148.37,259,18.77,18.77,0,0,1,167.14,277.77Zm-35,129.59h31.63v-91.7H132.11Z"/><path class="cls-1" d="M203.43,365.89c0,14.12,11.79,18.95,19.84,18.95,10.18,0,14.65-2,22.34-10.19l22.88,11.44c-10.37,17.34-27.17,24-47.55,24-27.7,0-50.4-21.81-50.4-48.44,0-26.81,22.7-48.62,50.4-48.62,27.89,0,49.16,16.45,49.16,48.62a32.8,32.8,0,0,1-.18,4.29Zm35.74-17.52c-1.43-9.65-8-14.83-17.33-14.83-10.91,0-17,6.43-17.52,14.83Z"/><path class="cls-1" d="M276,315.66h31.63v9.66H308c7.15-7.15,16.27-12.34,26.28-12.34,16.8,0,40.21,8.4,40.21,34v60.42H342.85V355.52c0-9.11-6.26-17.87-16.45-17.87-9.47,0-18.77,8.76-18.77,17.87v51.84H276Z"/><path class="cls-1" d="M390.57,281.52h31.64v34.14h19.3v24.13h-19.3v29.14c0,8.58,2.14,12.69,7.15,12.69,4.11,0,7.86-2.86,7.86-2.86l7.87,25.56A52.37,52.37,0,0,1,421.85,410c-25.2,0-31.28-18.77-31.28-35V339.79H377.35V315.66h13.22Z"/><path class="cls-1" d="M473.15,365.89c0,14.12,11.8,18.95,19.84,18.95,10.19,0,14.66-2,22.34-10.19l22.88,11.44c-10.36,17.34-27.16,24-47.54,24-27.71,0-50.41-21.81-50.41-48.44,0-26.81,22.7-48.62,50.41-48.62,27.88,0,49.15,16.45,49.15,48.62a32.8,32.8,0,0,1-.18,4.29Zm35.75-17.52c-1.43-9.65-8-14.83-17.34-14.83-10.9,0-17,6.43-17.51,14.83Z"/><path class="cls-1" d="M616.32,320.13,606,340.87s-10.73-5.72-20.38-5.72c-7,0-9.83,1.25-9.83,5.54,0,4.82,6.44,6.25,14.3,8.76,12.16,3.75,27.88,10.54,27.88,29.31,0,27-24.66,31.28-43.43,31.28-22.16,0-35.39-12.33-35.39-12.33L552,376.08s12.51,10.54,22.7,10.54c4.47,0,9.83-.53,9.83-6.61,0-6.61-10-7.15-20.38-12.51-9.29-4.83-18.59-11.26-18.59-25,0-18.77,15.91-29.5,40-29.5A70,70,0,0,1,616.32,320.13Z"/><path d="M243.25,469.82l-4,8s-4.15-2.22-7.89-2.22c-2.7,0-3.81.49-3.81,2.15,0,1.87,2.49,2.42,5.54,3.39,4.71,1.46,10.8,4.09,10.8,11.36,0,10.45-9.55,12.12-16.82,12.12a21.24,21.24,0,0,1-13.71-4.78l5-8.38s4.85,4.09,8.8,4.09c1.73,0,3.8-.21,3.8-2.57,0-2.56-3.87-2.77-7.89-4.84-3.6-1.87-7.2-4.37-7.2-9.7,0-7.27,6.16-11.42,15.51-11.42A27.17,27.17,0,0,1,243.25,469.82Z"/><path d="M260.08,453.41a7.28,7.28,0,1,1-7.28-7.27A7.27,7.27,0,0,1,260.08,453.41ZM246.5,503.62h12.26V468.09H246.5Z"/><path d="M264,468.09h12.26v3.74h.14c2.77-2.77,6.3-4.77,10.18-4.77,6.51,0,15.58,3.25,15.58,13.15v23.41H289.85V483.54c0-3.53-2.42-6.93-6.37-6.93-3.67,0-7.27,3.4-7.27,6.93v20.08H264Z"/><path d="M349.06,469.82l-4,8s-4.16-2.22-7.89-2.22c-2.71,0-3.81.49-3.81,2.15,0,1.87,2.49,2.42,5.54,3.39,4.7,1.46,10.8,4.09,10.8,11.36,0,10.45-9.56,12.12-16.83,12.12a21.24,21.24,0,0,1-13.71-4.78l5-8.38s4.84,4.09,8.79,4.09c1.73,0,3.81-.21,3.81-2.57,0-2.56-3.88-2.77-7.89-4.84-3.61-1.87-7.21-4.37-7.21-9.7,0-7.27,6.17-11.42,15.52-11.42A27.22,27.22,0,0,1,349.06,469.82Z"/><path d="M367.41,467.06A16.16,16.16,0,0,1,379,471.49v-3.4h12.25v35.53H379.18v-4H379a15.73,15.73,0,0,1-11.63,5.06c-10.39,0-17.66-8.38-17.66-18.77S357,467.06,367.41,467.06Zm3.66,27.14a8,8,0,0,0,8.25-8.31,8.28,8.28,0,1,0-16.56,0A7.93,7.93,0,0,0,371.07,494.2Z"/><path d="M396.14,444.07H408.4v59.55H396.14Z"/><path d="M426.82,453.41a7.28,7.28,0,1,1-7.27-7.27A7.27,7.27,0,0,1,426.82,453.41Zm-13.58,50.21H425.5V468.09H413.24Z"/><path d="M430.69,468.09H443v5.13h.14s3.88-6.16,10.87-6.16a14.77,14.77,0,0,1,7.76,2.21l-5.13,10.39a10.32,10.32,0,0,0-6.37-1.94c-6.37,0-7.27,6.3-7.27,7.2v18.7H430.69Z"/><path d="M492.25,467.06a16.13,16.13,0,0,1,11.63,4.43v-3.4h12.26v35.53H504v-4h-.14a15.72,15.72,0,0,1-11.63,5.06c-10.39,0-17.66-8.38-17.66-18.77S481.86,467.06,492.25,467.06Zm3.67,27.14a8,8,0,0,0,8.24-8.31,8.28,8.28,0,1,0-16.55,0A7.93,7.93,0,0,0,495.92,494.2Z"/><path d="M560.32,504.66a15.72,15.72,0,0,1-11.63-5.06h-.14v4H536.43V444.07h12.26v27.42a16.13,16.13,0,0,1,11.63-4.43c10.39,0,17.66,8.44,17.66,18.83S570.71,504.66,560.32,504.66Zm-3.67-27.15a8.12,8.12,0,0,0-8.24,8.38,8.28,8.28,0,1,0,16.55,0A8.14,8.14,0,0,0,556.65,477.51Z"/><path d="M591.83,485c0,7,1.86,9.7,7,9.7s7-2.71,7-9.7v-16.9h12.26V488c0,11.91-6,16.69-19.25,16.69s-19.25-4.78-19.25-16.69V468.09h12.26Z"/><path d="M649.58,469.82l-4,8s-4.16-2.22-7.89-2.22c-2.71,0-3.81.49-3.81,2.15,0,1.87,2.49,2.42,5.54,3.39,4.71,1.46,10.8,4.09,10.8,11.36,0,10.45-9.56,12.12-16.83,12.12a21.27,21.27,0,0,1-13.71-4.78l5-8.38s4.84,4.09,8.79,4.09c1.73,0,3.81-.21,3.81-2.57,0-2.56-3.88-2.77-7.89-4.84-3.61-1.87-7.21-4.37-7.21-9.7,0-7.27,6.17-11.42,15.52-11.42A27.22,27.22,0,0,1,649.58,469.82Z"/><path d="M663.28,485.82a8.61,8.61,0,0,0,8.45,8.8,10.8,10.8,0,0,0,6-1.67l4.15,8.52s-4,3.19-11.91,3.19c-10.25,0-19.66-8.31-19.66-18.7s9.35-18.9,19.66-18.9c7.9,0,11.91,3.32,11.91,3.32l-4.15,8.38a10.84,10.84,0,0,0-6-1.66A8.58,8.58,0,0,0,663.28,485.82Z"/><path d="M698.46,467.06a16.13,16.13,0,0,1,11.63,4.43v-3.4h12.26v35.53H710.23v-4h-.14a15.72,15.72,0,0,1-11.63,5.06c-10.39,0-17.66-8.38-17.66-18.77S688.07,467.06,698.46,467.06Zm3.67,27.14a8,8,0,0,0,8.24-8.31,8.28,8.28,0,1,0-16.55,0A7.93,7.93,0,0,0,702.13,494.2Z"/><path d="M727.2,468.09h12.26v5.13h.13s3.88-6.16,10.88-6.16a14.71,14.71,0,0,1,7.75,2.21l-5.12,10.39a10.36,10.36,0,0,0-6.37-1.94c-6.37,0-7.27,6.3-7.27,7.2v18.7H727.2Z"/><path d="M758.22,444.07h12.26v59.55H758.22Z"/><path d="M794.16,467.06c11.77,0,21.19,7.75,21.19,18.83s-8.94,18.77-21.19,18.77c-12.81,0-21.4-7.83-21.4-18.77S782.18,467.06,794.16,467.06Zm-.07,27.14a8,8,0,0,0,8.24-8.31,8.28,8.28,0,1,0-16.55,0A7.92,7.92,0,0,0,794.09,494.2Z"/><path d="M845,469.82l-4,8s-4.16-2.22-7.9-2.22c-2.7,0-3.81.49-3.81,2.15,0,1.87,2.5,2.42,5.54,3.39,4.71,1.46,10.81,4.09,10.81,11.36,0,10.45-9.56,12.12-16.83,12.12a21.24,21.24,0,0,1-13.71-4.78l5-8.38s4.85,4.09,8.8,4.09c1.73,0,3.81-.21,3.81-2.57,0-2.56-3.88-2.77-7.9-4.84-3.6-1.87-7.2-4.37-7.2-9.7,0-7.27,6.17-11.42,15.51-11.42A27.17,27.17,0,0,1,845,469.82Z"/></g></g></svg>