<svg xmlns="http://www.w3.org/2000/svg" width="1378.42" height="652.77" viewBox="0 0 1378.42 652.77"><defs><style>.cls-1{fill:#f1ecec;}.cls-2{font-size:78.18px;}.cls-2,.cls-3{font-family:LeagueSpartan-Bold, League Spartan;font-weight:700;}.cls-3{font-size:188.3px;fill:#5fcd30;}</style></defs><title>disfruta-las-maravillas-de-findoo</title><g id="Capa_2" data-name="Capa 2"><g id="Capa_1-2" data-name="Capa 1"><path class="cls-1" d="M0,171.22,35.44,47.11H56.56L34.69,171.22ZM39.53,0H74.22l-7.4,32.05H32.13Z"/><text class="cls-2" transform="translate(71.26 101.71)">d</text><text class="cls-2" transform="translate(120.75 101.71)">i</text><text class="cls-2" transform="translate(140.45 101.71)">s</text><text class="cls-2" transform="translate(175 101.71)">f</text><text class="cls-2" transform="translate(200.41 101.71)">r</text><text class="cls-2" transform="translate(235.43 101.71)">u</text><text class="cls-2" transform="translate(282.8 101.71)">t</text><text class="cls-2" transform="translate(309.77 101.71)">a</text><text class="cls-2" transform="translate(71.26 175.33)">l</text><text class="cls-2" transform="translate(90.57 175.33)">a</text><text class="cls-2" transform="translate(140.06 175.33)">s</text><text class="cls-2" transform="translate(174.61 175.33)"> </text><text class="cls-2" transform="translate(192.04 175.33)">m</text><text class="cls-2" transform="translate(265.14 175.33)">a</text><text class="cls-2" transform="translate(314.62 175.33)">r</text><text class="cls-2" transform="translate(349.65 175.33)">a</text><text class="cls-2" transform="translate(399.13 175.33)">v</text><text class="cls-2" transform="translate(444.47 175.33)">i</text><text class="cls-2" transform="translate(464.17 175.33)">l</text><text class="cls-2" transform="translate(483.48 175.33)">l</text><text class="cls-2" transform="translate(502.79 175.33)">a</text><text class="cls-2" transform="translate(552.28 175.33)">s</text><text class="cls-2" transform="translate(586.83 175.33)"> </text><text class="cls-2" transform="translate(604.26 175.33)">q</text><text class="cls-2" transform="translate(653.75 175.33)">u</text><text class="cls-2" transform="translate(701.12 175.33)">e</text><path class="cls-1" d="M1195,652.77l18.29-79.22H1299l-18.29,79.22Zm97.71-423.23h85.74l-87.59,306.79h-52.22Z"/><text class="cls-3" transform="translate(301.38 365.54)">F</text><text class="cls-3" transform="translate(398.72 365.54)">I</text><text class="cls-3" transform="translate(447.3 365.54)">N</text><text class="cls-3" transform="translate(593.4 365.54)">D</text><text class="cls-3" transform="translate(722.94 365.54)">O</text><text class="cls-3" transform="translate(878.65 365.54)">O</text><text class="cls-2" transform="translate(477.01 450.45)">p</text><text class="cls-2" transform="translate(526.5 450.45)">u</text><text class="cls-2" transform="translate(573.87 450.45)">e</text><text class="cls-2" transform="translate(617.1 450.45)">d</text><text class="cls-2" transform="translate(666.59 450.45)">e</text><text class="cls-2" transform="translate(709.82 450.45)"> </text><text class="cls-2" transform="translate(727.25 450.45)">h</text><text class="cls-2" transform="translate(775.02 450.45)">a</text><text class="cls-2" transform="translate(824.5 450.45)">c</text><text class="cls-2" transform="translate(858.98 450.45)">e</text><text class="cls-2" transform="translate(902.21 450.45)">r</text><text class="cls-2" transform="translate(937.23 450.45)"> </text><text class="cls-2" transform="translate(954.67 450.45)">p</text><text class="cls-2" transform="translate(1004.15 450.45)">o</text><text class="cls-2" transform="translate(1051.92 450.45)">r</text><text class="cls-2" transform="translate(1086.94 450.45)"> </text><text class="cls-2" transform="translate(1104.37 450.45)">t</text><text class="cls-2" transform="translate(1131.34 450.45)">i</text><text class="cls-2" transform="translate(1151.04 450.45)"> </text><text class="cls-2" transform="translate(1168.48 450.45)">y</text><text class="cls-2" transform="translate(682.38 524.07)">p</text><text class="cls-2" transform="translate(731.87 524.07)">o</text><text class="cls-2" transform="translate(779.63 524.07)">r</text><text class="cls-2" transform="translate(814.65 524.07)"> </text><text class="cls-2" transform="translate(832.08 524.07)">t</text><text class="cls-2" transform="translate(859.06 524.07)">u</text><text class="cls-2" transform="translate(906.43 524.07)"> </text><text class="cls-2" transform="translate(923.86 524.07)">n</text><text class="cls-2" transform="translate(971.63 524.07)">e</text><text class="cls-2" transform="translate(1014.86 524.07)">g</text><text class="cls-2" transform="translate(1064.35 524.07)">o</text><text class="cls-2" transform="translate(1112.11 524.07)">c</text><text class="cls-2" transform="translate(1146.59 524.07)">i</text><text class="cls-2" transform="translate(1166.29 524.07)">o</text></g></g></svg>