<svg xmlns="http://www.w3.org/2000/svg" width="1378.45" height="652.77" viewBox="0 0 1378.45 652.77"><defs><style>.cls-1{fill:none;}.cls-2{fill:#f1ecec;}.cls-3{fill:#5fcd30;}</style></defs><title>disfruta-las-maravillas-de-findoo-para-negocios</title><g id="Capa_2" data-name="Capa 2"><g id="Capa_1-2" data-name="Capa 1"><path class="cls-1" d="M598.11,418.16c-4.77,0-7.43,2.81-7.66,6.49h15.24C605.07,420.43,602.17,418.16,598.11,418.16Z"/><path class="cls-1" d="M504.53,421a9,9,0,0,0-9.3,9.39,9.34,9.34,0,1,0,18.68,0A9,9,0,0,0,504.53,421Z"/><path class="cls-1" d="M291,145.85a9.18,9.18,0,0,0-9.38,9.46,9.34,9.34,0,1,0,18.68,0A9.17,9.17,0,0,0,291,145.85Z"/><path class="cls-1" d="M375.53,145.85a9.18,9.18,0,0,0-9.38,9.46,9.34,9.34,0,1,0,18.68,0A9.17,9.17,0,0,0,375.53,145.85Z"/><path class="cls-1" d="M757.75,494.59a9.18,9.18,0,0,0-9.38,9.46,9.34,9.34,0,1,0,18.68,0A9.17,9.17,0,0,0,757.75,494.59Z"/><path class="cls-1" d="M709.9,494.59a9,9,0,0,0-9.3,9.39,9.34,9.34,0,1,0,18.68,0A9,9,0,0,0,709.9,494.59Z"/><path class="cls-1" d="M116.45,145.85a9.18,9.18,0,0,0-9.38,9.46,9.34,9.34,0,1,0,18.68,0A9.17,9.17,0,0,0,116.45,145.85Z"/><path class="cls-1" d="M690.83,418.16c-4.77,0-7.43,2.81-7.66,6.49h15.24C697.79,420.43,694.89,418.16,690.83,418.16Z"/><path class="cls-1" d="M643,421a9.18,9.18,0,0,0-9.38,9.46,9.34,9.34,0,1,0,18.68,0A9.17,9.17,0,0,0,643,421Z"/><path class="cls-1" d="M883.22,418.16c-4.77,0-7.43,2.81-7.67,6.49H890.8C890.18,420.43,887.28,418.16,883.22,418.16Z"/><path class="cls-1" d="M97.14,91.08a9,9,0,0,0,9.3-9.39,9.34,9.34,0,1,0-18.68,0A9,9,0,0,0,97.14,91.08Z"/><path class="cls-1" d="M630.14,164.7a9.17,9.17,0,0,0,9.3-9.46,9.34,9.34,0,1,0-18.68,0A9.18,9.18,0,0,0,630.14,164.7Z"/><path class="cls-1" d="M805.6,334.09c28.24,0,39.92-23.16,39.92-46.32s-12.43-46.31-39.92-46.31c-27.3,0-40.11,23.15-40.11,46.31S776.6,334.09,805.6,334.09Z"/><path class="cls-1" d="M725.36,143c-4.77,0-7.43,2.81-7.66,6.49h15.24C732.32,145.31,729.42,143,725.36,143Z"/><path class="cls-1" d="M961.31,334.09c28.24,0,39.92-23.16,39.92-46.32s-12.43-46.31-39.92-46.31c-27.3,0-40.11,23.15-40.11,46.31S932.31,334.09,961.31,334.09Z"/><path class="cls-1" d="M689.81,288c0-26-17.89-46.13-44.25-46.13H640.1v92.08h5.46C671.73,333.91,689.62,314,689.81,288Z"/><path class="cls-1" d="M528.67,164.7a9,9,0,0,0,9.3-9.39,9.34,9.34,0,1,0-18.68,0A9,9,0,0,0,528.67,164.7Z"/><path class="cls-1" d="M335.65,91.08a9,9,0,0,0,9.3-9.39,9.34,9.34,0,1,0-18.68,0A9,9,0,0,0,335.65,91.08Z"/><path class="cls-1" d="M800.9,421a9.18,9.18,0,0,0-9.38,9.46,9.34,9.34,0,1,0,18.68,0A9.17,9.17,0,0,0,800.9,421Z"/><path class="cls-1" d="M1040.74,494.59a9.18,9.18,0,0,0-9.38,9.46,9.34,9.34,0,1,0,18.68,0A9.17,9.17,0,0,0,1040.74,494.59Z"/><path class="cls-1" d="M1192.17,494.59a9.18,9.18,0,0,0-9.38,9.46,9.34,9.34,0,1,0,18.68,0A9.17,9.17,0,0,0,1192.17,494.59Z"/><path class="cls-1" d="M1030,439.82a9,9,0,0,0,9.3-9.39,9.34,9.34,0,1,0-18.68,0A9,9,0,0,0,1030,439.82Z"/><path class="cls-1" d="M1090.23,494.59a9.18,9.18,0,0,0-9.38,9.46,9.34,9.34,0,1,0,18.68,0A9.17,9.17,0,0,0,1090.23,494.59Z"/><path class="cls-1" d="M991.57,430.36a9.34,9.34,0,1,0-18.68,0,9.34,9.34,0,1,0,18.68,0Z"/><path class="cls-1" d="M995.87,491.78c-4.77,0-7.43,2.81-7.66,6.49h15.24C1002.83,494.05,999.93,491.78,995.87,491.78Z"/><polygon class="cls-2" points="39.53 0 32.13 32.05 66.82 32.05 74.22 0 39.53 0"/><polygon class="cls-2" points="0 171.22 34.69 171.22 56.56 47.11 35.44 47.11 0 171.22"/><path d="M93,102.88a17.74,17.74,0,0,0,13.13-5.71h.16v4.54H120V34.47H106.13v31a18.26,18.26,0,0,0-13.13-5c-11.73,0-19.94,9.54-19.94,21.26S81.27,102.88,93,102.88Zm4.14-30.65a9.17,9.17,0,0,1,9.3,9.46,9.34,9.34,0,1,1-18.68,0A9.18,9.18,0,0,1,97.14,72.23Z"/><rect x="125.44" y="61.6" width="13.84" height="40.11"/><path d="M132.56,36.82A8.21,8.21,0,1,0,140.77,45,8.2,8.2,0,0,0,132.56,36.82Z"/><path d="M164.53,76.38c-3.44-1.1-6.25-1.72-6.25-3.83,0-1.88,1.25-2.43,4.3-2.43,4.22,0,8.91,2.51,8.91,2.51L176,63.56a30.55,30.55,0,0,0-13.44-3.13c-10.56,0-17.52,4.69-17.52,12.9,0,6,4.07,8.83,8.13,10.94,4.54,2.35,8.92,2.58,8.92,5.48,0,2.66-2.35,2.89-4.3,2.89-4.46,0-9.93-4.61-9.93-4.61l-5.63,9.46a24,24,0,0,0,15.48,5.39c8.21,0,19-1.87,19-13.68C176.73,81,169.85,78,164.53,76.38Z"/><path d="M205.1,101.71h13.84V80.6c0-1,1-8.13,8.21-8.13a11.67,11.67,0,0,1,7.19,2.19l5-10.13V84c0,13.45,6.72,18.84,21.74,18.84S282.81,97.49,282.81,84V61.6H269V80.68c0,7.9-2.11,10.94-7.89,10.94s-7.9-3-7.9-10.94V61.6H239.34v.86a16.91,16.91,0,0,0-8-2c-7.89,0-12.27,7-12.27,7h-.16V61.6H195.88V53.47c0-5.55.78-7.9,4.3-7.9a9.14,9.14,0,0,1,4.14,1.1l4.85-9.78a19.18,19.18,0,0,0-11.42-3.59c-10,0-15.64,8.05-15.71,19.78V61.6h-5.79V72.16H182v29.55h13.84V72.16h9.22Z"/><path d="M289.84,87.56c0,7.11,2.66,15.32,13.68,15.32a22.87,22.87,0,0,0,10.16-2.5L310.24,89.2a6.54,6.54,0,0,1-3.44,1.25c-2.19,0-3.12-1.8-3.12-5.55V72.16h8.44V61.6h-8.44V46.67H289.84V61.6h-5.79V72.16h5.79Z"/><path d="M331.51,102.88a17.74,17.74,0,0,0,13.13-5.71h.16v4.54h13.68V61.6H344.64v3.83a18.26,18.26,0,0,0-13.13-5c-11.73,0-19.94,9.54-19.94,21.26S319.78,102.88,331.51,102.88Zm4.14-30.65a9.17,9.17,0,0,1,9.3,9.46,9.34,9.34,0,1,1-18.68,0A9.18,9.18,0,0,1,335.65,72.23Z"/><rect x="75.95" y="108.09" width="13.84" height="67.24"/><path d="M125.44,139.05a18.26,18.26,0,0,0-13.13-5c-11.73,0-19.94,9.54-19.94,21.26s8.21,21.19,19.94,21.19a17.74,17.74,0,0,0,13.13-5.71h.16v4.54h13.68V135.22H125.44Zm-9,25.65a9,9,0,0,1-9.38-9.39,9.34,9.34,0,1,1,18.68,0A9,9,0,0,1,116.45,164.7Z"/><path d="M164.14,150c-3.44-1.1-6.25-1.72-6.25-3.83,0-1.88,1.25-2.43,4.3-2.43,4.22,0,8.91,2.51,8.91,2.51l4.53-9.07a30.55,30.55,0,0,0-13.44-3.13c-10.56,0-17.52,4.69-17.52,12.9,0,6,4.07,8.83,8.13,10.94,4.54,2.35,8.92,2.58,8.92,5.48,0,2.66-2.35,2.89-4.3,2.89-4.46,0-9.93-4.61-9.93-4.61l-5.63,9.46a24,24,0,0,0,15.48,5.39c8.21,0,19-1.87,19-13.68C176.34,154.61,169.46,151.64,164.14,150Z"/><path d="M249.51,134.05c-4.38,0-9.07,2.27-13.29,7.35-2.82-5.4-8.68-7.35-14-7.35-4.38,0-8.37,2.27-11.49,5.39h-.16v-4.22H196.73v40.11h13.84V151.87c0-3.2,1.8-6.72,6.41-6.72,4.93,0,7,3.52,7,7.51v22.67h13.84V151.41c.15-3,2-6.26,6.41-6.26,4.92,0,7,3.52,7,7.51v22.67h13.83V148.9C265.14,137.72,256.86,134.05,249.51,134.05Z"/><path d="M313.85,175.33V135.22H300v3.83a18.26,18.26,0,0,0-13.13-5c-11.73,0-19.94,9.54-19.94,21.26s8.21,21.19,19.94,21.19A17.74,17.74,0,0,0,300,170.79h.16v4.54ZM291,164.7a9,9,0,0,1-9.38-9.39,9.34,9.34,0,1,1,18.68,0A9,9,0,0,1,291,164.7Z"/><path d="M319.31,135.22v40.11h13.84V154.22c0-1,1-8.13,8.21-8.13a11.67,11.67,0,0,1,7.19,2.19l5.79-11.73a16.64,16.64,0,0,0-8.76-2.5c-7.89,0-12.27,7-12.27,7h-.16v-5.79Z"/><path d="M463,175.33V135.22H433.53L423.76,157,414,135.22H384.52v3.83a18.26,18.26,0,0,0-13.13-5c-11.73,0-19.94,9.54-19.94,21.26s8.21,21.19,19.94,21.19a17.74,17.74,0,0,0,13.13-5.71h.16v4.54h13.68V136.7l20.71,38.63h9.38l20.71-38.64v38.64ZM375.53,164.7a9,9,0,0,1-9.38-9.39,9.34,9.34,0,1,1,18.68,0A9,9,0,0,1,375.53,164.7Z"/><path d="M456.28,126.85a8.21,8.21,0,1,0-8.21-8.2A8.21,8.21,0,0,0,456.28,126.85Z"/><rect x="468.86" y="108.09" width="13.84" height="67.24"/><rect x="488.17" y="108.09" width="13.84" height="67.24"/><path d="M524.53,176.5a17.74,17.74,0,0,0,13.13-5.71h.16v4.54H551.5V135.22H537.66v3.83a18.26,18.26,0,0,0-13.13-5c-11.73,0-19.94,9.54-19.94,21.26S512.8,176.5,524.53,176.5Zm4.14-30.65a9.17,9.17,0,0,1,9.3,9.46,9.34,9.34,0,1,1-18.68,0A9.18,9.18,0,0,1,528.67,145.85Z"/><path d="M569.64,166.26c-4.46,0-9.93-4.61-9.93-4.61l-5.63,9.46a24,24,0,0,0,15.48,5.39c8.21,0,19-1.87,19-13.68,0-8.21-6.88-11.18-12.2-12.82-3.44-1.1-6.25-1.72-6.25-3.83,0-1.88,1.25-2.43,4.3-2.43,4.22,0,8.91,2.51,8.91,2.51l4.53-9.07a30.55,30.55,0,0,0-13.44-3.13c-10.56,0-17.52,4.69-17.52,12.9,0,6,4.07,8.83,8.13,10.94,4.54,2.35,8.92,2.58,8.92,5.48C573.94,166,571.59,166.26,569.64,166.26Z"/><path d="M626,176.5a18.21,18.21,0,0,0,13.13-5v24.16H653V135.22H639.29v4.54h-.16A17.74,17.74,0,0,0,626,134.05c-11.73,0-19.94,9.46-19.94,21.19S614.27,176.5,626,176.5Zm4.14-30.65a9,9,0,0,1,9.3,9.39,9.34,9.34,0,1,1-18.68,0A9,9,0,0,1,630.14,145.85Z"/><path d="M679.4,176.5c15,0,21.73-5.39,21.73-18.84V135.22H687.29V154.3c0,7.9-2.11,10.94-7.89,10.94s-7.9-3-7.9-10.94V135.22H657.66v22.44C657.66,171.11,664.38,176.5,679.4,176.5Z"/><path d="M725,176.5c8.91,0,16.26-2.89,20.79-10.47l-10-5c-3.37,3.6-5.32,4.46-9.78,4.46-3.52,0-8.68-2.11-8.68-8.29h29.09a14.17,14.17,0,0,0,.08-1.88c0-14.07-9.31-21.26-21.5-21.26s-22.05,9.54-22.05,21.26S712.85,176.5,725,176.5Zm.39-33.46c4.06,0,7,2.27,7.58,6.49H717.7C717.93,145.85,720.59,143,725.36,143Z"/><polygon class="cls-2" points="1378.45 229.54 1292.71 229.54 1238.64 536.33 1290.86 536.33 1378.45 229.54"/><polygon class="cls-2" points="1195 652.77 1280.71 652.77 1299 573.55 1213.29 573.55 1195 652.77"/><polygon class="cls-3" points="312.68 365.54 348.08 365.54 348.08 303.21 398.35 303.21 398.35 272.15 348.08 272.15 348.08 241.27 402.49 241.27 402.49 210.2 312.68 210.2 312.68 365.54"/><rect class="cls-3" x="410.02" y="210.2" width="35.4" height="155.34"/><polygon class="cls-3" points="494 269.13 494.37 269.13 556.13 365.54 591.53 365.54 591.53 210.2 556.13 210.2 556.13 306.6 555.76 306.6 494 210.2 458.6 210.2 458.6 365.54 494 365.54 494 269.13"/><path class="cls-3" d="M727.63,296c3.65,41.36,34.83,72.4,78,72.4,41.84,0,73.91-30.94,77.76-72.2,3.72,41.26,34.88,72.2,77.95,72.2,44.63,0,78.14-35.21,78.14-80.59s-35-80.4-78.14-80.4c-40.18,0-74,31-77.95,72.37-3.85-41.41-37.22-72.37-77.76-72.37-40.22,0-74.09,31-78,72.48-3.91-41-37.93-69.65-77.95-69.65h-45V365.54h45C689.82,365.54,723.64,337,727.63,296Zm233.68-54.5c27.49,0,39.92,23.15,39.92,46.31s-11.68,46.32-39.92,46.32c-29,0-40.11-23.16-40.11-46.32S934,241.46,961.31,241.46Zm-155.71,0c27.49,0,39.92,23.15,39.92,46.31s-11.68,46.32-39.92,46.32c-29,0-40.11-23.16-40.11-46.32S778.3,241.46,805.6,241.46ZM640.1,333.91V241.83h5.46c26.36,0,44.25,20.15,44.25,46.13-.19,26-18.08,46-44.25,46Z"/><path d="M508.68,409.17a17.74,17.74,0,0,0-13.14,5.71h-.16v-4.54H481.7v60.44h13.84V446.62a18.22,18.22,0,0,0,13.14,5c11.72,0,19.93-9.54,19.93-21.26S520.4,409.17,508.68,409.17Zm-4.15,30.65a9.17,9.17,0,0,1-9.3-9.46,9.34,9.34,0,1,1,18.68,0A9.18,9.18,0,0,1,504.53,439.82Z"/><path d="M560,429.42c0,7.9-2.11,10.94-7.89,10.94s-7.9-3-7.9-10.94V410.34H530.41v22.44c0,13.45,6.72,18.84,21.74,18.84s21.73-5.39,21.73-18.84V410.34H560Z"/><path d="M652,414.17a18.26,18.26,0,0,0-13.13-5c-10.78,0-18.56,8.06-19.76,18.46-1.17-12.22-10-18.46-21.36-18.46-12.12,0-22.05,9.54-22.05,21.26s9.93,21.19,22.05,21.19c8.91,0,16.26-2.89,20.79-10.47l-10-5c-3.37,3.6-5.32,4.46-9.78,4.46-3.52,0-8.68-2.11-8.68-8.29H619c.83,10.84,8.76,19.31,19.86,19.31a17.76,17.76,0,0,0,13.13-5.7h.16v4.53h13.68V383.21H652Zm-61.52,10.48c.23-3.68,2.89-6.49,7.66-6.49,4.06,0,7,2.27,7.58,6.49ZM643,439.82a9,9,0,0,1-9.38-9.39,9.34,9.34,0,1,1,18.68,0A9,9,0,0,1,643,439.82Z"/><path d="M711.23,441.15l-10-5c-3.37,3.6-5.32,4.46-9.78,4.46-3.52,0-8.68-2.11-8.68-8.29h29.09a14.17,14.17,0,0,0,.08-1.88c0-14.07-9.31-21.26-21.5-21.26s-22.05,9.54-22.05,21.26,9.93,21.19,22.05,21.19C699.35,451.62,706.7,448.73,711.23,441.15Zm-20.4-23c4.06,0,7,2.27,7.58,6.49H683.17C683.4,421,686.06,418.16,690.83,418.16Z"/><path d="M775,450.45V424c0-11.18-10.24-14.85-17.59-14.85-4.38,0-8.37,2.27-11.49,5.39h-.16V383.21H731.94v67.24h13.84V427.78c0-4,4.07-7.82,8.21-7.82,4.46,0,7.19,3.83,7.19,7.82v22.67Z"/><path d="M809.89,414.17a18.26,18.26,0,0,0-13.13-5c-11.73,0-19.94,9.54-19.94,21.26s8.21,21.19,19.94,21.19a17.76,17.76,0,0,0,13.13-5.7h.16v4.53h13.68V410.34H809.89Zm-9,25.65a9,9,0,0,1-9.38-9.39,9.34,9.34,0,1,1,18.68,0A9,9,0,0,1,800.9,439.82Z"/><path d="M862,448l-4.69-9.62a12.18,12.18,0,0,1-6.72,1.88,9.9,9.9,0,0,1,0-19.79,12.18,12.18,0,0,1,6.72,1.88l4.69-9.46s-4.53-3.75-13.45-3.75c-11.65,0-22.2,9.54-22.2,21.34s10.63,21.11,22.2,21.11C857.42,451.62,862,448,862,448Z"/><path d="M904.33,430.43c0-14.07-9.31-21.26-21.5-21.26s-22.05,9.54-22.05,21.26,9.93,21.19,22.05,21.19c8.91,0,16.26-2.89,20.79-10.47l-10-5c-3.37,3.6-5.32,4.46-9.78,4.46-3.52,0-8.68-2.11-8.68-8.29h29.09A14.17,14.17,0,0,0,904.33,430.43Zm-28.78-5.78c.24-3.68,2.9-6.49,7.67-6.49,4.06,0,7,2.27,7.58,6.49Z"/><path d="M936.14,423.4l5.79-11.73a16.64,16.64,0,0,0-8.76-2.5c-7.89,0-12.27,7-12.27,7h-.16v-5.79H906.9v40.11h13.84V429.34c0-1,1-8.13,8.21-8.13A11.67,11.67,0,0,1,936.14,423.4Z"/><path d="M1006.11,433.07c1.28,10.95,10.58,18.55,24,18.55,13.84,0,23.92-8.83,23.92-21.19s-10.63-21.26-23.92-21.26c-12.54,0-22.59,7.53-24,18.59-1.11-10.49-8.94-18.59-19.78-18.59a17.74,17.74,0,0,0-13.14,5.71H973v-4.54H959.36v60.44H973.2V446.62a18.22,18.22,0,0,0,13.14,5C997.14,451.62,1005,443.52,1006.11,433.07ZM1030,421a9.17,9.17,0,0,1,9.3,9.46,9.34,9.34,0,1,1-18.68,0A9.18,9.18,0,0,1,1030,421Zm-57.14,9.39a9.34,9.34,0,1,1,18.68,0,9.34,9.34,0,1,1-18.68,0Z"/><path d="M1070.45,429.34c0-1,1-8.13,8.21-8.13a11.67,11.67,0,0,1,7.19,2.19l5.79-11.73a16.64,16.64,0,0,0-8.76-2.5c-7.89,0-12.27,7-12.27,7h-.16v-5.79h-13.84v40.11h13.84Z"/><path d="M1111.41,436.3c0,7.11,2.66,15.32,13.68,15.32a22.87,22.87,0,0,0,10.16-2.5l-3.44-11.18a6.54,6.54,0,0,1-3.44,1.25c-2.19,0-3.12-1.8-3.12-5.55V420.9h8.44V410.34h-8.44V395.41h-13.84v14.93h-5.79V420.9h5.79Z"/><path d="M1143.15,402a8.21,8.21,0,1,0-8.21-8.2A8.21,8.21,0,0,0,1143.15,402Z"/><rect x="1136.03" y="410.34" width="13.84" height="40.11"/><polygon points="1172.08 470.78 1188.03 470.78 1219.54 410.34 1203.59 410.34 1194.05 430.9 1182.87 410.34 1166.92 410.34 1185.92 444.19 1172.08 470.78"/><path d="M757.83,482.79c-12.56,0-22.61,7.54-24,18.63-1.1-10.51-8.93-18.63-19.79-18.63a17.74,17.74,0,0,0-13.14,5.71h-.16V484H687.07V544.4h13.84V520.24a18.22,18.22,0,0,0,13.14,5c10.82,0,18.63-8.12,19.77-18.59,1.27,11,10.58,18.59,24,18.59,13.84,0,23.92-8.83,23.92-21.19C781.75,491.54,771.12,482.79,757.83,482.79ZM709.9,513.44a9.17,9.17,0,0,1-9.3-9.46,9.34,9.34,0,1,1,18.68,0A9.18,9.18,0,0,1,709.9,513.44Zm47.85,0a9,9,0,0,1-9.38-9.39,9.34,9.34,0,1,1,18.68,0A9,9,0,0,1,757.75,513.44Z"/><path d="M798.32,489.75h-.16V484H784.32v40.11h13.84V503c0-1,1-8.13,8.21-8.13a11.67,11.67,0,0,1,7.19,2.19l5.79-11.73a16.64,16.64,0,0,0-8.76-2.5C802.7,482.79,798.32,489.75,798.32,489.75Z"/><path d="M856.08,512.81c-2.19,0-3.12-1.8-3.12-5.55V494.52h8.44V484H853V469H839.12V484h-5.79v10.56h5.79v15.4c0,7.11,2.66,15.32,13.68,15.32a22.87,22.87,0,0,0,10.16-2.5l-3.44-11.18A6.54,6.54,0,0,1,856.08,512.81Z"/><path d="M892.6,503c0,7.9-2.11,10.94-7.89,10.94s-7.9-3-7.9-10.94V484H863V506.4c0,13.45,6.72,18.84,21.74,18.84s21.73-5.39,21.73-18.84V484H892.6Z"/><path d="M954,482.79c-4.38,0-8.37,2.27-11.49,5.39h-.16V484H928.55v40.11h13.84V501.4c0-4,4.07-7.82,8.21-7.82,4.46,0,7.19,3.83,7.19,7.82v22.67h13.84V497.64C971.63,486.46,961.39,482.79,954,482.79Z"/><path d="M1049.73,487.56h-.23a18.34,18.34,0,0,0-12.9-4.77c-10.78,0-18.57,8.06-19.76,18.46-1.17-12.22-10-18.46-21.36-18.46-12.12,0-22.05,9.54-22.05,21.26s9.93,21.19,22.05,21.19c8.91,0,16.26-2.89,20.79-10.47l-10-5c-3.37,3.6-5.32,4.46-9.78,4.46-3.52,0-8.68-2.11-8.68-8.29h28.93c.83,10.84,8.76,19.31,19.86,19.31,5.47,0,10.16-.78,13.13-4.06v3c0,7.11-5.94,9.38-9.77,9.38-6,0-9.38-2.74-10.87-5.16l-11.34,5.55c4.22,9.78,13.84,11.65,22.21,11.65,13.68,0,23.61-7,23.61-20.4V484h-13.84Zm-61.52,10.71c.23-3.68,2.89-6.49,7.66-6.49,4.06,0,7,2.27,7.58,6.49Zm52.53,15.17a9,9,0,0,1-9.38-9.39,9.34,9.34,0,1,1,18.68,0A9,9,0,0,1,1040.74,513.44Z"/><path d="M1138.15,494.13a12.23,12.23,0,0,1,6.72,1.87l4.69-9.46s-4.53-3.75-13.45-3.75c-10.79,0-20.63,8.18-22,18.77-1.31-11.16-11.38-18.77-23.77-18.77-13.53,0-24.16,8.75-24.16,21.26s9.69,21.19,24.16,21.19c12.85,0,22.47-7.62,23.77-18.61,1.37,10.53,11.3,18.61,22,18.61,8.92,0,13.45-3.59,13.45-3.59l-4.69-9.62a12.18,12.18,0,0,1-6.72,1.88,9.9,9.9,0,0,1,0-19.78Zm-47.92,19.31a9,9,0,0,1-9.38-9.39,9.34,9.34,0,1,1,18.68,0A9,9,0,0,1,1090.23,513.44Z"/><path d="M1158.4,459.18a8.21,8.21,0,1,0,8.21,8.21A8.2,8.2,0,0,0,1158.4,459.18Z"/><rect x="1151.28" y="483.96" width="13.84" height="40.11"/><path d="M1216.17,504.05c0-12.51-10.63-21.26-23.92-21.26-13.53,0-24.16,8.75-24.16,21.26s9.69,21.19,24.16,21.19C1206.09,525.24,1216.17,516.41,1216.17,504.05Zm-24,9.39a9,9,0,0,1-9.38-9.39,9.34,9.34,0,1,1,18.68,0A9,9,0,0,1,1192.17,513.44Z"/></g></g></svg>