<svg xmlns="http://www.w3.org/2000/svg" width="1335.72" height="460.7" viewBox="0 0 1335.72 460.7"><defs><style>.cls-1{fill:#f1ecec;}.cls-2{font-size:67.7px;}.cls-2,.cls-3{font-family:LeagueSpartan-Bold, League Spartan;font-weight:700;}.cls-3{font-size:119.09px;fill:#5fcd30;}</style></defs><title>encuentra-clientes-correctos</title><g id="Capa_2" data-name="Capa 2"><g id="Capa_1-2" data-name="Capa 1"><path class="cls-1" d="M58.53,227.48a48.81,48.81,0,0,1-12.34-1.41,28.61,28.61,0,0,1-8.88-3.79,19.93,19.93,0,0,1-5.78-6,27.09,27.09,0,0,1-3.27-7.62,41.41,41.41,0,0,1-1.1-9.12,82,82,0,0,1,.37-9.91Q28,184.85,29,179a82.1,82.1,0,0,1,5.77-19.38,60.65,60.65,0,0,1,10-15.6,41.22,41.22,0,0,1,15-10.66,50.53,50.53,0,0,1,20-3.78l2.64-15h27l-6.46,36.65q-6.72,0-11.88.35A60.86,60.86,0,0,0,81.58,153a50.53,50.53,0,0,0-7.14,2.16,17.13,17.13,0,0,0-5.33,3.39,26.5,26.5,0,0,0-3.9,4.45,26.09,26.09,0,0,0-2.83,6,68.4,68.4,0,0,0-2.12,7.22q-.82,3.52-1.77,8.9-1.18,6.69-.28,10.52t5.27,3.84a13.91,13.91,0,0,0,2-.13,6.09,6.09,0,0,0,2.17-1.06A8.59,8.59,0,0,0,70,195.63a24.18,24.18,0,0,0,2.11-4.84A53.14,53.14,0,0,0,74,183l2.27-12.86h29.62l-4,22.38q-3.08,17.43-14.78,26.2T58.53,227.48Zm58-148.79-4.63,26.25h-29l4.62-26.25Z"/><text/><text class="cls-2" transform="translate(169.51 61.77)">.</text><text class="cls-2" transform="translate(189.75 61.77)">.</text><text class="cls-2" transform="translate(209.99 61.77)">.</text><text class="cls-2" transform="translate(230.23 61.77)"> </text><text class="cls-2" transform="translate(245.33 61.77)">e</text><text class="cls-2" transform="translate(282.76 61.77)">n</text><text class="cls-2" transform="translate(324.12 61.77)">t</text><text class="cls-2" transform="translate(347.48 61.77)">o</text><text class="cls-2" transform="translate(388.84 61.77)">n</text><text class="cls-2" transform="translate(430.2 61.77)">c</text><text class="cls-2" transform="translate(460.05 61.77)">e</text><text class="cls-2" transform="translate(497.49 61.77)">s</text><text class="cls-3" transform="translate(114.35 188.15)">c</text><text class="cls-3" transform="translate(166.86 188.15)">รณ</text><text class="cls-3" transform="translate(239.62 188.15)">m</text><text class="cls-3" transform="translate(350.96 188.15)">o</text><text class="cls-2" transform="translate(440.89 189.32)">e</text><text class="cls-2" transform="translate(478.33 189.32)">n</text><text class="cls-2" transform="translate(519.69 189.32)">c</text><text class="cls-2" transform="translate(549.54 189.32)">u</text><text class="cls-2" transform="translate(590.56 189.32)">e</text><text class="cls-2" transform="translate(628 189.32)">n</text><text class="cls-2" transform="translate(669.36 189.32)">t</text><text class="cls-2" transform="translate(692.71 189.32)">r</text><text class="cls-2" transform="translate(723.04 189.32)">a</text><text class="cls-2" transform="translate(765.89 189.32)">s</text><text class="cls-2" transform="translate(795.81 189.32)"> </text><text class="cls-2" transform="translate(810.91 189.32)">a</text><text class="cls-2" transform="translate(853.76 189.32)"> </text><text class="cls-2" transform="translate(868.85 189.32)">l</text><text class="cls-2" transform="translate(885.57 189.32)">o</text><text class="cls-2" transform="translate(926.93 189.32)">s</text><path class="cls-1" d="M1095.86,423.81,1111,358.92h72.43l-15.15,64.89ZM1261,56a121.27,121.27,0,0,1,30.65,3.48q13.24,3.49,21.68,9.37A45.49,45.49,0,0,1,1327,83.78a62.49,62.49,0,0,1,7.13,18.84,98.39,98.39,0,0,1,1.52,22.54,206.84,206.84,0,0,1-2.28,24.5q-1.84,11.76-5.19,26.13a213,213,0,0,1-17.06,47.9,161.65,161.65,0,0,1-27,38.55,111.12,111.12,0,0,1-38.83,26.35q-22.72,9.36-50.44,9.36l-8.64,37h-67.37L1140,244.38q16.79,0,29.74-.87a153,153,0,0,0,23.52-3.27,128.79,128.79,0,0,0,18.14-5.33,46.29,46.29,0,0,0,13.8-8.39,70.79,70.79,0,0,0,10.35-11,68.17,68.17,0,0,0,7.89-14.7,181.61,181.61,0,0,0,6.29-17.86q2.54-8.7,5.64-22,3.86-16.54,2.13-26t-12.66-9.47a32.26,32.26,0,0,0-4.93.32,15.65,15.65,0,0,0-5.57,2.61,23,23,0,0,0-6.23,6.32,64,64,0,0,0-5.93,12,135.22,135.22,0,0,0-5.81,19.27l-7.43,31.79h-74l12.91-55.31q10.07-43.11,40.51-64.78T1261,56Z"/><text class="cls-3" transform="translate(555.93 305.96)">c</text><text class="cls-3" transform="translate(608.44 305.96)">l</text><text class="cls-3" transform="translate(637.86 305.96)">i</text><text class="cls-3" transform="translate(667.86 305.96)">e</text><text class="cls-3" transform="translate(733.71 305.96)">n</text><text class="cls-3" transform="translate(806.47 305.96)">t</text><text class="cls-3" transform="translate(847.56 305.96)">e</text><text class="cls-3" transform="translate(913.41 305.96)">s</text><text class="cls-3" transform="translate(555.93 418.9)">c</text><text class="cls-3" transform="translate(608.44 418.9)">o</text><text class="cls-3" transform="translate(681.2 418.9)">r</text><text class="cls-3" transform="translate(734.55 418.9)">r</text><text class="cls-3" transform="translate(787.9 418.9)">e</text><text class="cls-3" transform="translate(853.75 418.9)">c</text><text class="cls-3" transform="translate(906.26 418.9)">t</text><text class="cls-3" transform="translate(947.34 418.9)">o</text><text class="cls-3" transform="translate(1020.1 418.9)">s</text></g></g></svg>