<svg xmlns="http://www.w3.org/2000/svg" width="869.49" height="418.21" viewBox="0 0 869.49 418.21"><defs><style>.cls-1{fill:#f1ecec;}.cls-2{isolation:isolate;}.cls-3{fill:#5fcd30;}</style></defs><title>esto-es-findoo</title><g id="Capa_2" data-name="Capa 2"><g id="Capa_1-2" data-name="Capa 1"><path class="cls-1" d="M0,200.37l35.85-126H56.91l-22.32,126ZM40.12,26.57H74.71L67.2,59.1H32.61Z"/><g class="cls-2"><path d="M98.45,131.13c0,6.16,5.14,8.27,8.65,8.27,4.44,0,6.39-.86,9.75-4.45l10,5c-4.52,7.57-11.85,10.45-20.73,10.45-12.09,0-22-9.51-22-21.13s9.9-21.2,22-21.2,21.44,7.17,21.44,21.2a13.94,13.94,0,0,1-.08,1.87ZM114,123.49c-.62-4.21-3.51-6.47-7.56-6.47-4.76,0-7.41,2.81-7.64,6.47Zm3-39.75,7.09,9-18.55,10.76-4.37-6Z"/></g><g class="cls-2"><path d="M160.89,111.18l-4.52,9s-4.68-2.49-8.89-2.49c-3,0-4.29.54-4.29,2.41,0,2.11,2.81,2.73,6.24,3.82,5.3,1.64,12.16,4.6,12.16,12.79,0,11.77-10.76,13.64-18.94,13.64A23.94,23.94,0,0,1,127.21,145l5.62-9.43s5.45,4.6,9.9,4.6c2,0,4.28-.24,4.28-2.89,0-2.88-4.36-3.12-8.88-5.45-4.06-2.11-8.11-4.92-8.11-10.92,0-8.18,6.94-12.86,17.46-12.86A30.52,30.52,0,0,1,160.89,111.18Z"/></g><g class="cls-2"><path d="M166.89,94.34h13.79v14.89h8.42v10.52h-8.42v12.71c0,3.74.94,5.53,3.12,5.53a6.51,6.51,0,0,0,3.43-1.24l3.43,11.15a22.84,22.84,0,0,1-10.13,2.49c-11,0-13.64-8.19-13.64-15.28V119.75h-5.77V109.23h5.77Z"/></g><g class="cls-2"><path d="M212.64,108.06c13.25,0,23.86,8.73,23.86,21.2s-10.06,21.13-23.86,21.13c-14.42,0-24.09-8.81-24.09-21.13S199.15,108.06,212.64,108.06Zm-.08,30.56a9,9,0,0,0,9.28-9.36,9.32,9.32,0,1,0-18.63,0A8.92,8.92,0,0,0,212.56,138.62Z"/></g><g class="cls-2"><path d="M267.91,131.13c0,6.16,5.14,8.27,8.65,8.27,4.44,0,6.39-.86,9.75-4.45l10,5c-4.52,7.57-11.85,10.45-20.73,10.45-12.09,0-22-9.51-22-21.13s9.9-21.2,22-21.2S297,115.23,297,129.26a13.94,13.94,0,0,1-.08,1.87Zm15.59-7.64c-.62-4.21-3.51-6.47-7.56-6.47-4.76,0-7.41,2.81-7.64,6.47Z"/></g><g class="cls-2"><path d="M330.35,111.18l-4.52,9s-4.68-2.49-8.89-2.49c-3,0-4.29.54-4.29,2.41,0,2.11,2.81,2.73,6.24,3.82,5.3,1.64,12.16,4.6,12.16,12.79,0,11.77-10.76,13.64-18.94,13.64A23.94,23.94,0,0,1,296.67,145l5.62-9.43s5.45,4.6,9.9,4.6c1.95,0,4.28-.24,4.28-2.89,0-2.88-4.36-3.12-8.88-5.45-4.06-2.11-8.11-4.92-8.11-10.92,0-8.18,6.94-12.86,17.46-12.86A30.52,30.52,0,0,1,330.35,111.18Z"/></g><path class="cls-1" d="M687.42,418.21l18.07-78.29H791l-18.08,78.29ZM784,0h85.49l-86.7,303.15H730.7Z"/><g class="cls-2"><path class="cls-3" d="M254.9,204.22H215.26v22.5h36.62v22.62H215.26v45.4H189.48V181.59H254.9Z"/></g><g class="cls-2"><path class="cls-3" d="M286.15,294.74H260.37V181.59h25.78Z"/></g><g class="cls-2"><path class="cls-3" d="M321.53,294.74H295.75V181.59h25.78l45,70.22h.27V181.59h25.78V294.74H366.79l-45-70.22h-.28Z"/></g><g class="cls-2"><path class="cls-3" d="M434.94,181.59c31,0,57.05,23.59,57.05,56.51s-25.92,56.64-57.05,56.64H402.16V181.59Zm-3,90.11c19.06,0,32.09-14.54,32.23-33.46s-13-33.6-32.23-33.6h-4V271.7Z"/></g><g class="cls-2"><path class="cls-3" d="M548.48,179.54c31.4,0,56.91,25.51,56.91,58.56S581,296.8,548.48,296.8c-33.47,0-57.06-25.65-57.06-58.7S517.34,179.54,548.48,179.54Zm0,92.3c20.57,0,29.07-16.87,29.07-33.74s-9-33.74-29.07-33.74-29.22,16.87-29.22,33.74S527.36,271.84,548.48,271.84Z"/></g><g class="cls-2"><path class="cls-3" d="M661.88,179.54c31.4,0,56.91,25.51,56.91,58.56s-24.41,58.7-56.91,58.7c-33.47,0-57.06-25.65-57.06-58.7S630.75,179.54,661.88,179.54Zm0,92.3C682.45,271.84,691,255,691,238.1s-9.05-33.74-29.07-33.74-29.21,16.87-29.21,33.74S640.76,271.84,661.88,271.84Z"/></g></g></g></svg>