<svg xmlns="http://www.w3.org/2000/svg" width="1615.11" height="419.8" viewBox="0 0 1615.11 419.8"><defs><style>.cls-1{fill:#edebeb;}.cls-2{fill:#737373;}.cls-3{fill:#5fcd30;}.cls-4{fill:#5c5e63;}</style></defs><title>findoo-solucion-vender-mas-creciendo</title><g id="Capa_2" data-name="Capa 2"><g id="Capa_1-2" data-name="Capa 1"><path class="cls-1" d="M160.52,63.53a8.86,8.86,0,0,0,8.84-8.86h0a8.85,8.85,0,1,0-17.7,0h0A8.86,8.86,0,0,0,160.52,63.53Z"/><path class="cls-1" d="M193.35,57.13A3.2,3.2,0,0,0,189.87,60h6.94A3.24,3.24,0,0,0,193.35,57.13Z"/><path class="cls-1" d="M250.59,163.35c7.13,0,12.3-5.17,12.3-12.4a12.35,12.35,0,1,0-24.7,0C238.19,158.18,243.15,163.35,250.59,163.35Z"/><path class="cls-1" d="M313.83,134.72c-6.3,0-9.81,3.72-10.12,8.58h20.15C323,137.72,319.21,134.72,313.83,134.72Z"/><path class="cls-1" d="M285,66c2.8,0,3.58-2.08,3.58-4s-.8-4-3.58-4-3.62,2.08-3.62,4S282.15,66,285,66Z"/><path class="cls-1" d="M242.42,65.38a3.69,3.69,0,0,0,3.87-3.51A3.78,3.78,0,0,0,242.6,58a3.69,3.69,0,0,0-.18,7.38Z"/><path class="cls-1" d="M105.48,54.67c0-5-3.45-8.9-8.59-8.9h-2V63.62h2C102,63.61,105.48,59.67,105.48,54.67Z"/><path class="cls-1" d="M113.87,231.61c-6.3,0-9.81,3.72-10.12,8.58H123.9C123.07,234.61,119.25,231.61,113.87,231.61Z"/><path class="cls-1" d="M128.14,134.72c-6.3,0-9.81,3.72-10.12,8.58h20.15C137.34,137.72,133.52,134.72,128.14,134.72Z"/><path class="cls-1" d="M173.19,235.33a12.15,12.15,0,0,0-12.4,12.51c0,7.23,5,12.4,12.4,12.4,7.13,0,12.3-5.17,12.3-12.4A12.12,12.12,0,0,0,173.19,235.33Z"/><path class="cls-1" d="M165.34,328.5c-6.3,0-9.81,3.72-10.12,8.58h20.15C174.54,331.5,170.72,328.5,165.34,328.5Z"/><path class="cls-1" d="M354.73,66v0c2.81,0,3.58-2.13,3.58-4s-.81-4-3.58-4-3.62,2.08-3.62,4S351.89,66,354.73,66Z"/><path class="cls-1" d="M128.91,63.82a8.86,8.86,0,0,0,8.56-9.15q0-.3,0-.6a8.86,8.86,0,0,0-17.71.6q0,.3,0,.6A8.85,8.85,0,0,0,128.91,63.82Z"/><path class="cls-1" d="M737.51,260.24c7.13,0,12.3-5.17,12.3-12.4a12.35,12.35,0,1,0-24.7,0C725.11,255.07,730.07,260.24,737.51,260.24Z"/><path class="cls-1" d="M615.06,231.61c-6.3,0-9.81,3.72-10.12,8.58h20.15C624.26,234.61,620.44,231.61,615.06,231.61Z"/><path class="cls-1" d="M611.47,65.73a3.69,3.69,0,1,0-3.69-3.86A3.79,3.79,0,0,0,611.47,65.73Z"/><path class="cls-1" d="M662.07,65.38a3.69,3.69,0,0,0,3.87-3.51A3.78,3.78,0,0,0,662.25,58a3.69,3.69,0,0,0-.18,7.38Z"/><path class="cls-1" d="M630.6,65.38a3.69,3.69,0,0,0,3.87-3.51A3.8,3.8,0,0,0,630.79,58a3.69,3.69,0,0,0-.19,7.38Z"/><path class="cls-1" d="M321.27,328.5c-6.3,0-9.81,3.72-10.12,8.58H331.3C330.47,331.5,326.65,328.5,321.27,328.5Z"/><path class="cls-1" d="M802.93,260.24c7.13,0,12.3-5.17,12.3-12.4a12.35,12.35,0,1,0-24.7,0C790.53,255.07,795.49,260.24,802.93,260.24Z"/><path class="cls-1" d="M436,57.13h-.08A3.2,3.2,0,0,0,432.45,60h6.95A3.24,3.24,0,0,0,436,57.13Z"/><path class="cls-1" d="M479.08,57.12A3.2,3.2,0,0,0,475.6,60h6.92A3.24,3.24,0,0,0,479.08,57.12Z"/><path class="cls-1" d="M398.13,65.38A3.7,3.7,0,0,0,402,61.87,3.79,3.79,0,0,0,398.35,58a3.69,3.69,0,0,0-.22,7.38Z"/><path class="cls-1" d="M515,57.13A3.2,3.2,0,0,0,511.54,60h6.94A3.24,3.24,0,0,0,515,57.13Z"/><path class="cls-1" d="M486.3,231.61c-6.3,0-9.81,3.72-10.12,8.58h20.15C495.5,234.61,491.68,231.61,486.3,231.61Z"/><path class="cls-1" d="M539.11,138.44A12.15,12.15,0,0,0,526.71,151c0,7.23,5,12.4,12.4,12.4,7.13,0,12.3-5.17,12.3-12.4A12.12,12.12,0,0,0,539.11,138.44Z"/><path class="cls-1" d="M567.92,65.38a3.69,3.69,0,0,0,3.87-3.51A3.78,3.78,0,0,0,568.1,58a3.69,3.69,0,0,0-.18,7.38Z"/><path class="cls-1" d="M1029.22,265.15a3.69,3.69,0,1,0,3.69,3.86h0A3.79,3.79,0,0,0,1029.22,265.15Z"/><path class="cls-1" d="M789,332.22a12.15,12.15,0,0,0-12.4,12.51c0,7.23,5,12.4,12.4,12.4,7.13,0,12.3-5.17,12.3-12.4A12.12,12.12,0,0,0,789,332.22Z"/><path class="cls-1" d="M494.88,332.22a12.15,12.15,0,0,0-12.4,12.51c0,7.23,5,12.4,12.4,12.4,7.13,0,12.3-5.17,12.3-12.4A12.12,12.12,0,0,0,494.88,332.22Z"/><path class="cls-1" d="M648.44,328.5c-6.3,0-9.81,3.72-10.12,8.58h20.15C657.64,331.5,653.82,328.5,648.44,328.5Z"/><path class="cls-1" d="M990.76,265.14a3.69,3.69,0,1,0,3.68,3.86A3.79,3.79,0,0,0,990.76,265.14Z"/><path class="cls-1" d="M0,0V419.8H1615.11V0ZM850.69,261.25l3.69,11.06,3.68-11.06h5.34l-5.9,15.48-3.37,8.78h-5.47l3.51-8.78h-.88l-5.9-15.48ZM803,219.73c17.56,0,31.62,11.57,31.62,28.11,0,16.32-13.33,28-31.62,28-19.12,0-31.93-11.68-31.93-28C771.11,231.3,785.16,219.73,803,219.73Zm-71,0c7.13,0,13,2.38,17.36,6.61V185.42h18.29v88.87H749.6v-6h-.2A23.49,23.49,0,0,1,732,275.84c-15.5,0-26.35-12.5-26.35-28S716.54,219.73,732,219.73Zm-28.72,19.63v34.93H685v-30c0-5.27-3.62-10.33-9.51-10.33-5.48,0-10.85,5.06-10.85,10.33v30H646.38v-53h18.29v5.58h.21c4.13-4.13,9.4-7.13,15.19-7.13C689.78,219.73,703.32,224.59,703.32,239.36ZM660.63,53.75A6.56,6.56,0,0,1,665.94,56V54.15h5.27V69.6h-5.27V67.73c-1.06,1.58-3.31,2.21-5.31,2.21a8.11,8.11,0,0,1,0-16.19Zm-18.43.35h5.27V56a4.89,4.89,0,0,1,4.07-2.24,4.13,4.13,0,0,1,1.58.35v4.77h-.07a2.64,2.64,0,0,0-2.11-.88c-1.94,0-3.47,2-3.47,3.87V69.6H642.2ZM615.89,261.27c5.89,0,8.47-1.14,12.92-5.89L642,262c-6,10-15.7,13.85-27.48,13.85-16,0-29.14-12.61-29.14-28s13.12-28.11,29.14-28.11S643,229.24,643,247.84a19.76,19.76,0,0,1-.1,2.48H604.42C604.42,258.48,611.24,261.27,615.89,261.27ZM620,182.85l2.14-9.47h5.2l-4.46,9.47Zm9.22-129.1a6.53,6.53,0,0,1,5.3,2.25V54.15h5.27V69.6h-5.27V67.73c-1.05,1.58-3.3,2.21-5.3,2.21a8.11,8.11,0,0,1,0-16.19Zm-26.65.35h5.26V56a6.48,6.48,0,0,1,5.31-2.24,8.11,8.11,0,0,1,0,16.19c-2,0-4.25-.63-5.31-2.21V78.38h-5.26ZM617.34,127l-6,12s-6.2-3.31-11.78-3.31c-4,0-5.68.73-5.68,3.21,0,2.79,3.72,3.61,8.27,5.06,7,2.17,16.12,6.1,16.12,17,0,15.6-14.26,18.08-25.11,18.08a31.7,31.7,0,0,1-20.46-7.13l7.44-12.5s7.23,6.09,13.12,6.09c2.58,0,5.68-.31,5.68-3.82,0-3.82-5.78-4.13-11.78-7.23-5.37-2.79-10.74-6.51-10.74-14.47,0-10.85,9.19-17,23.14-17A40.55,40.55,0,0,1,617.34,127Zm-44.75,83.25a10.85,10.85,0,1,1,10.85-10.85A10.85,10.85,0,0,1,572.59,210.22Zm8.89,11.06v53H563.19v-53Zm-35.65,39.58a16.13,16.13,0,0,0,8.89-2.48l6.2,12.71s-6,4.75-17.78,4.75c-14.5,0-27.88-11.15-29.22-25.52H475.66c0,8.16,6.82,10.95,11.47,10.95,5.89,0,8.47-1.14,12.92-5.89L513.27,262c-6,10-15.7,13.85-27.48,13.85-16,0-29.14-12.61-29.14-28s13.12-28.11,29.14-28.11c15.08,0,26.82,8.33,28.26,24.64,1.93-13.91,14.89-24.64,29.09-24.64,11.78,0,17.78,5,17.78,5l-6.2,12.5a16.13,16.13,0,0,0-8.89-2.48,13.08,13.08,0,0,0,0,26.15Zm5.37-83.46v-6H551A23.49,23.49,0,0,1,533.64,179c-15.5,0-26.35-12.5-26.35-28s10.85-28.11,26.35-28.11c7.13,0,13,2.38,17.36,6.61v-5.06h18.29v53Zm3.93-86.8,9.4,11.88-24.59,14.26-5.79-7.95Zm-13.86-21V54.11h5.27V69.6Zm37.51-10.92c0-3.16,2.42-4.92,7.55-4.92,4.07,0,7.06,1.51,7.51,5.06h-5.16A2.22,2.22,0,0,0,586.19,57c-1,0-2.11.52-2.11,1.43,0,2.18,10,0,10,6.5,0,3.66-3,5-7.62,5s-8.08-1.72-8.36-6.11h5.23c0,2.32,2,2.46,3.23,2.46s2.22-.46,2.22-1.3C588.78,61.68,578.78,64.29,578.78,58.68Zm-12.29-4.93a6.53,6.53,0,0,1,5.3,2.25V54.15h5.27V69.6h-5.27V67.73c-1,1.58-3.3,2.21-5.3,2.21a8.11,8.11,0,0,1,0-16.19Zm-18.72.36h2.81v-5.9h5.23v5.9h2.81v4.07h-2.81V69.6h-5.23V58.18h-2.81Zm-6.95-5.34a3.09,3.09,0,1,1,3.09,3.13,3.06,3.06,0,0,1-3.09-3.13Zm-16.44,9.91c0-3.16,2.42-4.92,7.55-4.92,4.07,0,7.06,1.51,7.52,5.06h-5.11A2.22,2.22,0,0,0,531.85,57c-1,0-2.11.52-2.11,1.43,0,2.18,10,0,10,6.5,0,3.66-3,5-7.62,5s-8.08-1.72-8.36-6.11H529c0,2.32,2,2.46,3.17,2.46s2.21-.46,2.21-1.3C534.38,61.68,524.38,64.29,524.38,58.68Zm-9.45-4.92c4.71,0,8.61,2.76,8.61,7.76a8,8,0,0,0,0,1h-12a3.53,3.53,0,0,0,3.34,3.69,2.8,2.8,0,0,0,3-2.35h5.38C522.34,68,519,70,514.93,70c-5.31,0-9-3.24-9-8.08S509.74,53.76,514.93,53.76Zm-18,0c5,0,8.22,3,8.47,6.57h-5.24c-.05-1.46-1.22-2.46-3.05-2.46-2.39,0-3.16,2.33-3.16,4.08s.7,4,3.16,4c1.61,0,2.88-.71,3.05-2.11h5.13c-.52,3.44-3.65,6.11-8.36,6.11-5.37,0-8.6-3.66-8.6-8.08S491.85,53.76,496.88,53.76Zm-17.91,0c4.71,0,8.61,2.76,8.61,7.76,0,.32,0,.67,0,1h-12a3.53,3.53,0,0,0,3.34,3.69A2.8,2.8,0,0,0,482,63.89h5.38C486.41,68,483.11,70,479,70c-5.36,0-9-3.29-9-8.13S473.78,53.76,479,53.76Zm-25.91.34h5.27V56a5.93,5.93,0,0,1,4.74-2.24c4.14,0,5.83,2.84,5.83,7.06V69.6h-5.27V60.82c0-1.81-.69-2.81-2.35-2.81s-2.95,1.75-2.95,3.86V69.6h-5.27Zm13.61,78.45c5.58-6.71,11.78-9.71,17.57-9.71,9.71,0,20.67,4.86,20.67,19.63V177.4H486.62v-30c0-5.27-2.79-9.92-9.3-9.92-5.79,0-8.27,4.24-8.48,8.27V177.4H450.55v-30c0-5.27-2.79-9.92-9.3-9.92-6.09,0-8.47,4.65-8.47,8.89v31H414.49v-53h18.29V130H433c4.13-4.13,9.4-7.13,15.19-7.13C455.2,122.84,463,125.42,466.67,132.55ZM435.85,53.76c4.71,0,8.6,2.76,8.6,7.76,0,.32,0,.67,0,1h-12a3.51,3.51,0,0,0,3.33,3.69,2.81,2.81,0,0,0,3.06-2.35h5.37C443.26,68,440,70,435.85,70c-5.31,0-9-3.24-9-8.08S430.65,53.76,435.85,53.76Zm-21.21.35v8.82c0,1.8.66,2.8,2.36,2.8s3-1.79,3-3.86V54.11h5.27V69.6H420V67.7a5.93,5.93,0,0,1-4.76,2.23c-4.15,0-5.83-2.83-5.83-7l0-8.82Zm-17.94-.36A6.53,6.53,0,0,1,402,56V54.11h5.3l0,24.27H402V67.73c-1.05,1.58-3.3,2.21-5.3,2.21a8.11,8.11,0,0,1,0-16.19Zm-31.58.35h5.27V56a6,6,0,0,1,4.78-2.24c4.15,0,5.83,2.84,5.83,7.06V69.6h-5.31V60.82c0-1.81-.7-2.81-2.35-2.81s-2.95,1.75-2.95,3.86V69.6h-5.27Zm-8.32-9.23h4.5l-4.71,6.29h-3.93Zm-2.07,8.92c4.81,0,8.81,3.17,8.81,8.08s-3.86,8-8.81,8-8.85-3.16-8.85-8S349.88,53.79,354.73,53.79Zm-9.58,70.6h18.29V132h.21s5.78-9.2,16.22-9.2a21.93,21.93,0,0,1,11.57,3.31l-7.64,15.5a15.42,15.42,0,0,0-9.51-2.9c-9.51,0-10.85,9.41-10.85,10.75v27.9H345.15Zm-62.53,85.83a10.85,10.85,0,1,1,10.85-10.85A10.85,10.85,0,0,1,282.62,210.22Zm8.89,11.06v53H273.22v-53ZM284.18,151c0-15.5,13.12-28.11,29.14-28.11s28.41,9.51,28.41,28.11a19.76,19.76,0,0,1-.1,2.48H303.19c0,8.16,6.82,10.95,11.47,10.95,5.89,0,8.47-1.14,12.92-5.89l13.22,6.61c-6,10-15.7,13.85-27.48,13.85C297.3,179,284.18,166.34,284.18,151ZM338.86,69.6V54.11h5.26V69.6ZM299.27,221.28h18.29v7.65h.21s5.78-9.2,16.22-9.2A21.93,21.93,0,0,1,345.56,223l-7.64,15.5a15.42,15.42,0,0,0-9.51-2.9c-9.51,0-10.85,9.41-10.85,10.75v27.9H299.27ZM341.49,45.72a3.09,3.09,0,1,1-3.09,3.09A3.09,3.09,0,0,1,341.49,45.72Zm-12.66,8c5,0,8.22,3,8.46,6.57h-5.23c-.06-1.46-1.23-2.46-3.06-2.46-2.43,0-3.22,2.38-3.22,4.13s.71,4,3.16,4c1.62,0,2.88-.71,3.06-2.11h5.14c-.53,3.44-3.66,6.11-8.36,6.11-5.37,0-8.56-3.71-8.56-8.13S323.81,53.76,328.83,53.76Zm-26.07.35H308v8.82c0,1.8.71,2.8,2.36,2.8s2.95-1.79,2.95-3.86V54.11h5.26V69.58h-5.26v-1.9a5.93,5.93,0,0,1-4.74,2.25c-4.15,0-5.83-2.83-5.83-7Zm-7.38-10.85h5.27V69.6h-5.27ZM285,53.79c4.8,0,8.81,3.17,8.81,8.08s-3.86,8-8.81,8-8.85-3.16-8.85-8S280.15,53.79,285,53.79Zm-24.7,4.89c0-3.16,2.42-4.92,7.55-4.92,4.07,0,7.06,1.51,7.52,5.06H270.2A2.22,2.22,0,0,0,267.71,57c-1,0-2.11.52-2.11,1.43,0,2.18,10,0,10,6.5,0,3.66-3,5-7.62,5s-8.08-1.72-8.36-6.11h5.23c0,2.32,2,2.46,3.24,2.46s2.21-.46,2.21-1.3C270.3,61.68,260.3,64.29,260.3,58.68ZM241,53.75a6.53,6.53,0,0,1,5.3,2.25V54.15h5.27V69.6H246.3V67.79C245.24,69.37,243,70,241,70a8.13,8.13,0,0,1,0-16.25ZM226.45,43.26h5.27V69.6h-5.27Zm18.67,79.58c7.13,0,13,2.38,17.36,6.61V88.53h18.29V177.4H262.68v-6h-.2A23.49,23.49,0,0,1,245.12,179c-15.5,0-26.35-12.5-26.35-28S229.62,122.84,245.12,122.84ZM238.29,261c7.65,0,10.44-4,10.44-14.47V221.28H267v29.66c0,17.77-8.89,24.9-28.73,24.9s-28.72-7.13-28.72-24.9V221.28h18.29v25.21C227.86,256.93,230.65,261,238.29,261ZM202.71,58.68c0-3.16,2.42-4.92,7.55-4.92,4.07,0,7.06,1.51,7.51,5.06l-5.17,0a2.22,2.22,0,0,0-2.49-1.79c-1,0-2.11.52-2.11,1.43,0,2.18,10,0,10,6.5,0,3.61-3,5-7.64,5s-8.08-1.72-8.36-6.11h5.26c0,2.32,2,2.46,3.23,2.46s2.22-.46,2.22-1.3C212.71,61.68,202.71,64.29,202.71,58.68Zm-9.45-4.92c4.71,0,8.61,2.76,8.61,7.76,0,.32,0,.67-.05,1h-12a3.52,3.52,0,0,0,3.34,3.69,2.8,2.8,0,0,0,3.05-2.35h5.37C200.67,68,197.37,70,193.26,70c-5.32,0-9-3.24-9-8.08S188.06,53.76,193.26,53.76ZM178,130c4.13-4.13,9.4-7.13,15.19-7.13,9.71,0,23.25,4.86,23.25,19.63V177.4H198.1v-30c0-5.27-3.62-10.33-9.51-10.33-5.48,0-10.85,5.06-10.85,10.33v30H159.45v-53h18.29V130ZM160.5,39.17A15.5,15.5,0,1,1,145,54.67,15.5,15.5,0,0,1,160.5,39.17ZM129,164.38c5.89,0,8.47-1.14,12.92-5.89l13.22,6.61c-6,10-15.7,13.85-27.48,13.85-16,0-29.14-12.61-29.14-28s13.12-28.11,29.14-28.11S156,132.35,156,151a19.76,19.76,0,0,1-.1,2.48H117.5C117.5,161.59,124.32,164.38,129,164.38Zm-.36-125.21a15.5,15.5,0,1,1-15.5,15.5A15.5,15.5,0,0,1,128.61,39.17Zm-40.27.45,8.94.05h.58a14.74,14.74,0,0,1,14.42,15v.57a14.72,14.72,0,0,1-15,14.43H88.34Zm-26.73,0h6.64L78.61,58.39V39.62h6.63v30.1H78.61L68.25,51V69.72H61.61Zm-9.74,0h6.64v30.1H51.87Zm-20.09,0H49.22v6H38.42v6H48.77v6H38.42V69.72H31.78Zm24,84.77,12.92,28.83,12.92-28.83h21.7l-28.42,53H62.52l-28.42-53ZM53,251.25c-5.37-2.79-10.74-6.51-10.74-14.47,0-10.85,9.19-17.05,23.14-17.05a40.55,40.55,0,0,1,17.78,4.13l-6,12s-6.2-3.31-11.78-3.31c-4,0-5.68.73-5.68,3.21,0,2.79,3.72,3.61,8.27,5.06,7,2.17,16.12,6.1,16.12,16.95,0,15.6-14.26,18.08-25.11,18.08a31.7,31.7,0,0,1-20.46-7.13L46,256.21s7.23,6.09,13.12,6.09c2.58,0,5.68-.31,5.68-3.82C64.79,254.66,59,254.35,53,251.25Zm17.57,106.5a16.13,16.13,0,0,0,8.89-2.48L85.67,368s-6,4.75-17.78,4.75c-15.29,0-29.34-12.4-29.34-27.9s14-28.21,29.34-28.21c11.78,0,17.78,5,17.78,5l-6.2,12.5a16.13,16.13,0,0,0-8.89-2.48,13.08,13.08,0,0,0,0,26.15Zm35.65,13.43H87.94V282.31h18.29Zm25.52,0H113.46v-53h18.29Zm-8.89-64.07a10.85,10.85,0,1,1,10.85-10.85A10.85,10.85,0,0,1,122.86,307.11Zm70.28,40.1H154.7c0,8.16,6.82,11,11.47,11,5.89,0,8.47-1.14,12.92-5.89l13.22,6.61c-6,10-15.7,13.85-27.48,13.85-16,0-29.14-12.61-29.14-28s13.12-28.11,29.14-28.11,28.41,9.51,28.41,28.11A19.76,19.76,0,0,1,193.14,347.21Zm-21-44.5c-11.06,0-23.77-2.48-29.35-15.4l15-7.34c2,3.21,6.4,6.82,14.36,6.82,5.06,0,12.92-3,12.92-12.4v-3.92c-3.93,4.34-10.13,5.37-17.36,5.37-14.67,0-25.16-11.19-26.25-25.52H103.23c0,8.16,6.82,10.95,11.47,10.95,5.89,0,8.47-1.14,12.92-5.89L140.84,262c-6,10-15.7,13.85-27.48,13.85-16,0-29.14-12.61-29.14-28s13.12-28.11,29.14-28.11c15,0,26.67,8.23,28.23,24.35,1.6-13.73,11.9-24.35,26.13-24.35,7,0,12.71,2.27,17.05,6.3h.31v-4.75h18.29v54.46C203.37,293.51,190.24,302.71,172.16,302.71Zm81.43,68.47H235.3v-30c0-5.27-3.62-10.33-9.51-10.33-5.48,0-10.85,5.06-10.85,10.33v30H196.65v-53h18.29v5.58h.21c4.13-4.13,9.4-7.13,15.19-7.13,9.71,0,23.25,4.86,23.25,19.63ZM281,372.73c-14.57,0-18.08-10.85-18.08-20.25V332.12h-7.65V318.17h7.65V298.43h18.29v19.74h11.16v13.95H281.18V349c0,5,1.24,7.34,4.13,7.34a8.66,8.66,0,0,0,4.55-1.65l4.55,14.77A30.25,30.25,0,0,1,281,372.73Zm39.79,0c-16,0-29.14-12.61-29.14-28s13.12-28.11,29.14-28.11,28.41,9.51,28.41,28.11a19.76,19.76,0,0,1-.1,2.48H310.63c0,8.16,6.82,11,11.47,11,5.89,0,8.47-1.14,12.92-5.89l13.22,6.61C342.25,368.91,332.54,372.73,320.76,372.73Zm48.47,0a31.7,31.7,0,0,1-20.46-7.13l7.44-12.5s7.23,6.09,13.12,6.09c2.58,0,5.68-.31,5.68-3.82,0-3.82-5.78-4.13-11.78-7.23-5.37-2.79-10.74-6.51-10.74-14.47,0-10.85,9.19-17.05,23.14-17.05a40.55,40.55,0,0,1,17.78,4.13l-6,12s-6.2-3.31-11.78-3.31c-4,0-5.68.73-5.68,3.21,0,2.79,3.72,3.61,8.27,5.06,7,2.17,16.12,6.1,16.12,16.95C394.34,370.25,380.08,372.73,369.23,372.73Zm27.58-111.87a16.13,16.13,0,0,0,8.89-2.48l6.2,12.71s-6,4.75-17.78,4.75c-15.29,0-29.34-12.4-29.34-27.9s14-28.21,29.34-28.21c11.78,0,17.78,5,17.78,5l-6.2,12.5a16.13,16.13,0,0,0-8.89-2.48,13.08,13.08,0,0,0,0,26.15Zm17.37-39.58h18.29v7.65h.21s5.78-9.2,16.22-9.2A21.93,21.93,0,0,1,460.47,223l-7.64,15.5a15.42,15.42,0,0,0-9.51-2.9c-9.51,0-10.85,9.41-10.85,10.75v27.9H414.18Zm32.65,151.45c-15.29,0-29.34-12.4-29.34-27.9s13.95-28.21,29.34-28.21c11.78,0,17.78,5,17.78,5l-6.2,12.5a16.13,16.13,0,0,0-8.89-2.48,13.08,13.08,0,0,0,0,26.15,16.13,16.13,0,0,0,8.89-2.48l6.2,12.71S458.61,372.73,446.83,372.73Zm48.16,0c-19.12,0-31.93-11.68-31.93-28,0-16.54,14.05-28.11,31.93-28.11,17.56,0,31.62,11.57,31.62,28.11C526.61,361.05,513.28,372.73,495,372.73Zm110.46-40.2c-9.51,0-10.85,9.41-10.85,10.75v27.9H576.31V319.93l-7.64,15.5a15.42,15.42,0,0,0-9.51-2.9c-9.51,0-10.85,9.41-10.85,10.75v27.9H530v-53h18.29v7.65h.21s5.78-9.2,16.22-9.2a22,22,0,0,1,11.57,3.3v-1.75H594.6v7.65h.21s5.78-9.2,16.22-9.2a21.93,21.93,0,0,1,11.57,3.31L615,335.43A15.42,15.42,0,0,0,605.45,332.53Zm141.06,40.2c-14.57,0-18.08-10.85-18.08-20.25V332.12h-7.65v-6l-3.93,7.94A16.13,16.13,0,0,0,708,331.6a13.08,13.08,0,0,0,0,26.15,16.13,16.13,0,0,0,8.89-2.48l6.2,12.71s-6,4.75-17.78,4.75c-14.5,0-27.88-11.15-29.22-25.52H637.8c0,8.16,6.82,11,11.47,11,5.89,0,8.47-1.14,12.92-5.89l13.22,6.61c-6,10-15.7,13.85-27.48,13.85-16,0-29.14-12.61-29.14-28s13.12-28.11,29.14-28.11c15.07,0,26.8,8.31,28.26,24.6,1.94-13.89,14.89-24.6,29.08-24.6a32.53,32.53,0,0,1,15.51,3.53v-2h7.65V298.43h18.29v19.74h11.16v13.95H746.72V349c0,5,1.24,7.34,4.13,7.34a8.66,8.66,0,0,0,4.55-1.65L760,369.42A30.25,30.25,0,0,1,746.51,372.73Zm42.58,0c-19.12,0-31.93-11.68-31.93-28,0-16.54,14.05-28.11,31.93-28.11,17.56,0,31.62,11.57,31.62,28.11C820.71,361.05,807.38,372.73,789.09,372.73Zm51.67,0a31.7,31.7,0,0,1-20.46-7.13l7.44-12.5s7.23,6.09,13.12,6.09c2.58,0,5.68-.31,5.68-3.82,0-3.82-5.78-4.13-11.78-7.23-5.37-2.79-10.74-6.51-10.74-14.47,0-10.85,9.19-17.05,23.14-17.05a40.55,40.55,0,0,1,17.78,4.13l-6,12s-6.2-3.31-11.78-3.31c-4,0-5.68.73-5.68,3.21,0,2.79,3.72,3.61,8.27,5.06,7,2.17,16.12,6.1,16.12,16.95C865.87,370.25,851.61,372.73,840.76,372.73Zm46.36-103.09h-12a3.51,3.51,0,0,0,3.33,3.69,2.81,2.81,0,0,0,3.06-2.35h5.37c-.92,4.1-4.22,6.1-8.32,6.1-5.32,0-9-3.23-9-8.07s3.8-8.11,9-8.11c4.7,0,8.6,2.76,8.6,7.76C887.16,269,887.12,269.33,887.12,269.64Zm12.23,7.08V268c0-1.81-.65-2.81-2.35-2.81s-3,1.76-3,3.86v7.77h-5.26V261.29H894v1.9a5.93,5.93,0,0,1,4.74-2.25c4.14,0,5.82,2.85,5.82,7.06l.05,8.72Zm15-3.65c1.62,0,2.88-.7,3.05-2.1h5.13c-.53,3.44-3.65,6.1-8.35,6.1-5.37,0-8.6-3.65-8.6-8.07s3.44-8.11,8.6-8.11c5,0,8.21,3,8.45,6.57h-5.23c-.05-1.51-1.22-2.46-3.05-2.46-2.39,0-3.16,2.31-3.16,4.07S911.93,273.07,914.39,273.07ZM932.08,277c-5,0-8.85-3.16-8.85-8s4-8.07,8.85-8.07,8.81,3.16,8.81,8.07S937,277,932.08,277Zm26.22-.29H953V268c0-1.81-.7-2.81-2.35-2.81s-2.95,1.76-2.95,3.86v7.77h-5.26V261.29h5.26v1.9a5.93,5.93,0,0,1,4.74-2.25c4.14,0,5.83,2.85,5.83,7.06Zm11.37-11.39h-2.81v11.4h-5.23v-11.4h-2.81v-4.08h2.81v-5.89h5.23v5.89h2.81ZM976,269v7.73h-5.28V261.25H976v1.9a4.91,4.91,0,0,1,4.08-2.25,4.08,4.08,0,0,1,1.57.35V266h-.07a2.62,2.62,0,0,0-2.1-.88A3.82,3.82,0,0,0,976,269Zm23.71,7.73h-5.27v-1.86c-1.05,1.58-3.3,2.21-5.3,2.21a8.1,8.1,0,0,1,0-16.18,6.5,6.5,0,0,1,5.3,2.25v-1.86h5.27Zm13.37-10.7H1013a2.64,2.64,0,0,0-2.11-.88c-2,0-3.47,2-3.47,3.85v7.73h-5.27V261.25h5.27v1.9a4.9,4.9,0,0,1,4.07-2.25,4.13,4.13,0,0,1,1.58.35Zm25.09,10.7h-5.26v-1.86c-1.05,1.58-3.3,2.21-5.3,2.21a8.1,8.1,0,0,1,0-16.18,6.53,6.53,0,0,1,5.3,2.25v-1.86h5.26Zm14.74,0h-5.26V250.41h5.26Zm10.43.28c-4.95,0-8.85-3.16-8.85-8s4-8.07,8.85-8.07,8.81,3.16,8.81,8.07S1068.29,277,1063.34,277Zm17.29.11c-4.59,0-8.07-1.72-8.35-6.1h5.23c0,2.31,2,2.45,3.23,2.45s2.21-.45,2.21-1.3c0-3.26-10-.7-10-6.31,0-3.16,2.42-4.92,7.54-4.92,4.07,0,7.06,1.51,7.51,5.06l-5.16,0a2.22,2.22,0,0,0-2.49-1.79c-1,0-2.1.52-2.1,1.44,0,2.17,10,0,10,6.49C1088.25,275.79,1085.22,277.12,1080.63,277.12Z"/><path class="cls-1" d="M878.63,264.27h0a3.17,3.17,0,0,0-3.45,2.88h6.91A3.24,3.24,0,0,0,878.63,264.27Z"/><path class="cls-1" d="M1063.34,265.08c-2.78,0-3.62,2.07-3.62,4s.77,4,3.62,4h0c2.8,0,3.58-2.08,3.58-4S1066.12,265.08,1063.34,265.08Z"/><path class="cls-1" d="M932.08,265.08c-2.77,0-3.62,2.07-3.62,4s.78,4,3.62,4h0c2.81,0,3.58-2.08,3.58-4S934.85,265.08,932.08,265.08Z"/><path class="cls-2" d="M193.26,70c4.11,0,7.41-2,8.32-6.11h-5.37a2.8,2.8,0,0,1-3.05,2.35,3.52,3.52,0,0,1-3.34-3.69h12c0-.31.05-.66.05-1,0-5-3.9-7.76-8.61-7.76-5.2,0-9,3.27-9,8.11S187.94,70,193.26,70Zm.09-12.82A3.24,3.24,0,0,1,196.81,60h-6.94A3.2,3.2,0,0,1,193.35,57.13Z"/><path class="cls-2" d="M210.49,66.3c-1.22,0-3.23-.14-3.23-2.46H202c.28,4.39,3.76,6.11,8.36,6.11S218,68.61,218,65c0-6.53-10-4.32-10-6.5,0-.91,1.09-1.43,2.11-1.43a2.22,2.22,0,0,1,2.49,1.79l5.17,0c-.45-3.55-3.44-5.06-7.51-5.06-5.13,0-7.55,1.76-7.55,4.92,0,5.61,10,3,10,6.32C212.71,65.84,211.71,66.3,210.49,66.3Z"/><rect class="cls-2" x="226.45" y="43.26" width="5.27" height="26.34"/><path class="cls-2" d="M241,70c2,0,4.24-.63,5.3-2.21V69.6h5.27V54.15h-5.27V56a6.53,6.53,0,0,0-5.3-2.25A8.13,8.13,0,0,0,241,70Zm1.6-12a3.78,3.78,0,0,1,3.69,3.87A3.69,3.69,0,1,1,242.6,58Z"/><path class="cls-2" d="M268.09,66.3c-1.21,0-3.24-.14-3.24-2.46h-5.23C259.9,68.23,263.38,70,268,70s7.62-1.34,7.62-5c0-6.53-10-4.32-10-6.5,0-.91,1.09-1.43,2.11-1.43a2.22,2.22,0,0,1,2.49,1.79h5.17c-.46-3.55-3.45-5.06-7.52-5.06-5.13,0-7.55,1.76-7.55,4.92,0,5.61,10,3,10,6.32C270.3,65.84,269.3,66.3,268.09,66.3Z"/><path class="cls-2" d="M285,69.87c4.95,0,8.81-3.09,8.81-8s-4-8.08-8.81-8.08-8.85,3.24-8.85,8.08S280.05,69.87,285,69.87ZM285,58c2.78,0,3.58,2.08,3.58,4s-.78,4-3.58,4-3.62-2.08-3.62-4S282.22,58,285,58Z"/><rect class="cls-2" x="295.38" y="43.26" width="5.27" height="26.34"/><path class="cls-2" d="M308.59,69.93a5.93,5.93,0,0,0,4.74-2.25v1.9h5.26V54.11h-5.26v7.76c0,2.07-1.3,3.86-2.95,3.86s-2.36-1-2.36-2.8V54.11h-5.26v8.82C302.76,67.1,304.44,69.93,308.59,69.93Z"/><path class="cls-2" d="M328.78,70c4.7,0,7.83-2.67,8.36-6.11H332c-.18,1.4-1.44,2.11-3.06,2.11-2.45,0-3.16-2.25-3.16-4s.79-4.13,3.22-4.13c1.83,0,3,1,3.06,2.46h5.23c-.24-3.59-3.44-6.57-8.46-6.57s-8.61,3.69-8.61,8.11S323.41,70,328.78,70Z"/><rect class="cls-2" x="338.86" y="54.11" width="5.26" height="15.49"/><path class="cls-2" d="M341.49,51.9a3.09,3.09,0,1,0-3.09-3.09A3.09,3.09,0,0,0,341.49,51.9Z"/><path class="cls-2" d="M354.73,69.87c4.95,0,8.81-3.09,8.81-8s-4-8.08-8.81-8.08-8.85,3.24-8.85,8.08S349.78,69.87,354.73,69.87Zm0-11.92c2.77,0,3.58,2.08,3.58,4s-.77,4-3.58,4v0c-2.84,0-3.62-2.08-3.62-4S352,58,354.73,58Z"/><polygon class="cls-2" points="361.3 44.87 356.8 44.87 352.66 51.16 356.59 51.16 361.3 44.87"/><path class="cls-2" d="M370.39,61.87c0-2.11,1.3-3.86,2.95-3.86s2.35,1,2.35,2.81V69.6H381V60.82c0-4.22-1.68-7.06-5.83-7.06A6,6,0,0,0,370.39,56V54.1h-5.27V69.6h5.27Z"/><path class="cls-2" d="M396.7,69.94c2,0,4.25-.63,5.3-2.21V78.38h5.27l0-24.27H402V56a6.53,6.53,0,0,0-5.3-2.25,8.11,8.11,0,0,0,0,16.19ZM398.35,58A3.79,3.79,0,0,1,402,61.87,3.69,3.69,0,1,1,398.35,58Z"/><path class="cls-2" d="M415.24,69.93A5.93,5.93,0,0,0,420,67.7v1.9h5.27V54.11H420v7.76c0,2.07-1.3,3.86-3,3.86s-2.36-1-2.36-2.8V54.11h-5.26l0,8.82C409.41,67.1,411.09,69.93,415.24,69.93Z"/><path class="cls-2" d="M435.85,70c4.11,0,7.41-2,8.32-6.11H438.8a2.81,2.81,0,0,1-3.06,2.35,3.51,3.51,0,0,1-3.33-3.69h12c0-.31,0-.66,0-1,0-5-3.89-7.76-8.6-7.76-5.2,0-9,3.27-9,8.11S430.54,70,435.85,70Zm.07-12.83H436A3.24,3.24,0,0,1,439.4,60h-6.95A3.2,3.2,0,0,1,435.92,57.12Z"/><path class="cls-2" d="M458.33,61.87c0-2.11,1.29-3.86,2.95-3.86s2.35,1,2.35,2.81V69.6h5.27V60.82c0-4.22-1.69-7.06-5.83-7.06A5.93,5.93,0,0,0,458.33,56V54.1h-5.27V69.6h5.27Z"/><path class="cls-2" d="M479,70c4.11,0,7.41-2,8.33-6.11H482a2.8,2.8,0,0,1-3.05,2.35,3.53,3.53,0,0,1-3.34-3.69h12c0-.36,0-.71,0-1,0-5-3.9-7.76-8.61-7.76-5.19,0-9,3.27-9,8.11S473.64,70,479,70Zm.08-12.88A3.24,3.24,0,0,1,482.52,60H475.6A3.2,3.2,0,0,1,479.08,57.12Z"/><path class="cls-2" d="M496.88,70c4.71,0,7.84-2.67,8.36-6.11h-5.13c-.17,1.4-1.44,2.11-3.05,2.11-2.46,0-3.16-2.25-3.16-4s.77-4.08,3.16-4.08c1.83,0,3,1,3.05,2.46h5.24c-.25-3.59-3.44-6.57-8.47-6.57s-8.6,3.69-8.6,8.11S491.51,70,496.88,70Z"/><path class="cls-2" d="M514.93,70c4.11,0,7.41-2,8.33-6.11h-5.38a2.8,2.8,0,0,1-3,2.35,3.53,3.53,0,0,1-3.34-3.69h12a8,8,0,0,1,0-1c0-5-3.9-7.76-8.61-7.76-5.19,0-9,3.27-9,8.11S509.62,70,514.93,70ZM515,57.13A3.24,3.24,0,0,1,518.48,60h-6.94A3.2,3.2,0,0,1,515,57.13Z"/><path class="cls-2" d="M532.17,66.3c-1.21,0-3.17-.14-3.17-2.46h-5.24c.28,4.39,3.76,6.11,8.36,6.11s7.62-1.34,7.62-5c0-6.53-10-4.32-10-6.5,0-.91,1.09-1.43,2.11-1.43a2.22,2.22,0,0,1,2.49,1.79h5.11c-.46-3.55-3.45-5.06-7.52-5.06-5.13,0-7.55,1.76-7.55,4.92,0,5.61,10,3,10,6.32C534.38,65.84,533.38,66.3,532.17,66.3Z"/><path class="cls-2" d="M543.91,51.9a3.09,3.09,0,1,0-3.09-3.13v0A3.09,3.09,0,0,0,543.91,51.9Z"/><rect class="cls-2" x="541.27" y="54.11" width="5.27" height="15.49"/><polygon class="cls-2" points="550.58 69.6 555.81 69.6 555.81 58.18 558.62 58.18 558.62 54.11 555.81 54.11 555.81 48.21 550.58 48.21 550.58 54.11 547.77 54.11 547.77 58.18 550.58 58.18 550.58 69.6"/><path class="cls-2" d="M566.49,69.94c2,0,4.25-.63,5.3-2.21V69.6h5.27V54.15h-5.27V56a6.53,6.53,0,0,0-5.3-2.25,8.11,8.11,0,0,0,0,16.19ZM568.1,58a3.78,3.78,0,0,1,3.69,3.87A3.69,3.69,0,1,1,568.1,58Z"/><path class="cls-2" d="M586.56,66.3c-1.22,0-3.23-.14-3.23-2.46H578.1c.28,4.39,3.76,6.11,8.36,6.11s7.62-1.34,7.62-5c0-6.53-10-4.32-10-6.5,0-.91,1.09-1.43,2.11-1.43a2.22,2.22,0,0,1,2.49,1.79h5.16c-.45-3.55-3.44-5.06-7.51-5.06-5.13,0-7.55,1.76-7.55,4.92,0,5.61,10,3,10,6.32C588.78,65.84,587.78,66.3,586.56,66.3Z"/><path class="cls-2" d="M607.78,67.74c1.06,1.58,3.3,2.21,5.31,2.21a8.11,8.11,0,0,0,0-16.19A6.48,6.48,0,0,0,607.78,56V54.1h-5.26V78.38h5.26Zm3.86-9.39a3.69,3.69,0,0,1-.17,7.38,3.79,3.79,0,0,1-3.69-3.86A3.69,3.69,0,0,1,611.64,58.35Z"/><path class="cls-2" d="M629.17,69.94c2,0,4.25-.63,5.3-2.21V69.6h5.27V54.15h-5.27V56a6.53,6.53,0,0,0-5.3-2.25,8.11,8.11,0,0,0,0,16.19ZM630.79,58a3.8,3.8,0,0,1,3.68,3.87A3.69,3.69,0,1,1,630.79,58Z"/><path class="cls-2" d="M647.47,61.87C647.47,60,649,58,650.94,58a2.64,2.64,0,0,1,2.11.88h.07V54.11a4.13,4.13,0,0,0-1.58-.35A4.89,4.89,0,0,0,647.47,56V54.1H642.2V69.6h5.27Z"/><path class="cls-2" d="M653,62.34a8.11,8.11,0,0,0,7.6,7.6c2,0,4.25-.63,5.31-2.21V69.6h5.27V54.15h-5.27V56a6.56,6.56,0,0,0-5.31-2.25A8.11,8.11,0,0,0,653,62.34ZM662.25,58a3.78,3.78,0,0,1,3.69,3.87A3.69,3.69,0,1,1,662.25,58Z"/><polygon class="cls-3" points="74.92 177.4 103.34 124.39 81.64 124.39 68.72 153.22 55.8 124.39 34.1 124.39 62.52 177.4 74.92 177.4"/><path class="cls-3" d="M156,151c0-18.6-12.29-28.11-28.41-28.11S98.49,135.45,98.49,151s13.12,28,29.14,28c11.78,0,21.49-3.82,27.48-13.85l-13.22-6.61c-4.45,4.75-7,5.89-12.92,5.89-4.65,0-11.47-2.79-11.47-10.95h38.44A19.76,19.76,0,0,0,156,151Zm-38-7.65c.31-4.86,3.82-8.58,10.12-8.58,5.38,0,9.2,3,10,8.58Z"/><path class="cls-3" d="M159.45,124.39v53h18.29v-30c0-5.27,5.37-10.33,10.85-10.33,5.89,0,9.51,5.06,9.51,10.33v30h18.29V142.47c0-14.77-13.54-19.63-23.25-19.63-5.79,0-11.06,3-15.19,7.13h-.21v-5.58Z"/><path class="cls-3" d="M245.12,179a23.49,23.49,0,0,0,17.36-7.54h.2v6h18.09V88.53H262.48v40.92c-4.34-4.23-10.23-6.61-17.36-6.61-15.5,0-26.35,12.61-26.35,28.11S229.62,179,245.12,179Zm5.47-40.51A12.12,12.12,0,0,1,262.89,151c0,7.23-5.17,12.4-12.3,12.4-7.44,0-12.4-5.17-12.4-12.4A12.15,12.15,0,0,1,250.59,138.44Z"/><path class="cls-3" d="M340.8,165.1l-13.22-6.61c-4.45,4.75-7,5.89-12.92,5.89-4.65,0-11.47-2.79-11.47-10.95h38.44a19.76,19.76,0,0,0,.1-2.48c0-18.6-12.29-28.11-28.41-28.11S284.18,135.45,284.18,151s13.12,28,29.14,28C325.1,179,334.81,175.13,340.8,165.1Zm-27-30.38c5.38,0,9.2,3,10,8.58H303.71C304,138.44,307.53,134.72,313.83,134.72Z"/><path class="cls-3" d="M363.44,149.5c0-1.34,1.34-10.75,10.85-10.75a15.42,15.42,0,0,1,9.51,2.9l7.64-15.5a21.93,21.93,0,0,0-11.57-3.31c-10.44,0-16.22,9.2-16.22,9.2h-.21v-7.65H345.15v53h18.29Z"/><path class="cls-3" d="M432.78,130v-5.58H414.49v53h18.29v-31c0-4.24,2.38-8.89,8.47-8.89,6.51,0,9.3,4.65,9.3,9.92v30h18.29V145.78c.21-4,2.69-8.27,8.48-8.27,6.51,0,9.3,4.65,9.3,9.92v30h18.29V142.47c0-14.77-11-19.63-20.67-19.63-5.79,0-12,3-17.57,9.71-3.72-7.13-11.47-9.71-18.49-9.71-5.79,0-11.06,3-15.19,7.13Z"/><path class="cls-3" d="M569.29,124.39H551v5.06c-4.34-4.23-10.23-6.61-17.36-6.61-15.5,0-26.35,12.61-26.35,28.11s10.85,28,26.35,28A23.49,23.49,0,0,0,551,171.41h.2v6h18.09Zm-30.18,39c-7.44,0-12.4-5.17-12.4-12.4a12.35,12.35,0,1,1,24.7,0C551.41,158.18,546.24,163.35,539.11,163.35Z"/><polygon class="cls-3" points="539.94 116.74 564.53 102.48 555.13 90.6 534.15 108.79 539.94 116.74"/><path class="cls-3" d="M576.42,139.89c0,8,5.37,11.68,10.74,14.47,6,3.1,11.78,3.41,11.78,7.23,0,3.51-3.1,3.82-5.68,3.82-5.89,0-13.12-6.09-13.12-6.09l-7.44,12.5A31.7,31.7,0,0,0,593.16,179c10.85,0,25.11-2.48,25.11-18.08,0-10.85-9.1-14.78-16.12-17-4.55-1.45-8.27-2.27-8.27-5.06,0-2.48,1.65-3.21,5.68-3.21,5.58,0,11.78,3.31,11.78,3.31l6-12a40.55,40.55,0,0,0-17.78-4.13C585.61,122.84,576.42,129,576.42,139.89Z"/><path class="cls-3" d="M59.11,262.3c-5.89,0-13.12-6.09-13.12-6.09l-7.44,12.5A31.7,31.7,0,0,0,59,275.84c10.85,0,25.11-2.48,25.11-18.08C84.12,246.91,75,243,68,240.81c-4.55-1.45-8.27-2.27-8.27-5.06,0-2.48,1.65-3.21,5.68-3.21,5.58,0,11.78,3.31,11.78,3.31l6-12a40.55,40.55,0,0,0-17.78-4.13c-13.95,0-23.14,6.2-23.14,17.05,0,8,5.37,11.68,10.74,14.47,6,3.1,11.78,3.41,11.78,7.23C64.79,262,61.69,262.3,59.11,262.3Z"/><path class="cls-3" d="M203.37,221.28H185.08V226h-.31c-4.34-4-10-6.3-17.05-6.3-14.23,0-24.53,10.62-26.13,24.35C140,228,128.35,219.73,113.36,219.73c-16,0-29.14,12.61-29.14,28.11s13.12,28,29.14,28c11.78,0,21.49-3.82,27.48-13.85l-13.22-6.61c-4.45,4.75-7,5.89-12.92,5.89-4.65,0-11.47-2.79-11.47-10.95h38.24c1.09,14.33,11.58,25.52,26.25,25.52,7.23,0,13.43-1,17.36-5.37v3.92c0,9.41-7.86,12.4-12.92,12.4-8,0-12.4-3.61-14.36-6.82l-15,7.34c5.58,12.92,18.29,15.4,29.35,15.4,18.08,0,31.21-9.2,31.21-27Zm-99.62,18.91c.31-4.86,3.82-8.58,10.12-8.58,5.38,0,9.2,3,10,8.58Zm69.44,20.05c-7.44,0-12.4-5.17-12.4-12.4a12.35,12.35,0,1,1,24.7,0C185.49,255.07,180.32,260.24,173.19,260.24Z"/><path class="cls-3" d="M209.57,221.28v29.66c0,17.77,8.88,24.9,28.72,24.9S267,268.71,267,250.94V221.28H248.73v25.21c0,10.44-2.79,14.47-10.44,14.47s-10.43-4-10.43-14.47V221.28Z"/><path class="cls-3" d="M282.62,188.52a10.85,10.85,0,1,0,10.85,10.85A10.85,10.85,0,0,0,282.62,188.52Z"/><rect class="cls-3" x="273.22" y="221.28" width="18.29" height="53.01"/><path class="cls-3" d="M317.56,246.39c0-1.34,1.34-10.75,10.85-10.75a15.42,15.42,0,0,1,9.51,2.9l7.64-15.5A21.93,21.93,0,0,0,334,219.73c-10.44,0-16.22,9.2-16.22,9.2h-.21v-7.65H299.27v53h18.29Z"/><path class="cls-3" d="M396.81,234.71a16.13,16.13,0,0,1,8.89,2.48l6.2-12.5s-6-5-17.78-5c-15.39,0-29.34,12.61-29.34,28.21s14.05,27.9,29.34,27.9c11.78,0,17.78-4.75,17.78-4.75l-6.2-12.71a16.13,16.13,0,0,1-8.89,2.48,13.08,13.08,0,0,1,0-26.15Z"/><path class="cls-3" d="M432.47,246.39c0-1.34,1.34-10.75,10.85-10.75a15.42,15.42,0,0,1,9.51,2.9l7.64-15.5a21.93,21.93,0,0,0-11.57-3.31c-10.44,0-16.22,9.2-16.22,9.2h-.21v-7.65H414.18v53h18.29Z"/><path class="cls-3" d="M545.83,234.71a16.13,16.13,0,0,1,8.89,2.48l6.2-12.5s-6-5-17.78-5c-14.2,0-27.16,10.73-29.09,24.64-1.44-16.31-13.18-24.64-28.26-24.64-16,0-29.14,12.61-29.14,28.11s13.12,28,29.14,28c11.78,0,21.49-3.82,27.48-13.85l-13.22-6.61c-4.45,4.75-7,5.89-12.92,5.89-4.65,0-11.47-2.79-11.47-10.95h38.26c1.34,14.37,14.72,25.52,29.22,25.52,11.78,0,17.78-4.75,17.78-4.75l-6.2-12.71a16.13,16.13,0,0,1-8.89,2.48,13.08,13.08,0,0,1,0-26.15Zm-69.65,5.48c.31-4.86,3.82-8.58,10.12-8.58,5.38,0,9.2,3,10,8.58Z"/><path class="cls-3" d="M572.59,188.52a10.85,10.85,0,1,0,10.85,10.85A10.85,10.85,0,0,0,572.59,188.52Z"/><rect class="cls-3" x="563.19" y="221.28" width="18.29" height="53.01"/><path class="cls-3" d="M643,247.84c0-18.6-12.29-28.11-28.41-28.11s-29.14,12.61-29.14,28.11,13.12,28,29.14,28C626.33,275.84,636,272,642,262l-13.22-6.61c-4.45,4.75-7,5.89-12.92,5.89-4.65,0-11.47-2.79-11.47-10.95h38.44A19.76,19.76,0,0,0,643,247.84Zm-38-7.65c.31-4.86,3.82-8.58,10.12-8.58,5.38,0,9.2,3,10,8.58Z"/><path class="cls-3" d="M664.67,226.86v-5.58H646.38v53h18.29v-30c0-5.27,5.37-10.33,10.85-10.33,5.89,0,9.51,5.06,9.51,10.33v30h18.29V239.36c0-14.77-13.54-19.63-23.25-19.63-5.79,0-11.06,3-15.19,7.13Z"/><path class="cls-3" d="M732,275.84a23.49,23.49,0,0,0,17.36-7.54h.2v6h18.09V185.42H749.4v40.92c-4.34-4.23-10.23-6.61-17.36-6.61-15.5,0-26.35,12.61-26.35,28.11S716.54,275.84,732,275.84Zm5.47-40.51a12.12,12.12,0,0,1,12.3,12.51c0,7.23-5.17,12.4-12.3,12.4-7.44,0-12.4-5.17-12.4-12.4A12.15,12.15,0,0,1,737.51,235.33Z"/><path class="cls-3" d="M803,275.84c18.29,0,31.62-11.68,31.62-28,0-16.54-14.06-28.11-31.62-28.11-17.88,0-31.93,11.57-31.93,28.11C771.11,264.16,783.92,275.84,803,275.84Zm-.11-40.51a12.12,12.12,0,0,1,12.3,12.51c0,7.23-5.17,12.4-12.3,12.4-7.44,0-12.4-5.17-12.4-12.4A12.15,12.15,0,0,1,802.93,235.33Z"/><path class="cls-3" d="M70.58,331.6a16.13,16.13,0,0,1,8.89,2.48l6.2-12.5s-6-5-17.78-5c-15.39,0-29.34,12.61-29.34,28.21s14.05,27.9,29.34,27.9c11.78,0,17.78-4.75,17.78-4.75l-6.2-12.71a16.13,16.13,0,0,1-8.89,2.48,13.08,13.08,0,0,1,0-26.15Z"/><rect class="cls-3" x="87.94" y="282.31" width="18.29" height="88.87"/><circle class="cls-3" cx="122.86" cy="296.26" r="10.85"/><rect class="cls-3" x="113.46" y="318.17" width="18.29" height="53.01"/><path class="cls-3" d="M164.83,316.62c-16,0-29.14,12.61-29.14,28.11s13.12,28,29.14,28c11.78,0,21.49-3.82,27.48-13.85l-13.22-6.61c-4.45,4.75-7,5.89-12.92,5.89-4.65,0-11.47-2.79-11.47-11h38.44a19.76,19.76,0,0,0,.1-2.48C193.24,326.13,181,316.62,164.83,316.62Zm-9.61,20.46c.31-4.86,3.82-8.58,10.12-8.58,5.38,0,9.2,3,10,8.58Z"/><path class="cls-3" d="M230.34,316.62c-5.79,0-11.06,3-15.19,7.13h-.21v-5.58H196.65v53h18.29v-30c0-5.27,5.37-10.33,10.85-10.33,5.89,0,9.51,5.06,9.51,10.33v30h18.29V336.25C253.59,321.48,240.05,316.62,230.34,316.62Z"/><path class="cls-3" d="M285.31,356.3c-2.89,0-4.13-2.38-4.13-7.34V332.12h11.16V318.17H281.18V298.43H262.89v19.74h-7.65v13.95h7.65v20.36c0,9.4,3.51,20.25,18.08,20.25a30.25,30.25,0,0,0,13.44-3.31l-4.55-14.77A8.66,8.66,0,0,1,285.31,356.3Z"/><path class="cls-3" d="M322.1,358.16c-4.65,0-11.47-2.79-11.47-11h38.44a19.76,19.76,0,0,0,.1-2.48c0-18.6-12.29-28.11-28.41-28.11s-29.14,12.61-29.14,28.11,13.12,28,29.14,28c11.78,0,21.49-3.82,27.48-13.85L335,352.27C330.57,357,328,358.16,322.1,358.16Zm-.83-29.66c5.38,0,9.2,3,10,8.58H311.15C311.46,332.22,315,328.5,321.27,328.5Z"/><path class="cls-3" d="M378.22,337.7c-4.55-1.45-8.27-2.27-8.27-5.06,0-2.48,1.65-3.21,5.68-3.21,5.58,0,11.78,3.31,11.78,3.31l6-12a40.55,40.55,0,0,0-17.78-4.13c-13.95,0-23.14,6.2-23.14,17.05,0,8,5.37,11.68,10.74,14.47,6,3.1,11.78,3.41,11.78,7.23,0,3.51-3.1,3.82-5.68,3.82-5.89,0-13.12-6.09-13.12-6.09l-7.44,12.5a31.7,31.7,0,0,0,20.46,7.13c10.85,0,25.11-2.48,25.11-18.08C394.34,343.8,385.24,339.87,378.22,337.7Z"/><path class="cls-3" d="M449.52,357.75a13.08,13.08,0,0,1,0-26.15,16.13,16.13,0,0,1,8.89,2.48l6.2-12.5s-6-5-17.78-5c-15.39,0-29.34,12.61-29.34,28.21s14.05,27.9,29.34,27.9c11.78,0,17.78-4.75,17.78-4.75l-6.2-12.71A16.13,16.13,0,0,1,449.52,357.75Z"/><path class="cls-3" d="M495,316.62c-17.88,0-31.93,11.57-31.93,28.11,0,16.32,12.81,28,31.93,28,18.29,0,31.62-11.68,31.62-28C526.61,328.19,512.55,316.62,495,316.62Zm-.11,40.51c-7.44,0-12.4-5.17-12.4-12.4a12.35,12.35,0,1,1,24.7,0C507.18,352,502,357.13,494.88,357.13Z"/><path class="cls-3" d="M611,316.62c-10.44,0-16.22,9.2-16.22,9.2h-.21v-7.65H576.31v1.75a22,22,0,0,0-11.57-3.3c-10.44,0-16.22,9.2-16.22,9.2h-.21v-7.65H530v53h18.29v-27.9c0-1.34,1.34-10.75,10.85-10.75a15.42,15.42,0,0,1,9.51,2.9l7.64-15.5v51.25H594.6v-27.9c0-1.34,1.34-10.75,10.85-10.75a15.42,15.42,0,0,1,9.51,2.9l7.64-15.5A21.93,21.93,0,0,0,611,316.62Z"/><path class="cls-3" d="M750.85,356.3c-2.89,0-4.13-2.38-4.13-7.34V332.12h11.16V318.17H746.72V298.43H728.43v19.74h-7.65v2a32.53,32.53,0,0,0-15.51-3.53c-14.19,0-27.14,10.71-29.08,24.6-1.46-16.29-13.19-24.6-28.26-24.6-16,0-29.14,12.61-29.14,28.11s13.12,28,29.14,28c11.78,0,21.49-3.82,27.48-13.85l-13.22-6.61c-4.45,4.75-7,5.89-12.92,5.89-4.65,0-11.47-2.79-11.47-11h38.25c1.34,14.37,14.72,25.52,29.22,25.52,11.78,0,17.78-4.75,17.78-4.75l-6.2-12.71a16.13,16.13,0,0,1-8.89,2.48,13.08,13.08,0,0,1,0-26.15,16.13,16.13,0,0,1,8.89,2.48l3.93-7.94v6h7.65v20.36c0,9.4,3.51,20.25,18.08,20.25A30.25,30.25,0,0,0,760,369.42l-4.55-14.77A8.66,8.66,0,0,1,750.85,356.3ZM638.32,337.08c.31-4.86,3.82-8.58,10.12-8.58,5.38,0,9.2,3,10,8.58Z"/><path class="cls-3" d="M789.09,316.62c-17.88,0-31.93,11.57-31.93,28.11,0,16.32,12.81,28,31.93,28,18.29,0,31.62-11.68,31.62-28C820.71,328.19,806.65,316.62,789.09,316.62ZM789,357.13c-7.44,0-12.4-5.17-12.4-12.4a12.35,12.35,0,1,1,24.7,0C801.28,352,796.11,357.13,789,357.13Z"/><path class="cls-3" d="M849.75,337.7c-4.55-1.45-8.27-2.27-8.27-5.06,0-2.48,1.65-3.21,5.68-3.21,5.58,0,11.78,3.31,11.78,3.31l6-12a40.55,40.55,0,0,0-17.78-4.13c-13.95,0-23.14,6.2-23.14,17.05,0,8,5.37,11.68,10.74,14.47,6,3.1,11.78,3.41,11.78,7.23,0,3.51-3.1,3.82-5.68,3.82-5.89,0-13.12-6.09-13.12-6.09l-7.44,12.5a31.7,31.7,0,0,0,20.46,7.13c10.85,0,25.11-2.48,25.11-18.08C865.87,343.8,856.77,339.87,849.75,337.7Z"/><polygon class="cls-2" points="852.17 276.73 848.66 285.51 854.13 285.51 857.5 276.73 863.4 261.25 858.06 261.25 854.38 272.31 850.69 261.25 845.39 261.25 851.29 276.73 852.17 276.73"/><path class="cls-2" d="M878.56,260.9c-5.2,0-9,3.27-9,8.11s3.68,8.07,9,8.07c4.1,0,7.4-2,8.32-6.1h-5.37a2.81,2.81,0,0,1-3.06,2.35,3.51,3.51,0,0,1-3.33-3.69h12c0-.31,0-.64,0-1C887.16,263.66,883.26,260.9,878.56,260.9Zm-3.4,6.25a3.17,3.17,0,0,1,3.45-2.88h0a3.24,3.24,0,0,1,3.44,2.88Z"/><path class="cls-2" d="M898.74,260.94a5.93,5.93,0,0,0-4.74,2.25v-1.9h-5.26v15.48H894V269c0-2.1,1.3-3.86,3-3.86s2.35,1,2.35,2.81v8.77h5.26l-.05-8.72C904.56,263.79,902.88,260.94,898.74,260.94Z"/><path class="cls-2" d="M914.39,265c1.83,0,3,.95,3.05,2.46h5.23c-.24-3.58-3.44-6.57-8.45-6.57-5.16,0-8.6,3.69-8.6,8.11s3.23,8.07,8.6,8.07c4.7,0,7.82-2.66,8.35-6.1h-5.13c-.17,1.4-1.43,2.1-3.05,2.1-2.46,0-3.16-2.24-3.16-4S912,265,914.39,265Z"/><path class="cls-2" d="M932.08,260.94c-4.84,0-8.85,3.23-8.85,8.07s3.9,8,8.85,8,8.81-3.09,8.81-8S936.89,260.94,932.08,260.94Zm0,12.14h0c-2.84,0-3.62-2.07-3.62-4s.85-4,3.62-4,3.58,2.08,3.58,4S934.89,273.08,932.08,273.08Z"/><path class="cls-2" d="M952.47,260.94a5.93,5.93,0,0,0-4.74,2.25v-1.9h-5.26v15.48h5.26V269c0-2.1,1.3-3.86,2.95-3.86s2.35,1,2.35,2.81v8.77h5.27V268C958.3,263.79,956.61,260.94,952.47,260.94Z"/><polygon class="cls-2" points="966.86 255.36 961.63 255.36 961.63 261.25 958.82 261.25 958.82 265.33 961.63 265.33 961.63 276.73 966.86 276.73 966.86 265.33 969.67 265.33 969.67 261.25 966.86 261.25 966.86 255.36"/><path class="cls-2" d="M981.63,266v-4.78a4.08,4.08,0,0,0-1.57-.35,4.91,4.91,0,0,0-4.08,2.25v-1.9h-5.26v15.48H976V269a3.82,3.82,0,0,1,3.46-3.85,2.62,2.62,0,0,1,2.1.88Z"/><path class="cls-2" d="M994.44,263.15a6.5,6.5,0,0,0-5.3-2.25,8.1,8.1,0,0,0,0,16.18c2,0,4.25-.63,5.3-2.21v1.86h5.27V261.29h-5.27Zm-3.86,9.37a3.69,3.69,0,0,1,.18-7.38,3.79,3.79,0,0,1,3.68,3.86A3.69,3.69,0,0,1,990.58,272.52Z"/><path class="cls-2" d="M1007.43,263.15v-1.9h-5.27v15.48h5.27V269c0-1.85,1.51-3.85,3.47-3.85a2.64,2.64,0,0,1,2.11.88h.07v-4.78a4.13,4.13,0,0,0-1.58-.35A4.9,4.9,0,0,0,1007.43,263.15Z"/><path class="cls-2" d="M1032.91,263.15a6.53,6.53,0,0,0-5.3-2.25,8.1,8.1,0,0,0,0,16.18c2,0,4.25-.63,5.3-2.21v1.86h5.26V261.29h-5.26Zm0,5.86a3.69,3.69,0,1,1-3.69-3.86,3.79,3.79,0,0,1,3.69,3.85Z"/><rect class="cls-2" x="1047.65" y="250.41" width="5.26" height="26.32"/><path class="cls-2" d="M1063.34,260.94c-4.85,0-8.85,3.23-8.85,8.07s3.9,8,8.85,8,8.81-3.09,8.81-8S1068.14,260.94,1063.34,260.94Zm0,12.14h0c-2.85,0-3.62-2.07-3.62-4s.84-4,3.62-4,3.58,2.08,3.58,4S1066.14,273.08,1063.34,273.08Z"/><path class="cls-2" d="M1078.25,265.63c0-.92,1.08-1.44,2.1-1.44a2.22,2.22,0,0,1,2.49,1.79l5.16,0c-.45-3.55-3.44-5.06-7.51-5.06-5.12,0-7.54,1.76-7.54,4.92,0,5.61,10,3.05,10,6.31,0,.85-1,1.3-2.21,1.3s-3.23-.14-3.23-2.45h-5.23c.28,4.38,3.76,6.1,8.35,6.1s7.62-1.33,7.62-5C1088.25,265.59,1078.25,267.8,1078.25,265.63Z"/><polygon class="cls-4" points="622.09 173.38 619.95 182.85 622.83 182.85 627.29 173.38 622.09 173.38"/><polygon class="cls-2" points="38.42 57.64 48.77 57.64 48.77 51.62 38.42 51.62 38.42 45.64 49.22 45.64 49.22 39.62 31.78 39.62 31.78 69.72 38.42 69.72 38.42 57.64"/><rect class="cls-2" x="51.87" y="39.62" width="6.64" height="30.1"/><polygon class="cls-2" points="68.25 50.95 78.61 69.72 85.24 69.72 85.24 39.62 78.61 39.62 78.61 58.39 68.25 39.62 61.61 39.62 61.61 69.72 68.25 69.72 68.25 50.95"/><path class="cls-2" d="M112.28,55.29v-.57a14.74,14.74,0,0,0-14.42-15h-.58l-8.94-.05v30.1h8.94A14.72,14.72,0,0,0,112.28,55.29ZM94.89,63.62V45.77h2c5.14,0,8.59,3.9,8.59,8.9s-3.5,8.94-8.59,8.94Z"/><path class="cls-2" d="M128.61,70.17a15.5,15.5,0,1,0-15.5-15.5A15.5,15.5,0,0,0,128.61,70.17Zm-8.85-15.5a8.86,8.86,0,0,1,17.71-.6q0,.3,0,.6a8.86,8.86,0,0,1-17.71.6Q119.75,55,119.76,54.67Z"/><path class="cls-2" d="M160.5,70.17A15.5,15.5,0,1,0,145,54.67,15.5,15.5,0,0,0,160.5,70.17Zm-8.84-15.5a8.85,8.85,0,1,1,17.7,0h0a8.85,8.85,0,1,1-17.7,0Z"/></g></g></svg>