<svg xmlns="http://www.w3.org/2000/svg" width="1615.11" height="419.8" viewBox="0 0 1615.11 419.8"><defs><style>.cls-1{fill:#edebeb;}.cls-2{fill:#737373;}.cls-3{font-size:103.34px;fill:#5fcd30;font-family:LeagueSpartan-Bold, League Spartan;font-weight:700;}.cls-4{fill:#5c5e63;}</style></defs><title>findoo-solucion-vender-mas</title><g id="Capa_2" data-name="Capa 2"><g id="Capa_1-2" data-name="Capa 1"><rect class="cls-1" width="1615.11" height="419.8"/><path class="cls-2" d="M201.87,61.52c0-5-3.9-7.76-8.61-7.76-5.2,0-9,3.27-9,8.11s3.68,8.08,9,8.08c4.11,0,7.41-2,8.32-6.11h-5.37a2.8,2.8,0,0,1-3.05,2.35,3.52,3.52,0,0,1-3.34-3.69h12C201.83,62.19,201.87,61.84,201.87,61.52Zm-12-1.51a3.2,3.2,0,0,1,3.48-2.88A3.24,3.24,0,0,1,196.81,60Z"/><path class="cls-2" d="M217.77,58.82c-.45-3.55-3.44-5.06-7.51-5.06-5.13,0-7.55,1.76-7.55,4.92,0,5.61,10,3,10,6.32,0,.84-1,1.3-2.22,1.3s-3.23-.14-3.23-2.46H202c.28,4.39,3.76,6.11,8.36,6.11S218,68.61,218,65c0-6.53-10-4.32-10-6.5,0-.91,1.09-1.43,2.11-1.43a2.22,2.22,0,0,1,2.49,1.79Z"/><rect class="cls-2" x="226.45" y="43.26" width="5.27" height="26.34"/><path class="cls-2" d="M251.56,54.15h-5.27V56a6.52,6.52,0,0,0-5.3-2.25A8.11,8.11,0,0,0,241,70c2,0,4.24-.63,5.3-2.21V69.6h5.27Zm-5.27,7.72A3.69,3.69,0,1,1,242.6,58,3.79,3.79,0,0,1,246.29,61.87Z"/><path class="cls-2" d="M275.37,58.82c-.46-3.55-3.45-5.06-7.52-5.06-5.13,0-7.55,1.76-7.55,4.92,0,5.61,10,3,10,6.32,0,.84-1,1.3-2.21,1.3s-3.24-.14-3.24-2.46h-5.23c.28,4.39,3.76,6.11,8.36,6.11s7.62-1.34,7.62-5c0-6.53-10-4.32-10-6.5,0-.91,1.09-1.43,2.11-1.43a2.22,2.22,0,0,1,2.49,1.79Z"/><path class="cls-2" d="M285,53.79c-4.85,0-8.85,3.24-8.85,8.08s3.9,8,8.85,8,8.81-3.09,8.81-8S289.8,53.79,285,53.79ZM285,66c-2.85,0-3.62-2.08-3.62-4s.84-4,3.62-4,3.58,2.08,3.58,4S287.8,66,285,66Z"/><rect class="cls-2" x="295.38" y="43.26" width="5.27" height="26.34"/><path class="cls-2" d="M302.76,62.93c0,4.17,1.68,7,5.83,7a5.94,5.94,0,0,0,4.74-2.25v1.9h5.26V54.11h-5.26v7.76c0,2.07-1.3,3.86-2.95,3.86s-2.36-1-2.36-2.8V54.11h-5.26Z"/><path class="cls-2" d="M329,57.87c1.83,0,3,1,3.06,2.46h5.23c-.24-3.59-3.44-6.57-8.46-6.57s-8.61,3.69-8.61,8.11S323.41,70,328.78,70c4.7,0,7.83-2.67,8.36-6.11H332c-.18,1.4-1.44,2.11-3.06,2.11-2.45,0-3.16-2.25-3.16-4S326.57,57.87,329,57.87Z"/><path class="cls-2" d="M344.12,69.6V54.11h-5.26V69.6ZM338.4,48.81a3.09,3.09,0,1,0,3.09-3.09A3.1,3.1,0,0,0,338.4,48.81Z"/><path class="cls-2" d="M354.73,53.79c-4.85,0-8.85,3.24-8.85,8.08s3.9,8,8.85,8,8.81-3.09,8.81-8S359.54,53.79,354.73,53.79Zm0,12.16c-2.84,0-3.62-2.08-3.62-4s.85-4,3.62-4,3.58,2.08,3.58,4S357.54,66,354.73,66Zm6.57-21.08h-4.5l-4.14,6.29h3.93Z"/><path class="cls-2" d="M381,60.82c0-4.22-1.68-7.06-5.83-7.06A5.94,5.94,0,0,0,370.39,56v-1.9h-5.27V69.6h5.27V61.87c0-2.11,1.3-3.86,2.95-3.86s2.35,1,2.35,2.81V69.6H381Z"/><path class="cls-2" d="M407.3,54.11H402V56a6.51,6.51,0,0,0-5.3-2.25,8.11,8.11,0,0,0,0,16.19c2,0,4.25-.63,5.3-2.21V78.38h5.27ZM402,61.87A3.69,3.69,0,1,1,398.35,58,3.79,3.79,0,0,1,402,61.87Z"/><path class="cls-2" d="M409.41,62.93c0,4.17,1.68,7,5.83,7A5.94,5.94,0,0,0,420,67.7v1.9h5.27V54.11H420v7.76c0,2.07-1.3,3.86-3,3.86s-2.36-1-2.36-2.8V54.11h-5.26Z"/><path class="cls-2" d="M444.45,61.52c0-5-3.89-7.76-8.6-7.76-5.2,0-9,3.27-9,8.11s3.69,8.08,9,8.08c4.11,0,7.41-2,8.32-6.11H438.8a2.81,2.81,0,0,1-3.06,2.35,3.52,3.52,0,0,1-3.33-3.69h12C444.42,62.19,444.45,61.84,444.45,61.52Zm-12-1.51A3.19,3.19,0,0,1,436,57.13,3.24,3.24,0,0,1,439.4,60Z"/><path class="cls-2" d="M468.9,60.82c0-4.22-1.69-7.06-5.83-7.06A5.91,5.91,0,0,0,458.33,56v-1.9h-5.27V69.6h5.27V61.87c0-2.11,1.29-3.86,2.95-3.86s2.35,1,2.35,2.81V69.6h5.27Z"/><path class="cls-2" d="M487.58,61.52c0-5-3.9-7.76-8.61-7.76-5.19,0-9,3.27-9,8.11S473.64,70,479,70c4.11,0,7.41-2,8.33-6.11h-5.38a2.8,2.8,0,0,1-3.05,2.35,3.53,3.53,0,0,1-3.34-3.69h12C487.54,62.19,487.58,61.84,487.58,61.52ZM475.6,60a3.2,3.2,0,0,1,3.48-2.88A3.24,3.24,0,0,1,482.52,60Z"/><path class="cls-2" d="M497.06,57.87c1.83,0,3,1,3.05,2.46h5.24c-.25-3.59-3.44-6.57-8.47-6.57s-8.6,3.69-8.6,8.11,3.23,8.08,8.6,8.08c4.71,0,7.84-2.67,8.36-6.11h-5.13c-.17,1.4-1.44,2.11-3.05,2.11-2.46,0-3.16-2.25-3.16-4S494.67,57.87,497.06,57.87Z"/><path class="cls-2" d="M523.54,61.52c0-5-3.9-7.76-8.61-7.76-5.19,0-9,3.27-9,8.11s3.69,8.08,9,8.08c4.11,0,7.41-2,8.33-6.11h-5.38a2.8,2.8,0,0,1-3,2.35,3.53,3.53,0,0,1-3.34-3.69h12C523.5,62.19,523.54,61.84,523.54,61.52Zm-12-1.51A3.2,3.2,0,0,1,515,57.13,3.24,3.24,0,0,1,518.48,60Z"/><path class="cls-2" d="M539.45,58.82c-.46-3.55-3.45-5.06-7.52-5.06-5.13,0-7.55,1.76-7.55,4.92,0,5.61,10,3,10,6.32,0,.84-1,1.3-2.21,1.3S529,66.16,529,63.84h-5.24c.28,4.39,3.76,6.11,8.36,6.11s7.62-1.34,7.62-5c0-6.53-10-4.32-10-6.5,0-.91,1.09-1.43,2.11-1.43a2.22,2.22,0,0,1,2.49,1.79Z"/><path class="cls-2" d="M546.54,69.6V54.11h-5.27V69.6Zm-5.72-20.79a3.09,3.09,0,0,0,3.09,3.09,3.09,3.09,0,1,0,0-6.18A3.07,3.07,0,0,0,540.82,48.81Z"/><polygon class="cls-2" points="555.81 58.18 558.62 58.18 558.62 54.11 555.81 54.11 555.81 48.21 550.58 48.21 550.58 54.11 547.77 54.11 547.77 58.18 550.58 58.18 550.58 69.6 555.81 69.6 555.81 58.18"/><path class="cls-2" d="M577.06,54.15h-5.27V56a6.52,6.52,0,0,0-5.3-2.25,8.11,8.11,0,0,0,0,16.19c2,0,4.25-.63,5.3-2.21V69.6h5.27Zm-5.27,7.72A3.69,3.69,0,1,1,568.1,58,3.79,3.79,0,0,1,571.79,61.87Z"/><path class="cls-2" d="M593.84,58.82c-.45-3.55-3.44-5.06-7.51-5.06-5.13,0-7.55,1.76-7.55,4.92,0,5.61,10,3,10,6.32,0,.84-1,1.3-2.22,1.3s-3.23-.14-3.23-2.46h-5.23c.28,4.39,3.76,6.11,8.36,6.11s7.62-1.34,7.62-5c0-6.53-10-4.32-10-6.5,0-.91,1.09-1.43,2.11-1.43a2.22,2.22,0,0,1,2.49,1.79Z"/><path class="cls-2" d="M607.78,78.38V67.74c1.06,1.58,3.3,2.21,5.31,2.21a8.11,8.11,0,0,0,0-16.19A6.48,6.48,0,0,0,607.78,56v-1.9h-5.26V78.38Zm0-16.51a3.69,3.69,0,1,1,3.69,3.86A3.79,3.79,0,0,1,607.78,61.87Z"/><path class="cls-2" d="M639.74,54.15h-5.27V56a6.51,6.51,0,0,0-5.3-2.25,8.11,8.11,0,0,0,0,16.19c2,0,4.25-.63,5.3-2.21V69.6h5.27Zm-5.27,7.72A3.69,3.69,0,1,1,630.79,58,3.79,3.79,0,0,1,634.47,61.87Z"/><path class="cls-2" d="M650.94,58a2.63,2.63,0,0,1,2.11.88h.07V54.11a4.13,4.13,0,0,0-1.58-.35A4.89,4.89,0,0,0,647.47,56v-1.9H642.2V69.6h5.27V61.87C647.47,60,649,58,650.94,58Z"/><path class="cls-2" d="M671.21,54.15h-5.27V56a6.53,6.53,0,0,0-5.31-2.25,8.11,8.11,0,0,0,0,16.19c2,0,4.25-.63,5.31-2.21V69.6h5.27Zm-5.27,7.72A3.69,3.69,0,1,1,662.25,58,3.79,3.79,0,0,1,665.94,61.87Z"/><text class="cls-3" transform="translate(36.17 177.4)">v</text><text class="cls-3" transform="translate(96.11 177.4)">e</text><text class="cls-3" transform="translate(153.25 177.4)">n</text><text class="cls-3" transform="translate(216.39 177.4)">d</text><text class="cls-3" transform="translate(281.8 177.4)">e</text><text class="cls-3" transform="translate(338.95 177.4)">r</text><text class="cls-3" transform="translate(385.24 177.4)"> </text><text class="cls-3" transform="translate(408.29 177.4)">m</text><text class="cls-3" transform="translate(504.91 177.4)">รก</text><text class="cls-3" transform="translate(570.32 177.4)">s</text><text class="cls-3" transform="translate(36.17 274.29)">s</text><text class="cls-3" transform="translate(81.84 274.29)">e</text><text class="cls-3" transform="translate(138.99 274.29)">g</text><text class="cls-3" transform="translate(204.4 274.29)">u</text><text class="cls-3" transform="translate(267.02 274.29)">i</text><text class="cls-3" transform="translate(293.07 274.29)">r</text><text class="cls-3" transform="translate(339.36 274.29)"> </text><text class="cls-3" transform="translate(362.4 274.29)">c</text><text class="cls-3" transform="translate(407.98 274.29)">r</text><text class="cls-3" transform="translate(454.27 274.29)">e</text><text class="cls-3" transform="translate(511.42 274.29)">c</text><text class="cls-3" transform="translate(556.99 274.29)">i</text><text class="cls-3" transform="translate(583.03 274.29)">e</text><text class="cls-3" transform="translate(640.18 274.29)">n</text><text class="cls-3" transform="translate(703.31 274.29)">d</text><text class="cls-3" transform="translate(768.73 274.29)">o</text><text class="cls-3" transform="translate(36.17 371.18)">c</text><text class="cls-3" transform="translate(81.74 371.18)">l</text><text class="cls-3" transform="translate(107.26 371.18)">i</text><text class="cls-3" transform="translate(133.31 371.18)">e</text><text class="cls-3" transform="translate(190.45 371.18)">n</text><text class="cls-3" transform="translate(253.59 371.18)">t</text><text class="cls-3" transform="translate(289.24 371.18)">e</text><text class="cls-3" transform="translate(346.39 371.18)">s</text><text class="cls-3" transform="translate(392.06 371.18)"> </text><text class="cls-3" transform="translate(415.11 371.18)">c</text><text class="cls-3" transform="translate(460.68 371.18)">o</text><text class="cls-3" transform="translate(523.82 371.18)">r</text><text class="cls-3" transform="translate(570.11 371.18)">r</text><text class="cls-3" transform="translate(616.41 371.18)">e</text><text class="cls-3" transform="translate(673.55 371.18)">c</text><text class="cls-3" transform="translate(719.13 371.18)">t</text><text class="cls-3" transform="translate(754.78 371.18)">o</text><text class="cls-3" transform="translate(817.92 371.18)">s</text><text class="cls-3" transform="translate(863.57 371.18)"> </text><polygon class="cls-2" points="854.13 285.51 857.5 276.73 863.4 261.25 858.06 261.25 854.38 272.31 850.69 261.25 845.39 261.25 851.29 276.73 852.17 276.73 848.66 285.51 854.13 285.51"/><path class="cls-2" d="M887.16,268.66c0-5-3.9-7.76-8.6-7.76-5.2,0-9,3.27-9,8.11s3.68,8.07,9,8.07c4.1,0,7.4-2,8.32-6.1h-5.37a2.82,2.82,0,0,1-3.06,2.35,3.52,3.52,0,0,1-3.33-3.69h12C887.12,269.33,887.16,269,887.16,268.66Zm-12-1.51a3.18,3.18,0,0,1,3.47-2.88,3.24,3.24,0,0,1,3.44,2.88Z"/><path class="cls-2" d="M904.56,268c0-4.21-1.68-7.06-5.82-7.06a5.94,5.94,0,0,0-4.74,2.25v-1.9h-5.26v15.48H894V269c0-2.1,1.3-3.86,3-3.86s2.35,1,2.35,2.81v8.77h5.26Z"/><path class="cls-2" d="M914.39,265c1.83,0,3,.95,3.05,2.46h5.23c-.24-3.58-3.44-6.57-8.45-6.57-5.16,0-8.6,3.69-8.6,8.11s3.23,8.07,8.6,8.07c4.7,0,7.82-2.66,8.35-6.1h-5.13c-.17,1.4-1.43,2.1-3.05,2.1-2.46,0-3.16-2.24-3.16-4S912,265,914.39,265Z"/><path class="cls-2" d="M932.08,260.94c-4.84,0-8.85,3.23-8.85,8.07s3.9,8,8.85,8,8.81-3.09,8.81-8S936.89,260.94,932.08,260.94Zm0,12.14c-2.84,0-3.62-2.07-3.62-4s.85-4,3.62-4,3.58,2.08,3.58,4S934.89,273.08,932.08,273.08Z"/><path class="cls-2" d="M958.3,268c0-4.21-1.69-7.06-5.83-7.06a5.94,5.94,0,0,0-4.74,2.25v-1.9h-5.26v15.48h5.26V269c0-2.1,1.3-3.86,2.95-3.86s2.35,1,2.35,2.81v8.77h5.27Z"/><polygon class="cls-2" points="966.86 265.33 969.67 265.33 969.67 261.25 966.86 261.25 966.86 255.36 961.63 255.36 961.63 261.25 958.82 261.25 958.82 265.33 961.63 265.33 961.63 276.73 966.86 276.73 966.86 265.33"/><path class="cls-2" d="M979.46,265.15a2.62,2.62,0,0,1,2.1.88h.07v-4.78a4.12,4.12,0,0,0-1.57-.35,4.91,4.91,0,0,0-4.08,2.25v-1.9h-5.26v15.48H976V269A3.83,3.83,0,0,1,979.46,265.15Z"/><path class="cls-2" d="M999.71,261.29h-5.27v1.86a6.5,6.5,0,0,0-5.3-2.25,8.1,8.1,0,0,0,0,16.18c2,0,4.25-.63,5.3-2.21v1.86h5.27ZM994.44,269a3.69,3.69,0,1,1-3.68-3.86A3.79,3.79,0,0,1,994.44,269Z"/><path class="cls-2" d="M1010.9,265.15a2.66,2.66,0,0,1,2.11.88h.07v-4.78a4.13,4.13,0,0,0-1.58-.35,4.9,4.9,0,0,0-4.07,2.25v-1.9h-5.27v15.48h5.27V269C1007.43,267.15,1008.94,265.15,1010.9,265.15Z"/><path class="cls-2" d="M1038.17,261.29h-5.26v1.86a6.52,6.52,0,0,0-5.3-2.25,8.1,8.1,0,0,0,0,16.18c2,0,4.25-.63,5.3-2.21v1.86h5.26Zm-5.26,7.72a3.69,3.69,0,1,1-3.69-3.86A3.79,3.79,0,0,1,1032.91,269Z"/><rect class="cls-2" x="1047.65" y="250.41" width="5.26" height="26.32"/><path class="cls-2" d="M1063.34,260.94c-4.85,0-8.85,3.23-8.85,8.07s3.9,8,8.85,8,8.81-3.09,8.81-8S1068.14,260.94,1063.34,260.94Zm0,12.14c-2.85,0-3.62-2.07-3.62-4s.84-4,3.62-4,3.58,2.08,3.58,4S1066.14,273.08,1063.34,273.08Z"/><path class="cls-2" d="M1088,266c-.45-3.55-3.44-5.06-7.51-5.06-5.12,0-7.54,1.76-7.54,4.92,0,5.61,10,3.05,10,6.31,0,.85-1,1.3-2.21,1.3s-3.23-.14-3.23-2.45h-5.23c.28,4.38,3.76,6.1,8.35,6.1s7.62-1.33,7.62-5c0-6.53-10-4.32-10-6.49,0-.92,1.08-1.44,2.1-1.44a2.22,2.22,0,0,1,2.49,1.79Z"/><polygon class="cls-4" points="627.29 173.38 622.09 173.38 619.95 182.85 622.83 182.85 627.29 173.38"/><polygon class="cls-2" points="48.77 57.64 48.77 51.62 38.42 51.62 38.42 45.64 49.22 45.64 49.22 39.62 31.78 39.62 31.78 69.72 38.42 69.72 38.42 57.64 48.77 57.64"/><rect class="cls-2" x="51.87" y="39.62" width="6.64" height="30.1"/><polygon class="cls-2" points="85.24 69.72 85.24 39.62 78.61 39.62 78.61 58.39 68.25 39.62 61.61 39.62 61.61 69.72 68.25 69.72 68.25 50.95 78.61 69.72 85.24 69.72"/><path class="cls-2" d="M88.34,39.62v30.1h8.94a14.72,14.72,0,0,0,15-15,14.74,14.74,0,0,0-15-15.05Zm6.55,24V45.77h2c5.14,0,8.59,3.9,8.59,8.9s-3.5,8.94-8.59,8.94Z"/><path class="cls-2" d="M144.11,54.67a15.49,15.49,0,0,0-31,0,15.49,15.49,0,0,0,31,0Zm-6.64,0a8.86,8.86,0,1,1-17.71,0,8.86,8.86,0,1,1,17.71,0Z"/><path class="cls-2" d="M176,54.67a15.49,15.49,0,0,0-31,0,15.49,15.49,0,0,0,31,0Zm-6.64,0a8.85,8.85,0,1,1-17.7,0,8.85,8.85,0,1,1,17.7,0Z"/></g></g></svg>