<svg xmlns="http://www.w3.org/2000/svg" width="1336.1" height="468.9" viewBox="0 0 1336.1 468.9"><defs><style>.cls-1{font-size:75.49px;}.cls-1,.cls-2{font-family:LeagueSpartan-Bold, League Spartan;font-weight:700;}.cls-2{font-size:132.84px;fill:#5fcd30;}.cls-3{fill:#f1ecec;}</style></defs><title>listo-para-incrementar-tus-ventas</title><g id="Capa_2" data-name="Capa 2"><g id="Capa_1-2" data-name="Capa 1"><text class="cls-1" transform="translate(105.87 110.49)">t</text><text class="cls-1" transform="translate(131.91 110.49)">e</text><text class="cls-1" transform="translate(173.66 110.49)"> </text><text class="cls-1" transform="translate(190.49 110.49)">s</text><text class="cls-1" transform="translate(223.85 110.49)">i</text><text class="cls-1" transform="translate(242.88 110.49)">e</text><text class="cls-1" transform="translate(284.62 110.49)">n</text><text class="cls-1" transform="translate(330.74 110.49)">t</text><text class="cls-1" transform="translate(356.78 110.49)">e</text><text class="cls-1" transform="translate(398.53 110.49)">s</text><text class="cls-1" transform="translate(431.89 110.49)"> </text><text class="cls-1" transform="translate(448.73 110.49)">l</text><text class="cls-1" transform="translate(467.37 110.49)">i</text><text class="cls-1" transform="translate(486.39 110.49)">s</text><text class="cls-1" transform="translate(519.76 110.49)">t</text><text class="cls-1" transform="translate(545.8 110.49)">o</text><text class="cls-1" transform="translate(591.92 110.49)"> </text><text class="cls-1" transform="translate(608.76 110.49)">p</text><text class="cls-1" transform="translate(656.54 110.49)">a</text><text class="cls-1" transform="translate(704.32 110.49)">r</text><text class="cls-1" transform="translate(738.14 110.49)">a</text><text class="cls-2" transform="translate(193.95 233.72)">i</text><text class="cls-2" transform="translate(227.42 233.72)">n</text><text class="cls-2" transform="translate(308.58 233.72)">c</text><text class="cls-2" transform="translate(367.15 233.72)">r</text><text class="cls-2" transform="translate(426.66 233.72)">e</text><text class="cls-2" transform="translate(500.11 233.72)">m</text><text class="cls-2" transform="translate(624.31 233.72)">e</text><text class="cls-2" transform="translate(697.76 233.72)">n</text><text class="cls-2" transform="translate(778.91 233.72)">t</text><text class="cls-2" transform="translate(824.74 233.72)">a</text><text class="cls-2" transform="translate(908.82 233.72)">r</text><text class="cls-2" transform="translate(661.21 344.99)">v</text><text class="cls-2" transform="translate(738.25 344.99)">e</text><text class="cls-2" transform="translate(811.7 344.99)">n</text><text class="cls-2" transform="translate(892.85 344.99)">t</text><text class="cls-2" transform="translate(938.68 344.99)">a</text><text class="cls-2" transform="translate(1022.76 344.99)">s</text><text class="cls-1" transform="translate(529.56 344.1)">t</text><text class="cls-1" transform="translate(555.6 344.1)">u</text><text class="cls-1" transform="translate(601.35 344.1)">s</text><path class="cls-3" d="M1062.57,468.9l18-72.36h81.06l-18,72.36Zm191-410.13q19.47,0,34.24,3.88t24.11,10.44a49.7,49.7,0,0,1,15,16.64,68.55,68.55,0,0,1,7.67,21,109.21,109.21,0,0,1,1.32,25.13,228.4,228.4,0,0,1-3,27.32q-2.25,13.11-6.24,29.14a241,241,0,0,1-19.89,53.42,183.68,183.68,0,0,1-30.87,43,126.63,126.63,0,0,1-43.89,29.38q-25.59,10.45-56.61,10.45l-10.29,41.28h-75.4l25.19-101q18.79,0,33.3-1a173.9,173.9,0,0,0,26.38-3.64,148.1,148.1,0,0,0,20.39-5.95,53.08,53.08,0,0,0,15.58-9.35,82.07,82.07,0,0,0,11.77-12.26,78.21,78.21,0,0,0,9.07-16.39,202.17,202.17,0,0,0,7.34-19.92q3-9.71,6.68-24.52,4.61-18.45,2.82-29t-14-10.56a37,37,0,0,0-5.52.36,17.8,17.8,0,0,0-6.28,2.92,26.1,26.1,0,0,0-7.07,7,72.37,72.37,0,0,0-6.84,13.35,153.36,153.36,0,0,0-6.83,21.49l-8.84,35.46H1110l15.38-61.68q12-48.07,46.42-72.24T1253.59,58.77Z"/><path class="cls-3" d="M34.31,164.34a57.63,57.63,0,0,1-14.16-1.56,31.83,31.83,0,0,1-10-4.18,20.35,20.35,0,0,1-6.25-6.67,27.06,27.06,0,0,1-3.23-8.41,42.3,42.3,0,0,1-.62-10.07A88.15,88.15,0,0,1,1.19,122.5q.9-5.25,2.49-11.68a93.66,93.66,0,0,1,8.06-21.4A72.65,72.65,0,0,1,24.36,72.2a52,52,0,0,1,18-11.78,63,63,0,0,1,23.36-4.18L69.88,39.7H101L90.94,80.17c-5.17,0-9.76.14-13.75.39A73.87,73.87,0,0,0,66.3,82a62.18,62.18,0,0,0-8.41,2.39,21.77,21.77,0,0,0-6.41,3.74,32.6,32.6,0,0,0-4.82,4.92A30.31,30.31,0,0,0,43,99.63a78.66,78.66,0,0,0-3,8q-1.2,3.9-2.68,9.83-1.85,7.4-1.08,11.63t5.82,4.23a15,15,0,0,0,2.28-.15A7.27,7.27,0,0,0,46.92,132a10.63,10.63,0,0,0,2.9-2.83,28.12,28.12,0,0,0,2.78-5.35,58.51,58.51,0,0,0,2.76-8.61L58.9,101H93.14L87,125.71q-4.8,19.26-19,29T34.31,164.34ZM112,0l-7.23,29H71.24L78.47,0Z"/></g></g></svg>