<svg xmlns="http://www.w3.org/2000/svg" width="1302.35" height="422.32" viewBox="0 0 1302.35 422.32"><defs><style>.cls-1{fill:none;}.cls-2{fill:#f1ecec;}.cls-3{fill:#5fcd30;}</style></defs><title>mejora-experiencia-tus-clientes</title><g id="Capa_2" data-name="Capa 2"><g id="Capa_1-2" data-name="Capa 1"><path class="cls-1" d="M160.71,64.91c-4.48,0-7,2.64-7.2,6.09h14.32C167.24,67,164.53,64.91,160.71,64.91Z"/><path class="cls-1" d="M698.9,282.07a8.63,8.63,0,0,0-8.81,8.89,8.78,8.78,0,1,0,17.55,0A8.62,8.62,0,0,0,698.9,282.07Z"/><path class="cls-1" d="M228.27,168.84c-7.88,0-12.27,4.65-12.66,10.73H240.8C239.77,172.59,235,168.84,228.27,168.84Z"/><path class="cls-1" d="M743.84,279.43c-4.48,0-7,2.64-7.2,6.09H751C750.37,281.56,747.66,279.43,743.84,279.43Z"/><path class="cls-1" d="M988.52,279.43c-4.48,0-7,2.64-7.2,6.09h14.32C995.05,281.56,992.34,279.43,988.52,279.43Z"/><path class="cls-1" d="M863.94,204.63c8.92,0,15.38-6.46,15.38-15.5a15.44,15.44,0,1,0-30.88,0C848.44,198.17,854.64,204.63,863.94,204.63Z"/><path class="cls-1" d="M1099.33,279.43c-4.48,0-7,2.64-7.2,6.09h14.32C1105.86,281.56,1103.15,279.43,1099.33,279.43Z"/><path class="cls-1" d="M379.76,85.25a8.46,8.46,0,0,0,8.74-8.81,8.78,8.78,0,1,0-17.55,0A8.4,8.4,0,0,0,379.76,85.25Z"/><path class="cls-1" d="M298.76,85.25a8.46,8.46,0,0,0,8.74-8.81,8.78,8.78,0,1,0-17.55,0A8.4,8.4,0,0,0,298.76,85.25Z"/><path class="cls-1" d="M459.49,168.84c-7.88,0-12.27,4.65-12.66,10.73H472C471,172.59,466.21,168.84,459.49,168.84Z"/><path class="cls-1" d="M221,85.25a8.46,8.46,0,0,0,8.74-8.81,8.78,8.78,0,1,0-17.55,0A8.4,8.4,0,0,0,221,85.25Z"/><path class="cls-1" d="M621.35,168.84c-7.88,0-12.27,4.65-12.66,10.73h25.19C632.85,172.59,628.07,168.84,621.35,168.84Z"/><path class="cls-1" d="M383.15,173.49c-8.92,0-15.38,6.46-15.38,15.51a15.44,15.44,0,1,0,30.88,0C398.65,180,392.45,173.49,383.15,173.49Z"/><polygon class="cls-2" points="29.64 29.56 62.22 29.56 69 0 36.46 0 29.64 29.56"/><polygon class="cls-2" points="0 157.93 32.58 157.93 52.64 43.45 32.8 43.45 0 157.93"/><path d="M123.26,56.46c-4.11,0-8.52,2.13-12.49,6.91-2.64-5.07-8.15-6.91-13.14-6.91-4.11,0-7.86,2.13-10.8,5.07h-.14v-4h-13V95.24h13v-22c0-3,1.68-6.32,6-6.32,4.62,0,6.61,3.31,6.61,7v21.3h13V72.77c.14-2.87,1.91-5.88,6-5.88,4.62,0,6.61,3.31,6.61,7v21.3h13V70.42C138,59.92,130.16,56.46,123.26,56.46Z"/><path d="M179.87,86.5l-9.4-4.7c-3.15,3.38-5,4.19-9.18,4.19-3.3,0-8.15-2-8.15-7.79h27.32a12.46,12.46,0,0,0,.08-1.76c0-13.22-8.74-20-20.2-20s-20.71,9-20.71,20,9.33,19.9,20.71,19.9C168.71,96.34,175.61,93.63,179.87,86.5ZM160.71,64.91c3.82,0,6.53,2.13,7.12,6.09H153.51C153.73,67.55,156.23,64.91,160.71,64.91Z"/><path d="M189.64,49.71A7.72,7.72,0,1,0,181.93,42,7.71,7.71,0,0,0,189.64,49.71Z"/><path d="M196,101V57.57H183v41c0,3.53-1.4,5.15-3.6,5.15a7.15,7.15,0,0,1-3.31-1.11l-4,10.51a20.26,20.26,0,0,0,10.36,2.35C192.72,115.44,196,107.73,196,101Z"/><path d="M221.07,96.34c13,0,22.47-8.3,22.47-19.9s-10-20-22.47-20c-12.7,0-22.69,8.23-22.69,20S207.49,96.34,221.07,96.34ZM221,67.55a8.62,8.62,0,0,1,8.74,8.89,8.78,8.78,0,1,1-17.55,0A8.63,8.63,0,0,1,221,67.55Z"/><path d="M259,75.41c0-1,.95-7.64,7.71-7.64a10.94,10.94,0,0,1,6.75,2.06l5.44-11a15.62,15.62,0,0,0-8.23-2.35c-7.41,0-11.53,6.54-11.53,6.54H259V57.57H246V95.24h13Z"/><path d="M294.87,96.34A16.65,16.65,0,0,0,307.2,91h.15v4.26H320.2V57.57h-13v3.59a17.13,17.13,0,0,0-12.33-4.7c-11,0-18.73,9-18.73,20S283.85,96.34,294.87,96.34Zm3.89-28.79a8.62,8.62,0,0,1,8.74,8.89,8.78,8.78,0,1,1-17.55,0A8.63,8.63,0,0,1,298.76,67.55Z"/><rect x="341.72" y="32.08" width="13" height="63.16"/><path d="M375.87,96.34A16.65,16.65,0,0,0,388.2,91h.15v4.26H401.2V57.57h-13v3.59a17.13,17.13,0,0,0-12.33-4.7c-11,0-18.73,9-18.73,20S364.85,96.34,375.87,96.34Zm3.89-28.79a8.62,8.62,0,0,1,8.74,8.89,8.78,8.78,0,1,1-17.55,0A8.63,8.63,0,0,1,379.76,67.55Z"/><polygon class="cls-2" points="1302.35 31.93 1221.81 31.93 1171.98 314.93 1220.98 314.93 1302.35 31.93"/><polygon class="cls-2" points="1131.29 422.32 1211.83 422.32 1228.77 349.24 1148.23 349.24 1131.29 422.32"/><path class="cls-3" d="M245.45,198.56c-5.55,5.94-8.78,7.36-16.15,7.36-5.81,0-14.34-3.49-14.34-13.69H263a23.79,23.79,0,0,0,.13-3.1c0-23.26-15.37-35.15-35.52-35.15s-36.44,15.77-36.44,35.15,16.41,35,36.44,35c14.72,0,26.87-4.78,34.36-17.31Zm-17.18-29.72c6.72,0,11.5,3.75,12.53,10.73H215.61C216,173.49,220.39,168.84,228.27,168.84Z"/><polygon class="cls-3" points="340.14 155.92 313.4 155.92 301.9 171.3 290.4 155.92 263.65 155.92 287.94 187.57 259.65 222.2 287.3 222.2 301.9 203.47 316.5 222.2 344.14 222.2 315.85 187.57 340.14 155.92"/><path class="cls-3" d="M458.84,154c-18.48,0-33.88,13.44-36.13,30.75C420.88,167.38,407.93,154,390,154a29.34,29.34,0,0,0-21.7,9.44H368v-7.5H345.42v99.87h22.87V215.87c5.43,5.3,12.79,8.27,21.7,8.27,17.9,0,30.82-13.44,32.7-30.75,2.21,17.26,17.63,30.75,36.15,30.75,14.73,0,26.88-4.78,34.37-17.31l-16.54-8.27c-5.55,5.94-8.78,7.36-16.15,7.36-5.81,0-14.34-3.49-14.34-13.69h48.06a23.79,23.79,0,0,0,.13-3.1C494.37,165.87,479,154,458.84,154Zm-75.69,50.65A15.15,15.15,0,0,1,367.77,189c0-9.05,6.46-15.51,15.38-15.51,9.3,0,15.5,6.46,15.5,15.51A15.18,15.18,0,0,1,383.15,204.63Zm63.68-25.06c.39-6.08,4.78-10.73,12.66-10.73,6.72,0,11.5,3.75,12.53,10.73Z"/><path class="cls-3" d="M521.75,165.48h-.26v-9.56H498.62V222.2h22.87V187.32c0-1.68,1.68-13.44,13.57-13.44,7.62,0,11.88,3.62,11.88,3.62l9.56-19.38A27.42,27.42,0,0,0,542,154C529,154,521.75,165.48,521.75,165.48Z"/><polygon class="cls-3" points="556.5 158.12 556.5 222.2 579.37 222.2 579.37 155.92 556.5 155.92 556.5 158.12"/><path class="cls-3" d="M568.26,115a13.57,13.57,0,1,0,13.56,13.56A13.57,13.57,0,0,0,568.26,115Z"/><path class="cls-3" d="M620.7,154c-20,0-36.43,15.77-36.43,35.15s16.41,35,36.43,35c14.73,0,26.88-4.78,34.37-17.31l-16.54-8.27c-5.55,5.94-8.78,7.36-16.15,7.36-5.81,0-14.34-3.49-14.34-13.69H656.1a23.79,23.79,0,0,0,.13-3.1C656.23,165.87,640.86,154,620.7,154Zm-12,25.59c.39-6.08,4.78-10.73,12.66-10.73,6.72,0,11.5,3.75,12.53,10.73Z"/><path class="cls-3" d="M683.35,184.73c0-6.59,6.72-12.92,13.57-12.92,7.36,0,11.88,6.33,11.88,12.92V222.2h22.87V178.53c0-18.47-16.93-24.55-29.07-24.55-7.23,0-13.82,3.75-19,8.92h-.26v-7H660.48V222.2h22.87Z"/><path class="cls-3" d="M785.79,202.3a20.15,20.15,0,0,1-11.11,3.1c-8.65,0-15.76-7.23-15.76-16.4a16,16,0,0,1,15.76-16.28,20.15,20.15,0,0,1,11.11,3.1l7.75-15.63S786.05,154,771.32,154c-19.25,0-36.69,15.77-36.69,35.27s17.57,34.89,36.69,34.89c14.73,0,22.22-5.94,22.22-5.94Z"/><path class="cls-3" d="M808.13,142.1a13.57,13.57,0,1,0-13.57-13.57A13.56,13.56,0,0,0,808.13,142.1Z"/><rect class="cls-3" x="796.37" y="155.92" width="22.87" height="66.28"/><path class="cls-3" d="M857.1,224.14a29.37,29.37,0,0,0,21.7-9.43h.26v7.49h22.61V155.92H878.8v6.33C873.38,157,866,154,857.1,154c-19.38,0-33,15.77-33,35.15S837.72,224.14,857.1,224.14Zm6.84-50.65a15.16,15.16,0,0,1,15.38,15.64c0,9-6.46,15.5-15.38,15.5-9.3,0-15.5-6.46-15.5-15.5A15.18,15.18,0,0,1,863.94,173.49Z"/><path d="M707.34,275.68A17.13,17.13,0,0,0,695,271c-11,0-18.73,9-18.73,20s7.71,19.9,18.73,19.9a16.68,16.68,0,0,0,12.33-5.36h.15v4.26h12.85V246.6h-13Zm-8.44,24.09a8.4,8.4,0,0,1-8.81-8.81,8.78,8.78,0,1,1,17.55,0A8.46,8.46,0,0,1,698.9,299.77Z"/><path d="M743.47,271c-11.38,0-20.71,9-20.71,20s9.33,19.9,20.71,19.9c8.37,0,15.28-2.72,19.53-9.84l-9.4-4.7c-3.15,3.38-5,4.19-9.18,4.19-3.3,0-8.15-2-8.15-7.79h27.32a12.46,12.46,0,0,0,.08-1.76C763.67,277.74,754.93,271,743.47,271Zm-6.83,14.54c.22-3.45,2.72-6.09,7.2-6.09,3.82,0,6.53,2.13,7.12,6.09Z"/><path d="M800.61,299.18c-2.06,0-2.94-1.68-2.94-5.21V282h7.93v-9.92h-7.93v-14h-13v14h-5.44V282h5.44v14.47c0,6.68,2.5,14.39,12.85,14.39a21.54,21.54,0,0,0,9.55-2.35L803.84,298A6.19,6.19,0,0,1,800.61,299.18Z"/><path d="M834.9,290c0,7.42-2,10.29-7.42,10.29s-7.42-2.87-7.42-10.29V272.08h-13v21.08c0,12.63,6.32,17.7,20.42,17.7s20.41-5.07,20.41-17.7V272.08h-13Z"/><path d="M870.51,286c-3.23-1-5.88-1.61-5.88-3.59,0-1.77,1.18-2.28,4-2.28,4,0,8.38,2.35,8.38,2.35l4.26-8.52A28.81,28.81,0,0,0,868.67,271c-9.91,0-16.45,4.41-16.45,12.12,0,5.66,3.82,8.3,7.64,10.28,4.26,2.21,8.37,2.43,8.37,5.14,0,2.5-2.2,2.72-4,2.72-4.18,0-9.32-4.33-9.32-4.33l-5.29,8.88a22.52,22.52,0,0,0,14.54,5.07c7.71,0,17.85-1.76,17.85-12.85C882,290.3,875.5,287.51,870.51,286Z"/><path d="M921.18,281.63a11.45,11.45,0,0,1,6.31,1.76l4.41-8.88S927.64,271,919.27,271c-10.95,0-20.86,9-20.86,20s10,19.83,20.86,19.83c8.37,0,12.63-3.38,12.63-3.38l-4.41-9a11.45,11.45,0,0,1-6.31,1.76,9.3,9.3,0,0,1,0-18.58Z"/><rect x="933.51" y="246.6" width="13" height="63.16"/><rect x="951.65" y="272.08" width="13" height="37.67"/><path d="M958.33,248.8a7.72,7.72,0,1,0,7.71,7.72A7.72,7.72,0,0,0,958.33,248.8Z"/><path d="M988.15,271c-11.38,0-20.71,9-20.71,20s9.33,19.9,20.71,19.9c8.37,0,15.27-2.72,19.53-9.84l-9.4-4.7c-3.15,3.38-5,4.19-9.18,4.19-3.3,0-8.15-2-8.15-7.79h27.32a12.46,12.46,0,0,0,.08-1.76C1008.35,277.74,999.61,271,988.15,271Zm-6.83,14.54c.22-3.45,2.72-6.09,7.2-6.09,3.82,0,6.53,2.13,7.12,6.09Z"/><path d="M1034.7,271c-4.12,0-7.86,2.13-10.8,5.07h-.15v-4h-13v37.68h13v-21.3c0-3.74,3.82-7.34,7.72-7.34,4.18,0,6.75,3.6,6.75,7.34v21.3h13V284.94C1051.22,274.43,1041.6,271,1034.7,271Z"/><path d="M1073.77,299.18c-2.06,0-2.94-1.68-2.94-5.21V282h7.93v-9.92h-7.93v-14h-13v14h-5.44V282h5.44v14.47c0,6.68,2.5,14.39,12.85,14.39a21.54,21.54,0,0,0,9.55-2.35L1077,298A6.15,6.15,0,0,1,1073.77,299.18Z"/><path d="M1099.91,300.51c-3.3,0-8.15-2-8.15-7.79h27.32a12.46,12.46,0,0,0,.08-1.76c0-13.22-8.74-20-20.2-20s-20.71,9-20.71,20,9.33,19.9,20.71,19.9c8.37,0,15.27-2.72,19.53-9.84l-9.4-4.7C1105.94,299.7,1104.1,300.51,1099.91,300.51Zm-.58-21.08c3.82,0,6.53,2.13,7.12,6.09h-14.32C1092.35,282.07,1094.85,279.43,1099.33,279.43Z"/><path d="M1151.25,298c0-7.71-6.47-10.5-11.46-12.05-3.23-1-5.87-1.61-5.87-3.59,0-1.77,1.17-2.28,4-2.28,4,0,8.38,2.35,8.38,2.35l4.26-8.52A28.81,28.81,0,0,0,1138,271c-9.91,0-16.45,4.41-16.45,12.12,0,5.66,3.82,8.3,7.64,10.28,4.26,2.21,8.37,2.43,8.37,5.14,0,2.5-2.2,2.72-4,2.72-4.18,0-9.32-4.33-9.32-4.33l-5.29,8.88a22.52,22.52,0,0,0,14.54,5.07C1141.11,310.86,1151.25,309.1,1151.25,298Z"/></g></g></svg>