<svg xmlns="http://www.w3.org/2000/svg" width="1302.35" height="422.32" viewBox="0 0 1302.35 422.32"><defs><style>.cls-1{fill:#f1ecec;}.cls-2{font-size:73.44px;}.cls-2,.cls-3{font-family:LeagueSpartan-Bold, League Spartan;font-weight:700;}.cls-3{font-size:129.19px;fill:#5fcd30;}</style></defs><title>mejora-experiencia-clientes</title><g id="Capa_2" data-name="Capa 2"><g id="Capa_1-2" data-name="Capa 1"><path class="cls-1" d="M0,157.93,32.8,43.45H52.64L32.58,157.93ZM36.46,0H69L62.22,29.56H29.64Z"/><text class="cls-2" transform="translate(69.28 95.24)">m</text><text class="cls-2" transform="translate(137.94 95.24)">e</text><text class="cls-2" transform="translate(178.55 95.24)">j</text><text class="cls-2" transform="translate(196.69 95.24)">o</text><text class="cls-2" transform="translate(241.56 95.24)">r</text><text class="cls-2" transform="translate(274.45 95.24)">a</text><text class="cls-2" transform="translate(320.94 95.24)"> </text><text class="cls-2" transform="translate(337.31 95.24)">l</text><text class="cls-2" transform="translate(355.45 95.24)">a</text><path class="cls-1" d="M1131.29,422.32l16.94-73.08h80.54l-16.94,73.08Zm90.52-390.39h80.54l-81.37,283h-49Z"/><text class="cls-3" transform="translate(188.22 222.2)">e</text><text class="cls-3" transform="translate(259.65 222.2)">x</text><text class="cls-3" transform="translate(337.67 222.2)">p</text><text class="cls-3" transform="translate(419.44 222.2)">e</text><text class="cls-3" transform="translate(490.87 222.2)">r</text><text class="cls-3" transform="translate(548.75 222.2)">i</text><text class="cls-3" transform="translate(581.3 222.2)">e</text><text class="cls-3" transform="translate(652.73 222.2)">n</text><text class="cls-3" transform="translate(731.66 222.2)">c</text><text class="cls-3" transform="translate(788.62 222.2)">i</text><text class="cls-3" transform="translate(821.18 222.2)">a</text><text class="cls-2" transform="translate(674.59 309.76)">d</text><text class="cls-2" transform="translate(721.07 309.76)">e</text><text class="cls-2" transform="translate(761.68 309.76)"> </text><text class="cls-2" transform="translate(778.06 309.76)">t</text><text class="cls-2" transform="translate(803.39 309.76)">u</text><text class="cls-2" transform="translate(847.89 309.76)">s</text><text class="cls-2" transform="translate(880.35 309.76)"> </text><text class="cls-2" transform="translate(896.72 309.76)">c</text><text class="cls-2" transform="translate(929.1 309.76)">l</text><text class="cls-2" transform="translate(947.24 309.76)">i</text><text class="cls-2" transform="translate(965.75 309.76)">e</text><text class="cls-2" transform="translate(1006.35 309.76)">n</text><text class="cls-2" transform="translate(1051.22 309.76)">t</text><text class="cls-2" transform="translate(1076.56 309.76)">e</text><text class="cls-2" transform="translate(1117.17 309.76)">s</text></g></g></svg>