<svg xmlns="http://www.w3.org/2000/svg" width="1850.27" height="627.09" viewBox="0 0 1850.27 627.09"><defs><style>.cls-1{fill:#5fcd30;}</style></defs><title>Recurso 3</title><g id="Capa_2" data-name="Capa 2"><g id="Capa_1-2" data-name="Capa 1"><path d="M44.71,38.5l-6,12S32.5,47.2,26.91,47.2c-4,0-5.69.72-5.69,3.21,0,2.79,3.72,3.62,8.28,5.07,7,2.17,16.15,6.11,16.15,17,0,15.63-14.29,18.12-25.16,18.12A31.75,31.75,0,0,1,0,83.42L7.45,70.9S14.7,77,20.6,77c2.59,0,5.69-.31,5.69-3.83,0-3.83-5.8-4.14-11.8-7.25C9.11,63.14,3.73,59.41,3.73,51.44c0-10.87,9.21-17.08,23.18-17.08A40.5,40.5,0,0,1,44.71,38.5Z"/><path d="M72.14,34.36c7.14,0,13,2.38,17.39,6.63V35.92h18.32V89H89.73V83h-.2a23.53,23.53,0,0,1-17.39,7.56c-15.53,0-26.39-12.53-26.39-28S56.61,34.36,72.14,34.36Zm5.48,40.58c7.15,0,12.32-5.18,12.32-12.42a12.37,12.37,0,1,0-24.74,0C65.2,69.76,70.17,74.94,77.62,74.94Z"/><path d="M150.8,90.57A23.5,23.5,0,0,1,133.41,83h-.21v6H115.09V0h18.32V41c4.35-4.25,10.25-6.63,17.39-6.63,15.52,0,26.39,12.63,26.39,28.16S166.32,90.57,150.8,90.57ZM145.31,50A12.14,12.14,0,0,0,133,62.52c0,7.24,5.17,12.42,12.31,12.42,7.45,0,12.42-5.18,12.42-12.42A12.16,12.16,0,0,0,145.31,50Z"/><path d="M195.82,65c0,8.18,6.83,11,11.49,11,5.9,0,8.48-1.14,12.93-5.9l13.25,6.63c-6,10-15.73,13.87-27.53,13.87-16,0-29.19-12.63-29.19-28S189.92,34.36,206,34.36s28.46,9.53,28.46,28.16a19.76,19.76,0,0,1-.1,2.48Zm20.7-10.14c-.83-5.59-4.66-8.59-10-8.59-6.32,0-9.83,3.72-10.15,8.59Z"/><path d="M237.84,35.92h18.32v5.59h.2c4.14-4.14,9.42-7.15,15.22-7.15,7,0,14.8,2.59,18.53,9.73,5.59-6.72,11.8-9.73,17.59-9.73,9.73,0,20.7,4.87,20.7,19.67V89H310.08V59c0-5.28-2.79-9.94-9.31-9.94-5.8,0-8.28,4.24-8.49,8.28V89H274V59c0-5.28-2.79-9.94-9.32-9.94-6.1,0-8.48,4.66-8.48,8.9V89H237.84Z"/><path d="M362.76,34.36c17.6,0,31.67,11.6,31.67,28.16,0,16.35-13.35,28-31.67,28-19.15,0-32-11.7-32-28C330.78,46,344.85,34.36,362.76,34.36Zm-.1,40.58c7.14,0,12.31-5.18,12.31-12.42a12.37,12.37,0,1,0-24.73,0C350.24,69.76,355.2,74.94,362.66,74.94Z"/><path d="M438.73,38.5l-6,12s-6.21-3.31-11.8-3.31c-4,0-5.69.72-5.69,3.21,0,2.79,3.73,3.62,8.28,5.07,7,2.17,16.15,6.11,16.15,17,0,15.63-14.29,18.12-25.15,18.12A31.76,31.76,0,0,1,394,83.42l7.45-12.52S408.71,77,414.61,77c2.59,0,5.69-.31,5.69-3.83,0-3.83-5.79-4.14-11.8-7.25-5.38-2.79-10.76-6.52-10.76-14.49,0-10.87,9.21-17.08,23.18-17.08A40.58,40.58,0,0,1,438.73,38.5Z"/><path d="M481.88,65c0,8.18,6.84,11,11.49,11,5.9,0,8.49-1.14,12.94-5.9l13.25,6.63c-6,10-15.73,13.87-27.53,13.87-16,0-29.19-12.63-29.19-28S476,34.36,492,34.36s28.46,9.53,28.46,28.16a19.76,19.76,0,0,1-.1,2.48Zm20.71-10.14c-.83-5.59-4.66-8.59-10-8.59-6.32,0-9.84,3.72-10.15,8.59Z"/><path d="M563.23,89,551.54,74l-11.7,15H517.69l22.67-27.74L520.9,35.92h21.43l9.21,12.31,9.21-12.31h21.42L562.72,61.27,585.38,89Z"/><path d="M609,34.36c7.14,0,13,2.38,17.39,6.63V35.92h18.32V89H626.58V83h-.21A23.5,23.5,0,0,1,609,90.57c-15.53,0-26.39-12.53-26.39-28S593.45,34.36,609,34.36Zm5.49,40.58c7.14,0,12.31-5.18,12.31-12.42a12.37,12.37,0,1,0-24.73,0C602.05,69.76,607,74.94,614.47,74.94Z"/><path d="M667.56,62.41a12.87,12.87,0,0,0,12.63,13.15,16.14,16.14,0,0,0,8.9-2.49l6.21,12.74s-6,4.76-17.81,4.76c-15.31,0-29.39-12.42-29.39-27.95s14-28.26,29.39-28.26c11.8,0,17.81,5,17.81,5l-6.21,12.53a16.14,16.14,0,0,0-8.9-2.49A12.84,12.84,0,0,0,667.56,62.41Z"/><path d="M700.68,16.15H719V35.92h11.18v14H719V66.76c0,5,1.24,7.35,4.14,7.35a8.63,8.63,0,0,0,4.55-1.66l4.56,14.8a30.27,30.27,0,0,1-13.46,3.32c-14.59,0-18.11-10.87-18.11-20.29V49.89H693v-14h7.66Z"/><path d="M755.84,34.36c7.14,0,13,2.38,17.39,6.63V35.92h18.32V89H773.44V83h-.21a23.5,23.5,0,0,1-17.39,7.56c-15.52,0-26.39-12.53-26.39-28S740.32,34.36,755.84,34.36Zm5.49,40.58c7.14,0,12.31-5.18,12.31-12.42a12.37,12.37,0,1,0-24.73,0C748.91,69.76,753.87,74.94,761.33,74.94Z"/><path d="M798.79,35.92h18.32v5.59h.21c4.14-4.14,9.42-7.15,15.21-7.15,7,0,14.81,2.59,18.53,9.73,5.59-6.72,11.8-9.73,17.6-9.73,9.73,0,20.7,4.87,20.7,19.67V89H871V59c0-5.28-2.8-9.94-9.32-9.94-5.79,0-8.28,4.24-8.49,8.28V89H834.91V59c0-5.28-2.79-9.94-9.31-9.94-6.11,0-8.49,4.66-8.49,8.9V89H798.79Z"/><path d="M910.78,65c0,8.18,6.83,11,11.49,11,5.9,0,8.48-1.14,12.93-5.9l13.25,6.63c-6,10-15.73,13.87-27.53,13.87-16,0-29.19-12.63-29.19-28s13.15-28.16,29.19-28.16,28.46,9.53,28.46,28.16a19.76,19.76,0,0,1-.1,2.48Zm20.7-10.14c-.83-5.59-4.66-8.59-10-8.59-6.32,0-9.83,3.72-10.15,8.59Z"/><path d="M952.8,35.92h18.32v5.59h.2c4.14-4.14,9.42-7.15,15.22-7.15,9.73,0,23.29,4.87,23.29,19.67V89H991.51V59c0-5.28-3.63-10.35-9.52-10.35-5.49,0-10.87,5.07-10.87,10.35V89H952.8Z"/><path d="M1019.14,16.15h18.32V35.92h11.18v14h-11.18V66.76c0,5,1.24,7.35,4.14,7.35a8.63,8.63,0,0,0,4.55-1.66l4.56,14.8a30.27,30.27,0,0,1-13.46,3.32c-14.59,0-18.11-10.87-18.11-20.29V49.89h-7.66v-14h7.66Z"/><path d="M1067,65c0,8.18,6.83,11,11.48,11,5.9,0,8.49-1.14,12.94-5.9l13.25,6.63c-6,10-15.73,13.87-27.53,13.87-16,0-29.19-12.63-29.19-28s13.15-28.16,29.19-28.16,28.46,9.53,28.46,28.16a19.76,19.76,0,0,1-.1,2.48Zm20.7-10.14c-.83-5.59-4.66-8.59-10-8.59-6.32,0-9.84,3.72-10.15,8.59Z"/><path class="cls-1" d="M208.37,170.67A41.39,41.39,0,0,1,239,184h.36V173.4h31.87V314.15H239V257.89c-7.65,7.46-18,11.65-30.59,11.65-27.31,0-46.43-22.21-46.43-49.52S181.06,170.67,208.37,170.67ZM218,242.05c12,0,21.67-9.11,21.67-22,0-12.75-9.11-21.85-21.67-21.85-13.11,0-21.85,9.1-21.85,21.85C196.17,232.94,205.82,242.05,218,242.05Z"/><path class="cls-1" d="M314.33,217.83c0,18.39,4.92,25.49,18.39,25.49s18.39-7.1,18.39-25.49V173.4h32.23v52.26c0,31.32-15.66,43.88-50.62,43.88S282.1,257,282.1,225.66V173.4h32.23Z"/><path class="cls-1" d="M421,224.57c0,14.38,12,19.3,20.21,19.3,10.38,0,14.93-2,22.76-10.38l23.3,11.65c-10.56,17.66-27.67,24.4-48.43,24.4-28.22,0-51.34-22.21-51.34-49.34,0-27.31,23.12-49.53,51.34-49.53,28.41,0,50.07,16.75,50.07,49.53a34.14,34.14,0,0,1-.18,4.37Zm36.41-17.85c-1.45-9.83-8.19-15.11-17.66-15.11-11.1,0-17.29,6.56-17.84,15.11Zm7.1-92.85L481.1,134.8l-43.33,25.13-10.2-14Z"/><path class="cls-1" d="M535.53,173.4h32.23v9.84h.36c7.29-7.29,16.57-12.57,26.77-12.57,17.11,0,41,8.56,41,34.6v61.54H603.63V214c0-9.29-6.37-18.21-16.75-18.21-9.65,0-19.12,8.92-19.12,18.21v52.8H535.53Z"/><path class="cls-1" d="M673.54,224.57c0,14.38,12,19.3,20.21,19.3,10.38,0,14.93-2,22.76-10.38l23.31,11.65c-10.56,17.66-27.68,24.4-48.44,24.4-28.22,0-51.34-22.21-51.34-49.34,0-27.31,23.12-49.53,51.34-49.53,28.41,0,50.07,16.75,50.07,49.53a34.14,34.14,0,0,1-.18,4.37ZM710,206.72c-1.45-9.83-8.19-15.11-17.66-15.11-11.1,0-17.29,6.56-17.84,15.11Z"/><path class="cls-1" d="M775,220c0,12.92,10,23.12,22.21,23.12a28.43,28.43,0,0,0,15.66-4.37l10.92,22.39s-10.56,8.38-31.31,8.38c-26.95,0-51.71-21.85-51.71-49.16,0-27.49,24.58-49.71,51.71-49.71,20.75,0,31.31,8.74,31.31,8.74l-10.92,22a28.43,28.43,0,0,0-15.66-4.37C785,197.07,775,207.27,775,220Z"/><path class="cls-1" d="M854.51,224.57c0,14.38,12,19.3,20.21,19.3,10.38,0,14.93-2,22.76-10.38l23.3,11.65c-10.56,17.66-27.67,24.4-48.43,24.4-28.22,0-51.34-22.21-51.34-49.34,0-27.31,23.12-49.53,51.34-49.53,28.4,0,50.07,16.75,50.07,49.53a34.14,34.14,0,0,1-.18,4.37Zm36.41-17.85c-1.45-9.83-8.19-15.11-17.66-15.11-11.1,0-17.3,6.56-17.84,15.11Z"/><path class="cls-1" d="M1000.34,178l-10.56,21.12s-10.92-5.83-20.76-5.83c-7.1,0-10,1.28-10,5.64,0,4.92,6.55,6.38,14.57,8.93,12.38,3.82,28.4,10.74,28.4,29.86,0,27.49-25.13,31.86-44.24,31.86-22.58,0-36.06-12.56-36.06-12.56l13.11-22s12.75,10.74,23.13,10.74c4.55,0,10-.55,10-6.74,0-6.74-10.19-7.28-20.75-12.74-9.47-4.92-18.94-11.47-18.94-25.49,0-19.12,16.2-30.05,40.78-30.05A71.26,71.26,0,0,1,1000.34,178Z"/><path class="cls-1" d="M1044.58,134.8a19.12,19.12,0,1,1-19.12-19.11A19.12,19.12,0,0,1,1044.58,134.8Zm-35.68,132h32.22V173.4H1008.9Z"/><path class="cls-1" d="M1060.24,138.63h32.22V173.4h19.67V198h-19.67v29.68c0,8.74,2.19,12.93,7.29,12.93,4.18,0,8-2.91,8-2.91l8,26a53.32,53.32,0,0,1-23.67,5.83c-25.67,0-31.86-19.12-31.86-35.69V198h-13.48V173.4h13.48Z"/><path class="cls-1" d="M1157.28,170.67c12.56,0,22.94,4.19,30.59,11.66V173.4h32.22v93.41h-31.86V256.25h-.36a41.37,41.37,0,0,1-30.59,13.29c-27.31,0-46.43-22-46.43-49.34S1130,170.67,1157.28,170.67Zm9.65,71.38c12.56,0,21.66-9.11,21.66-21.85,0-12.93-9.65-22-21.66-22-12.2,0-21.85,9.1-21.85,22C1145.08,232.94,1153.82,242.05,1166.93,242.05Z"/><path class="cls-1" d="M1304.75,178l-10.56,21.12s-10.92-5.83-20.76-5.83c-7.1,0-10,1.28-10,5.64,0,4.92,6.55,6.38,14.57,8.93,12.38,3.82,28.4,10.74,28.4,29.86,0,27.49-25.13,31.86-44.25,31.86-22.57,0-36.05-12.56-36.05-12.56l13.11-22s12.75,10.74,23.13,10.74c4.55,0,10-.55,10-6.74,0-6.74-10.2-7.28-20.76-12.74-9.46-4.92-18.93-11.47-18.93-25.49,0-19.12,16.2-30.05,40.78-30.05A71.26,71.26,0,0,1,1304.75,178Z"/><path d="M1429.78,231.47l-41.71,80H1367l18.32-35.19-25.16-44.82h21.12l14.8,27.22,12.63-27.22Z"/><path class="cls-1" d="M1056.66,355.56a41.39,41.39,0,0,1,30.58,13.29h.37V358.29h31.86V499h-32.23V442.78c-7.64,7.46-18,11.65-30.58,11.65-27.32,0-46.43-22.22-46.43-49.53S1029.34,355.56,1056.66,355.56Zm9.65,71.37c12,0,21.66-9.1,21.66-22,0-12.74-9.1-21.85-21.66-21.85-13.11,0-21.85,9.11-21.85,21.85C1044.46,417.83,1054.11,426.93,1066.31,426.93Z"/><path class="cls-1" d="M1162.61,402.72c0,18.39,4.92,25.49,18.39,25.49s18.39-7.1,18.39-25.49V358.29h32.23v52.26c0,31.31-15.66,43.88-50.62,43.88s-50.62-12.57-50.62-43.88V358.29h32.23Z"/><path class="cls-1" d="M1269.3,409.46c0,14.38,12,19.29,20.21,19.29,10.38,0,14.93-2,22.76-10.37L1335.58,430c-10.56,17.66-27.68,24.4-48.43,24.4-28.23,0-51.35-22.22-51.35-49.34,0-27.32,23.12-49.53,51.35-49.53,28.4,0,50.07,16.75,50.07,49.53a32.35,32.35,0,0,1-.19,4.37Zm36.42-17.85c-1.46-9.83-8.2-15.11-17.66-15.11-11.11,0-17.3,6.55-17.85,15.11Zm7.1-92.86,16.57,20.94-43.34,25.13-10.19-14Z"/><path class="cls-1" d="M1410.58,409.46c0,14.38,12,19.29,20.21,19.29,10.38,0,14.93-2,22.76-10.37L1476.86,430c-10.56,17.66-27.68,24.4-48.43,24.4-28.23,0-51.35-22.22-51.35-49.34,0-27.32,23.12-49.53,51.35-49.53,28.4,0,50.07,16.75,50.07,49.53a32.35,32.35,0,0,1-.19,4.37ZM1447,391.61c-1.46-9.83-8.2-15.11-17.66-15.11-11.11,0-17.3,6.55-17.85,15.11Z"/><path class="cls-1" d="M1556.42,362.84,1545.86,384s-10.93-5.82-20.76-5.82c-7.1,0-10,1.27-10,5.64,0,4.92,6.55,6.38,14.56,8.92,12.38,3.83,28.41,10.75,28.41,29.87,0,27.49-25.13,31.86-44.25,31.86-22.57,0-36-12.57-36-12.57l13.11-22s12.75,10.75,23.12,10.75c4.56,0,10-.55,10-6.74,0-6.74-10.2-7.28-20.76-12.75-9.47-4.91-18.93-11.47-18.93-25.49,0-19.11,16.2-30,40.78-30A71.33,71.33,0,0,1,1556.42,362.84Z"/><path class="cls-1" d="M1570.43,323.52h32.23v34.77h19.66v24.58h-19.66v29.68c0,8.74,2.18,12.93,7.28,12.93,4.19,0,8-2.91,8-2.91l8,26a53.32,53.32,0,0,1-23.67,5.83c-25.68,0-31.87-19.12-31.87-35.69V382.87H1557V358.29h13.47Z"/><path class="cls-1" d="M1621,405.09c0-27.32,19.12-49.53,46.43-49.53,12.57,0,22.94,4.19,30.59,11.65v-8.92h32.23V451.7h-31.86V441.14h-.37a41.39,41.39,0,0,1-30.59,13.29C1640.16,454.43,1621,432.4,1621,405.09Zm34.23,0c0,12.74,8.74,21.84,21.85,21.84,12.57,0,21.67-9.1,21.67-21.84,0-12.93-9.65-22-21.67-22C1664.92,383.05,1655.27,392.16,1655.27,405.09Zm13.11-74.29,10.2,14,43.33-25.13-16.56-20.94Z"/><path class="cls-1" d="M1815,362.84,1804.39,384s-10.93-5.82-20.76-5.82c-7.1,0-10,1.27-10,5.64,0,4.92,6.56,6.38,14.57,8.92,12.38,3.83,28.4,10.75,28.4,29.87,0,27.49-25.12,31.86-44.24,31.86-22.58,0-36-12.57-36-12.57l13.11-22s12.74,10.75,23.12,10.75c4.55,0,10-.55,10-6.74,0-6.74-10.2-7.28-20.76-12.75-9.47-4.91-18.94-11.47-18.94-25.49,0-19.11,16.21-30,40.79-30A71.39,71.39,0,0,1,1815,362.84Z"/><path class="cls-1" d="M1079.78,627.09a41.39,41.39,0,0,1-30.59-13.29h-.36v10.56H1017V467.77h32.23v72.1c7.65-7.46,18-11.65,30.59-11.65,27.31,0,46.43,22.21,46.43,49.53S1107.09,627.09,1079.78,627.09Zm-9.65-71.38c-12,0-21.67,9.11-21.67,22,0,12.74,9.11,21.85,21.67,21.85,13.11,0,21.85-9.11,21.85-21.85C1092,564.82,1082.33,555.71,1070.13,555.71Z"/><path class="cls-1" d="M1162.61,575.38c0,18.39,4.92,25.49,18.39,25.49s18.39-7.1,18.39-25.49V531h32.23v52.26c0,31.32-15.66,43.88-50.62,43.88s-50.62-12.56-50.62-43.88V531h32.23Z"/><path class="cls-1" d="M1314.46,535.5l-10.56,21.12s-10.93-5.82-20.76-5.82c-7.1,0-10,1.27-10,5.64,0,4.92,6.55,6.38,14.56,8.92,12.38,3.83,28.41,10.75,28.41,29.86,0,27.5-25.13,31.87-44.25,31.87-22.58,0-36-12.56-36-12.56l13.11-22s12.74,10.75,23.12,10.75c4.55,0,10-.55,10-6.74,0-6.74-10.2-7.28-20.76-12.75-9.47-4.91-18.94-11.47-18.94-25.49,0-19.11,16.21-30,40.79-30A71.33,71.33,0,0,1,1314.46,535.5Z"/><path class="cls-1" d="M1350.5,577.56c0,12.93,10,23.13,22.22,23.13a28.37,28.37,0,0,0,15.65-4.37l10.93,22.39s-10.56,8.38-31.32,8.38c-27,0-51.71-21.85-51.71-49.16,0-27.5,24.58-49.71,51.71-49.71,20.76,0,31.32,8.74,31.32,8.74l-10.93,22a28.37,28.37,0,0,0-15.65-4.37C1360.52,554.62,1350.5,564.82,1350.5,577.56Z"/><path class="cls-1" d="M1443,528.22c12.56,0,22.94,4.19,30.59,11.65V531h32.23v93.41h-31.87V613.8h-.36A41.39,41.39,0,0,1,1443,627.09c-27.31,0-46.43-22-46.43-49.34S1415.68,528.22,1443,528.22Zm9.65,71.38c12.56,0,21.67-9.11,21.67-21.85,0-12.93-9.65-22-21.67-22-12.2,0-21.85,9.11-21.85,22C1430.79,590.49,1439.53,599.6,1452.64,599.6Z"/><path class="cls-1" d="M1518.54,531h32.23v9.83h.37c7.28-7.28,16.56-12.56,26.76-12.56,17.12,0,41,8.56,41,34.6v61.54h-32.23V571.55c0-9.28-6.37-18.2-16.75-18.2-9.65,0-19.12,8.92-19.12,18.2v52.81h-32.23Z"/><path class="cls-1" d="M1669.48,528.22c12.56,0,22.94,4.19,30.59,11.65v-72.1h32.22V624.36h-31.86V613.8h-.36a41.41,41.41,0,0,1-30.59,13.29c-27.31,0-46.43-22-46.43-49.34S1642.17,528.22,1669.48,528.22Zm9.65,71.38c12.56,0,21.66-9.11,21.66-21.85,0-12.93-9.65-22-21.66-22-12.2,0-21.85,9.11-21.85,22C1657.28,590.49,1666,599.6,1679.13,599.6Z"/><path class="cls-1" d="M1794.55,528.22c31,0,55.72,20.39,55.72,49.53,0,28.76-23.49,49.34-55.72,49.34-33.68,0-56.26-20.58-56.26-49.34C1738.29,548.61,1763.05,528.22,1794.55,528.22Zm-.18,71.38c12.56,0,21.67-9.11,21.67-21.85,0-12.93-9.65-22-21.67-22-12.2,0-21.85,9.11-21.85,22C1772.52,590.49,1781.26,599.6,1794.37,599.6Z"/></g></g></svg>