<svg xmlns="http://www.w3.org/2000/svg" width="1923.83" height="718.73" viewBox="0 0 1923.83 718.73"><defs><style>.cls-1{font-size:107.24px;}.cls-1,.cls-2{font-family:LeagueSpartan-Bold, League Spartan;font-weight:700;}.cls-2{font-size:188.65px;fill:#5fcd30;}</style></defs><title>sabemos-que-necesias_1</title><g id="Capa_2" data-name="Capa 2"><g id="Capa_1-2" data-name="Capa 1"><text class="cls-1" transform="translate(0 97.85)">s</text><text class="cls-1" transform="translate(47.4 97.85)">a</text><text class="cls-1" transform="translate(115.27 97.85)">b</text><text class="cls-1" transform="translate(183.15 97.85)">e</text><text class="cls-1" transform="translate(242.45 97.85)">m</text><text class="cls-1" transform="translate(342.71 97.85)">o</text><text class="cls-1" transform="translate(408.23 97.85)">s</text><text class="cls-1" transform="translate(455.63 97.85)"> </text><text class="cls-1" transform="translate(479.54 97.85)">e</text><text class="cls-1" transform="translate(538.83 97.85)">x</text><text class="cls-1" transform="translate(603.61 97.85)">a</text><text class="cls-1" transform="translate(671.48 97.85)">c</text><text class="cls-1" transform="translate(718.77 97.85)">t</text><text class="cls-1" transform="translate(755.76 97.85)">a</text><text class="cls-1" transform="translate(823.64 97.85)">m</text><text class="cls-1" transform="translate(923.9 97.85)">e</text><text class="cls-1" transform="translate(983.2 97.85)">n</text><text class="cls-1" transform="translate(1048.72 97.85)">t</text><text class="cls-1" transform="translate(1085.72 97.85)">e</text><text class="cls-2" transform="translate(165.91 282.06)">q</text><text class="cls-2" transform="translate(285.31 282.06)">u</text><text class="cls-2" transform="translate(399.63 282.06)">é</text><text class="cls-2" transform="translate(503.94 282.06)"> </text><text class="cls-2" transform="translate(546 282.06)">n</text><text class="cls-2" transform="translate(661.26 282.06)">e</text><text class="cls-2" transform="translate(765.57 282.06)">c</text><text class="cls-2" transform="translate(848.75 282.06)">e</text><text class="cls-2" transform="translate(953.07 282.06)">s</text><text class="cls-2" transform="translate(1036.44 282.06)">i</text><text class="cls-2" transform="translate(1083.98 282.06)">t</text><text class="cls-2" transform="translate(1149.05 282.06)">a</text><text class="cls-2" transform="translate(1268.46 282.06)">s</text><text class="cls-1" transform="translate(1413.81 300.46)">y</text><text class="cls-2" transform="translate(1044.8 473.62)">q</text><text class="cls-2" transform="translate(1164.2 473.62)">u</text><text class="cls-2" transform="translate(1278.51 473.62)">é</text><text class="cls-2" transform="translate(1382.83 473.62)"> </text><text class="cls-2" transform="translate(1424.89 473.62)">e</text><text class="cls-2" transform="translate(1529.2 473.62)">s</text><text class="cls-2" transform="translate(1612.58 473.62)">t</text><text class="cls-2" transform="translate(1677.66 473.62)">á</text><text class="cls-2" transform="translate(1797.06 473.62)">s</text><text class="cls-2" transform="translate(1044.8 652.51)">b</text><text class="cls-2" transform="translate(1164.2 652.51)">u</text><text class="cls-2" transform="translate(1278.51 652.51)">s</text><text class="cls-2" transform="translate(1361.89 652.51)">c</text><text class="cls-2" transform="translate(1445.08 652.51)">a</text><text class="cls-2" transform="translate(1564.48 652.51)">n</text><text class="cls-2" transform="translate(1679.73 652.51)">d</text><text class="cls-2" transform="translate(1799.13 652.51)">o</text></g></g></svg>