<svg xmlns="http://www.w3.org/2000/svg" width="1336.15" height="468.9" viewBox="0 0 1336.15 468.9"><defs><style>.cls-1{isolation:isolate;}.cls-2{fill:#5fcd30;}.cls-3{fill:#f1ecec;}</style></defs><title>Recurso 1</title><g id="Capa_2" data-name="Capa 2"><g id="Capa_1-2" data-name="Capa 1"><g class="cls-1"><path d="M112.68,57.35h13.37V71.77h8.15V82h-8.15v12.3c0,3.62.9,5.36,3,5.36a6.33,6.33,0,0,0,3.32-1.21l3.32,10.8a22.15,22.15,0,0,1-9.82,2.41c-10.64,0-13.21-7.92-13.21-14.79V82H107.1V71.77h5.58Z"/></g><g class="cls-1"><path d="M147.56,93c0,6,5,8,8.38,8,4.3,0,6.19-.83,9.43-4.3l9.66,4.83c-4.37,7.32-11.47,10.11-20.08,10.11-11.7,0-21.28-9.21-21.28-20.45S143.25,70.63,155,70.63s20.76,7,20.76,20.54a15.14,15.14,0,0,1-.07,1.81Zm15.09-7.4c-.6-4.08-3.39-6.27-7.32-6.27-4.6,0-7.17,2.72-7.4,6.27Z"/></g><g class="cls-1"><path d="M224.86,73.65l-4.38,8.76S216,80,211.87,80c-2.94,0-4.15.53-4.15,2.34,0,2,2.72,2.65,6,3.7,5.13,1.59,11.78,4.46,11.78,12.38,0,11.4-10.42,13.21-18.35,13.21a23.14,23.14,0,0,1-14.94-5.21l5.43-9.13s5.29,4.45,9.59,4.45c1.89,0,4.15-.22,4.15-2.79,0-2.79-4.23-3-8.6-5.28-3.93-2-7.85-4.76-7.85-10.57,0-7.93,6.71-12.46,16.9-12.46A29.57,29.57,0,0,1,224.86,73.65Z"/></g><g class="cls-1"><path d="M243.2,55.76a7.93,7.93,0,1,1-7.93-7.92A7.93,7.93,0,0,1,243.2,55.76Zm-14.8,54.73h13.36V71.77H228.4Z"/></g><g class="cls-1"><path d="M258.53,93c0,6,5,8,8.38,8,4.3,0,6.19-.83,9.43-4.3l9.66,4.83c-4.37,7.32-11.47,10.11-20.08,10.11-11.7,0-21.28-9.21-21.28-20.45s9.58-20.54,21.28-20.54,20.76,7,20.76,20.54a15.14,15.14,0,0,1-.07,1.81Zm15.09-7.4c-.6-4.08-3.39-6.27-7.32-6.27-4.6,0-7.17,2.72-7.4,6.27Z"/></g><g class="cls-1"><path d="M289.17,71.77h13.36v4.07h.15c3-3,6.87-5.21,11.1-5.21,7.09,0,17,3.55,17,14.35v25.51H317.4V88.6c0-3.85-2.64-7.55-6.94-7.55-4,0-7.93,3.7-7.93,7.55v21.89H289.17Z"/></g><g class="cls-1"><path d="M337.55,57.35h13.37V71.77h8.15V82h-8.15v12.3c0,3.62.9,5.36,3,5.36a6.33,6.33,0,0,0,3.32-1.21l3.32,10.8a22.15,22.15,0,0,1-9.82,2.41c-10.64,0-13.21-7.92-13.21-14.79V82H332V71.77h5.58Z"/></g><g class="cls-1"><path d="M372.43,93c0,6,5,8,8.38,8,4.3,0,6.19-.83,9.43-4.3l9.66,4.83c-4.37,7.32-11.47,10.11-20.08,10.11-11.7,0-21.28-9.21-21.28-20.45s9.58-20.54,21.28-20.54,20.76,7,20.76,20.54a15.14,15.14,0,0,1-.07,1.81Zm15.09-7.4c-.6-4.08-3.39-6.27-7.32-6.27-4.6,0-7.17,2.72-7.4,6.27Z"/></g><g class="cls-1"><path d="M432.9,73.65l-4.38,8.76S424,80,419.91,80c-2.94,0-4.15.53-4.15,2.34,0,2,2.72,2.65,6,3.7,5.13,1.59,11.78,4.46,11.78,12.38,0,11.4-10.42,13.21-18.35,13.21a23.14,23.14,0,0,1-14.94-5.21l5.43-9.13s5.29,4.45,9.59,4.45c1.89,0,4.15-.22,4.15-2.79,0-2.79-4.23-3-8.6-5.28-3.93-2-7.86-4.76-7.86-10.57,0-7.93,6.72-12.46,16.91-12.46A29.57,29.57,0,0,1,432.9,73.65Z"/></g><g class="cls-1"><path d="M453.28,45.57h13.36v64.92H453.28Z"/></g><g class="cls-1"><path d="M486.72,55.76a7.93,7.93,0,1,1-7.93-7.92A7.93,7.93,0,0,1,486.72,55.76Zm-14.8,54.73h13.36V71.77H471.92Z"/></g><g class="cls-1"><path d="M520.76,73.65l-4.38,8.76S511.85,80,507.77,80c-2.94,0-4.15.53-4.15,2.34,0,2,2.72,2.65,6,3.7,5.13,1.59,11.78,4.46,11.78,12.38,0,11.4-10.42,13.21-18.35,13.21a23.14,23.14,0,0,1-14.94-5.21l5.43-9.13s5.29,4.45,9.59,4.45c1.89,0,4.15-.22,4.15-2.79,0-2.79-4.23-3-8.6-5.28-3.93-2-7.86-4.76-7.86-10.57,0-7.93,6.72-12.46,16.91-12.46A29.57,29.57,0,0,1,520.76,73.65Z"/></g><g class="cls-1"><path d="M526.57,57.35h13.37V71.77h8.15V82h-8.15v12.3c0,3.62.9,5.36,3,5.36a6.34,6.34,0,0,0,3.33-1.21l3.32,10.8a22.15,22.15,0,0,1-9.82,2.41c-10.64,0-13.21-7.92-13.21-14.79V82H521V71.77h5.58Z"/></g><g class="cls-1"><path d="M570.88,70.63c12.83,0,23.1,8.46,23.1,20.54,0,11.92-9.74,20.45-23.1,20.45-14,0-23.32-8.53-23.32-20.45C547.56,79.09,557.82,70.63,570.88,70.63Zm-.07,29.59a8.7,8.7,0,0,0,9-9,9,9,0,1,0-18,0A8.63,8.63,0,0,0,570.81,100.22Z"/></g><g class="cls-1"><path d="M639.35,111.62a17.59,17.59,0,0,1-12.68-4.83v23.33H613.31V71.77h13.21v4.37h.15a17.16,17.16,0,0,1,12.68-5.51c11.33,0,19.25,9.14,19.25,20.46S650.68,111.62,639.35,111.62Zm-4-29.59a8.7,8.7,0,0,0-9,9.06,9,9,0,1,0,18,0A8.64,8.64,0,0,0,635.35,82Z"/></g><g class="cls-1"><path d="M677.55,70.63a17.65,17.65,0,0,1,12.68,4.83V71.77h13.36v38.72H690.38v-4.38h-.15a17.16,17.16,0,0,1-12.68,5.51c-11.33,0-19.25-9.13-19.25-20.45S666.22,70.63,677.55,70.63Zm4,29.59a8.7,8.7,0,0,0,9-9,9,9,0,1,0-18,0A8.63,8.63,0,0,0,681.55,100.22Z"/></g><g class="cls-1"><path d="M708.87,71.77h13.36v5.58h.15s4.23-6.72,11.85-6.72a16,16,0,0,1,8.46,2.42L737.1,84.37a11.28,11.28,0,0,0-6.94-2.11c-6.95,0-7.93,6.87-7.93,7.85v20.38H708.87Z"/></g><g class="cls-1"><path d="M759.15,70.63a17.65,17.65,0,0,1,12.68,4.83V71.77h13.36v38.72H772v-4.38h-.15a17.16,17.16,0,0,1-12.68,5.51c-11.33,0-19.25-9.13-19.25-20.45S747.82,70.63,759.15,70.63Zm4,29.59a8.7,8.7,0,0,0,9-9,9,9,0,1,0-18,0A8.63,8.63,0,0,0,763.15,100.22Z"/></g><g class="cls-1"><path class="cls-2" d="M228,137.41a13.95,13.95,0,1,1-13.95-14A13.95,13.95,0,0,1,228,137.41Zm-26,96.31h23.52V165.57H201.94Z"/></g><g class="cls-1"><path class="cls-2" d="M235.41,165.57h23.52v7.18h.26c5.31-5.32,12.09-9.17,19.53-9.17,12.49,0,29.89,6.24,29.89,25.24v44.9H285.09V195.2c0-6.78-4.64-13.29-12.22-13.29-7,0-13.94,6.51-13.94,13.29v38.52H235.41Z"/></g><g class="cls-1"><path class="cls-2" d="M336.63,199.58c0,9.43,7.31,16.87,16.21,16.87a20.7,20.7,0,0,0,11.42-3.19l8,16.34s-7.7,6.11-22.85,6.11c-19.66,0-37.72-15.94-37.72-35.86s17.93-36.27,37.72-36.27c15.15,0,22.85,6.38,22.85,6.38l-8,16.07a20.7,20.7,0,0,0-11.42-3.19A16.48,16.48,0,0,0,336.63,199.58Z"/></g><g class="cls-1"><path class="cls-2" d="M375.14,165.57h23.52v9.83h.26s7.44-11.82,20.86-11.82a28.28,28.28,0,0,1,14.88,4.25l-9.84,19.93S420.44,184,412.6,184c-12.22,0-13.94,12.09-13.94,13.81v35.87H375.14Z"/></g><g class="cls-1"><path class="cls-2" d="M454.18,202.9c0,10.5,8.77,14.08,14.75,14.08,7.57,0,10.89-1.46,16.6-7.57l17,8.5c-7.7,12.89-20.19,17.8-35.33,17.8-20.59,0-37.46-16.2-37.46-36s16.87-36.13,37.46-36.13,36.53,12.22,36.53,36.13a25.14,25.14,0,0,1-.13,3.19Zm26.57-13c-1.06-7.17-6-11-12.89-11-8.1,0-12.62,4.78-13,11Z"/></g><g class="cls-1"><path class="cls-2" d="M508.1,165.57h23.51v7.18h.27c5.31-5.32,12.09-9.17,19.53-9.17,9,0,19,3.32,23.78,12.49,7.17-8.64,15.14-12.49,22.58-12.49,12.49,0,26.57,6.24,26.57,25.24v44.9H600.83V195.2c0-6.78-3.59-12.76-12-12.76-7.44,0-10.63,5.45-10.89,10.63v40.65H554.46V195.2c0-6.78-3.58-12.76-12-12.76-7.84,0-10.9,6-10.9,11.43v39.85H508.1Z"/></g><g class="cls-1"><path class="cls-2" d="M651.82,202.85c-.05,10.49,8.7,14.12,14.68,14.14,7.57,0,10.9-1.41,16.64-7.5l17,8.57c-7.76,12.86-20.27,17.72-35.41,17.65-20.59-.08-37.4-16.36-37.31-36.15s17-36.06,37.61-36,36.48,12.38,36.38,36.29a23.3,23.3,0,0,1-.15,3.19Zm26.62-12.91c-1-7.18-5.93-11.05-12.84-11.08-8.1,0-12.64,4.73-13.06,11Z"/></g><g class="cls-1"><path class="cls-2" d="M705.75,165.57h23.52v7.18h.26c5.31-5.32,12.09-9.17,19.53-9.17,12.49,0,29.89,6.24,29.89,25.24v44.9H755.44V195.2c0-6.78-4.65-13.29-12.23-13.29-7,0-13.94,6.51-13.94,13.29v38.52H705.75Z"/></g><g class="cls-1"><path class="cls-2" d="M790.89,140.2H814.4v25.37h14.35v17.94H814.4v21.65c0,6.38,1.59,9.43,5.31,9.43a11.14,11.14,0,0,0,5.85-2.12l5.84,19a38.91,38.91,0,0,1-17.27,4.25c-18.73,0-23.24-14-23.24-26V183.51h-9.83V165.57h9.83Z"/></g><g class="cls-1"><path class="cls-2" d="M861.69,163.58c9.17,0,16.74,3,22.32,8.5v-6.51h23.51v68.15H884.28V226H884a30.18,30.18,0,0,1-22.32,9.69c-19.92,0-33.87-16.07-33.87-36S841.77,163.58,861.69,163.58Zm7,52.07c9.17,0,15.81-6.64,15.81-15.94s-7-16.07-15.81-16.07a15.61,15.61,0,0,0-15.94,16.07C852.79,209,859.17,215.65,868.73,215.65Z"/></g><g class="cls-1"><path class="cls-2" d="M916.81,165.57h23.51v9.83h.27s7.44-11.82,20.86-11.82a28.28,28.28,0,0,1,14.88,4.25l-9.84,19.93S962.11,184,954.27,184c-12.22,0-13.95,12.09-13.95,13.81v35.87H916.81Z"/></g><g class="cls-1"><path class="cls-2" d="M703.08,313.91l16.6-37.07h27.9L711.05,345H695.11l-36.54-68.15h27.9Z"/></g><g class="cls-1"><path class="cls-2" d="M765.77,314.17c0,10.5,8.77,14.08,14.75,14.08,7.57,0,10.89-1.46,16.6-7.57l17,8.5c-7.7,12.89-20.19,17.8-35.33,17.8-20.59,0-37.46-16.2-37.46-36s16.87-36.13,37.46-36.13,36.53,12.22,36.53,36.13a25.14,25.14,0,0,1-.13,3.19Zm26.57-13c-1.06-7.17-6-11-12.89-11-8.1,0-12.62,4.78-13,11Z"/></g><g class="cls-1"><path class="cls-2" d="M819.69,276.84H843.2V284h.27c5.31-5.32,12.09-9.17,19.53-9.17,12.49,0,29.89,6.24,29.89,25.24V345H869.37V306.47c0-6.78-4.64-13.29-12.22-13.29-7,0-13.95,6.51-13.95,13.29V345H819.69Z"/></g><g class="cls-1"><path class="cls-2" d="M904.83,251.47h23.51v25.37h14.35v17.94H928.34v21.65c0,6.38,1.59,9.43,5.31,9.43a11.14,11.14,0,0,0,5.85-2.12l5.84,19A38.91,38.91,0,0,1,928.07,347c-18.73,0-23.24-14-23.24-26V294.78H895V276.84h9.83Z"/></g><g class="cls-1"><path class="cls-2" d="M975.63,274.85c9.17,0,16.74,3,22.32,8.5v-6.51h23.51V345H998.21v-7.7H998A30.18,30.18,0,0,1,975.63,347c-19.93,0-33.87-16.07-33.87-36S955.7,274.85,975.63,274.85Zm7,52.07c9.17,0,15.81-6.64,15.81-15.94s-7-16.07-15.81-16.07A15.61,15.61,0,0,0,966.73,311C966.73,320.28,973.11,326.92,982.67,326.92Z"/></g><g class="cls-1"><path class="cls-2" d="M1083.22,280.16l-7.7,15.41s-8-4.25-15.14-4.25c-5.18,0-7.31.93-7.31,4.12,0,3.59,4.78,4.65,10.63,6.51,9,2.79,20.72,7.84,20.72,21.79,0,20.05-18.33,23.24-32.28,23.24-16.47,0-26.3-9.16-26.3-9.16l9.56-16.08s9.3,7.84,16.87,7.84c3.32,0,7.31-.4,7.31-4.91,0-4.92-7.44-5.32-15.15-9.3-6.9-3.59-13.81-8.37-13.81-18.6,0-13.95,11.82-21.92,29.76-21.92A52,52,0,0,1,1083.22,280.16Z"/></g><g class="cls-1"><path d="M536.37,291h13.37v14.42h8.15v10.19h-8.15v12.3c0,3.62.9,5.36,3,5.36a6.33,6.33,0,0,0,3.32-1.21l3.32,10.8a22.15,22.15,0,0,1-9.82,2.41c-10.64,0-13.21-7.92-13.21-14.79V315.57h-5.58V305.38h5.58Z"/></g><g class="cls-1"><path d="M572.76,323.79c0,7.63,2,10.57,7.62,10.57s7.62-2.94,7.62-10.57V305.38h13.37V327c0,13-6.5,18.19-21,18.19s-21-5.21-21-18.19V305.38h13.36Z"/></g><g class="cls-1"><path d="M635.72,307.26,631.34,316s-4.53-2.42-8.61-2.42c-2.94,0-4.15.53-4.15,2.34,0,2,2.72,2.65,6,3.7,5.13,1.59,11.78,4.46,11.78,12.38,0,11.4-10.42,13.21-18.35,13.21A23.14,23.14,0,0,1,603.11,340l5.43-9.13s5.29,4.45,9.59,4.45c1.89,0,4.15-.22,4.15-2.79,0-2.79-4.23-3-8.6-5.28-3.93-2-7.86-4.76-7.86-10.57,0-7.93,6.72-12.46,16.91-12.46A29.57,29.57,0,0,1,635.72,307.26Z"/></g><path class="cls-3" d="M1062.59,468.9l18-72.36h81.06l-18,72.36Zm191-410.13q19.47,0,34.24,3.88t24.11,10.44a49.66,49.66,0,0,1,15,16.64,68.5,68.5,0,0,1,7.67,21,109,109,0,0,1,1.32,25.13,227.76,227.76,0,0,1-3,27.32q-2.25,13.11-6.24,29.14a240.9,240.9,0,0,1-19.89,53.42,183.77,183.77,0,0,1-30.87,43A126.63,126.63,0,0,1,1232,318.12q-25.59,10.45-56.61,10.45l-10.29,41.28h-75.4l25.19-101q18.79,0,33.3-1a173.82,173.82,0,0,0,26.38-3.64,147.34,147.34,0,0,0,20.39-5.95,53.16,53.16,0,0,0,15.58-9.35,82.22,82.22,0,0,0,11.77-12.26,77.83,77.83,0,0,0,9.07-16.39,204.84,204.84,0,0,0,7.34-19.92q3-9.71,6.68-24.52,4.61-18.45,2.82-29t-14-10.56a36.39,36.39,0,0,0-5.52.36,17.69,17.69,0,0,0-6.28,2.92,26.16,26.16,0,0,0-7.07,7,72.17,72.17,0,0,0-6.84,13.35,154.2,154.2,0,0,0-6.83,21.49l-8.84,35.46H1110l15.38-61.68q12-48.07,46.42-72.24t81.79-24.15Z"/><path class="cls-3" d="M34.33,164.34a57.68,57.68,0,0,1-14.16-1.56,31.89,31.89,0,0,1-10-4.18,20.35,20.35,0,0,1-6.25-6.67,27.07,27.07,0,0,1-3.23-8.41,42.48,42.48,0,0,1-.62-10.07A87.4,87.4,0,0,1,1.21,122.5q.9-5.25,2.49-11.68a93.55,93.55,0,0,1,8.06-21.4A72.88,72.88,0,0,1,24.38,72.2a52,52,0,0,1,18-11.78,63,63,0,0,1,23.36-4.18L69.9,39.7H101L91,80.17c-5.17,0-9.76.14-13.75.39A74,74,0,0,0,66.32,82a63.38,63.38,0,0,0-8.41,2.39,22,22,0,0,0-6.41,3.74,33,33,0,0,0-4.82,4.92A30.05,30.05,0,0,0,43,99.63a81,81,0,0,0-3,8q-1.2,3.9-2.68,9.83-1.85,7.4-1.08,11.63t5.82,4.23a14.48,14.48,0,0,0,2.28-.15A7.19,7.19,0,0,0,46.94,132a10.7,10.7,0,0,0,2.9-2.83,27.73,27.73,0,0,0,2.78-5.35,58.72,58.72,0,0,0,2.76-8.61L58.92,101H93.16L87,125.71q-4.8,19.26-19,29T34.33,164.34ZM112,0l-7.23,29H71.26L78.49,0Z"/></g></g></svg>