<svg xmlns="http://www.w3.org/2000/svg" width="684.57" height="495.83" viewBox="0 0 684.57 495.83"><defs><style>.cls-1{fill:none;}.cls-2,.cls-3{fill:#5fcd30;isolation:isolate;}.cls-2{opacity:0.2;}.cls-3{opacity:0.26;}</style></defs><title>unete-findoo</title><g id="Capa_2" data-name="Capa 2"><g id="Capa_1-2" data-name="Capa 1"><path class="cls-1" d="M299.47,237.43c-9.44,0-14.71,5.57-15.17,12.85h30.19C313.25,241.92,307.52,237.43,299.47,237.43Z"/><path class="cls-1" d="M438.52,237.43c-9.44,0-14.71,5.57-15.17,12.85h30.19C452.3,241.92,446.57,237.43,438.52,237.43Z"/><path class="cls-1" d="M51.26,137.27a5.31,5.31,0,0,0-.3-1.11l-.2,1.11Z"/><path class="cls-1" d="M69.9,98.48a5.37,5.37,0,1,0,10.73,0,5.37,5.37,0,1,0-10.73,0Z"/><path class="cls-1" d="M93.47,146a5.27,5.27,0,0,0,5.39-5.43,5.37,5.37,0,1,0-10.74,0A5.26,5.26,0,0,0,93.47,146Z"/><path class="cls-1" d="M262.58,146a5.18,5.18,0,0,0,5.35-5.39,5.37,5.37,0,1,0-10.73,0A5.13,5.13,0,0,0,262.58,146Z"/><path class="cls-1" d="M120,133.54c-2.74,0-4.27,1.62-4.4,3.73h8.76A4.1,4.1,0,0,0,120,133.54Z"/><path class="cls-1" d="M165,133.54c-2.74,0-4.27,1.62-4.4,3.73h8.76A4.1,4.1,0,0,0,165,133.54Z"/><path class="cls-1" d="M561.93,280.32a19,19,0,0,0,10.12-2.78l4.74-27.14a18.13,18.13,0,0,0-14.86-7.4c-10.37,0-18.58,7.75-18.58,18.74C543.35,272.58,550.79,280.32,561.93,280.32Z"/><path class="cls-1" d="M490.86,389.54c-10.37,0-18.58,7.75-18.58,18.74s7.43,18.58,18.58,18.58c10.69,0,18.43-7.74,18.43-18.58S501.08,389.54,490.86,389.54Z"/><path class="cls-1" d="M396.24,389.54c-10.37,0-18.58,7.75-18.58,18.74s7.43,18.58,18.58,18.58c10.69,0,18.43-7.74,18.43-18.58S406.46,389.54,396.24,389.54Z"/><path class="cls-1" d="M298.22,389.54c-10.37,0-18.58,7.75-18.58,18.74s7.44,18.58,18.58,18.58c10.69,0,18.43-7.74,18.43-18.58S308.44,389.54,298.22,389.54Z"/><path class="cls-2" d="M51,136.16a4,4,0,0,0-4.06-2.62c-2.74,0-4.27,1.62-4.4,3.73h8.26Z"/><polygon class="cls-2" points="85.75 0 45.48 0 37 36.87 77.23 36.87 85.75 0"/><path class="cls-2" d="M34,140.59a12.48,12.48,0,0,1,12.67-12.21,14.4,14.4,0,0,1,5.47,1L55.56,110H52.47V97a4.26,4.26,0,0,0-4.13-4.49A4.91,4.91,0,0,0,43.62,97v13H35.67v-23h7.95v2.43h.09a9.54,9.54,0,0,1,6.6-3.1c3,0,6.74,1,8.73,3.89l6.32-36H40.84L0,197H40.27l7.78-44.28c-.45,0-.91,0-1.37,0A12.47,12.47,0,0,1,34,140.59Z"/><path class="cls-2" d="M47.26,146.43a9.84,9.84,0,0,0,1.92-.16l.81-4.6H42.28A4.7,4.7,0,0,0,47.26,146.43Z"/><path d="M50.31,86.27a9.54,9.54,0,0,0-6.6,3.1h-.09V86.94H35.67v23h7.95V97a4.91,4.91,0,0,1,4.72-4.49A4.26,4.26,0,0,1,52.47,97v13h8V94.8A7.84,7.84,0,0,0,59,90.16C57.05,87.32,53.28,86.27,50.31,86.27Z"/><path d="M61.45,98.48c0,7.1,5.57,12.17,13.88,12.17,8,0,13.74-5.07,13.74-12.17S83,86.27,75.33,86.27,61.45,91.3,61.45,98.48Zm19.18,0a5.37,5.37,0,1,1-10.73,0,5.37,5.37,0,1,1,10.73,0Z"/><path d="M49.18,146.27a9.84,9.84,0,0,1-1.92.16,4.7,4.7,0,0,1-5-4.76H59a7.46,7.46,0,0,0,.05-1.08c0-5.78-2.75-9.53-6.88-11.2a14.4,14.4,0,0,0-5.47-1,12.2,12.2,0,1,0,0,24.38c.46,0,.92,0,1.37,0,4.5-.29,8.2-2,10.57-6l-5.75-2.88A6.59,6.59,0,0,1,49.18,146.27ZM46.9,133.54A4,4,0,0,1,51,136.16a5.31,5.31,0,0,1,.3,1.11H42.5C42.63,135.16,44.16,133.54,46.9,133.54Z"/><path d="M78.65,144.9c0-4.71-4-6.42-7-7.36-2-.63-3.59-1-3.59-2.2s.72-1.39,2.47-1.39a13.06,13.06,0,0,1,5.12,1.43l2.6-5.2a17.56,17.56,0,0,0-7.72-1.8c-6.06,0-10.06,2.69-10.06,7.41,0,3.46,2.33,5.07,4.67,6.29,2.6,1.34,5.12,1.48,5.12,3.14s-1.35,1.66-2.47,1.66c-2.56,0-5.7-2.65-5.7-2.65l-3.24,5.44a13.83,13.83,0,0,0,8.89,3.09C72.45,152.76,78.65,151.69,78.65,144.9Z"/><path d="M88.21,131.66v-2.61H80.35v34.72h8V149.89a10.5,10.5,0,0,0,7.55,2.87c6.24,0,10.74-4.7,11.37-10.75a12.52,12.52,0,0,0,12.57,10.75c5.12,0,9.34-1.66,11.94-6L126,143.87c-1.93,2.07-3,2.56-5.61,2.56a4.7,4.7,0,0,1-5-4.76h16.7a7.46,7.46,0,0,0,0-1.08c0-8.08-5.35-12.21-12.35-12.21a12.55,12.55,0,0,0-12.57,10.76c-.61-6.07-5.12-10.76-11.37-10.76a10.2,10.2,0,0,0-7.55,3.28Zm31.8,1.88a4.1,4.1,0,0,1,4.36,3.73h-8.76C115.74,135.16,117.27,133.54,120,133.54Zm-26.54,1.62a5.14,5.14,0,0,1,5.39,5.39,5.37,5.37,0,1,1-10.74,0A5.18,5.18,0,0,1,93.47,135.16Z"/><path d="M141.56,140c0-.58.59-4.67,4.72-4.67a6.69,6.69,0,0,1,4.13,1.26l3.32-6.73a9.51,9.51,0,0,0-5-1.44c-4.53,0-7,4-7,4h-.09v-3.33h-7.95v23h7.95Z"/><path d="M164.73,152.76c5.12,0,9.34-1.66,11.94-6l-5.75-2.88c-1.93,2.07-3,2.56-5.61,2.56a4.7,4.7,0,0,1-5-4.76H177a7.46,7.46,0,0,0,.05-1.08c0-8.08-5.35-12.21-12.35-12.21a12.2,12.2,0,1,0,0,24.38Zm.22-19.22a4.1,4.1,0,0,1,4.36,3.73h-8.76C160.68,135.16,162.21,133.54,165,133.54Z"/><path d="M183.19,142.08c2.6,1.34,5.12,1.48,5.12,3.14s-1.35,1.66-2.47,1.66c-2.56,0-5.7-2.65-5.7-2.65l-3.24,5.44a13.83,13.83,0,0,0,8.89,3.09c4.72,0,10.92-1.07,10.92-7.86,0-4.71-4-6.42-7-7.36-2-.63-3.59-1-3.59-2.2s.72-1.39,2.47-1.39a13.06,13.06,0,0,1,5.12,1.43l2.6-5.2a17.56,17.56,0,0,0-7.72-1.8c-6.06,0-10.06,2.69-10.06,7.41C178.52,139.25,180.85,140.86,183.19,142.08Z"/><path d="M216.37,138.62a3.57,3.57,0,0,1,3.69-3.86c2.82,0,4,2,4,4.31v13h8V138.35a3.53,3.53,0,0,1,3.68-3.59c2.83,0,4,2,4,4.31v13h7.95V136.91c0-6.42-4.76-8.53-9-8.53-2.52,0-5.21,1.3-7.64,4.22-1.61-3.1-5-4.22-8-4.22a9.54,9.54,0,0,0-6.6,3.1h-.09v-2.43h-8v23h8Z"/><path d="M260.2,152.76a10.23,10.23,0,0,0,7.55-3.27h.09v2.6h7.86v-23h-7.95v2.2a10.5,10.5,0,0,0-7.55-2.87c-6.73,0-11.45,5.48-11.45,12.21S253.47,152.76,260.2,152.76Zm2.38-17.6a5.27,5.27,0,0,1,5.35,5.43,5.37,5.37,0,1,1-10.73,0A5.28,5.28,0,0,1,262.58,135.16Z"/><polygon points="273.63 119.53 269.55 114.37 260.43 122.27 262.94 125.73 273.63 119.53"/><path d="M286.12,146.88c-2.56,0-5.7-2.65-5.7-2.65l-3.24,5.44a13.83,13.83,0,0,0,8.89,3.09c4.72,0,10.92-1.07,10.92-7.86,0-4.71-4-6.42-7-7.36-2-.63-3.59-1-3.59-2.2s.72-1.39,2.47-1.39a13.06,13.06,0,0,1,5.12,1.43l2.6-5.2a17.56,17.56,0,0,0-7.72-1.8c-6.06,0-10.06,2.69-10.06,7.41,0,3.46,2.33,5.07,4.67,6.29,2.6,1.34,5.12,1.48,5.12,3.14S287.24,146.88,286.12,146.88Z"/><path d="M313.82,152.76a5.14,5.14,0,1,0-5.12-5.12A5.13,5.13,0,0,0,313.82,152.76Z"/><path d="M327.25,152.76a5.14,5.14,0,1,0-5.12-5.12A5.13,5.13,0,0,0,327.25,152.76Z"/><path d="M340.67,152.76a5.14,5.14,0,1,0-5.12-5.12A5.13,5.13,0,0,0,340.67,152.76Z"/><path class="cls-3" d="M525.09,438.34l-13.27,57.49h81.92l17-73.65H536A39.16,39.16,0,0,1,525.09,438.34Z"/><path class="cls-3" d="M580.36,261.74a19,19,0,0,0-3.57-11.34l-4.74,27.14C577.16,274.36,580.36,268.7,580.36,261.74Z"/><path class="cls-3" d="M607.15,301.38h-27.1v-9h-.31A34.28,34.28,0,0,1,568,300.74l-15.17,86.84h49.88l81.86-285.2H602.65L581.76,221.94h25.39Z"/><path d="M129.44,259.73c0,15.64-4.18,21.67-15.64,21.67s-15.64-6-15.64-21.67V221.94H70.75v44.44c0,26.64,13.32,37.32,43.05,37.32s43.05-10.68,43.05-37.32V221.94H129.44Z"/><polygon points="104.66 198.56 113.33 210.49 150.19 189.12 136.1 171.31 104.66 198.56"/><path d="M251.46,301.38V249c0-22.14-20.28-29.42-34.84-29.42-8.67,0-16.57,4.49-22.76,10.69h-.31v-8.37H166.14v79.44h27.41V256.47c0-7.89,8-15.48,16.26-15.48,8.82,0,14.24,7.59,14.24,15.48v44.91Z"/><path d="M255,261.74c0,23.07,19.67,42,43.67,42,17.65,0,32.21-5.73,41.19-20.75L320.07,273c-6.66,7.13-10.53,8.83-19.36,8.83-7,0-17.19-4.18-17.19-16.41h57.61a29.64,29.64,0,0,0,.15-3.72c0-27.87-18.43-42.12-42.58-42.12C274.7,219.62,255,238.51,255,261.74Zm44.44-24.31c8,0,13.78,4.49,15,12.85H284.3C284.76,243,290,237.43,299.47,237.43Z"/><path d="M339.58,242.85H351v30.5c0,14.09,5.26,30.35,27.09,30.35a45.36,45.36,0,0,0,20.13-4.95l-6.81-22.15a12.94,12.94,0,0,1-6.81,2.48c-4.34,0-6.2-3.56-6.2-11V242.85h16.73V221.94H378.44V192.37H351v29.57H339.58Z"/><path d="M437.75,303.7C455.4,303.7,470,298,478.94,283L459.12,273c-6.66,7.13-10.53,8.83-19.36,8.83-7,0-17.19-4.18-17.19-16.41h57.61a29.64,29.64,0,0,0,.15-3.72c0-27.87-18.43-42.12-42.58-42.12s-43.67,18.89-43.67,42.12C394.08,284.81,413.75,303.7,437.75,303.7Zm.77-66.27c8.05,0,13.78,4.49,15,12.85H423.35C423.81,243,429.08,237.43,438.52,237.43Z"/><path d="M553.73,303.7a35.64,35.64,0,0,0,14.27-3,34.28,34.28,0,0,0,11.74-8.34h.31v9h27.1V221.94H579.74v7.59c-6.5-6.35-15.33-9.91-26-9.91-23.23,0-39.49,18.89-39.49,42.12S530.5,303.7,553.73,303.7Zm8.2-60.7a18.13,18.13,0,0,1,14.86,7.4,19,19,0,0,1,3.57,11.34c0,7-3.2,12.62-8.31,15.8a19,19,0,0,1-10.12,2.78c-11.14,0-18.58-7.74-18.58-18.58C543.35,250.75,551.56,243,561.93,243Z"/><path d="M136.72,319.4a16.06,16.06,0,0,0-6.68,1.45l.64-1.3a37.93,37.93,0,0,0-22.61-7.12c-19.82,0-31,15.95-31.12,39.18v16.87H65.49v20.91H77v58.53h27.4V389.39h18.28V368.48H104.35v-16.1c0-11,1.55-15.64,8.52-15.64a18,18,0,0,1,7.89,2,16.26,16.26,0,1,0,16-19.34Z"/><rect x="122.63" y="368.48" width="27.41" height="79.44"/><path d="M212.13,366.16c-8.67,0-16.57,4.49-22.76,10.69h-.31v-8.37H161.65v79.44h27.41V403c0-7.89,8.05-15.48,16.26-15.48,8.82,0,14.24,7.59,14.24,15.48v44.91H247V395.58C247,373.44,226.69,366.16,212.13,366.16Z"/><path d="M316,376.07c-6.5-6.35-15.33-9.91-26-9.91-23.23,0-39.49,18.89-39.49,42.12s16.26,42,39.49,42a35.18,35.18,0,0,0,26-11.3h.31v9h27.1V314.75H316Zm-17.81,50.79c-11.14,0-18.58-7.74-18.58-18.58s8.21-18.74,18.58-18.74c10.22,0,18.43,7.75,18.43,18.74S308.91,426.86,298.22,426.86Z"/><path d="M536,422.18a41.21,41.21,0,0,0,2.36-13.9c0-24.78-21.06-42.12-47.38-42.12-24.94,0-44.91,15-47.54,37.1-2.64-22.06-22.57-37.1-47.08-37.1-26.79,0-47.85,17.34-47.85,42.12,0,24.47,19.2,42,47.85,42,25.45,0,44.49-15.1,47.07-36.85,2.5,21.75,20.94,36.85,47.55,36.85,13.76,0,25.64-4.41,34.07-11.9A39.16,39.16,0,0,0,536,422.18Zm-139.8,4.68c-11.15,0-18.58-7.74-18.58-18.58s8.21-18.74,18.58-18.74c10.22,0,18.43,7.75,18.43,18.74S406.93,426.86,396.24,426.86Zm94.62,0c-11.15,0-18.58-7.74-18.58-18.58s8.21-18.74,18.58-18.74c10.22,0,18.43,7.75,18.43,18.74S501.55,426.86,490.86,426.86Z"/></g></g></svg>