<svg xmlns="http://www.w3.org/2000/svg" width="684.57" height="502.27" viewBox="0 0 684.57 502.27"><defs><style>.cls-1,.cls-3{fill:#5fcd30;}.cls-1{opacity:0.2;}.cls-2{font-size:44.91px;}.cls-2,.cls-4{font-family:LeagueSpartan-Bold, League Spartan;font-weight:700;}.cls-3{opacity:0.26;}.cls-4{font-size:154.85px;}</style></defs><title>Recurso 2</title><g id="Capa_2" data-name="Capa 2"><g id="Capa_1-2" data-name="Capa 1"><path class="cls-1" d="M0,197,40.84,54.2H65.36L40.27,197ZM45.48,0H85.75L77.23,36.87H37Z"/><text class="cls-2" transform="translate(32.98 109.98)">n</text><text class="cls-2" transform="translate(60.42 109.98)">o</text><text class="cls-2" transform="translate(87.84 109.98)"> </text><text class="cls-2" transform="translate(32.98 152.09)">e</text><text class="cls-2" transform="translate(57.81 152.09)">s</text><text class="cls-2" transform="translate(77.66 152.09)">p</text><text class="cls-2" transform="translate(106.09 152.09)">e</text><text class="cls-2" transform="translate(130.92 152.09)">r</text><text class="cls-2" transform="translate(151.03 152.09)">e</text><text class="cls-2" transform="translate(175.87 152.09)">s</text><text class="cls-2" transform="translate(195.72 152.09)"> </text><text class="cls-2" transform="translate(205.73 152.09)">m</text><text class="cls-2" transform="translate(247.72 152.09)">á</text><text class="cls-2" transform="translate(276.15 152.09)">s</text><text class="cls-2" transform="translate(295.99 152.09)"> </text><text class="cls-2" transform="translate(306.01 152.09)">.</text><text class="cls-2" transform="translate(319.44 152.09)">.</text><text class="cls-2" transform="translate(332.86 152.09)">.</text><path class="cls-3" d="M511.82,495.83l17-73.65h81.92l-17,73.65Zm90.83-393.45h81.92l-81.86,285.2H552.83Z"/><text class="cls-4" transform="translate(63.01 301.38)">ú</text><text class="cls-4" transform="translate(156.85 301.38)">n</text><text class="cls-4" transform="translate(251.47 301.38)">e</text><text class="cls-4" transform="translate(337.1 301.38)">t</text><text class="cls-4" transform="translate(390.52 301.38)">e</text><text class="cls-4" transform="translate(476.15 301.38)"> </text><text class="cls-4" transform="translate(510.68 301.38)">a</text><text class="cls-4" transform="translate(63.01 447.92)">f</text><text class="cls-4" transform="translate(113.34 447.92)">i</text><text class="cls-4" transform="translate(152.36 447.92)">n</text><text class="cls-4" transform="translate(246.97 447.92)">d</text><text class="cls-4" transform="translate(344.99 447.92)">o</text><text class="cls-4" transform="translate(439.61 447.92)">o</text></g></g></svg>