<svg xmlns="http://www.w3.org/2000/svg" width="1308.62" height="409.7" viewBox="0 0 1308.62 409.7"><defs><style>.cls-1{fill:#f1ecec;}.cls-2{isolation:isolate;}.cls-3{fill:#5fcd30;}</style></defs><title>Recurso 1</title><g id="Capa_2" data-name="Capa 2"><g id="Capa_1-2" data-name="Capa 1"><path class="cls-1" d="M31.39,213.37A48.45,48.45,0,0,1,19.05,212a28.61,28.61,0,0,1-8.88-3.79,19.81,19.81,0,0,1-5.78-6,27,27,0,0,1-3.27-7.62A41.81,41.81,0,0,1,0,185.43a84.19,84.19,0,0,1,.37-9.91q.48-4.77,1.47-10.63a82.51,82.51,0,0,1,5.77-19.38,60.94,60.94,0,0,1,10-15.6,41.2,41.2,0,0,1,15-10.66,50.6,50.6,0,0,1,20-3.78l2.64-15h27l-6.46,36.65q-6.72,0-11.88.35a62.1,62.1,0,0,0-9.49,1.42,52.41,52.41,0,0,0-7.14,2.16A17.15,17.15,0,0,0,42,144.44a27.05,27.05,0,0,0-3.9,4.45,26.55,26.55,0,0,0-2.83,6,70.17,70.17,0,0,0-2.12,7.22q-.81,3.52-1.77,8.9-1.17,6.69-.28,10.52t5.27,3.84a13.35,13.35,0,0,0,2-.13,5.86,5.86,0,0,0,2.17-1.06,8.56,8.56,0,0,0,2.35-2.66A23.66,23.66,0,0,0,45,176.68a52,52,0,0,0,1.89-7.79L49.13,156H78.75l-4,22.38Q71.68,195.84,60,204.61T31.39,213.37Zm58-148.79L84.76,90.83h-29l4.62-26.25Z"/><g class="cls-2"><path d="M161.94,41a7.76,7.76,0,1,1-7.79-7.79A7.73,7.73,0,0,1,161.94,41Z"/></g><g class="cls-2"><path d="M182.18,41a7.76,7.76,0,1,1-7.79-7.79A7.73,7.73,0,0,1,182.18,41Z"/></g><g class="cls-2"><path d="M202.42,41a7.76,7.76,0,1,1-7.79-7.79A7.73,7.73,0,0,1,202.42,41Z"/></g><g class="cls-2"><path d="M232.21,32c0,5.34,4.47,7.17,7.51,7.17,3.86,0,5.55-.74,8.46-3.86l8.67,4.34c-3.93,6.56-10.29,9.07-18,9.07-10.49,0-19.09-8.26-19.09-18.35s8.6-18.41,19.09-18.41,18.62,6.22,18.62,18.41a12.24,12.24,0,0,1-.07,1.63Zm13.54-6.64a6.17,6.17,0,0,0-6.57-5.62c-4.13,0-6.43,2.44-6.63,5.62Z"/></g><g class="cls-2"><path d="M259.68,12.93h12v3.66h.13c2.71-2.71,6.16-4.67,10-4.67,6.36,0,15.23,3.18,15.23,12.86V47.66H285V28c0-3.45-2.37-6.77-6.23-6.77-3.59,0-7.11,3.32-7.11,6.77V47.66h-12Z"/></g><g class="cls-2"><path d="M303.08,0h12V12.93h7.31v9.14h-7.31v11c0,3.25.81,4.8,2.71,4.8a5.71,5.71,0,0,0,3-1.08l3,9.68a19.76,19.76,0,0,1-8.8,2.17c-9.54,0-11.84-7.11-11.84-13.27V22.07h-5V12.93h5Z"/></g><g class="cls-2"><path d="M342.82,11.92c11.51,0,20.72,7.58,20.72,18.41s-8.74,18.35-20.72,18.35c-12.53,0-20.92-7.65-20.92-18.35S331.11,11.92,342.82,11.92Zm-.07,26.54a7.81,7.81,0,0,0,8.06-8.13,8.09,8.09,0,1,0-16.18,0A7.75,7.75,0,0,0,342.75,38.46Z"/></g><g class="cls-2"><path d="M365.76,12.93h12v3.66h.13c2.71-2.71,6.16-4.67,10-4.67,6.36,0,15.23,3.18,15.23,12.86V47.66h-12V28c0-3.45-2.37-6.77-6.23-6.77-3.59,0-7.11,3.32-7.11,6.77V47.66h-12Z"/></g><g class="cls-2"><path d="M417.35,30.26a8.41,8.41,0,0,0,8.26,8.6,10.57,10.57,0,0,0,5.82-1.62l4.06,8.32s-3.92,3.12-11.64,3.12c-10,0-19.23-8.13-19.23-18.28s9.14-18.48,19.23-18.48c7.72,0,11.64,3.25,11.64,3.25l-4.06,8.19a10.52,10.52,0,0,0-5.82-1.63A8.39,8.39,0,0,0,417.35,30.26Z"/></g><g class="cls-2"><path d="M446.93,32c0,5.34,4.46,7.17,7.51,7.17,3.86,0,5.55-.74,8.46-3.86l8.67,4.34c-3.93,6.56-10.29,9.07-18,9.07-10.49,0-19.09-8.26-19.09-18.35s8.6-18.41,19.09-18.41,18.62,6.22,18.62,18.41a12.24,12.24,0,0,1-.07,1.63Zm13.54-6.64a6.17,6.17,0,0,0-6.57-5.62c-4.13,0-6.43,2.44-6.64,5.62Z"/></g><g class="cls-2"><path d="M501.16,14.62l-3.93,7.86a19.52,19.52,0,0,0-7.72-2.17c-2.64,0-3.72.48-3.72,2.1,0,1.83,2.44,2.37,5.41,3.32,4.61,1.42,10.57,4,10.57,11.1,0,10.22-9.35,11.85-16.46,11.85A20.78,20.78,0,0,1,471.91,44l4.87-8.19s4.74,4,8.6,4c1.69,0,3.73-.2,3.73-2.51,0-2.5-3.8-2.7-7.72-4.73-3.52-1.83-7-4.27-7-9.48,0-7.11,6-11.17,15.16-11.17A26.63,26.63,0,0,1,501.16,14.62Z"/></g><g class="cls-2"><path class="cls-3" d="M112.34,143.44a14.8,14.8,0,0,0,14.53,15.12,18.58,18.58,0,0,0,10.24-2.86l7.15,14.65s-6.91,5.48-20.49,5.48c-17.62,0-33.82-14.29-33.82-32.16s16.08-32.51,33.82-32.51c13.58,0,20.49,5.72,20.49,5.72l-7.15,14.41a18.58,18.58,0,0,0-10.24-2.86A14.77,14.77,0,0,0,112.34,143.44Z"/></g><g class="cls-2"><path class="cls-3" d="M142.46,143.55c0-19.05,16.2-32.39,36.8-32.39,20.25,0,36.44,13.34,36.44,32.39,0,18.82-15.36,32.28-36.44,32.28C157.23,175.83,142.46,162.37,142.46,143.55Zm22.39,0c0,8.34,5.72,14.3,14.29,14.3,8.22,0,14.17-6,14.17-14.3a14.23,14.23,0,1,0-28.46,0ZM167.35,95l6.67,9.17L202.37,87.7,191.53,74Z"/></g><g class="cls-2"><path class="cls-3" d="M219.63,113h21.08v6.43H241c4.76-4.77,10.83-8.22,17.5-8.22,8.1,0,17,3,21.32,11.2,6.43-7.75,13.58-11.2,20.25-11.2,11.19,0,23.82,5.6,23.82,22.63V174H302.76V139.51c0-6.08-3.22-11.44-10.72-11.44-6.67,0-9.53,4.89-9.77,9.53V174H261.19V139.51c0-6.08-3.21-11.44-10.72-11.44-7,0-9.76,5.36-9.76,10.24V174H219.63Z"/></g><g class="cls-2"><path class="cls-3" d="M363.36,111.16c20.25,0,36.44,13.34,36.44,32.39,0,18.82-15.36,32.28-36.44,32.28-22,0-36.8-13.46-36.8-32.28C326.56,124.5,342.76,111.16,363.36,111.16Zm-.12,46.69c8.22,0,14.17-6,14.17-14.3a14.23,14.23,0,1,0-28.46,0C349,151.89,354.67,157.85,363.24,157.85Z"/></g><g class="cls-2"><path d="M427.77,159.51c0,5.34,4.47,7.17,7.51,7.17,3.86,0,5.55-.74,8.46-3.86l8.67,4.34c-3.93,6.56-10.29,9.07-18,9.07-10.49,0-19.09-8.26-19.09-18.35s8.6-18.41,19.09-18.41S453,145.69,453,157.88a12.24,12.24,0,0,1-.07,1.63Zm13.54-6.64a6.17,6.17,0,0,0-6.57-5.62c-4.13,0-6.43,2.44-6.63,5.62Z"/></g><g class="cls-2"><path d="M455.25,140.48h12v3.66h.13c2.71-2.71,6.16-4.67,10-4.67,6.36,0,15.23,3.18,15.23,12.86v22.88h-12V155.58c0-3.45-2.37-6.77-6.23-6.77-3.59,0-7.11,3.32-7.11,6.77v19.63h-12Z"/></g><g class="cls-2"><path d="M506.84,157.81a8.41,8.41,0,0,0,8.26,8.6,10.57,10.57,0,0,0,5.82-1.62l4.06,8.32s-3.93,3.12-11.64,3.12c-10,0-19.23-8.13-19.23-18.28s9.14-18.48,19.23-18.48c7.71,0,11.64,3.24,11.64,3.24l-4.06,8.2a10.52,10.52,0,0,0-5.82-1.63A8.39,8.39,0,0,0,506.84,157.81Z"/></g><g class="cls-2"><path d="M537.77,157c0,6.84,1.83,9.48,6.84,9.48s6.84-2.64,6.84-9.48V140.48h12v19.43c0,11.65-5.82,16.32-18.82,16.32s-18.82-4.67-18.82-16.32V140.48h12Z"/></g><g class="cls-2"><path d="M577.44,159.51c0,5.34,4.47,7.17,7.51,7.17,3.86,0,5.55-.74,8.46-3.86l8.67,4.34c-3.93,6.56-10.29,9.07-18,9.07-10.49,0-19.09-8.26-19.09-18.35s8.6-18.41,19.09-18.41,18.62,6.22,18.62,18.41a12.24,12.24,0,0,1-.07,1.63ZM591,152.87a6.17,6.17,0,0,0-6.57-5.62c-4.13,0-6.43,2.44-6.63,5.62Z"/></g><g class="cls-2"><path d="M604.92,140.48h12v3.66H617c2.71-2.71,6.16-4.67,10-4.67,6.36,0,15.23,3.18,15.23,12.86v22.88h-12V155.58c0-3.45-2.37-6.77-6.23-6.77-3.59,0-7.11,3.32-7.11,6.77v19.63h-12Z"/></g><g class="cls-2"><path d="M648.32,127.55h12v12.93h7.31v9.14H660.3v11c0,3.25.81,4.8,2.71,4.8a5.71,5.71,0,0,0,3-1.08l3,9.68a19.76,19.76,0,0,1-8.8,2.17c-9.54,0-11.84-7.11-11.84-13.27V149.62h-5v-9.14h5Z"/></g><g class="cls-2"><path d="M669.63,140.48h12v5h.13s3.79-6,10.63-6a14.45,14.45,0,0,1,7.59,2.16l-5,10.16a10.12,10.12,0,0,0-6.23-1.9c-6.23,0-7.11,6.16-7.11,7v18.28h-12Z"/></g><g class="cls-2"><path d="M714.72,139.47a15.79,15.79,0,0,1,11.38,4.33v-3.32h12v34.73H726.23v-3.92h-.13a15.4,15.4,0,0,1-11.38,4.94c-10.15,0-17.26-8.19-17.26-18.35S704.57,139.47,714.72,139.47ZM718.31,166a7.81,7.81,0,0,0,8.06-8.12,8.09,8.09,0,1,0-16.18,0A7.74,7.74,0,0,0,718.31,166Z"/></g><g class="cls-2"><path d="M769.56,142.17,765.63,150a19.52,19.52,0,0,0-7.72-2.17c-2.64,0-3.72.47-3.72,2.1,0,1.83,2.44,2.37,5.41,3.32,4.61,1.42,10.57,4,10.57,11.1,0,10.22-9.35,11.85-16.46,11.85a20.78,20.78,0,0,1-13.4-4.67l4.87-8.19s4.74,4,8.6,4c1.69,0,3.73-.2,3.73-2.51,0-2.5-3.8-2.7-7.72-4.73-3.52-1.83-7-4.27-7-9.48,0-7.11,6-11.17,15.16-11.17A26.63,26.63,0,0,1,769.56,142.17Z"/></g><g class="cls-2"><path d="M802.59,139.47A15.79,15.79,0,0,1,814,143.8v-3.32h12v34.73H814.1v-3.92H814a15.4,15.4,0,0,1-11.38,4.94c-10.15,0-17.26-8.19-17.26-18.35S792.44,139.47,802.59,139.47ZM806.18,166a7.81,7.81,0,0,0,8.06-8.12,8.09,8.09,0,1,0-16.18,0A7.74,7.74,0,0,0,806.18,166Z"/></g><g class="cls-2"><path d="M845.77,117h12v58.22h-12Z"/></g><g class="cls-2"><path d="M880.91,139.47c11.51,0,20.72,7.58,20.72,18.41s-8.74,18.35-20.72,18.35c-12.53,0-20.92-7.65-20.92-18.35S869.2,139.47,880.91,139.47ZM880.84,166a7.81,7.81,0,0,0,8.06-8.12,8.09,8.09,0,1,0-16.18,0A7.74,7.74,0,0,0,880.84,166Z"/></g><g class="cls-2"><path d="M930.6,142.17,926.67,150a19.52,19.52,0,0,0-7.72-2.17c-2.64,0-3.72.47-3.72,2.1,0,1.83,2.44,2.37,5.41,3.32,4.61,1.42,10.57,4,10.57,11.1,0,10.22-9.35,11.85-16.46,11.85a20.78,20.78,0,0,1-13.4-4.67l4.87-8.19s4.74,4,8.6,4c1.69,0,3.73-.2,3.73-2.51,0-2.5-3.8-2.7-7.72-4.73-3.52-1.83-7-4.27-7-9.48,0-7.11,6-11.17,15.16-11.17A26.58,26.58,0,0,1,930.6,142.17Z"/></g><path class="cls-1" d="M1068.72,409.7l15.14-64.89h72.43l-15.15,64.89ZM1233.86,41.89a121.17,121.17,0,0,1,30.65,3.48q13.24,3.5,21.68,9.37a45.55,45.55,0,0,1,13.67,14.93A62.54,62.54,0,0,1,1307,88.51a98.46,98.46,0,0,1,1.52,22.54,205.06,205.06,0,0,1-2.28,24.5q-1.83,11.76-5.19,26.13a212.81,212.81,0,0,1-17.06,47.9,161.58,161.58,0,0,1-27,38.55,111.11,111.11,0,0,1-38.83,26.35q-22.71,9.36-50.44,9.36l-8.64,37H1091.7l21.16-90.57q16.8,0,29.74-.87a152.82,152.82,0,0,0,23.52-3.27,128.69,128.69,0,0,0,18.14-5.33,46,46,0,0,0,13.8-8.39,70.48,70.48,0,0,0,10.35-11,68.24,68.24,0,0,0,7.89-14.7,179.23,179.23,0,0,0,6.29-17.86q2.55-8.7,5.64-22,3.87-16.53,2.13-26t-12.66-9.47a32.49,32.49,0,0,0-4.93.32,15.81,15.81,0,0,0-5.57,2.61,23.13,23.13,0,0,0-6.23,6.32,64.07,64.07,0,0,0-5.93,12,136.13,136.13,0,0,0-5.81,19.27l-7.43,31.79h-74l12.91-55.31q10.08-43.11,40.51-64.78T1233.86,41.89Z"/><g class="cls-2"><path class="cls-3" d="M553.92,261.25a14.8,14.8,0,0,0,14.53,15.12,18.58,18.58,0,0,0,10.24-2.86l7.15,14.65s-6.91,5.48-20.49,5.48c-17.62,0-33.82-14.29-33.82-32.16S547.61,229,565.35,229c13.58,0,20.49,5.72,20.49,5.72l-7.15,14.41a18.58,18.58,0,0,0-10.24-2.86A14.77,14.77,0,0,0,553.92,261.25Z"/></g><g class="cls-2"><path class="cls-3" d="M588.45,189.43h21.08V291.85H588.45Z"/></g><g class="cls-2"><path class="cls-3" d="M641.21,205.51A12.51,12.51,0,1,1,628.71,193,12.5,12.5,0,0,1,641.21,205.51Zm-23.34,86.34H639V230.76H617.87Z"/></g><g class="cls-2"><path class="cls-3" d="M665.37,264.22c0,9.41,7.87,12.63,13.22,12.63,6.79,0,9.77-1.31,14.89-6.79l15.25,7.62c-6.91,11.55-18.11,16-31.68,16-18.46,0-33.59-14.53-33.59-32.28S658.59,229,677.05,229s32.75,11,32.75,32.39a21.79,21.79,0,0,1-.12,2.86Zm23.82-11.67c-1-6.43-5.36-9.88-11.55-9.88-7.26,0-11.31,4.28-11.67,9.88Z"/></g><g class="cls-2"><path class="cls-3" d="M713.72,230.76H734.8v6.43H735c4.76-4.77,10.83-8.22,17.5-8.22,11.2,0,26.8,5.6,26.8,22.63v40.25H758.26V257.32c0-6.08-4.17-11.91-11-11.91-6.31,0-12.5,5.83-12.5,11.91v34.53H713.72Z"/></g><g class="cls-2"><path class="cls-3" d="M790.05,208h21.08v22.75H824v16.08H811.13v19.41c0,5.71,1.43,8.45,4.76,8.45a10,10,0,0,0,5.24-1.9l5.24,17a34.84,34.84,0,0,1-15.48,3.81c-16.79,0-20.84-12.51-20.84-23.34V246.84h-8.81V230.76h8.81Z"/></g><g class="cls-2"><path class="cls-3" d="M845.07,264.22c0,9.41,7.86,12.63,13.22,12.63,6.79,0,9.77-1.31,14.89-6.79l15.24,7.62c-6.9,11.55-18.1,16-31.67,16-18.46,0-33.59-14.53-33.59-32.28S838.29,229,856.75,229s32.75,11,32.75,32.39a21.79,21.79,0,0,1-.12,2.86Zm23.82-11.67c-.95-6.43-5.36-9.88-11.55-9.88-7.26,0-11.31,4.28-11.67,9.88Z"/></g><g class="cls-2"><path class="cls-3" d="M940.46,233.73l-6.91,13.82s-7.14-3.81-13.57-3.81c-4.65,0-6.55.83-6.55,3.69,0,3.22,4.28,4.17,9.52,5.84,8.1,2.5,18.58,7,18.58,19.53,0,18-16.43,20.84-28.94,20.84A36.54,36.54,0,0,1,889,285.42L897.59,271s8.33,7,15.12,7c3,0,6.55-.36,6.55-4.41,0-4.4-6.67-4.76-13.58-8.34-6.19-3.21-12.38-7.5-12.38-16.67,0-12.5,10.6-19.65,26.68-19.65A46.65,46.65,0,0,1,940.46,233.73Z"/></g><g class="cls-2"><path class="cls-3" d="M553.92,374.19a14.8,14.8,0,0,0,14.53,15.12,18.58,18.58,0,0,0,10.24-2.86l7.15,14.65s-6.91,5.48-20.49,5.48c-17.62,0-33.82-14.29-33.82-32.16s16.08-32.51,33.82-32.51c13.58,0,20.49,5.72,20.49,5.72L578.69,362a18.58,18.58,0,0,0-10.24-2.86A14.77,14.77,0,0,0,553.92,374.19Z"/></g><g class="cls-2"><path class="cls-3" d="M620.84,341.91c20.25,0,36.44,13.34,36.44,32.4,0,18.81-15.36,32.27-36.44,32.27-22,0-36.8-13.46-36.8-32.27C584,355.25,600.24,341.91,620.84,341.91Zm-.12,46.69c8.22,0,14.17-6,14.17-14.29a14.23,14.23,0,1,0-28.46,0C606.43,382.64,612.15,388.6,620.72,388.6Z"/></g><g class="cls-2"><path class="cls-3" d="M661.21,343.7h21.08v8.81h.24s6.67-10.6,18.69-10.6a25.32,25.32,0,0,1,13.34,3.81l-8.81,17.87s-3.93-3.34-11-3.34c-10.95,0-12.5,10.84-12.5,12.39v32.15H661.21Z"/></g><g class="cls-2"><path class="cls-3" d="M714.56,343.7h21.08v8.81h.24s6.66-10.6,18.69-10.6a25.32,25.32,0,0,1,13.34,3.81l-8.81,17.87s-3.93-3.34-11-3.34c-10.95,0-12.5,10.84-12.5,12.39v32.15H714.56Z"/></g><g class="cls-2"><path class="cls-3" d="M785.41,377.16c0,9.41,7.87,12.63,13.22,12.63,6.79,0,9.77-1.31,14.89-6.79l15.25,7.62c-6.91,11.55-18.11,16-31.68,16-18.46,0-33.59-14.53-33.59-32.27s15.13-32.4,33.59-32.4,32.75,11,32.75,32.4a21.71,21.71,0,0,1-.12,2.85Zm23.82-11.67c-1-6.43-5.36-9.88-11.55-9.88-7.26,0-11.31,4.29-11.67,9.88Z"/></g><g class="cls-2"><path class="cls-3" d="M851.74,374.19a14.8,14.8,0,0,0,14.53,15.12,18.58,18.58,0,0,0,10.24-2.86l7.15,14.65s-6.91,5.48-20.49,5.48c-17.62,0-33.82-14.29-33.82-32.16s16.08-32.51,33.82-32.51c13.58,0,20.49,5.72,20.49,5.72L876.51,362a18.58,18.58,0,0,0-10.24-2.86A14.77,14.77,0,0,0,851.74,374.19Z"/></g><g class="cls-2"><path class="cls-3" d="M889.84,321h21.08V343.7h12.86v16.08H910.92v19.41c0,5.71,1.43,8.45,4.76,8.45a10,10,0,0,0,5.24-1.9l5.24,17a34.84,34.84,0,0,1-15.48,3.81c-16.79,0-20.84-12.51-20.84-23.34V359.78H881V343.7h8.81Z"/></g><g class="cls-2"><path class="cls-3" d="M959.74,341.91c20.25,0,36.44,13.34,36.44,32.4,0,18.81-15.36,32.27-36.44,32.27-22,0-36.8-13.46-36.8-32.27C922.94,355.25,939.14,341.91,959.74,341.91Zm-.12,46.69c8.22,0,14.17-6,14.17-14.29a14.23,14.23,0,1,0-28.46,0C945.33,382.64,951.05,388.6,959.62,388.6Z"/></g><g class="cls-2"><path class="cls-3" d="M1047.15,346.68l-6.91,13.81s-7.14-3.81-13.57-3.81c-4.65,0-6.55.83-6.55,3.69,0,3.22,4.28,4.17,9.52,5.84,8.1,2.5,18.58,7,18.58,19.53,0,18-16.43,20.84-28.94,20.84a36.54,36.54,0,0,1-23.58-8.22l8.58-14.41s8.33,7,15.12,7c3,0,6.55-.36,6.55-4.41,0-4.4-6.67-4.76-13.58-8.34-6.19-3.21-12.38-7.5-12.38-16.67,0-12.5,10.6-19.65,26.68-19.65A46.57,46.57,0,0,1,1047.15,346.68Z"/></g></g></g></svg>