<svg xmlns="http://www.w3.org/2000/svg" width="74.37" height="35.41" viewBox="0 0 74.37 35.41"><defs><style>.cls-1{fill:#fff;}</style></defs><title>logo-findoo-white_1</title><g id="Capa_2" data-name="Capa 2"><g id="Capa_1-2" data-name="Capa 1"><path class="cls-1" d="M72,8.71A17.29,17.29,0,0,0,65.6,2.35,17.85,17.85,0,0,0,56.51,0H17.86A17.94,17.94,0,0,0,8.77,2.35,17.19,17.19,0,0,0,2.35,8.71a17.4,17.4,0,0,0-2.35,9,17.73,17.73,0,0,0,2.35,9,16.84,16.84,0,0,0,6.42,6.39,18,18,0,0,0,9.09,2.32A19.12,19.12,0,0,0,27,33.25a16.23,16.23,0,0,0,6.4-5.91A15.67,15.67,0,0,0,35.66,19a15.77,15.77,0,0,0-5.85-12.4H44.55A15.84,15.84,0,0,0,38.71,19,15.63,15.63,0,0,0,41,27.34a16.28,16.28,0,0,0,6.39,5.91,19.23,19.23,0,0,0,9.09,2.15,18.12,18.12,0,0,0,9.09-2.31A16.93,16.93,0,0,0,72,26.7a17.83,17.83,0,0,0,2.34-9A17.44,17.44,0,0,0,72,8.71Zm-42.15,9a11,11,0,0,1-1.58,5.82A11.4,11.4,0,0,1,24,27.6a12.44,12.44,0,0,1-6.14,1.51,12.61,12.61,0,0,1-6.17-1.51,11.34,11.34,0,0,1-4.33-4.11,11,11,0,0,1-1.58-5.82,11,11,0,0,1,5.91-9.89A12.82,12.82,0,0,1,17.86,6.3,12.64,12.64,0,0,1,24,7.78a11.08,11.08,0,0,1,5.88,9.89ZM67,23.48a11.32,11.32,0,0,1-4.34,4.12,12.72,12.72,0,0,1-6.17,1.5,12.51,12.51,0,0,1-6.13-1.5,11.31,11.31,0,0,1-4.31-4.12,11,11,0,0,1-1.57-5.81,11,11,0,0,1,5.88-9.9A12.71,12.71,0,0,1,56.51,6.3a12.93,12.93,0,0,1,6.17,1.47,11,11,0,0,1,5.91,9.9A11,11,0,0,1,67,23.48Z"/></g></g></svg>