<svg xmlns="http://www.w3.org/2000/svg" width="50.75" height="24.16" viewBox="0 0 50.75 24.16"><defs><style>.cls-1{fill:#d4d1d1;}</style></defs><title>logo-findoo-grey</title><g id="Capa_2" data-name="Capa 2"><g id="Capa_1-2" data-name="Capa 1"><path class="cls-1" d="M49.15,5.94A11.8,11.8,0,0,0,44.76,1.6,12.16,12.16,0,0,0,38.56,0H12.19A12.33,12.33,0,0,0,6,1.6,11.83,11.83,0,0,0,0,12.06a12.12,12.12,0,0,0,1.6,6.16A11.53,11.53,0,0,0,6,22.58a12.41,12.41,0,0,0,6.21,1.58,13.07,13.07,0,0,0,6.2-1.47,11,11,0,0,0,4.36-4,10.64,10.64,0,0,0,1.58-5.72,10.82,10.82,0,0,0-1-4.74,10.66,10.66,0,0,0-2.94-3.72H30.4a10.77,10.77,0,0,0-4,8.45A10.69,10.69,0,0,0,28,18.65a11.14,11.14,0,0,0,4.37,4,13,13,0,0,0,6.2,1.47,12.35,12.35,0,0,0,6.2-1.58,11.56,11.56,0,0,0,4.39-4.36,12.12,12.12,0,0,0,1.6-6.16A11.9,11.9,0,0,0,49.15,5.94ZM20.39,12.06a7.51,7.51,0,0,1-1.08,4,7.62,7.62,0,0,1-2.94,2.8,8.44,8.44,0,0,1-4.18,1,8.61,8.61,0,0,1-4.21-1A7.67,7.67,0,0,1,5,16a7.5,7.5,0,0,1-1.07-4A7.48,7.48,0,0,1,8,5.31a8.82,8.82,0,0,1,4.21-1,8.64,8.64,0,0,1,4.18,1,7.54,7.54,0,0,1,4,6.75Zm25.34,4a7.7,7.7,0,0,1-3,2.81,8.61,8.61,0,0,1-4.21,1,8.5,8.5,0,0,1-4.19-1A7.69,7.69,0,0,1,31.44,16a7.45,7.45,0,0,1-1.08-4,7.49,7.49,0,0,1,1.08-4A7.56,7.56,0,0,1,34.37,5.3a8.71,8.71,0,0,1,4.19-1,8.81,8.81,0,0,1,4.21,1,7.51,7.51,0,0,1,4,6.76A7.54,7.54,0,0,1,45.73,16Z"/></g></g></svg>