<svg xmlns="http://www.w3.org/2000/svg" width="97.82" height="46.57" viewBox="0 0 97.82 46.57"><defs><style>.cls-1{fill:#fff;}</style></defs><title>logo-findoo-white</title><g id="Capa_2" data-name="Capa 2"><g id="Capa_1-2" data-name="Capa 1"><path class="cls-1" d="M94.74,11.45a22.77,22.77,0,0,0-8.45-8.37A23.65,23.65,0,0,0,74.33,0H23.49A23.49,23.49,0,0,0,11.54,3.09,22.77,22.77,0,0,0,0,23.25,23.48,23.48,0,0,0,3.08,35.12a22.26,22.26,0,0,0,8.46,8.41,23.76,23.76,0,0,0,12,3,25.2,25.2,0,0,0,12-2.83A21.4,21.4,0,0,0,43.86,36a20.64,20.64,0,0,0,3-11A20.78,20.78,0,0,0,39.21,8.63H58.6a20.77,20.77,0,0,0-7.68,16.3,20.7,20.7,0,0,0,3,11,21.32,21.32,0,0,0,8.41,7.77,25.22,25.22,0,0,0,12,2.83,23.82,23.82,0,0,0,12-3,22.23,22.23,0,0,0,8.45-8.41,23.32,23.32,0,0,0,3.08-11.87A22.9,22.9,0,0,0,94.74,11.45ZM39.3,23.25a14.54,14.54,0,0,1-2.07,7.65,14.94,14.94,0,0,1-5.67,5.4,16.31,16.31,0,0,1-8.07,2,16.57,16.57,0,0,1-8.11-2,14.82,14.82,0,0,1-5.7-5.4,14.44,14.44,0,0,1-2.07-7.65A14.39,14.39,0,0,1,9.68,15.6a14.6,14.6,0,0,1,5.7-5.37,17,17,0,0,1,8.11-1.94,16.72,16.72,0,0,1,8.07,1.94,14.72,14.72,0,0,1,5.67,5.37A14.48,14.48,0,0,1,39.3,23.25Zm48.85,7.64a14.87,14.87,0,0,1-5.71,5.41,16.65,16.65,0,0,1-8.11,2,16.41,16.41,0,0,1-8.07-2,15,15,0,0,1-5.66-5.41,14.48,14.48,0,0,1-2.07-7.65,14.52,14.52,0,0,1,7.73-13,16.61,16.61,0,0,1,8.07-2,16.85,16.85,0,0,1,8.11,2,14.44,14.44,0,0,1,7.78,13A14.48,14.48,0,0,1,88.15,30.89Z"/></g></g></svg>